<svg xmlns="http://www.w3.org/2000/svg" viewBox="0 0 500 500"><g id="freepik--Rocket--inject-625"><path d="M233.64,122.84c-.71-.85-41.85-19.93-79.11,8.5-34.25,26.14-46.14,75.27-41.59,76.45,5.57,1.44,20.83-22,50.12-34.89,10.39-4.57,26.92,0,26.92,0Z" style="fill:#FFC727"></path><path d="M190,172.89a65.08,65.08,0,0,0-15-2c6.46-13.52,18.52-38.74,26.35-55.08,18.43.17,31.93,6.56,32.34,7Z" style="opacity:0.1"></path><path d="M301.41,202.77c.72.84,12.82,44.55-21.33,76.65-31.39,29.52-81.8,33.21-82.22,28.53-.51-5.73,25.12-16.95,42.62-43.74,6.2-9.5,4.41-26.56,4.41-26.56Z" style="fill:#FFC727"></path><path d="M303,236.05l-58.66,17.07a65.15,65.15,0,0,0,.51-15.47l56.52-34.88C301.82,203.25,306,217.74,303,236.05Z" style="opacity:0.1"></path><path d="M205.63,256.2l-40.18-47.39s21-56.19,70.76-93.93c24.87-18.83,54-32.92,80.17-42.24C352.43,59.72,382.59,56,387.26,61.48s-4,34.66-22.58,68.13c-13.49,24.21-32.17,50.69-54.81,72.15C264.49,244.72,205.63,256.2,205.63,256.2Z" style="fill:#c7c7c7"></path><path d="M303.24,181.47A35.83,35.83,0,1,1,307.4,131,35.84,35.84,0,0,1,303.24,181.47Z" style="fill:#a6a6a6"></path><path d="M305.2,178.14a35.83,35.83,0,1,1,4.16-50.5A35.84,35.84,0,0,1,305.2,178.14Z" style="fill:#FFC727"></path><path d="M298.11,169.75a24.85,24.85,0,1,1,2.86-35A24.85,24.85,0,0,1,298.11,169.75Z" style="fill:#fff"></path><path d="M298.12,169.75a24.83,24.83,0,0,1-7.95,4.55l-20-1.63a24.68,24.68,0,0,1-7.1-5.78,24.36,24.36,0,0,1-3.61-5.65l43.1,3.51A24.49,24.49,0,0,1,298.12,169.75Z" style="fill:#ebebeb"></path><path d="M303.12,137.68l-39.78-3.24a24.29,24.29,0,0,1,2.6-2.57,24.84,24.84,0,0,1,35,2.86A24.11,24.11,0,0,1,303.12,137.68Z" style="fill:#ebebeb"></path><path d="M305.28,159.6l-47.6-3.89a20,20,0,0,1-.35-2.21l48.64,4C305.78,158.18,305.54,158.89,305.28,159.6Z" style="fill:#ebebeb"></path><path d="M364.68,129.61l-48.3-57C352.43,59.72,382.59,56,387.26,61.48S383.3,96.14,364.68,129.61Z" style="fill:#FFC727"></path><path d="M330.58,77.45a2.09,2.09,0,1,1,.24-2.94A2.09,2.09,0,0,1,330.58,77.45Z" style="fill:#fff"></path><path d="M339.17,87.59a2.09,2.09,0,1,1-2.7-3.19,2.09,2.09,0,0,1,2.7,3.19Z" style="fill:#fff"></path><path d="M347.76,97.72a2.09,2.09,0,1,1,.25-3A2.08,2.08,0,0,1,347.76,97.72Z" style="fill:#fff"></path><path d="M356.36,107.86a2.09,2.09,0,1,1,.24-3A2.09,2.09,0,0,1,356.36,107.86Z" style="fill:#fff"></path><path d="M365,118a2.09,2.09,0,1,1,.24-2.95A2.09,2.09,0,0,1,365,118Z" style="fill:#fff"></path><path d="M177,207.7a2.09,2.09,0,0,1-2.7-3.19,2.09,2.09,0,1,1,2.7,3.19Z" style="fill:#a6a6a6"></path><path d="M185.64,217.84a2.09,2.09,0,1,1,.24-3A2.09,2.09,0,0,1,185.64,217.84Z" style="fill:#a6a6a6"></path><path d="M194.23,228a2.09,2.09,0,1,1,.24-2.95A2.09,2.09,0,0,1,194.23,228Z" style="fill:#a6a6a6"></path><path d="M202.82,238.11a2.09,2.09,0,1,1,.24-3A2.09,2.09,0,0,1,202.82,238.11Z" style="fill:#a6a6a6"></path><path d="M211.41,248.24a2.09,2.09,0,1,1,.25-3A2.08,2.08,0,0,1,211.41,248.24Z" style="fill:#a6a6a6"></path><path d="M385,60.07c-27.82,2-76,18.84-126.69,58.6-37.46,29.37-64.79,80.77-77.53,108.22l-15.33-18.08s21-56.19,70.76-93.93c24.87-18.83,54-32.92,80.17-42.24C348.69,61.05,376.26,56.85,385,60.07Z" style="fill:#fff;opacity:0.2"></path><polygon points="187.68 263.92 155.01 225.38 167.72 211.49 203.46 253.65 187.68 263.92" style="fill:#FFC727"></polygon><polygon points="203.46 253.65 195.77 258.65 162.86 216.8 167.72 211.5 203.46 253.65" style="opacity:0.1"></polygon><polygon points="364.17 134.76 349.24 133.76 342.22 147.98 342.86 132.14 329.28 125.86 344.36 126.01 351.22 112.64 350.86 127.66 364.17 134.76" style="fill:#fcfcfc"></polygon><polygon points="360.5 79.61 352.15 79.06 348.23 87.01 348.59 78.15 341 74.64 349.43 74.72 353.26 67.25 353.06 75.65 360.5 79.61" style="fill:#fcfcfc"></polygon><polygon points="292.98 249.13 284.64 248.57 280.72 256.52 281.07 247.67 273.48 244.16 281.91 244.24 285.75 236.77 285.54 245.17 292.98 249.13" style="fill:#fcfcfc"></polygon><polygon points="144.46 175.38 136.11 174.82 132.19 182.77 132.55 173.92 124.96 170.41 133.39 170.49 137.22 163.02 137.02 171.41 144.46 175.38" style="fill:#fcfcfc"></polygon><path d="M180.5,255.32c-15.15,10.21-28.52,23.24-38.28,38.81a104.42,104.42,0,0,0-16.39,52.25,95.75,95.75,0,0,0,3.41,27.88,99.77,99.77,0,0,0,11.56,26.2A114.55,114.55,0,0,0,159.41,423a144.89,144.89,0,0,0,23.72,18,146,146,0,0,1-26-15.31,119.07,119.07,0,0,1-22-21.18,107.34,107.34,0,0,1-23.22-57.64c-1.88-21.31,2.62-43.18,11.94-62.69s23.25-36.84,39.71-51Z" style="fill:#FFC727;opacity:0.6000000000000001"></path><polygon points="154.59 278.55 148.63 279.65 147.3 285.93 145.97 279.65 140.01 278.54 145.95 277.09 147.3 271.16 148.66 277.09 154.59 278.55" style="fill:#fff"></polygon><polygon points="132.66 396.18 129.33 396.8 128.59 400.31 127.84 396.8 124.51 396.18 127.83 395.37 128.59 392.06 129.35 395.37 132.66 396.18" style="fill:#fff"></polygon><polygon points="130.87 365.71 127.54 366.32 126.8 369.84 126.06 366.32 122.72 365.71 126.04 364.9 126.8 361.58 127.56 364.9 130.87 365.71" style="fill:#fff"></polygon><polygon points="150.19 258.96 146.86 259.58 146.11 263.09 145.37 259.58 142.04 258.96 145.36 258.15 146.11 254.84 146.87 258.15 150.19 258.96" style="fill:#fff"></polygon><path d="M140.54,403.78a1,1,0,0,0,0,1.93A1,1,0,0,0,140.54,403.78Z" style="fill:#fff"></path><path d="M168.1,254.26a1,1,0,0,0,0,1.93A1,1,0,0,0,168.1,254.26Z" style="fill:#fff"></path><path d="M116.12,340.37a1,1,0,0,0,0,1.93A1,1,0,0,0,116.12,340.37Z" style="fill:#fff"></path><path d="M138.82,398.75a.69.69,0,0,0,0,1.37A.69.69,0,0,0,138.82,398.75Z" style="fill:#fff"></path><path d="M115.77,306.63a.68.68,0,0,0,0,1.36A.68.68,0,0,0,115.77,306.63Z" style="fill:#fff"></path><path d="M122.72,376.49a1.86,1.86,0,0,0,0,3.71A1.86,1.86,0,0,0,122.72,376.49Z" style="fill:#fff"></path><path d="M124.51,300.35a1.85,1.85,0,0,0,0,3.7A1.85,1.85,0,0,0,124.51,300.35Z" style="fill:#fff"></path></g></svg>