<svg xmlns="http://www.w3.org/2000/svg" viewBox="0 0 500 500"><g id="freepik--Plant--inject-24"><path d="M405.13,365.55l13.56,7.88s-6.84-21.84-3-43.81c1.43-8.29,4.44-12.41,5.51-14.62s9.24-15.91,2-22.23-24.08,6.25-23.32,40.08A131.63,131.63,0,0,0,405.13,365.55Z" style="fill:#BA68C8"></path><path d="M405.13,365.55l13.56,7.88s-6.84-21.84-3-43.81c1.43-8.29,4.44-12.41,5.51-14.62s9.24-15.91,2-22.23-24.08,6.25-23.32,40.08A131.63,131.63,0,0,0,405.13,365.55Z" style="opacity:0.30000000000000004"></path><path d="M411.43,369.71a.5.5,0,0,1-.46-.33c-.05-.14-5.17-14.35-4.9-37.16S418.38,297.09,418.5,297a.49.49,0,1,1,.69.7c-.12.11-11.87,12.07-12.13,34.56s4.79,36.68,4.84,36.81a.49.49,0,0,1-.3.63A.33.33,0,0,1,411.43,369.71Z" style="fill:#fff"></path><path d="M409,367.59l22.4,13.18s10.25-1.52,9.47-11.17-4.94-11.93.25-16.17,6.53-4.52,6.28-8.68-3.05-6-4.36-7.62-5-5.1-2.41-10.11,6.08-9.86.89-12.16c-3.1-1.37-8.31.35-11.77,4s-6.3,6.3-9.58,7.15-10.1.92-9.87,6.56,1.7,7.59.33,10.1C408,347.4,397,349.94,409,367.59Z" style="fill:#BA68C8"></path><path d="M418.07,373.45a.5.5,0,0,1-.49-.45c0-.34-2.46-33.67,20.7-55.56a.49.49,0,0,1,.67.71c-22.81,21.56-20.42,54.44-20.39,54.77a.5.5,0,0,1-.45.53Z" style="fill:#fff"></path><path d="M422.08,344.83a.48.48,0,0,1-.48-.45A19.18,19.18,0,0,0,414.74,331a.48.48,0,0,1-.11-.68.49.49,0,0,1,.68-.12,19.77,19.77,0,0,1,7.26,14.13.49.49,0,0,1-.45.53Z" style="fill:#fff"></path><path d="M420.43,350.53a.48.48,0,0,1-.33-.13.49.49,0,0,1,0-.69c.24-.27,6-6.53,19.47-4.69a.49.49,0,0,1,.42.55.48.48,0,0,1-.55.42c-12.88-1.77-18.56,4.32-18.61,4.38A.52.52,0,0,1,420.43,350.53Z" style="fill:#fff"></path></g><g id="freepik--Envelope--inject-24"><path d="M412,196.26,305.5,23.21A10.1,10.1,0,0,0,292,19.65L196.85,72Z" style="fill:#BA68C8"></path><path d="M412,196.26,196.85,72V259.33a17.93,17.93,0,0,0,9,15.54L397,385.22A10.06,10.06,0,0,0,412,376.5Z" style="fill:#BA68C8"></path><g style="opacity:0.30000000000000004"><path d="M412,196.26,305.5,23.21A10.1,10.1,0,0,0,292,19.65L196.85,72Z" style="fill:#fff"></path><path d="M412,196.26,196.85,72V259.33a17.93,17.93,0,0,0,9,15.54L397,385.22A10.06,10.06,0,0,0,412,376.5Z" style="fill:#fff"></path></g><path d="M407,198.28,300.44,25.22A10.1,10.1,0,0,0,287,21.66L191.79,74Z" style="fill:#BA68C8"></path><path d="M407,198.28,300.44,25.22A10.1,10.1,0,0,0,287,21.66L191.79,74Z" style="fill:#fff;opacity:0.5"></path><path d="M407,198.28,191.79,74V261.34a18,18,0,0,0,9,15.55L391.89,387.23a10.07,10.07,0,0,0,15.1-8.71Z" style="fill:#BA68C8"></path><path d="M407,198.28,191.79,74V261.34a18,18,0,0,0,9,15.55L391.89,387.23a10.07,10.07,0,0,0,15.1-8.71Z" style="fill:#fff;opacity:0.5"></path><path d="M200.77,276.89,391.89,387.23a9.9,9.9,0,0,0,9.73.16L287.55,215.64l-95.76,45.7A18,18,0,0,0,200.77,276.89Z" style="fill:#BA68C8"></path><path d="M200.77,276.89,391.89,387.23a9.9,9.9,0,0,0,9.73.16L287.55,215.64l-95.76,45.7A18,18,0,0,0,200.77,276.89Z" style="fill:#fff;opacity:0.7000000000000001"></path><polygon points="191.79 74.03 284.97 232.87 406.99 198.28 191.79 74.03" style="fill:#BA68C8"></polygon><polygon points="191.79 74.03 284.97 232.87 406.99 198.28 191.79 74.03" style="fill:#fff;opacity:0.30000000000000004"></polygon><polygon points="383.38 129.78 383.38 204.97 284.97 232.86 215.96 115.22 215.96 33.11 383.38 129.78" style="fill:#f0f0f0"></polygon></g><g id="freepik--Gifts--inject-24"><polygon points="109.89 381.11 68 356.92 68 299.49 109.89 323.68 109.89 381.11" style="fill:#BA68C8"></polygon><polygon points="109.89 381.11 109.89 323.68 151.78 299.49 151.78 356.92 109.89 381.11" style="fill:#BA68C8"></polygon><polygon points="109.89 381.11 68 356.92 68 299.49 109.89 323.68 109.89 381.11" style="opacity:0.5"></polygon><polygon points="109.89 381.11 109.89 323.68 151.78 299.49 151.78 356.92 109.89 381.11" style="opacity:0.7000000000000001"></polygon><polygon points="109.89 321.34 64.75 295.27 109.89 269.21 155.03 295.27 109.89 321.34" style="fill:#BA68C8"></polygon><polygon points="109.89 321.34 64.75 295.27 109.89 269.21 155.03 295.27 109.89 321.34" style="opacity:0.1"></polygon><polygon points="84.38 283.94 129.52 310 135.4 306.61 90.26 280.54 84.38 283.94" style="fill:#BA68C8"></polygon><polygon points="84.38 283.94 129.52 310 135.4 306.61 90.26 280.54 84.38 283.94" style="fill:#fff;opacity:0.30000000000000004"></polygon><polygon points="109.89 330.35 64.75 304.29 64.75 295.27 109.89 321.34 109.89 330.35" style="fill:#BA68C8"></polygon><polygon points="109.89 330.35 109.89 321.34 155.03 295.27 155.03 304.29 109.89 330.35" style="fill:#BA68C8"></polygon><polygon points="109.89 330.35 64.75 304.29 64.75 295.27 109.89 321.34 109.89 330.35" style="opacity:0.30000000000000004"></polygon><polygon points="109.89 330.35 109.89 321.34 155.03 295.27 155.03 304.29 109.89 330.35" style="opacity:0.5"></polygon><polygon points="90.26 369.81 84.38 366.44 84.38 306.61 90.26 310 90.26 369.81" style="fill:#BA68C8"></polygon><polygon points="129.52 369.81 135.4 366.44 135.4 306.61 129.52 310 129.52 369.81" style="fill:#BA68C8"></polygon><polygon points="90.26 369.81 84.38 366.44 84.38 306.61 90.26 310 90.26 369.81" style="opacity:0.2"></polygon><polygon points="129.52 369.81 135.4 366.44 135.4 306.61 129.52 310 129.52 369.81" style="opacity:0.4"></polygon><polygon points="135.4 283.94 90.26 310 84.38 306.61 129.52 280.54 135.4 283.94" style="fill:#BA68C8"></polygon><polygon points="135.4 283.94 90.26 310 84.38 306.61 129.52 280.54 135.4 283.94" style="fill:#fff;opacity:0.30000000000000004"></polygon><polygon points="156.45 389.59 125.84 371.92 125.84 329.96 156.45 347.63 156.45 389.59" style="fill:#BA68C8"></polygon><polygon points="156.45 389.59 156.45 347.63 187.05 329.96 187.05 371.92 156.45 389.59" style="fill:#BA68C8"></polygon><polygon points="156.45 389.59 125.84 371.92 125.84 329.96 156.45 347.63 156.45 389.59" style="opacity:0.5"></polygon><polygon points="156.45 389.59 156.45 347.63 187.05 329.96 187.05 371.92 156.45 389.59" style="opacity:0.7000000000000001"></polygon><polygon points="156.45 345.92 123.46 326.88 156.45 307.84 189.43 326.88 156.45 345.92" style="fill:#BA68C8"></polygon><polygon points="156.45 345.92 123.46 326.88 156.45 307.84 189.43 326.88 156.45 345.92" style="opacity:0.1"></polygon><polygon points="137.81 318.6 170.79 337.64 175.09 335.16 142.1 316.12 137.81 318.6" style="fill:#BA68C8"></polygon><polygon points="137.81 318.6 170.79 337.64 175.09 335.16 142.1 316.12 137.81 318.6" style="fill:#fff;opacity:0.30000000000000004"></polygon><polygon points="156.45 352.51 123.46 333.46 123.46 326.88 156.45 345.92 156.45 352.51" style="fill:#BA68C8"></polygon><polygon points="156.45 352.51 156.45 345.92 189.43 326.88 189.43 333.46 156.45 352.51" style="fill:#BA68C8"></polygon><polygon points="156.45 352.51 123.46 333.46 123.46 326.88 156.45 345.92 156.45 352.51" style="opacity:0.30000000000000004"></polygon><polygon points="156.45 352.51 156.45 345.92 189.43 326.88 189.43 333.46 156.45 352.51" style="opacity:0.5"></polygon><polygon points="142.1 381.33 137.81 378.87 137.81 335.16 142.1 337.64 142.1 381.33" style="fill:#BA68C8"></polygon><polygon points="170.79 381.33 175.09 378.87 175.09 335.16 170.79 337.64 170.79 381.33" style="fill:#BA68C8"></polygon><polygon points="175.09 318.6 142.1 337.64 137.81 335.16 170.79 316.12 175.09 318.6" style="fill:#BA68C8"></polygon><polygon points="175.09 318.6 142.1 337.64 137.81 335.16 170.79 316.12 175.09 318.6" style="fill:#fff;opacity:0.30000000000000004"></polygon></g></svg>