<svg xmlns="http://www.w3.org/2000/svg" viewBox="0 0 500 500"><g id="freepik--Bitcoin--inject-709"><path d="M444.32,41.53S416.9,30.62,356,91.54c0,0-63.4,54.51-29.51,77.41,28.84,19.49,66.9-8.42,87-26.69a201.93,201.93,0,0,0,30.37-35.94C457.74,84.86,466,56.51,444.32,41.53Z" style="fill:#FF81AE"></path><path d="M444.32,41.53S416.9,30.62,356,91.54c0,0-63.4,54.51-29.51,77.41,28.84,19.49,66.9-8.42,87-26.69a201.93,201.93,0,0,0,30.37-35.94C457.74,84.86,466,56.51,444.32,41.53Z" style="opacity:0.4"></path><path d="M442.24,40.75s-34-18.82-95,42.1c0,0-58.9,62.79-23,82.46,24.59,13.48,60.42-13.47,80.52-31.74C415.32,124,429.52,109,437.28,97,451.19,75.53,458.87,51.34,442.24,40.75Z" style="fill:#FF81AE"></path><ellipse cx="382.34" cy="103.09" rx="68.15" ry="26.59" transform="translate(39.09 300.55) rotate(-45)" style="fill:#fff;opacity:0.2"></ellipse><path d="M417.43,73.07l-8.56,8.57-2.21-2.21L415,71.12l-4.33-4.32-8.9,8.9-3.4-3.39-45.2,45.2,2.29,2.29-9.19,8.61,5,5,9-9,1.4,1.4-8.74,8.74,4.79,4.79L368,129.13s3.74,3.9,16.63-7.13c9.82-8.4,7.8-16.53,7.8-16.53s4.92.59,12.21-5.18a25.65,25.65,0,0,0,8.73-14.5l8.4-8.39Zm-37.27,43.22c-7.28,6.23-13.35-2-13.35-2L378,103.09S387.45,110.07,380.16,116.29Zm17.77-19c-7,5.77-11-2.43-11-2.43l9.65-9.66S406,90.68,397.93,97.32Z" style="fill:#FF81AE"></path><path d="M417.43,73.07l-8.56,8.57-2.21-2.21L415,71.12l-4.33-4.32-8.9,8.9-3.4-3.39-45.2,45.2,2.29,2.29-9.19,8.61,5,5,9-9,1.4,1.4-8.74,8.74,4.79,4.79L368,129.13s3.74,3.9,16.63-7.13c9.82-8.4,7.8-16.53,7.8-16.53s4.92.59,12.21-5.18a25.65,25.65,0,0,0,8.73-14.5l8.4-8.39Zm-37.27,43.22c-7.28,6.23-13.35-2-13.35-2L378,103.09S387.45,110.07,380.16,116.29Zm17.77-19c-7,5.77-11-2.43-11-2.43l9.65-9.66S406,90.68,397.93,97.32Z" style="opacity:0.4"></path><path d="M412.81,70.69l-8.57,8.56-2.2-2.2,8.31-8.31L406,64.41l-8.9,8.91-3.39-3.39-45.2,45.19,2.29,2.29-9.2,8.62,5,5,9-9,1.4,1.4-8.74,8.73,4.8,4.79,10.26-10.26s3.73,3.9,16.62-7.12c9.82-8.4,7.8-16.53,7.8-16.53s4.92.59,12.21-5.18a25.73,25.73,0,0,0,8.74-14.5l8.39-8.4Zm-37.27,43.22c-7.29,6.22-13.36-2-13.36-2l11.23-11.23S382.82,107.69,375.54,113.91Zm17.76-19c-7,5.77-11-2.43-11-2.43L392,82.85S401.33,88.3,393.3,94.94Z" style="fill:#FF81AE"></path><path d="M438.32,39.34c0,.16-2.65-.38-7.44-.6a69.21,69.21,0,0,0-20.07,2.18,86.94,86.94,0,0,0-13.21,4.55,104.87,104.87,0,0,0-14.14,7.58c-9.59,6-19.17,14.1-28.78,23-19.35,17.66-32.59,38.07-38.35,54.16-2.84,8.06-3.42,15.12-2.63,19.82l.25,1.66.36,1.44c.11.45.22.86.31,1.24s.25.69.35,1a8.88,8.88,0,0,1,.58,1.85,9.31,9.31,0,0,1-.87-1.74c-.13-.29-.29-.61-.43-1s-.24-.79-.38-1.23-.3-.93-.44-1.45-.22-1.09-.33-1.69c-1-4.77-.57-12,2.19-20.27,5.57-16.42,18.81-37.12,38.33-54.95,9.64-8.94,19.33-17,29.08-23.08a102.52,102.52,0,0,1,14.39-7.56,84.7,84.7,0,0,1,13.46-4.43,65.58,65.58,0,0,1,20.37-1.72c1.21.07,2.27.22,3.2.35a23.07,23.07,0,0,1,2.32.39A9.61,9.61,0,0,1,438.32,39.34Z" style="fill:#fafafa"></path><path d="M332.78,149.59s-18.09-22,27.33-68.55S430.53,54.9,430.53,54.9s-20.72-16.81-68.35,30.57C320.71,126.73,332.78,149.59,332.78,149.59Z" style="opacity:0.4"></path><path d="M407,64.41a14.73,14.73,0,0,1-2.45,2.64c-1.65,1.61-4.07,3.9-7.07,6.7l-.43.4-.4-.47L394,70.45l1,0c-4.6,4.68-10.24,10.36-16.37,16.44-8,7.92-15.28,15-20.61,20.12-2.67,2.55-4.85,4.59-6.37,6a12.27,12.27,0,0,1-2.49,2,12.82,12.82,0,0,1,2.06-2.47c1.4-1.52,3.45-3.68,6-6.32,5.13-5.29,12.3-12.53,20.29-20.45,6.13-6.08,11.84-11.68,16.56-16.24l.52-.5.43.55L397.56,73l-.83-.06c3.1-2.69,5.63-4.85,7.41-6.32A15.62,15.62,0,0,1,407,64.41Z" style="fill:#fafafa"></path><path d="M394.5,94.45c.15.14,0,.64-.6,1.23a6.41,6.41,0,0,1-2.74,1.6,6.47,6.47,0,0,1-3.17.14c-.8-.19-1.22-.51-1.18-.71.11-.43,1.9-.31,3.91-.93S394.18,94.14,394.5,94.45Z" style="fill:#fafafa"></path><path d="M373.31,115.53c.12.17-.06.55-.55,1a4.87,4.87,0,0,1-4.68.65c-.58-.25-.86-.57-.79-.77.16-.41,1.48-.27,3-.5S373,115.18,373.31,115.53Z" style="fill:#fafafa"></path><path d="M412.3,111.52c.32.26-3.11,4.85-8.36,9.54s-10.17,7.61-10.4,7.27,4.21-3.81,9.36-8.43S412,111.23,412.3,111.52Z" style="fill:#fafafa"></path><path d="M355.89,175a1.42,1.42,0,0,1-.25-.26L355,174c-.53-.66-1.26-1.58-2-2.61a22.49,22.49,0,0,1-2.65-3.89,20.15,20.15,0,0,1,3.06,3.57C354.92,173.1,356.1,174.89,355.89,175Z" style="fill:#263238"></path><path d="M341.15,175a1.07,1.07,0,0,1-.21-.21l-.53-.61c-.43-.52-1-1.26-1.65-2.08a14.85,14.85,0,0,1-2.1-3.15,13,13,0,0,1,2.51,2.83C340.43,173.43,341.37,174.89,341.15,175Z" style="fill:#263238"></path><path d="M368,171.86a25.74,25.74,0,0,1-3.29-4,25.65,25.65,0,0,1-2.86-4.3,26.74,26.74,0,0,1,3.28,4A26.13,26.13,0,0,1,368,171.86Z" style="fill:#263238"></path><path d="M379.17,166.93a28.31,28.31,0,0,1-3.5-4.28,29.68,29.68,0,0,1-3.09-4.59,29,29,0,0,1,3.5,4.28A30.59,30.59,0,0,1,379.17,166.93Z" style="fill:#263238"></path><path d="M390.72,159.62a29.36,29.36,0,0,1-3.51-4.28,29,29,0,0,1-3.08-4.6,30.27,30.27,0,0,1,3.5,4.29A30,30,0,0,1,390.72,159.62Z" style="fill:#263238"></path><path d="M401.09,151.87a28.7,28.7,0,0,1-3.51-4.28A29.15,29.15,0,0,1,394.5,143a29.8,29.8,0,0,1,3.5,4.28A30,30,0,0,1,401.09,151.87Z" style="fill:#263238"></path><path d="M411.46,144.12a28.7,28.7,0,0,1-3.51-4.28,29.15,29.15,0,0,1-3.08-4.59,29.8,29.8,0,0,1,3.5,4.28A30.59,30.59,0,0,1,411.46,144.12Z" style="fill:#263238"></path><path d="M420.5,134.58A28.7,28.7,0,0,1,417,130.3a28.64,28.64,0,0,1-3.08-4.59,29.8,29.8,0,0,1,3.5,4.28A30.59,30.59,0,0,1,420.5,134.58Z" style="fill:#263238"></path><path d="M429.35,124.8a30.51,30.51,0,0,1-3.5-4.28,28.45,28.45,0,0,1-3.08-4.6,30.27,30.27,0,0,1,3.5,4.29A28.64,28.64,0,0,1,429.35,124.8Z" style="fill:#263238"></path><path d="M438,114.75a29.8,29.8,0,0,1-3.5-4.28,29.15,29.15,0,0,1-3.08-4.59,29.8,29.8,0,0,1,3.5,4.28A29.15,29.15,0,0,1,438,114.75Z" style="fill:#263238"></path><path d="M445.54,104.07A28.7,28.7,0,0,1,442,99.79,29.15,29.15,0,0,1,439,95.2a29.8,29.8,0,0,1,3.5,4.28A30.59,30.59,0,0,1,445.54,104.07Z" style="fill:#263238"></path><path d="M452.13,91.73a29.14,29.14,0,0,1-3.51-4.29,28.64,28.64,0,0,1-3.08-4.59,30.51,30.51,0,0,1,3.5,4.28A29.81,29.81,0,0,1,452.13,91.73Z" style="fill:#263238"></path><path d="M455.89,78.42a24.2,24.2,0,0,1-3.15-3.8A22.94,22.94,0,0,1,450,70.5a24.3,24.3,0,0,1,3.14,3.81A23.1,23.1,0,0,1,455.89,78.42Z" style="fill:#263238"></path><path d="M457.57,65.23a23.58,23.58,0,0,1-3.15-3.8,24.68,24.68,0,0,1-2.73-4.11,22.53,22.53,0,0,1,3.15,3.8A23.79,23.79,0,0,1,457.57,65.23Z" style="fill:#263238"></path><circle cx="141.56" cy="76.67" r="52.58" transform="translate(-12.75 122.55) rotate(-45)" style="fill:#FF81AE"></circle><circle cx="141.56" cy="76.67" r="52.58" transform="translate(-12.75 122.55) rotate(-45)" style="fill:#fff;opacity:0.2"></circle><path d="M152.87,25.32A10,10,0,0,1,154.63,28a9.7,9.7,0,0,1,1.31,2.9,10,10,0,0,1-1.76-2.64A9.7,9.7,0,0,1,152.87,25.32Z" style="fill:#263238"></path><path d="M161.49,28.18a9.34,9.34,0,0,1,1.7,2.53,9,9,0,0,1,1.24,2.78,9.34,9.34,0,0,1-1.7-2.53A8.89,8.89,0,0,1,161.49,28.18Z" style="fill:#263238"></path><path d="M169.37,32.07a8.84,8.84,0,0,1,1.7,2.53,8.89,8.89,0,0,1,1.25,2.78,8.84,8.84,0,0,1-1.7-2.53A9.07,9.07,0,0,1,169.37,32.07Z" style="fill:#263238"></path><path d="M143.74,24.1a10,10,0,0,1,1.76,2.64,9.7,9.7,0,0,1,1.31,2.9A10,10,0,0,1,145.05,27,9.6,9.6,0,0,1,143.74,24.1Z" style="fill:#263238"></path><path d="M135.25,24.47A9.66,9.66,0,0,1,137,27.11a10,10,0,0,1,1.31,2.9,9.66,9.66,0,0,1-1.77-2.64A10,10,0,0,1,135.25,24.47Z" style="fill:#263238"></path><path d="M126.91,26.32a9.89,9.89,0,0,1,1.76,2.58,9.41,9.41,0,0,1,1.3,2.83,9.72,9.72,0,0,1-1.76-2.57A9.52,9.52,0,0,1,126.91,26.32Z" style="fill:#263238"></path><path d="M119.24,28.9A9.66,9.66,0,0,1,121,31.54a10,10,0,0,1,1.31,2.9,9.81,9.81,0,0,1-1.77-2.65A10,10,0,0,1,119.24,28.9Z" style="fill:#263238"></path><path d="M111.91,33.09a9.51,9.51,0,0,1,1.76,2.64,9.7,9.7,0,0,1,1.31,2.9A10.21,10.21,0,0,1,113.22,36,9.83,9.83,0,0,1,111.91,33.09Z" style="fill:#263238"></path><path d="M105.52,38.24a10.21,10.21,0,0,1,1.76,2.65,9.71,9.71,0,0,1,1.31,2.89,10,10,0,0,1-1.76-2.64A9.7,9.7,0,0,1,105.52,38.24Z" style="fill:#263238"></path><path d="M100.46,43.66a10.21,10.21,0,0,1,1.76,2.65,9.71,9.71,0,0,1,1.31,2.89,10,10,0,0,1-1.76-2.64A9.7,9.7,0,0,1,100.46,43.66Z" style="fill:#263238"></path><path d="M96.16,50.57A10.8,10.8,0,0,1,98,53.31a10.37,10.37,0,0,1,1.36,3,10.8,10.8,0,0,1-1.82-2.74A10.37,10.37,0,0,1,96.16,50.57Z" style="fill:#263238"></path><path d="M92.52,58a10.62,10.62,0,0,1,1.82,2.73,11.08,11.08,0,0,1,1.36,3A10.34,10.34,0,0,1,93.88,61,10.25,10.25,0,0,1,92.52,58Z" style="fill:#263238"></path><path d="M90.07,66A14.3,14.3,0,0,1,92,68.62a9.11,9.11,0,0,1,1.6,2.88,12.68,12.68,0,0,1-2-2.59A8,8,0,0,1,90.07,66Z" style="fill:#263238"></path><path d="M89,74.88A12.86,12.86,0,0,1,91,78a13.3,13.3,0,0,1,1.55,3.32,12.66,12.66,0,0,1-2-3.07A13.45,13.45,0,0,1,89,74.88Z" style="fill:#263238"></path><path d="M90,86.85a15,15,0,0,1,2.17,3.26,14.67,14.67,0,0,1,1.73,3.52,15.28,15.28,0,0,1-2.18-3.26A14.85,14.85,0,0,1,90,86.85Z" style="fill:#263238"></path><circle cx="145.18" cy="82.09" r="52.58" transform="translate(-16.77 42.25) rotate(-15.67)" style="fill:#FF81AE"></circle><ellipse cx="144.89" cy="81.56" rx="40.06" ry="39.07" transform="translate(-6.43 12.66) rotate(-4.89)" style="fill:#fff;opacity:0.2"></ellipse><path d="M148.21,120.32A40,40,0,0,1,105,85c0,.38,0,.76.07,1.14a40,40,0,1,0,79.8-6.83c0-.38-.08-.76-.12-1.13A40,40,0,0,1,148.21,120.32Z" style="fill:#fafafa"></path><path d="M141.58,42.8a40,40,0,0,1,43.19,35.35c0-.38,0-.76-.07-1.14a40,40,0,1,0-79.8,6.83c0,.38.08.76.12,1.13A40,40,0,0,1,141.58,42.8Z" style="opacity:0.30000000000000004"></path><path d="M163.33,88.44c-.48-5.6-3.47-9-7.53-10.15,2.68-2,4.29-5.45,3.91-9.88-.47-5.52-3.88-9.16-9.8-10l-.58-6.8-6.28.54.54,6.32-3.56.3-.55-6.32L133.2,53l.55,6.32-5.73.49-4,.34.54,6.28,4-.34,2.62,30.54-4.41.38.54,6.28,4.4-.38h0l5.73-.49.63,7.36,6.28-.54-.63-7.35,3.56-.31.63,7.35,6.28-.53-.65-7.6C160.54,99.22,163.87,94.82,163.33,88.44Zm-26.81-23L145,64.7c4.71-.4,7.56,1.34,7.9,5.34s-2.17,6.14-6.89,6.54l-9.64.83-1-11.88ZM149,95.13,138.72,96l-.73.06-1.06-12.44,11-.94c5.14-.44,8.08,1.23,8.45,5.54S154.14,94.69,149,95.13Z" style="fill:#FF81AE"></path><path d="M163.33,88.44c-.48-5.6-3.47-9-7.53-10.15,2.68-2,4.29-5.45,3.91-9.88-.47-5.52-3.88-9.16-9.8-10l-.58-6.8-6.28.54.54,6.32-3.56.3-.55-6.32L133.2,53l.55,6.32-5.73.49-4,.34.54,6.28,4-.34,2.62,30.54-4.41.38.54,6.28,4.4-.38h0l5.73-.49.63,7.36,6.28-.54-.63-7.35,3.56-.31.63,7.35,6.28-.53-.65-7.6C160.54,99.22,163.87,94.82,163.33,88.44Zm-26.81-23L145,64.7c4.71-.4,7.56,1.34,7.9,5.34s-2.17,6.14-6.89,6.54l-9.64.83-1-11.88ZM149,95.13,138.72,96l-.73.06-1.06-12.44,11-.94c5.14-.44,8.08,1.23,8.45,5.54S154.14,94.69,149,95.13Z" style="opacity:0.30000000000000004"></path><path d="M163.62,91.4c-.48-5.61-3.47-9-7.53-10.15,2.68-2,4.29-5.45,3.91-9.89-.47-5.51-3.88-9.15-9.8-10l-.58-6.81-6.28.54.54,6.32-3.56.31-.54-6.32-6.29.54L134,62.3l-5.73.49-4,.34.54,6.28,4-.34,2.62,30.54-4.41.38.54,6.28,4.4-.38h0l5.72-.49.63,7.35,6.28-.54-.63-7.35,3.56-.3.63,7.35,6.28-.54-.65-7.59C160.83,102.18,164.16,97.78,163.62,91.4Zm-26.81-23,8.51-.73c4.72-.41,7.56,1.33,7.9,5.34s-2.17,6.14-6.89,6.54l-9.64.83-1-11.89Zm12.48,29.69L139,99l-.73.06-1.06-12.43,11-1c5.14-.44,8.08,1.23,8.45,5.55S154.43,97.64,149.29,98.08Z" style="fill:#FF81AE"></path><path d="M131.1,99.19c-.43,0-1.35-6.63-2.06-14.9s-.93-15-.5-15,1.35,6.64,2.06,14.91S131.53,99.16,131.1,99.19Z" style="fill:#fafafa"></path><path d="M149.52,79.32c0,.43-2.65,1-6,1.3s-6.09.17-6.13-.26,2.65-1,6-1.29S149.48,78.89,149.52,79.32Z" style="fill:#fafafa"></path><path d="M151.35,98c0,.43-2.65,1-6,1.3s-6.09.17-6.13-.26,2.65-1,6-1.3S151.31,97.52,151.35,98Z" style="fill:#fafafa"></path><circle cx="265.65" cy="335.16" r="87.05" transform="translate(-159.19 286.01) rotate(-45)" style="fill:#FF81AE"></circle><circle cx="265.65" cy="335.16" r="87.05" transform="translate(-159.19 286.01) rotate(-45)" style="opacity:0.4"></circle><circle cx="260.35" cy="326.01" r="87.05" transform="translate(-154.27 279.58) rotate(-45)" style="fill:#FF81AE"></circle><ellipse cx="259.88" cy="325.14" rx="66.33" ry="64.68" transform="translate(-30.24 26.67) rotate(-5.55)" style="fill:#fff;opacity:0.2"></ellipse><path d="M266.11,389.25a66.28,66.28,0,0,1-72.17-57.7c0,.63.07,1.26.13,1.89a66.3,66.3,0,0,0,132-12.83c-.07-.63-.16-1.25-.23-1.88A66.29,66.29,0,0,1,266.11,389.25Z" style="fill:#fafafa"></path><path d="M253.64,261a66.3,66.3,0,0,1,72.18,57.7c-.05-.63-.08-1.25-.14-1.89a66.3,66.3,0,0,0-132,12.83c.07.64.16,1.26.24,1.88A66.29,66.29,0,0,1,253.64,261Z" style="opacity:0.30000000000000004"></path><path d="M296.1,340.58c-.9-9.27-5.9-14.84-12.65-16.66,4.4-3.41,7-9.11,6.28-16.44-.88-9.11-6.59-15.08-16.4-16.31l-1.1-11.25-10.38,1,1,10.46L257,292l-1-10.46-10.39,1,1,10.46-9.46.92-6.59.64,1,10.39,6.59-.65L243,354.78l-7.29.71,1,10.39,7.29-.71h0l9.46-.92,1.18,12.16,10.39-1-1.18-12.16,5.89-.57L271,374.83l10.39-1-1.22-12.56C291.7,358.48,297.13,351.14,296.1,340.58ZM251.29,303l14.07-1.36c7.8-.76,12.54,2.07,13.18,8.69s-3.47,10.2-11.27,11l-16,1.55-1.91-19.65Zm21.23,48.93-17,1.65-1.2.12-2-20.57,18.21-1.77c8.5-.83,13.4,1.88,14.09,9S281,351.09,272.52,351.92Z" style="fill:#FF81AE"></path><path d="M296.1,340.58c-.9-9.27-5.9-14.84-12.65-16.66,4.4-3.41,7-9.11,6.28-16.44-.88-9.11-6.59-15.08-16.4-16.31l-1.1-11.25-10.38,1,1,10.46L257,292l-1-10.46-10.39,1,1,10.46-9.46.92-6.59.64,1,10.39,6.59-.65L243,354.78l-7.29.71,1,10.39,7.29-.71h0l9.46-.92,1.18,12.16,10.39-1-1.18-12.16,5.89-.57L271,374.83l10.39-1-1.22-12.56C291.7,358.48,297.13,351.14,296.1,340.58ZM251.29,303l14.07-1.36c7.8-.76,12.54,2.07,13.18,8.69s-3.47,10.2-11.27,11l-16,1.55-1.91-19.65Zm21.23,48.93-17,1.65-1.2.12-2-20.57,18.21-1.77c8.5-.83,13.4,1.88,14.09,9S281,351.09,272.52,351.92Z" style="opacity:0.30000000000000004"></path><path d="M291.06,341.07c-.9-9.27-5.91-14.84-12.65-16.66,4.39-3.41,7-9.11,6.28-16.44-.89-9.11-6.59-15.08-16.41-16.31l-1.09-11.25-10.39,1,1,10.46-5.9.57-1-10.46-10.38,1,1,10.46-9.46.92-6.59.64,1,10.39,6.59-.64L238,355.28l-7.28.7,1,10.39,7.28-.71h0l9.46-.92,1.19,12.16,10.38-1-1.18-12.16,5.9-.57,1.18,12.16,10.39-1-1.23-12.56C286.65,359,292.08,351.63,291.06,341.07Zm-44.81-37.58,14.06-1.37c7.8-.76,12.54,2.07,13.19,8.69s-3.47,10.2-11.28,11l-16,1.55-1.92-19.65Zm21.22,48.92-17,1.65-1.2.12-2-20.57,18.22-1.77c8.49-.83,13.4,1.88,14.09,9S276,351.58,267.47,352.41Z" style="fill:#FF81AE"></path><path d="M339,288.55a3,3,0,0,1-.39-.59l-1-1.81c-.42-.81-1-1.79-1.66-2.92s-1.44-2.47-2.42-3.89A87.39,87.39,0,0,0,313.88,258a88.68,88.68,0,0,0-17.15-10.39,87.6,87.6,0,0,0-22-6.7,80.81,80.81,0,0,0-12.39-1.16,82.45,82.45,0,0,0-13,.7,87,87,0,0,0-13.15,2.77,86.55,86.55,0,0,0-24.91,11.88,84.94,84.94,0,0,0-10.43,8.48,86.71,86.71,0,0,0-15.6,20,87.73,87.73,0,0,0-8.62,21.3A89,89,0,0,0,174,324.73a85.1,85.1,0,0,0,1.22,16.53,87,87,0,0,0,3,12.18c.49,1.65,1,3.08,1.5,4.33s.87,2.29,1.23,3.13l.77,1.92a2.36,2.36,0,0,1,.21.68,3.09,3.09,0,0,1-.36-.61l-.91-1.86c-.41-.82-.89-1.85-1.37-3.09s-1.11-2.66-1.64-4.31a81.25,81.25,0,0,1-3.27-12.22,84.54,84.54,0,0,1-1.47-16.7,87,87,0,0,1,11.19-41.86,87.59,87.59,0,0,1,15.8-20.38,88.06,88.06,0,0,1,10.61-8.65,87.52,87.52,0,0,1,25.35-12.09,87.55,87.55,0,0,1,13.4-2.8,84,84,0,0,1,13.18-.67,82.14,82.14,0,0,1,12.6,1.23,86.7,86.7,0,0,1,39.56,17.64,83.88,83.88,0,0,1,12.06,11.65A81.84,81.84,0,0,1,334.06,279c.95,1.45,1.67,2.82,2.31,4s1.16,2.17,1.54,3l.87,1.89C339,288.32,339.06,288.54,339,288.55Z" style="fill:#fafafa"></path><path d="M250.9,282c0,.27-4,.9-10.32,1.66l.58-.71c.36,3,.75,6.58,1.15,10.44l.07.77-.77.08-2.8.28c-4.91.48-9.48.87-13.27,1.15l.59-.7c.47,6.28.63,10.42.36,10.45s-.9-4.07-1.65-10.33l-.08-.63.66-.07c3.77-.46,8.33-.95,13.24-1.43l2.8-.26-.7.84c-.36-3.86-.66-7.45-.89-10.46l0-.66.62-.05C246.76,281.89,250.88,281.73,250.9,282Z" style="fill:#fafafa"></path><path d="M269.39,280.38c0,.43-2.74,1.05-6.21,1.39s-6.31.26-6.35-.17,2.73-1.05,6.2-1.38S269.35,280,269.39,280.38Z" style="fill:#fafafa"></path><path d="M237.38,354.6c-.43,0-1.86-11-3.18-24.69s-2.06-24.79-1.63-24.83,1.85,11,3.18,24.68S237.81,354.56,237.38,354.6Z" style="fill:#fafafa"></path><path d="M267.49,321.35c0,.43-4.41,1.22-9.95,1.75s-10.05.63-10.09.2,4.41-1.21,9.94-1.75S267.45,320.92,267.49,321.35Z" style="fill:#fafafa"></path><path d="M270.87,352.16c.05.43-4.41,1.21-9.94,1.75s-10.05.62-10.1.2,4.41-1.22,9.95-1.76S270.83,351.73,270.87,352.16Z" style="fill:#fafafa"></path><path d="M247.91,420.39a52.68,52.68,0,0,1-5.2-9.11,53.44,53.44,0,0,1,5.2,9.11Z" style="fill:#263238"></path><path d="M233.58,415.82a24.57,24.57,0,0,1-2.72-4.24,24.26,24.26,0,0,1-2.26-4.5,48,48,0,0,1,5,8.74Z" style="fill:#263238"></path><path d="M220.45,409.53a24.9,24.9,0,0,1-2.71-4.24,24.38,24.38,0,0,1-2.27-4.5,24.57,24.57,0,0,1,2.72,4.24A24.26,24.26,0,0,1,220.45,409.53Z" style="fill:#263238"></path><path d="M263,422.24a26.77,26.77,0,0,1-2.82-4.43,26,26,0,0,1-2.37-4.68,26.4,26.4,0,0,1,2.82,4.42A25.84,25.84,0,0,1,263,422.24Z" style="fill:#263238"></path><path d="M277.08,421.46a53.44,53.44,0,0,1-5.2-9.11,52.68,52.68,0,0,1,5.2,9.11Z" style="fill:#263238"></path><path d="M290.88,418.45a26.57,26.57,0,0,1-2.83-4.42,27.53,27.53,0,0,1-2.37-4.69,26.41,26.41,0,0,1,2.83,4.43A27.25,27.25,0,0,1,290.88,418.45Z" style="fill:#263238"></path><path d="M303.5,413.83a26.41,26.41,0,0,1-2.83-4.43,27.66,27.66,0,0,1-2.37-4.68,26,26,0,0,1,2.83,4.42A27.53,27.53,0,0,1,303.5,413.83Z" style="fill:#263238"></path><path d="M315.56,406.76a26.94,26.94,0,0,1-2.83-4.43,27.53,27.53,0,0,1-2.37-4.69,26.41,26.41,0,0,1,2.83,4.43A27.12,27.12,0,0,1,315.56,406.76Z" style="fill:#263238"></path><path d="M326,398.1a26.94,26.94,0,0,1-2.83-4.43,27.53,27.53,0,0,1-2.37-4.69,26.41,26.41,0,0,1,2.83,4.43A27.12,27.12,0,0,1,326,398.1Z" style="fill:#263238"></path><path d="M334.31,389a27.31,27.31,0,0,1-2.82-4.43,25.84,25.84,0,0,1-2.37-4.69,26.77,26.77,0,0,1,2.82,4.43A25.49,25.49,0,0,1,334.31,389Z" style="fill:#263238"></path><path d="M341.85,378.48a54,54,0,0,1-5.2-9.12,26.94,26.94,0,0,1,2.83,4.43A26.66,26.66,0,0,1,341.85,378.48Z" style="fill:#263238"></path><path d="M348,366.54a26.41,26.41,0,0,1-2.83-4.43,27.12,27.12,0,0,1-2.37-4.69,26.94,26.94,0,0,1,2.83,4.43A27.53,27.53,0,0,1,348,366.54Z" style="fill:#263238"></path><path d="M351.9,353.14a26.41,26.41,0,0,1-2.83-4.43A27.12,27.12,0,0,1,346.7,344a26.94,26.94,0,0,1,2.83,4.43A27.53,27.53,0,0,1,351.9,353.14Z" style="fill:#263238"></path><path d="M353.71,338.92a39.05,39.05,0,0,1-3.39-5.41,38.52,38.52,0,0,1-2.93-5.67,79.73,79.73,0,0,1,6.32,11.08Z" style="fill:#263238"></path><path d="M351.75,318.89a39.61,39.61,0,0,1-3.38-5.41,40.05,40.05,0,0,1-2.94-5.66,38.32,38.32,0,0,1,3.39,5.41A40,40,0,0,1,351.75,318.89Z" style="fill:#263238"></path><g style="opacity:0.2"><path d="M216.86,341.14a1.24,1.24,0,0,0,0,1.14,1.16,1.16,0,0,0,2.16-.22,1.24,1.24,0,0,0-.22-1.11c-.47-.56-1.05-.5-1-.6C217.79,340.44,217.21,340.5,216.86,341.14Z" style="fill:none"></path><path d="M259.3,311.46a1.23,1.23,0,0,0,0,1.14,1.18,1.18,0,0,0,1.15.63,1.22,1.22,0,0,0,1-.84,1.39,1.39,0,0,0,0-.4h0a1.18,1.18,0,0,0-.26-.71c-.46-.56-1.05-.5-1-.6C260.23,310.76,259.64,310.82,259.3,311.46Z" style="fill:none"></path><path d="M209.44,382a1.24,1.24,0,0,0,0,1.14,1.17,1.17,0,0,0,2.16-.21,1.23,1.23,0,0,0-.22-1.12c-.47-.56-1-.5-1-.6C210.37,381.34,209.79,381.4,209.44,382Z" style="fill:none"></path><path d="M311,313.47a1.26,1.26,0,0,0,0,1.14,1.17,1.17,0,0,0,2.17-.21,1.23,1.23,0,0,0-.23-1.12c-.46-.56-1-.5-1-.6C312,312.77,311.39,312.83,311,313.47Z" style="fill:none"></path><path d="M222.86,275.93a1.23,1.23,0,0,0,0,1.14,1.17,1.17,0,0,0,2.17-.21,1.25,1.25,0,0,0-.23-1.12,1.51,1.51,0,0,0-.8-.51v.19a3.48,3.48,0,0,1,0,.77,3.39,3.39,0,0,1-.13-.76l0-.24c-.06,0-.1,0-.09-.05S223.21,275.29,222.86,275.93Z" style="fill:none"></path><path d="M315,297.45a1.24,1.24,0,0,0,0,1.14,1.17,1.17,0,0,0,2.16-.21,1.23,1.23,0,0,0-.22-1.12c-.47-.56-1.05-.5-1-.6C315.9,296.76,315.32,296.81,315,297.45Z" style="fill:none"></path><path d="M256.52,317.73a1.23,1.23,0,0,0,0,1.14,1.17,1.17,0,0,0,2.17-.21,1.25,1.25,0,0,0-.13-1h0c-.24,0-.36,0-.36,0l.34-.07a.35.35,0,0,0-.05-.08c-.46-.56-1.05-.5-1-.6C257.45,317,256.87,317.09,256.52,317.73Z" style="fill:none"></path><path d="M245.61,337.46a1.24,1.24,0,0,0,0,1.14,1.16,1.16,0,0,0,2.16-.21.73.73,0,0,0,0-.25h-.08l.09,0a1.23,1.23,0,0,0-.27-.82c-.47-.56-1.05-.5-1-.6C246.54,336.77,246,336.83,245.61,337.46Z" style="fill:none"></path><path d="M204.16,297.57l70.67-6.93,10.47,10.93.06.07h.1l21.42-2.22,5.75-.62,1.48-.18.28,0a1.12,1.12,0,0,0,.08.26,1.7,1.7,0,0,0,3.2-.31,1.65,1.65,0,0,0-.45-1.55,1.46,1.46,0,0,0-1-.41c-.25,0-.37.07-.37.1s.57,0,1,.6a1.23,1.23,0,0,1,.22,1.12,1.17,1.17,0,0,1-2.16.21,1.24,1.24,0,0,1,0-1.14c.35-.64.93-.69.9-.79s-.13-.07-.38,0a1.45,1.45,0,0,0-.88.6,1.63,1.63,0,0,0-.23,1.31l-.28,0-1.48.12-5.76.52-21.34,2-10.43-11-.08-.09h-.11L204.1,297l-26.7,2.61c-.07.2-.13.4-.2.6Z" style="fill:#fff"></path><path d="M315.07,280.94l11.16,11.39.08.08h.12L340.06,291c0-.1-.09-.2-.13-.31l-13.42,1.21-11.12-11.45-.1-.1h-.14l-8.89.86-32.9,3.29-10,1.06-2.7.32a5.69,5.69,0,0,0-.94.15,5.67,5.67,0,0,0,.95,0l2.72-.21,10-.87,32.92-3.11Z" style="fill:#fff"></path><path d="M243.72,320.33l6.92,2.88.05,0h0l11.65-1.07,3.09-.31.21,0a.87.87,0,0,0,.94.75.87.87,0,0,0-.17-1.74.88.88,0,0,0-.78.9h-.21l-3.1.21-11.61.9-6.91-2.94-.05,0h-.06l-49.63,4.74-17.39,1.7-3.4-1.65c0,.21,0,.42,0,.63l3.23,1.58.07,0h.09l17.46-1.69Z" style="fill:#fff"></path><path d="M250.08,315.9l-6.53-2-.06,0h-.06l-4.18.43c-.23-2.68-.45-5.24-.66-7.66l0-.26-.26,0-19.15,2.12-5.35.63-.59.08a.86.86,0,0,0-.92-.71.87.87,0,0,0-.78.95.86.86,0,0,0,1.72-.11l.59-.05,5.37-.49L238.1,307q.28,3.65.61,7.68l0,.28.29,0,4.41-.44,6.53,2,.06,0h.06l8.13-.79,36.64-3.65,6.79,3.73.05,0h.05l6.88-.75,1.82-.22h.09v0a1.7,1.7,0,0,0,3.21-.32,1.63,1.63,0,0,0-.45-1.54,1.45,1.45,0,0,0-1-.42c-.25,0-.37.07-.37.11s.57,0,1,.6a1.23,1.23,0,0,1,.23,1.12,1.17,1.17,0,0,1-2.17.21,1.26,1.26,0,0,1,0-1.14c.35-.64.93-.7.9-.79s-.14-.08-.38,0a1.43,1.43,0,0,0-.88.59,1.64,1.64,0,0,0-.18,1.5h-.07l-1.83.13-6.84.59L295,311.65l-.06,0h-.07l-36.72,3.49Z" style="fill:#fff"></path><path d="M211.69,381.56a1.44,1.44,0,0,0-1-.42c-.25,0-.37.07-.37.11s.57,0,1,.6a1.23,1.23,0,0,1,.22,1.12,1.17,1.17,0,0,1-2.16.21,1.24,1.24,0,0,1,0-1.14c.35-.64.93-.7.9-.79s-.14-.08-.38,0a1.43,1.43,0,0,0-.88.59,1.66,1.66,0,0,0-.14,1.61,1.7,1.7,0,0,0,1.71,1,1.72,1.72,0,0,0,1.49-1.31s0,0,0-.06h.26l1.29-.09,4.88-.39,17.1-1.55.15,0,.07-.14,4.92-10.43,0-.07v-.09c-.15-1.58-.31-3.2-.47-4.84-.7-7.05-1.36-13.68-1.92-19.35v-.13l-.11-.06-8.18-5.37-.07,0H230l-8,.87-2.15.26-.29,0a1.6,1.6,0,0,0-.47-1,1.45,1.45,0,0,0-1-.42c-.25,0-.37.07-.37.11s.57,0,1,.6a1.24,1.24,0,0,1,.22,1.11,1.16,1.16,0,0,1-2.16.22,1.24,1.24,0,0,1,0-1.14c.35-.64.93-.7.9-.79s-.14-.08-.38,0a1.39,1.39,0,0,0-.88.59,1.61,1.61,0,0,0-.15,1.6,1.7,1.7,0,0,0,3.21-.31,1.5,1.5,0,0,0,0-.47h.28l2.17-.16,7.94-.68c2.29,1.54,5,3.36,8,5.35.54,5.65,1.16,12.24,1.83,19.24.16,1.61.31,3.2.47,4.76l-4.78,10.23-16.93,1.76-4.86.55-1.28.17-.25,0A1.62,1.62,0,0,0,211.69,381.56Z" style="fill:#fff"></path><path d="M303,356.49a.86.86,0,0,0,.77-.89h0l2.53-.19,9.36-.81h.06l.05,0,9.8-8.09,19.81-1.9c0-.21.09-.41.14-.62l-20.09,2h-.08l-.07.06-9.73,8.2-9.27,1-2.53.31h0a.86.86,0,0,0-1.71.22A.86.86,0,0,0,303,356.49Z" style="fill:#fff"></path><path d="M257.81,412.69c0-.3,0-.69-.07-1.15-.1-1.35-.25-3.13-.41-5.29-.38-4.45-.95-10.61-1.61-17.4-.21-2.12-.41-4.19-.61-6.15v-.12l-.09-.07-10-8.13c-.19-1.62-.35-3-.47-4-.09-.68-.16-1.13-.2-1.33a.72.72,0,0,0,.33,0,.87.87,0,1,0-.95-.78.85.85,0,0,0,.56.72c0,.19,0,.65.06,1.37.08,1,.18,2.41.31,4.08v.07l.06.06,9.88,8.25c.18,1.93.37,3.95.57,6,.66,6.79,1.29,12.94,1.78,17.39.25,2.14.45,3.91.61,5.26l.15,1.15a.86.86,0,0,0-.52.3l1.37,0A.88.88,0,0,0,257.81,412.69Z" style="fill:#fff"></path><path d="M217.38,284.33a.86.86,0,0,0,1,.78.87.87,0,1,0-1-.78Z" style="fill:#fff"></path><path d="M286.47,363.35l1.73-.18.3,0a1,1,0,0,0,0,.17.86.86,0,0,0,.95.78.88.88,0,0,0,.78-.95.86.86,0,0,0-1.71-.08h-.32l-1.74.08-6.49.41-21.75,1.55q-.45-3.64-.92-7.5c-.09-.71-.18-1.42-.26-2.08l7.8-8.57.09-.09v-.13c-.29-2.79-.56-5.43-.8-7.81v-.1l-.08-.07-2.6-2.12-.08-.06h-.09l-9.88,1.06-2.7.33-.33,0a1.56,1.56,0,0,0-.48-1,1.44,1.44,0,0,0-1-.42c-.25,0-.37.07-.37.11s.57,0,1,.6a1.23,1.23,0,0,1,.27.82l-.09,0h.08a.73.73,0,0,1,0,.25,1.16,1.16,0,0,1-2.16.21,1.24,1.24,0,0,1,0-1.14c.35-.63.93-.69.9-.78s-.13-.08-.38,0a1.39,1.39,0,0,0-.88.59,1.64,1.64,0,0,0-.14,1.6,1.69,1.69,0,0,0,3.2-.31,2,2,0,0,0,0-.41l.33,0,2.71-.2,9.81-.86,2.43,2c.21,2.32.45,4.88.7,7.59l-7.84,8.56-.09.1,0,.14c.08.7.18,1.45.27,2.21l1,7.78,0,.29.28,0,22-1.78Z" style="fill:#fff"></path><path d="M273.47,360.59c-.47-5.68-1-11.66-1.47-17.73-.07-.84-.14-1.67-.2-2.51v-.12l-.1-.08-8.37-7.21-.1-.08h-.13l-51.74,5.06h-.07l-.05,0-31.42,21.09.15.38,31.51-21,51.55-5,8.19,7c.06.79.13,1.58.19,2.38.52,6.18,1,12.26,1.5,18l0,.3.3,0,69.15-6,.16-.45Z" style="fill:#fff"></path><path d="M272.23,328.46c.19,1.71.47,4.13.81,7.16v.07l.07.05,14.72,11.41.08.06H288l19.54-1.87L341.34,342l4.7-.5.06-.35-4.8.42-33.8,3.2-19.42,1.91-14.7-11.14c-.4-3-.72-5.37-1-7.07-.11-.78-.21-1.41-.28-1.89a2.75,2.75,0,0,0-.13-.64,3.53,3.53,0,0,0,0,.65C272.09,327,272.15,327.66,272.23,328.46Z" style="fill:#fff"></path><path d="M288.84,305.93h-.08l-.07.05-5.07,3.57-15.95,1.66-4.57.52-1.1.15a1.53,1.53,0,0,0-.46-.91,1.43,1.43,0,0,0-1-.42c-.25,0-.38.07-.37.11s.57,0,1,.6a1.18,1.18,0,0,1,.26.71h0a1.39,1.39,0,0,1,0,.4,1.22,1.22,0,0,1-1,.84,1.18,1.18,0,0,1-1.15-.63,1.23,1.23,0,0,1,0-1.14c.34-.64.93-.7.9-.79s-.14-.08-.39,0a1.45,1.45,0,0,0-.88.59,1.66,1.66,0,0,0-.14,1.61,1.7,1.7,0,0,0,3.2-.32,1.41,1.41,0,0,0,0-.54l1.1-.06,4.58-.37,16-1.45h.08l.06,0,5.08-3.54,8.48-.66,26.22-2.16,7.94-.73,2.06-.21a.85.85,0,1,0,0-.13l-2.06.11-8,.53-26.22,2Z" style="fill:#fff"></path><path d="M245.51,393.1c-.23-2.42-.47-4.76-.69-7V386l-.12-.08-5.43-3.38-.08-.06h-.09l-12.47,1.33-3.53.42-.41.05a.86.86,0,0,0-.93-.71.87.87,0,0,0,.17,1.73.86.86,0,0,0,.77-.88l.41,0,3.55-.27,12.4-1.1,5.2,3.3c.22,2.2.44,4.5.66,6.86L246.82,412l.46.07C246.79,406.82,246.18,400.25,245.51,393.1Z" style="fill:#fff"></path><path d="M253.91,407.66l.08-.1,0-.12c-.91-9.31-1.78-18.07-2.53-25.74v-.11l-.09-.07-7.63-6.23c-.68-6.57-1.24-11.94-1.63-15.73-.2-1.83-.37-3.28-.48-4.32-.06-.45-.1-.81-.14-1.1l.18,0a.87.87,0,1,0-.95-.78.85.85,0,0,0,.7.75c0,.29,0,.66.07,1.12.09,1,.21,2.5.36,4.34.35,3.81.84,9.22,1.44,15.84v.09l.07.07,7.58,6.27c.73,7.62,1.56,16.29,2.44,25.51l-.84,1-3.27,4,.71.08c1-1.18,2-2.42,3-3.68Z" style="fill:#fff"></path><path d="M333.71,369.2l-43.46,4.14-9.53.93-.21,0-.05.2-3,11.26v.1c1,9.71,1.85,18.26,2.53,25l.37-.09c-.63-6.71-1.42-15.23-2.33-24.9,1-3.5,2-7.19,3-11l9.32-.9,43.45-4.31,2.07-.22.24-.42Z" style="fill:#fff"></path><path d="M279,334.26v.14l.12.08,3.08,2.19,8.63,6.11.09.06H291l22.17-2.26,6.45-.71,1.47-.19a.86.86,0,0,0,1.71-.22.86.86,0,0,0-.94-.78.87.87,0,0,0-.78.89l-1.48.1-6.47.54-22.08,2-8.53-6.07-3-2.1c-.67-6.7-1.29-12.92-1.83-18.28l0-.25-.25,0-14,1.47-3.91.45-.53.07a1.48,1.48,0,0,0-.25-.3,1.41,1.41,0,0,0-1-.41c-.25,0-.38.07-.37.1s.57,0,1,.6a.35.35,0,0,1,.05.08l-.34.07s.12,0,.36,0h0a1.25,1.25,0,0,1,.13,1,1.17,1.17,0,0,1-2.17.21,1.23,1.23,0,0,1,0-1.14c.35-.64.93-.69.9-.79s-.14-.08-.39,0a1.5,1.5,0,0,0-.88.59,1.66,1.66,0,0,0-.14,1.61,1.7,1.7,0,0,0,3.2-.31,1.58,1.58,0,0,0-.15-1.13l.49,0,3.92-.31,13.79-1.24C277.77,321.44,278.35,327.62,279,334.26Z" style="fill:#fff"></path><path d="M345.62,322.26l-8.24-6.79-.1-.08h-.12l-.73.08L300.82,319l-5.68-3.21-.07,0H295l-7.35.74h-.09l-.05.07-7.38,9.08,0,0v.05c.26,2.39.47,4.24.61,5.54.07.59.13,1.06.17,1.42a2.58,2.58,0,0,0,.08.47,2.47,2.47,0,0,0,0-.48c0-.36-.06-.83-.1-1.43-.11-1.28-.27-3.12-.47-5.49l7.39-8.87,7.2-.67,5.66,3.25.07,0h.09l35.7-3.42.6-.06,8.25,6.78.09.07h.13l1.77-.18c0-.19,0-.39,0-.58Z" style="fill:#fff"></path><path d="M232.26,249.05l.1.07,0,0,8.71,7.16c.85,8.49,1.62,16.1,2.23,22.2v.12l.11.06,8.09,4h.08l5-.55,1.28-.17a2.28,2.28,0,0,0,.44-.08,1.63,1.63,0,0,0-.44,0l-1.3.09-4.94.41-7.88-4c-.58-6.11-1.29-13.73-2.09-22.22V256l-.1-.08-8.72-7.19c-.18-1.74-.35-3.46-.52-5.16l-.56.2c.16,1.69.32,3.4.49,5.14Z" style="fill:#fff"></path><path d="M246.67,255.51l-.07.09v.11c.63,6,1.16,11.12,1.55,14.84.2,1.76.37,3.18.49,4.24a10.16,10.16,0,0,0,.24,1.51,9.65,9.65,0,0,0-.06-1.52c-.08-1.07-.19-2.5-.33-4.26-.33-3.7-.79-8.79-1.33-14.75l8.11-9.81,4.34-5.3.08-.09v-.12l-.15-1.48H259l.13,1.41-4.28,5.2Z" style="fill:#fff"></path><path d="M256.64,255.15a.9.9,0,0,0,.14-.53.87.87,0,0,0-.95-.78.86.86,0,0,0-.78.94.84.84,0,0,0,1.44.55l.89.8c.95.85,2.31,2,3.9,3.35.12,1.27.25,2.63.38,4,.3,3.15.61,6,.87,8.07a18.08,18.08,0,0,0,.54,3.32,19,19,0,0,0-.12-3.36c-.14-2.08-.39-4.94-.69-8.09-.15-1.46-.3-2.86-.43-4.15v-.12l-.09-.07c-1.67-1.35-3.1-2.48-4.13-3.26Z" style="fill:#fff"></path><path d="M266.89,277.62v.1l.06.07,4.53,4.71.09.1.14,0L298.18,280l13.65-1.33.13,0,.08-.1L322.39,265l-.39-.41-10.36,13.57-13.52,1.31L271.81,282l-4.38-4.53c-1.56-15.58-2.89-28.86-3.83-38.28l0-.17h-.34l0,.21C264.16,248.67,265.41,262,266.89,277.62Z" style="fill:#fff"></path><path d="M278,287l-6.28.52L251,289.48c-.08-.9-.17-1.84-.27-2.79l0-.22v-.16l-.14-.07-8.09-4.58-.08-.05h-.09l-16.62,1.73-4.81.55-1.28.17a1.8,1.8,0,0,0-.44.09,1.4,1.4,0,0,0,.45,0l1.29-.08,4.82-.38,16.56-1.51,7.86,4.48v.07c.11,1.05.21,2.1.31,3.09l0,.3.29,0,21-2.14,6.26-.7,1.69-.22a2.23,2.23,0,0,0,.58-.12,2.2,2.2,0,0,0-.59,0Z" style="fill:#fff"></path><path d="M202,261.39l5.53,5.52.1.09h.13l15-1.53c.35,3.22.64,5.87.85,7.79.09.72.17,1.33.23,1.83,0,0-.07,0-.07.06s0,0,.09.05l0,.24a3.39,3.39,0,0,0,.13.76,3.48,3.48,0,0,0,0-.77v-.19a1.51,1.51,0,0,1,.8.51,1.25,1.25,0,0,1,.23,1.12,1.17,1.17,0,0,1-2.17.21,1.23,1.23,0,0,1,0-1.14c.35-.64.93-.7.9-.79s-.14-.08-.39,0a1.37,1.37,0,0,0-.87.59,1.63,1.63,0,0,0-.15,1.61,1.7,1.7,0,0,0,3.2-.32,1.61,1.61,0,0,0-.45-1.54,1.43,1.43,0,0,0-1-.42.49.49,0,0,0-.15,0c0-.51-.08-1.11-.13-1.83-.17-2-.4-4.7-.69-8V265l-.23,0-15,1.4-5.4-5.41Z" style="fill:#fff"></path></g><path d="M51,205.9S64.53,195,109.46,218.7c0,0,45.2,19.68,30.09,38.48-12.85,16-39.15,6.9-53.65.1a119.32,119.32,0,0,1-23.37-15C51,232.65,41.36,218.12,51,205.9Z" style="fill:#FF81AE"></path><path d="M51,205.9S64.53,195,109.46,218.7c0,0,45.2,19.68,30.09,38.48-12.85,16-39.15,6.9-53.65.1a119.32,119.32,0,0,1-23.37-15C51,232.65,41.36,218.12,51,205.9Z" style="opacity:0.4"></path><path d="M52,205.1s15.9-16.53,60.82,7.19c0,0,44.11,25.13,27.33,42.45-11.51,11.87-36.39,2.93-50.89-3.87-7.61-3.57-18.23-9.55-24.68-15C53,226.25,44.49,214,52,205.1Z" style="fill:#FF81AE"></path><ellipse cx="96.62" cy="229.8" rx="15.68" ry="40.18" transform="translate(-151.7 207.93) rotate(-62.16)" style="fill:#fff;opacity:0.2"></ellipse><path d="M121.16,239.25l-6.07-3.49a15.16,15.16,0,0,0-7.2-6.92c-5-2.16-7.75-1.07-7.75-1.07s-.1-4.94-7-8.21c-9-4.29-10.56-1.5-10.56-1.5l-7.42-4.26-2,3.46,6.32,3.63-.58,1-6.5-3.73-2.1,3.64,6.56,3.49-1,1.66,32.68,18.78,1.41-2.45,6.43,3.7,1.8-3.13-6-3.45.92-1.6,6,3.45Zm-28.84-7.91-8.12-4.67s2.2-5.6,7.3-3.17S92.32,231.34,92.32,231.34Zm13.32,7.31-7-4s1-5.28,5.87-3.06C110.12,234.11,105.64,238.65,105.64,238.65Z" style="fill:#FF81AE"></path><path d="M121.16,239.25l-6.07-3.49a15.16,15.16,0,0,0-7.2-6.92c-5-2.16-7.75-1.07-7.75-1.07s-.1-4.94-7-8.21c-9-4.29-10.56-1.5-10.56-1.5l-7.42-4.26-2,3.46,6.32,3.63-.58,1-6.5-3.73-2.1,3.64,6.56,3.49-1,1.66,32.68,18.78,1.41-2.45,6.43,3.7,1.8-3.13-6-3.45.92-1.6,6,3.45Zm-28.84-7.91-8.12-4.67s2.2-5.6,7.3-3.17S92.32,231.34,92.32,231.34Zm13.32,7.31-7-4s1-5.28,5.87-3.06C110.12,234.11,105.64,238.65,105.64,238.65Z" style="opacity:0.4"></path><path d="M122.65,236.6l-6.07-3.49a15.12,15.12,0,0,0-7.2-6.91c-5-2.16-7.74-1.07-7.74-1.07s-.1-4.94-7-8.21c-9-4.3-10.55-1.5-10.55-1.5l-7.42-4.27-2,3.47L81,218.25l-.58,1-6.5-3.74-2.09,3.65,6.56,3.49-1,1.65,32.67,18.79,1.41-2.46,6.44,3.7,1.8-3.12-6-3.46.91-1.59,6.2,3.56Zm-28.83-7.91L85.7,224s2.19-5.6,7.3-3.18S93.82,228.69,93.82,228.69ZM107.14,236l-7-4s1-5.28,5.86-3.07C111.62,231.47,107.14,236,107.14,236Z" style="fill:#FF81AE"></path><path d="M54,203.62s.3-.27,1-.65c.33-.19.73-.42,1.23-.65s1.07-.52,1.74-.78a37.72,37.72,0,0,1,11.8-2.69,50.68,50.68,0,0,1,8.4.11,61.6,61.6,0,0,1,9.47,1.74A115.17,115.17,0,0,1,108,208.64c14.14,6.67,25.22,16.08,31.2,24.44,3,4.2,4.47,8.27,4.7,11.16,0,.36.07.69.1,1v.89a6.9,6.9,0,0,1-.11,1.4,3.14,3.14,0,0,1-.25,1.12c-.16,0,.13-1.59-.33-4.35a25,25,0,0,0-5-10.59c-6.06-8-17-17.12-31-23.68a120.61,120.61,0,0,0-20.16-8A63.64,63.64,0,0,0,78,200.25a52.76,52.76,0,0,0-8.19-.3,42.12,42.12,0,0,0-11.66,2.15C55.45,203,54.05,203.75,54,203.62Z" style="fill:#fafafa"></path><path d="M132.63,247.37S139,231.8,105.3,213.5,61.08,211,61.08,211s8.74-13.07,43.82,5.33C135.45,232.39,132.63,247.37,132.63,247.37Z" style="opacity:0.4"></path><path d="M124,265.7c-.2,0,.11-1.27.63-2.7a7.38,7.38,0,0,1,1.21-2.51,8.1,8.1,0,0,1-.72,2.69A11.08,11.08,0,0,1,124,265.7Z" style="fill:#263238"></path><path d="M132.33,263.14c-.2,0,0-1.05.45-2.19s.89-2.05,1-2a5.15,5.15,0,0,1-.54,2.18A7.17,7.17,0,0,1,132.33,263.14Z" style="fill:#263238"></path><path d="M116.66,266a9.27,9.27,0,0,1,.77-3,9.13,9.13,0,0,1,1.26-2.79,9.35,9.35,0,0,1-.77,3A9,9,0,0,1,116.66,266Z" style="fill:#263238"></path><path d="M109.51,265.21a10.26,10.26,0,0,1,.84-3.16,10.15,10.15,0,0,1,1.33-3,20.44,20.44,0,0,1-2.17,6.14Z" style="fill:#263238"></path><path d="M101.73,263.1a10.26,10.26,0,0,1,.84-3.16,10.45,10.45,0,0,1,1.33-3,10.54,10.54,0,0,1-.84,3.16A10.29,10.29,0,0,1,101.73,263.1Z" style="fill:#263238"></path><path d="M94.54,260.54a10.26,10.26,0,0,1,.84-3.16,10.45,10.45,0,0,1,1.33-3,10.54,10.54,0,0,1-.84,3.16A10.29,10.29,0,0,1,94.54,260.54Z" style="fill:#263238"></path><path d="M87.35,258a10.26,10.26,0,0,1,.84-3.16,10.45,10.45,0,0,1,1.33-3A20.63,20.63,0,0,1,87.35,258Z" style="fill:#263238"></path><path d="M80.6,254.18a10.4,10.4,0,0,1,.83-3.16,10.61,10.61,0,0,1,1.33-3,10.4,10.4,0,0,1-.83,3.16A10.61,10.61,0,0,1,80.6,254.18Z" style="fill:#263238"></path><path d="M73.9,250.21a20.63,20.63,0,0,1,2.17-6.15,10.26,10.26,0,0,1-.84,3.16A10.45,10.45,0,0,1,73.9,250.21Z" style="fill:#263238"></path><path d="M67.26,246.06a10.61,10.61,0,0,1,.84-3.16,10.45,10.45,0,0,1,1.33-3,10.54,10.54,0,0,1-.84,3.16A10.29,10.29,0,0,1,67.26,246.06Z" style="fill:#263238"></path><path d="M61.18,241.35a20.63,20.63,0,0,1,2.17-6.15,10.61,10.61,0,0,1-.84,3.16A10.29,10.29,0,0,1,61.18,241.35Z" style="fill:#263238"></path><path d="M55.32,235.54a20.63,20.63,0,0,1,2.17-6.15,10.61,10.61,0,0,1-.84,3.16A10.29,10.29,0,0,1,55.32,235.54Z" style="fill:#263238"></path><path d="M50.88,228.69a8.6,8.6,0,0,1,.72-2.82,8.39,8.39,0,0,1,1.22-2.66A8.57,8.57,0,0,1,52.1,226,8.26,8.26,0,0,1,50.88,228.69Z" style="fill:#263238"></path><path d="M47.64,221.55a8.6,8.6,0,0,1,.72-2.82,8.26,8.26,0,0,1,1.22-2.65,8.54,8.54,0,0,1-.72,2.82A8.13,8.13,0,0,1,47.64,221.55Z" style="fill:#263238"></path><path d="M91.55,220.77c-.19.4-.94.45-1.74.53s-1.56.13-1.81-.23c-.11-.18,0-.47.27-.75a2.51,2.51,0,0,1,2.89-.24C91.5,220.3,91.63,220.58,91.55,220.77Z" style="fill:#fafafa"></path><path d="M105.84,229c-.26.35-1.08.21-2,.15s-1.72-.07-1.91-.47c-.09-.19,0-.48.42-.72a2.8,2.8,0,0,1,3.16.26C105.86,228.54,106,228.84,105.84,229Z" style="fill:#fafafa"></path><path d="M95.5,217.35c0,.09-.36,0-.86-.13l-2-.76a21.18,21.18,0,0,0-3-.9,8.73,8.73,0,0,0-3.64-.1,3.89,3.89,0,0,0-.73.22,3.06,3.06,0,0,0-.54.29l-.48.37-.44-.25c-4.18-2.49-7.22-4.6-7-4.94s3.55,1.23,7.8,3.6l-.91.11a3.41,3.41,0,0,1,1-.6,4.51,4.51,0,0,1,1-.33,9.09,9.09,0,0,1,4.33.23A15.09,15.09,0,0,1,93,215.45a11.8,11.8,0,0,1,1.9,1.24C95.35,217,95.56,217.26,95.5,217.35Z" style="fill:#fafafa"></path></g></svg>