<svg xmlns="http://www.w3.org/2000/svg" viewBox="0 0 500 500"><g id="freepik--Shadow--inject-466"><ellipse id="freepik--path--inject-466" cx="250" cy="415.69" rx="193.89" ry="11.32" style="fill:#f5f5f5"></ellipse></g><g id="freepik--Plant--inject-466"><path d="M120.78,376.77a.63.63,0,0,1-.59-.65c.74-29.39,2.25-77.6,2.33-77.87a.66.66,0,0,1,.8-.43.65.65,0,0,1,.43.8c0,.06-1.55,48.44-2.29,77.53a.63.63,0,0,1-.65.62Z" style="fill:#263238"></path><path d="M116.83,278.63c.25,2.26,3,10.11,5.22,9.87s3.23-8.5,3-10.76a4.12,4.12,0,0,0-8.2.89Z" style="fill:#92E3A9"></path><path d="M127.82,303.39c-.25-2.27-3-10.12-5.22-9.87s-3.22,8.49-3,10.76a4.12,4.12,0,0,0,8.2-.89Z" style="fill:#92E3A9"></path><path d="M110,296.5c2.26-.24,10.11-2.95,9.86-5.22s-8.49-3.22-10.75-3a4.12,4.12,0,1,0,.89,8.2Z" style="fill:#92E3A9"></path><path d="M134.7,285.52c-2.26.24-10.11,3-9.86,5.22s8.49,3.22,10.75,3a4.12,4.12,0,1,0-.89-8.19Z" style="fill:#92E3A9"></path><path d="M109.69,286.14c1.77,1.43,9.24,5.06,10.67,3.29s-3.73-8.29-5.5-9.72a4.13,4.13,0,1,0-5.17,6.43Z" style="fill:#92E3A9"></path><path d="M135,295.88c-1.77-1.43-9.24-5.06-10.66-3.29s3.72,8.29,5.5,9.71a4.12,4.12,0,1,0,5.16-6.42Z" style="fill:#92E3A9"></path><path d="M117.46,303.64c1.43-1.77,5.06-9.24,3.28-10.66s-8.28,3.72-9.71,5.5a4.12,4.12,0,1,0,6.43,5.16Z" style="fill:#92E3A9"></path><path d="M127.19,278.37c-1.42,1.78-5.06,9.24-3.28,10.67s8.28-3.73,9.71-5.5a4.13,4.13,0,1,0-6.43-5.17Z" style="fill:#92E3A9"></path><g style="opacity:0.6000000000000001;isolation:isolate"><path d="M116.83,278.63c.25,2.26,3,10.11,5.22,9.87s3.23-8.5,3-10.76a4.12,4.12,0,0,0-8.2.89Z" style="fill:#fff"></path><path d="M127.82,303.39c-.25-2.27-3-10.12-5.22-9.87s-3.22,8.49-3,10.76a4.12,4.12,0,0,0,8.2-.89Z" style="fill:#fff"></path><path d="M110,296.5c2.26-.24,10.11-2.95,9.86-5.22s-8.49-3.22-10.75-3a4.12,4.12,0,1,0,.89,8.2Z" style="fill:#fff"></path><path d="M134.7,285.52c-2.26.24-10.11,3-9.86,5.22s8.49,3.22,10.75,3a4.12,4.12,0,1,0-.89-8.19Z" style="fill:#fff"></path><path d="M109.69,286.14c1.77,1.43,9.24,5.06,10.67,3.29s-3.73-8.29-5.5-9.72a4.13,4.13,0,1,0-5.17,6.43Z" style="fill:#fff"></path><path d="M135,295.88c-1.77-1.43-9.24-5.06-10.66-3.29s3.72,8.29,5.5,9.71a4.12,4.12,0,1,0,5.16-6.42Z" style="fill:#fff"></path><path d="M117.46,303.64c1.43-1.77,5.06-9.24,3.28-10.66s-8.28,3.72-9.71,5.5a4.12,4.12,0,1,0,6.43,5.16Z" style="fill:#fff"></path><path d="M127.19,278.37c-1.42,1.78-5.06,9.24-3.28,10.67s8.28-3.73,9.71-5.5a4.13,4.13,0,1,0-6.43-5.17Z" style="fill:#fff"></path></g><path d="M117.47,291.54a4.88,4.88,0,1,0,4.33-5.39A4.88,4.88,0,0,0,117.47,291.54Z" style="fill:#92E3A9"></path><path d="M118,355.24c-5.63.12-15.27-5.08-19.06-10.16s6.94-2,5.82-6-14.41-1-16.88-6.82,7.13-4.49,6.74-7.46-10.33-2.34-13.54-8.5,5.55-2.74,4.17-5.29-12.37-13.3-7.79-15.56,14.88,8.93,18.33,10.18,4.23-6.51,8.71-2.82,1.19,19.91,6.47,22c3.93,1.58,2.24-5.83,6.76-4C125.61,324.08,120.24,355.19,118,355.24Z" style="fill:#92E3A9"></path><g style="opacity:0.2"><path d="M118,355.24c-5.63.12-15.27-5.08-19.06-10.16s6.94-2,5.82-6-14.41-1-16.88-6.82,7.13-4.49,6.74-7.46-10.33-2.34-13.54-8.5,5.55-2.74,4.17-5.29-12.37-13.3-7.79-15.56,14.88,8.93,18.33,10.18,4.23-6.51,8.71-2.82,1.19,19.91,6.47,22c3.93,1.58,2.24-5.83,6.76-4C125.61,324.08,120.24,355.19,118,355.24Z" style="fill:#fff"></path></g><path d="M126.05,348.09c.09.16-.75,1,2,1.07,6.85.28,19-.18,23.51-6.41,6.5-8.89-8.48-8.07-7-13s17.55-.9,20.69-7.9-8.57-5.63-8-9.24,12.82,1.07,16.87-6.36-6.68-3.45-5-6.53S184.52,283.86,179,281,160.69,291.52,156.47,293s-5.2-11.68-10.74-7.29-1.91,24.18-8.38,26.64c-4.82,1.83-2.19-5.27-8.14-5C121.14,307.68,118.48,335.44,126.05,348.09Z" style="fill:#92E3A9"></path><g style="opacity:0.30000000000000004"><path d="M126.05,348.09c.09.16-.75,1,2,1.07,6.85.28,19-.18,23.51-6.41,6.5-8.89-8.48-8.07-7-13s17.55-.9,20.69-7.9-8.57-5.63-8-9.24,12.82,1.07,16.87-6.36-6.68-3.45-5-6.53S184.52,283.86,179,281,160.69,291.52,156.47,293s-5.2-11.68-10.74-7.29-1.91,24.18-8.38,26.64c-4.82,1.83-2.19-5.27-8.14-5C121.14,307.68,118.48,335.44,126.05,348.09Z" style="fill:#fff"></path></g><path d="M120.92,372.33h0a.44.44,0,0,1-.39-.5c5.62-46,32.13-64.72,32.4-64.9a.44.44,0,1,1,.5.73c-.26.19-26.44,18.69-32,64.28A.45.45,0,0,1,120.92,372.33Z" style="fill:#263238"></path><path d="M146.85,313.32a.43.43,0,0,1-.4-.3.45.45,0,0,1,.28-.57c.17-.05,4.12-1.3,10.58.07a.46.46,0,0,1,.35.53.45.45,0,0,1-.53.35c-6.22-1.32-10.08-.11-10.12-.1A.41.41,0,0,1,146.85,313.32Z" style="fill:#263238"></path><path d="M142,318.91a.44.44,0,0,1-.43-.44c-.14-13.92,7.92-24.79,8-24.9a.46.46,0,0,1,.62-.09.45.45,0,0,1,.09.63c-.08.1-8,10.75-7.82,24.35a.45.45,0,0,1-.44.45Z" style="fill:#263238"></path><path d="M134.06,330.69a.41.41,0,0,1-.3-.14.44.44,0,0,1,0-.63c.06-.05,6-5.57,13.84-2.77a.45.45,0,0,1-.3.84c-7.3-2.62-12.87,2.53-12.92,2.58A.43.43,0,0,1,134.06,330.69Z" style="fill:#263238"></path><path d="M129.93,338.91a.46.46,0,0,1-.39-.27,33.6,33.6,0,0,1-1.43-17.26.44.44,0,0,1,.51-.37.45.45,0,0,1,.37.51,33.24,33.24,0,0,0,1.37,16.77.44.44,0,0,1-.23.58A.48.48,0,0,1,129.93,338.91Z" style="fill:#263238"></path><path d="M121.09,388.77a.44.44,0,0,1-.42-.43l-.58-12.19c-1.71-40.53-29.5-68.09-29.78-68.36a.45.45,0,0,1,.62-.64c.28.28,28.33,28.07,30.05,69l.58,12.19a.45.45,0,0,1-.43.46Z" style="fill:#263238"></path><path d="M101.77,323h-.07a.24.24,0,0,1-.13-.05l-.15-.05A28.73,28.73,0,0,0,90,320.68a.45.45,0,0,1-.46-.43.45.45,0,0,1,.44-.46,29.9,29.9,0,0,1,11.81,2.28l.14.06.08,0a.43.43,0,0,1,.23.49A.44.44,0,0,1,101.77,323Z" style="fill:#263238"></path><path d="M105.7,328.23h0a.43.43,0,0,1-.4-.48c1.07-12-5.12-21.81-5.19-21.9a.45.45,0,0,1,.76-.48c.06.1,6.42,10.18,5.31,22.46A.44.44,0,0,1,105.7,328.23Z" style="fill:#263238"></path><path d="M109.76,335.16a.43.43,0,0,1-.3-.13,12.1,12.1,0,0,0-11.16-2.74.45.45,0,0,1-.55-.32.44.44,0,0,1,.32-.54,12.75,12.75,0,0,1,12,3,.44.44,0,0,1,0,.63A.42.42,0,0,1,109.76,335.16Z" style="fill:#263238"></path><path d="M114.91,346.58a.41.41,0,0,1-.19-.05.44.44,0,0,1-.19-.6,29.44,29.44,0,0,0,2.39-14.67.45.45,0,0,1,.41-.48.44.44,0,0,1,.48.41,29.74,29.74,0,0,1-2.49,15.15A.44.44,0,0,1,114.91,346.58Z" style="fill:#263238"></path><path d="M146.16,390.69c0,14.21-6.4,25.74-25.76,25.74-18.48,0-25.75-11.53-25.75-25.74a25.69,25.69,0,0,1,4.45-14.47h42.61A25.69,25.69,0,0,1,146.16,390.69Z" style="fill:#92E3A9"></path><path d="M146.16,390.69c0,14.21-6.4,25.74-25.76,25.74-18.48,0-25.75-11.53-25.75-25.74a25.69,25.69,0,0,1,4.45-14.47h42.61A25.69,25.69,0,0,1,146.16,390.69Z" style="fill:#fff;opacity:0.7000000000000001"></path></g></svg>