<svg xmlns="http://www.w3.org/2000/svg" viewBox="0 0 500 500"><g id="freepik--Balloons--inject-2"><g id="freepik--Ballons--inject-2"><polygon points="238.9 399.83 219.07 388.37 219.07 380.34 218.66 380.1 218.66 374.25 238.9 385.94 238.9 399.83" style="fill:#BA68C8"></polygon><polygon points="238.9 399.83 219.07 388.37 219.07 380.34 218.66 380.1 218.66 374.25 238.9 385.94 238.9 399.83" style="opacity:0.1"></polygon><polygon points="238.9 391.78 231.31 387.4 219.07 380.34 219.07 381.18 238.9 392.62 238.9 391.78" style="opacity:0.15"></polygon><polygon points="238.9 399.83 258.61 388.46 258.61 380.4 259.14 380.1 259.14 374.25 238.9 385.94 238.9 399.83" style="fill:#BA68C8"></polygon><polygon points="258.62 380.4 238.9 391.78 238.9 392.62 258.62 381.25 258.62 380.4" style="opacity:0.1"></polygon><polygon points="259.14 374.25 238.9 362.56 218.66 374.25 238.9 385.94 259.14 374.25" style="fill:#BA68C8"></polygon><polygon points="259.14 374.25 238.9 362.56 218.66 374.25 238.9 385.94 259.14 374.25" style="fill:#fff;opacity:0.4"></polygon><path d="M249,394.48a.5.5,0,0,1-.5-.5V380.37l-20-11.54a.5.5,0,0,1-.19-.68A.51.51,0,0,1,229,368l20.24,11.69a.5.5,0,0,1,.25.43V394A.5.5,0,0,1,249,394.48Z" style="fill:#455a64"></path><path d="M228.61,394.48a.5.5,0,0,1-.5-.5v-13.9a.5.5,0,0,1,.25-.43L248.6,368a.51.51,0,0,1,.68.19.49.49,0,0,1-.18.68l-20,11.54V394A.51.51,0,0,1,228.61,394.48Z" style="fill:#455a64"></path><path d="M230.86,99.17h0c0-2-4.21-7.21-5-7.19s-4.29,5.33-4.24,7.41h0a2.31,2.31,0,0,0,1.38,1.86,7.17,7.17,0,0,0,6.52-.16,2.29,2.29,0,0,0,1.31-1.92Z" style="fill:#BA68C8"></path><path d="M230.86,99.17h0c0-2-4.21-7.21-5-7.19s-4.29,5.33-4.24,7.41h0a2.31,2.31,0,0,0,1.38,1.86,7.17,7.17,0,0,0,6.52-.16,2.29,2.29,0,0,0,1.31-1.92Z" style="opacity:0.1"></path><path d="M252.08,56.32c.35,14.92-10.91,34-26.14,38-15.5-4-27.54-21.78-27.89-36.7S207,28.51,224.39,28.1,251.73,41.4,252.08,56.32Z" style="fill:#BA68C8"></path><path d="M199.39,65.36s4.36,14.22,22.11,15c17.1.7,30.55-18.37,29.74-30.77a33.9,33.9,0,0,1,.84,6.78c.35,14.92-10.91,34-26.14,38C213.09,91,202.63,78.21,199.22,65.43Z" style="opacity:0.05"></path><path d="M267.85,161.59h0c.49-1.89-2.09-8.08-2.83-8.27s-5.58,4-6.1,6h0a2.32,2.32,0,0,0,.83,2.17,7.19,7.19,0,0,0,6.32,1.62,2.3,2.3,0,0,0,1.78-1.49Z" style="fill:#BA68C8"></path><g style="opacity:0.35000000000000003"><path d="M267.85,161.59h0c.49-1.89-2.09-8.08-2.83-8.27s-5.58,4-6.1,6h0a2.32,2.32,0,0,0,.83,2.17,7.19,7.19,0,0,0,6.32,1.62,2.3,2.3,0,0,0,1.78-1.49Z"></path></g><path d="M299.91,126.12c-3.71,14.45-19.74,29.79-35.47,29.43-13.85-8-20.59-28.44-16.88-42.89s16.5-25.56,33.36-21.23S303.63,111.66,299.91,126.12Z" style="fill:#BA68C8"></path><path d="M299.91,126.12c-3.71,14.45-19.74,29.79-35.47,29.43-13.85-8-20.59-28.44-16.88-42.89s16.5-25.56,33.36-21.23S303.63,111.66,299.91,126.12Z" style="opacity:0.35000000000000003"></path><path d="M246.75,120.5s.33,14.87,17.21,20.4c16.27,5.32,34.39-9.39,37-21.54a33.52,33.52,0,0,1-1,6.76c-3.71,14.45-19.74,29.79-35.47,29.43-11.47-6.63-18.07-21.8-17.87-35Z" style="opacity:0.1"></path><path d="M232.68,168.74h0c-.66-1.83-6.28-5.5-7-5.24s-2.38,6.42-1.68,8.37h0a2.3,2.3,0,0,0,1.91,1.32A7.14,7.14,0,0,0,232,171a2.31,2.31,0,0,0,.64-2.24Z" style="fill:#BA68C8"></path><g style="opacity:0.35000000000000003"><path d="M232.68,168.74h0c-.66-1.83-6.28-5.5-7-5.24s-2.38,6.42-1.68,8.37h0a2.3,2.3,0,0,0,1.91,1.32A7.14,7.14,0,0,0,232,171a2.31,2.31,0,0,0,.64-2.24Z"></path></g><path d="M239.23,121.38c5.06,14,.43,35.74-12.77,44.29-16,1.17-33-11.93-38.08-26s-.74-30.41,15.64-36.31S234.17,107.34,239.23,121.38Z" style="fill:#BA68C8"></path><path d="M239.23,121.38c5.06,14,.43,35.74-12.77,44.29-16,1.17-33-11.93-38.08-26s-.74-30.41,15.64-36.31S234.17,107.34,239.23,121.38Z" style="opacity:0.35000000000000003"></path><path d="M192.12,146.64s8.63,12.11,25.7,7.18c16.44-4.75,23.15-27.1,18.46-38.61a35,35,0,0,1,2.95,6.17c5.06,14,.43,35.74-12.77,44.29-13.22,1-27.2-7.86-34.49-18.91Z" style="opacity:0.1"></path><path d="M198.32,201.1a70.92,70.92,0,0,1,2.75,8.27,56.74,56.74,0,0,1,1,8.82,108.63,108.63,0,0,0,3.42,18.33c3.17,11.94,7.41,23.55,10.18,35.6q2.09,9.06,3.36,18.28c.4,2.89.76,5.78.87,8.7.11,2.75.12,5.5.48,8.23.77,5.81,3.84,11.09,5.52,16.66a72.29,72.29,0,0,1,2.15,9.06c.48,2.87.55,5.75.8,8.64a43.6,43.6,0,0,0,1.39,8.35c.74,2.55,1.44,5.09,2.06,7.67,1.15,4.85,2.17,9.87,4.59,14.28a21.74,21.74,0,0,0,2,3c.29.38,1.18.09.83-.38-3.07-4.14-4.38-9.32-5.57-14.25-.63-2.63-1.22-5.27-1.95-7.87a58.26,58.26,0,0,1-1.83-7.92c-.39-2.85-.43-5.72-.71-8.57a58.25,58.25,0,0,0-1.69-9,78,78,0,0,0-2.78-8.58,82.27,82.27,0,0,1-3.09-8.46,37.67,37.67,0,0,1-.93-8.34c-.09-2.71-.2-5.38-.53-8.07-.75-6.14-1.78-12.26-3.07-18.32-2.58-12.09-6.66-23.73-10-35.61a132.74,132.74,0,0,1-4-18.07c-.42-3-.47-5.95-.86-8.92a31.35,31.35,0,0,0-2-7.61c-.55-1.38-1.17-2.72-1.8-4.06-.13-.29-.69-.31-.54.09Z" style="fill:#e0e0e0"></path><path d="M198.21,199.93a6.52,6.52,0,0,0,1.91,10.24,5.65,5.65,0,0,0,5.35-.33c1.24-.78,3.22-3.09,1.75-4.51A2,2,0,0,0,205,205a2.72,2.72,0,0,0-1.29,2.38,4,4,0,0,0,3.1,4c1.74.38,4-.59,4.43-2.44a1.9,1.9,0,0,0-1-2.29c-.81-.29-1.43.37-1.64,1.1a3.33,3.33,0,0,0,2.94,4,3,3,0,0,0,3-3.72c-.06-.24-.45-.38-.43,0A2.91,2.91,0,0,1,211.7,211a2.47,2.47,0,0,1-2.64-2.73,1.51,1.51,0,0,1,.42-.9c.67-.58,1.14.28,1,.9a3.16,3.16,0,0,1-1.18,1.69,2.87,2.87,0,0,1-3.51.06,3,3,0,0,1-.85-3.58c.27-.49,1-1.07,1.52-.64s0,1.62-.39,2.09a4.59,4.59,0,0,1-6.7.78,5.47,5.47,0,0,1-1.9-3.89,7.45,7.45,0,0,1,1.36-4.32c.21-.34-.31-.86-.61-.55Z" style="fill:#e0e0e0"></path><path d="M202.45,201h0c-.78-1.85-6.77-5.32-7.5-5s-2.1,6.74-1.27,8.71h0a2.37,2.37,0,0,0,2,1.26,7.4,7.4,0,0,0,6.21-2.61,2.38,2.38,0,0,0,.53-2.34Z" style="fill:#BA68C8"></path><path d="M202.45,201h0c-.78-1.85-6.77-5.32-7.5-5s-2.1,6.74-1.27,8.71h0a2.37,2.37,0,0,0,2,1.26,7.4,7.4,0,0,0,6.21-2.61,2.38,2.38,0,0,0,.53-2.34Z" style="opacity:0.1"></path><path d="M202.45,201h0c-.78-1.85-6.77-5.32-7.5-5s-2.1,6.74-1.27,8.71h0a2.37,2.37,0,0,0,2,1.26,7.4,7.4,0,0,0,6.21-2.61,2.38,2.38,0,0,0,.53-2.34Z" style="fill:#fff;opacity:0.30000000000000004"></path><path d="M206.6,151.79c6,14.19,2.41,36.81-10.73,46.35-16.38,2.08-34.69-10.48-40.68-24.68s-2.43-31.31,14.13-38.29S200.62,137.59,206.6,151.79Z" style="fill:#BA68C8"></path><path d="M206.6,151.79c6,14.19,2.41,36.81-10.73,46.35-16.38,2.08-34.69-10.48-40.68-24.68s-2.43-31.31,14.13-38.29S200.62,137.59,206.6,151.79Z" style="fill:#fff;opacity:0.5"></path><path d="M159.43,180.41s9.57,12,26.88,6c16.69-5.8,22.38-29.2,16.91-40.81a34.35,34.35,0,0,1,3.38,6.2c6,14.19,2.41,36.81-10.73,46.35-13.57,1.72-28.47-6.61-36.58-17.6Z" style="opacity:0.05"></path><path d="M205.5,141.7c1.91,7.66,1.66,15.57,2.59,23.35.88,7.39,3.73,14.17,6.24,21.12,2.43,6.71,4.62,13.55,5.37,20.68.83,7.9-.31,15.87-.16,23.79a61.37,61.37,0,0,0,1.35,12c.85,3.83,2,7.58,3.05,11.36a76.67,76.67,0,0,1,2.43,11.33,81.1,81.1,0,0,1,.37,12.47c-.28,7.81-1.15,15.61-.68,23.43a50.48,50.48,0,0,0,1.9,11.44c1.07,3.59,2.29,7.12,3.14,10.77,1.77,7.65,1.63,15.41,2,23.21s1.12,15.5,3.62,22.9a51.88,51.88,0,0,0,2.16,5.37c.24.5,1.17.32.91-.28-3.2-7.18-4.64-15.09-5.21-22.88s-.11-15.71-1.28-23.45a76.34,76.34,0,0,0-2.45-10.54,85.43,85.43,0,0,1-3-11.11c-1.23-7.87-.59-15.84-.14-23.74s.58-15.79-1.17-23.55c-1.71-7.6-4.58-14.93-5.44-22.71-.9-8.15.14-16.29.08-24.45a67.8,67.8,0,0,0-3.74-20.57c-1.09-3.33-2.32-6.62-3.53-9.91a109.67,109.67,0,0,1-3.61-10.52c-2-7.75-1.4-15.8-2.78-23.63a47.49,47.49,0,0,0-1.42-5.88c-.11-.34-.7-.45-.58,0Z" style="fill:#e0e0e0"></path><path d="M203.42,141.45c1.35,2.61,2.39,5.8.73,8.53a4.24,4.24,0,0,1-3.36,2.09,3.52,3.52,0,0,1-1.66-.29c-.59-.28-1.63-1.14-.93-1.83s1.43-.11,2,.2a5.9,5.9,0,0,1,1.81,1.37,3.09,3.09,0,0,1,.15,3.6,3.66,3.66,0,0,1-3.41,1.62c-.56,0-1.51-.19-1.85-.71a.59.59,0,0,1,.47-.88,1.54,1.54,0,0,1,1.21.6,4,4,0,0,1,.34,4.24,5.39,5.39,0,0,1-3.81,2.94c-.34.07,0,.68.28.64a5.59,5.59,0,0,0,4.3-3,4.78,4.78,0,0,0-.26-5,2.77,2.77,0,0,0-2.24-1.19,1.32,1.32,0,0,0-1.3,1.52c.39,1.75,3.26,1.93,4.62,1.57a4.13,4.13,0,0,0,3.13-3.88c0-2-1.5-3.27-3.11-4.14a3,3,0,0,0-2.64-.37,1.45,1.45,0,0,0-.74,1.94c.74,1.77,3.17,2.22,4.84,1.79a5.53,5.53,0,0,0,3.86-4.37,9,9,0,0,0-2-7.14c-.2-.26-.63-.15-.45.2Z" style="fill:#f0f0f0"></path><path d="M210.33,142.86h0c-.59-2-6.35-6.28-7.14-6s-2.95,6.71-2.33,8.84h0a2.47,2.47,0,0,0,1.95,1.53,7.65,7.65,0,0,0,6.7-2,2.46,2.46,0,0,0,.82-2.35Z" style="fill:#BA68C8"></path><path d="M210.33,142.86h0c-.59-2-6.35-6.28-7.14-6s-2.95,6.71-2.33,8.84h0a2.47,2.47,0,0,0,1.95,1.53,7.65,7.65,0,0,0,6.7-2,2.46,2.46,0,0,0,.82-2.35Z" style="opacity:0.25"></path><path d="M220.37,92.67c4.51,15.33-1.83,38.22-16.48,46.5-17.12.23-34.52-14.86-39-30.19s1.16-32.54,19-37.79S215.87,77.35,220.37,92.67Z" style="fill:#BA68C8"></path><path d="M220.37,92.67c4.51,15.33-1.83,38.22-16.48,46.5-17.12.23-34.52-14.86-39-30.19s1.16-32.54,19-37.79S215.87,77.35,220.37,92.67Z" style="opacity:0.1"></path><path d="M168.42,116.64s8.45,13.49,27,9.32c17.87-4,26.47-27.47,22.2-40.06a35.83,35.83,0,0,1,2.75,6.77c4.51,15.33-1.83,38.22-16.48,46.5-14.19.19-28.56-10.14-35.63-22.41Z" style="opacity:0.05"></path><path d="M235.8,192.78c-2.07,11.82-.46,24,.21,35.92.68,12.07,0,24.12-.58,36.17s-1,24.11-1.29,36.17c-.12,5.89-.1,11.8.29,17.69s1.33,11.53,1.85,17.32c.54,6,.12,12-.06,18.08a59.36,59.36,0,0,0,1.47,16.71c.34,1.33.71,2.65,1.1,4,.15.5,1.15.54,1-.06a64.59,64.59,0,0,1-2.43-17.08c0-5.94.65-11.89.38-17.82-.25-5.71-1.18-11.34-1.76-17a162.47,162.47,0,0,1-.69-18.06c.11-12,.66-24.1,1.17-36.13s1.37-23.84.92-35.76c-.23-5.86-.73-11.71-1.11-17.56a173,173,0,0,1-.19-17.49c.06-1.58.19-3.16.32-4.74,0-.3-.52-.73-.59-.31Z" style="fill:#e0e0e0"></path><path d="M237.3,196.89a4.81,4.81,0,0,0,4.2,7c1.25,0,3.4-.84,2.74-2.48s-3.17-1.18-4.25-.47c-2.86,1.89-2.19,6.71,1.16,7.58A3.64,3.64,0,0,0,245,207.4a1.55,1.55,0,0,0-1.58-2.49,3.38,3.38,0,0,0-2.66,3.69,3.5,3.5,0,0,0,3.64,2.9c.4,0,.15-.66-.16-.67a2.77,2.77,0,0,1-2.54-1.8,2.72,2.72,0,0,1,1.07-3c.39-.28,1.27-.71,1.61-.23s-.17,1.1-.51,1.41a2.91,2.91,0,0,1-2.94.41c-2.09-.84-2.25-3.74-1-5.35a3.12,3.12,0,0,1,1.25-1c.52-.21,1.75-.37,2.21.07s-.42,1.31-.86,1.5a3.47,3.47,0,0,1-1.69.23c-2.83-.35-3.84-3.41-3.08-5.85.07-.24-.28-.67-.44-.35Z" style="fill:#e0e0e0"></path><path d="M240.9,197.22h0c0-2-4.17-7.62-5-7.63s-4.62,5.42-4.63,7.58h0a2.38,2.38,0,0,0,1.39,2,7.47,7.47,0,0,0,6.78,0,2.41,2.41,0,0,0,1.43-2Z" style="fill:#BA68C8"></path><path d="M240.9,197.22h0c0-2-4.17-7.62-5-7.63s-4.62,5.42-4.63,7.58h0a2.38,2.38,0,0,0,1.39,2,7.47,7.47,0,0,0,6.78,0,2.41,2.41,0,0,0,1.43-2Z" style="opacity:0.1"></path><path d="M240.9,197.22h0c0-2-4.17-7.62-5-7.63s-4.62,5.42-4.63,7.58h0a2.38,2.38,0,0,0,1.39,2,7.47,7.47,0,0,0,6.78,0,2.41,2.41,0,0,0,1.43-2Z" style="opacity:0.30000000000000004"></path><path d="M264.27,153.27c-.09,15.54-12.38,35.09-28.35,38.72-16-4.57-28-23.49-27.93-39s10.18-30,28.3-29.89S264.35,137.73,264.27,153.27Z" style="fill:#BA68C8"></path><path d="M264.27,153.27c-.09,15.54-12.38,35.09-28.35,38.72-16-4.57-28-23.49-27.93-39s10.18-30,28.3-29.89S264.35,137.73,264.27,153.27Z" style="opacity:0.2"></path><path d="M209.16,161.09s4.11,14.93,22.56,16.22c17.77,1.25,32.34-18.19,31.87-31.13a35.58,35.58,0,0,1,.68,7.09c-.09,15.54-12.38,35.09-28.35,38.72-13.27-3.79-23.78-17.43-26.94-30.83Z" style="opacity:0.1"></path><g style="opacity:0.30000000000000004"><path d="M307.77,161.8h0c.61-1.85-1.56-8.21-2.29-8.45s-5.82,3.59-6.47,5.56h0a2.31,2.31,0,0,0,.68,2.22,7.21,7.21,0,0,0,6.2,2,2.33,2.33,0,0,0,1.88-1.37Z" style="fill:#fff;opacity:0.7000000000000001"></path></g><path d="M342.1,128.52c-4.66,14.18-21.67,28.42-37.34,27-13.28-8.9-18.66-29.73-14-43.91s18.16-24.41,34.69-19S346.77,114.34,342.1,128.52Z" style="fill:#BA68C8"></path><path d="M342.1,128.52c-4.66,14.18-21.67,28.42-37.34,27-13.28-8.9-18.66-29.73-14-43.91s18.16-24.41,34.69-19S346.77,114.34,342.1,128.52Z" style="fill:#fff;opacity:0.7000000000000001"></path><path d="M289.43,119.4s-.65,14.86,15.82,21.49c15.88,6.39,34.94-7.08,38.33-19a33.22,33.22,0,0,1-1.48,6.67c-4.66,14.18-21.67,28.42-37.34,27-11-7.38-16.58-22.95-15.52-36.13Z" style="opacity:0.1"></path><path d="M278.4,112.92c-.72,8.34-3.78,16.14-5.33,24.32-1.69,8.89-.21,17.83-.07,26.78a44.21,44.21,0,0,1-2.13,13.3c-.6,2.07-1.24,4.13-1.78,6.21s-.78,4.17-1.1,6.28a21.36,21.36,0,0,1-1.84,6.11,52.83,52.83,0,0,0-2.71,5.87,61.93,61.93,0,0,0-2.76,13c-1.05,9.22-.65,18.52-1.3,27.77s-2.89,17.93-5.31,26.74-4.76,17.49-5,26.63-.54,18.41-2.09,27.44c-.6,3.5-1.44,6.95-2.1,10.43s-1.34,7.27-2,10.92q-.84,4.9-1.66,9.83c-.39,2.32-.74,4.66-1.19,7s-1,4.39-1.3,6.63a24.75,24.75,0,0,0,0,6.66c.08.53,1.07.55,1-.06-.64-5,.89-9.7,1.76-14.57.66-3.7,1.23-7.41,1.86-11.12,1.19-7,2.36-14,3.85-20.91a146.09,146.09,0,0,0,2.91-26.55c.14-4.63.05-9.29.77-13.88a130.34,130.34,0,0,1,2.92-13.1c2.27-8.55,4.93-17.05,6.11-25.85,1.24-9.24.86-18.59,1.4-27.87a83.22,83.22,0,0,1,1.76-13.54,37,37,0,0,1,2.08-6.86c.84-1.9,1.9-3.69,2.69-5.61,1.59-3.9,1.57-8.27,2.67-12.31,1.16-4.23,2.66-8.4,3.3-12.76s.23-8.83,0-13.18a112.8,112.8,0,0,1-.43-13.63c.53-8.28,3.83-16,5.09-24.13a47.65,47.65,0,0,0,.52-5.73c0-.28-.57-.61-.6-.23Z" style="fill:#e0e0e0"></path><path d="M281.1,114.33c-2.17,2.36-2.8,7.22.47,9a3.63,3.63,0,0,0,4-.24,1.73,1.73,0,0,0-.82-3.09c-1.61-.35-3.22,1.2-3.85,2.54a4,4,0,0,0,.35,4,2.61,2.61,0,0,0,3.57.28c.47-.37,1-1.09.56-1.68a1.85,1.85,0,0,0-1.68-.52,4.32,4.32,0,0,0-3.66,3.13c-.42,1.58.63,3.83,2.57,3.33.32-.08.06-.62-.2-.61-1.38,0-1.8-1.41-1.47-2.53a3.7,3.7,0,0,1,2-2.24c.36-.16,1.1-.47,1.5-.3s-.42.91-.7,1a1.48,1.48,0,0,1-2.15-1.13,3.46,3.46,0,0,1,.46-2.83c.53-.8,1.85-2.16,2.91-1.62.65.32.5,1,.06,1.47a2.32,2.32,0,0,1-1.45.66,3,3,0,0,1-2.81-1.38,4.84,4.84,0,0,1-.64-3.38,14.73,14.73,0,0,1,1.32-3.51c.06-.16-.14-.6-.33-.39Z" style="fill:#e0e0e0"></path><path d="M283.61,117.4h0c.55-1.84-1.77-8.05-2.49-8.26s-5.65,3.7-6.23,5.67h0a2.24,2.24,0,0,0,.74,2.17,7.08,7.08,0,0,0,6.17,1.83,2.26,2.26,0,0,0,1.81-1.41Z" style="fill:#BA68C8"></path><path d="M283.61,117.4h0c.55-1.84-1.77-8.05-2.49-8.26s-5.65,3.7-6.23,5.67h0a2.24,2.24,0,0,0,.74,2.17,7.08,7.08,0,0,0,6.17,1.83,2.26,2.26,0,0,0,1.81-1.41Z" style="opacity:0.15"></path><path d="M316.54,83.57c-4.19,14.13-20.57,28.68-36.07,27.75-13.37-8.41-19.28-28.81-15.09-42.94s17.22-24.62,33.7-19.72S320.74,69.45,316.54,83.57Z" style="fill:#BA68C8"></path><path d="M264.3,76.09s-.22,14.68,16.23,20.75c15.86,5.85,34.28-8,37.28-19.9a33.74,33.74,0,0,1-1.27,6.63c-4.19,14.13-20.57,28.68-36.07,27.75-11.08-7-17-22.17-16.36-35.22Z" style="opacity:0.05"></path><path d="M246.54,133.44c.57,7.77-.75,15.48-1.41,23.2a58.3,58.3,0,0,0,0,11.74c.46,3.83,1.43,7.61,2.15,11.4,3,15.66,5.29,31.64,4.46,47.62s-4.42,31.57-6.39,47.39c-2,16.34-1.1,32.8-2.5,49.17-.67,7.72-3.21,15.12-3.8,22.87-.31,4-.42,8-.61,12-.18,3.62-.64,7.26-.49,10.88a19.42,19.42,0,0,0,.84,5.08c.16.5,1.16.54,1-.06-1.12-3.87-.66-7.88-.38-11.83s.39-7.88.59-11.82a83.25,83.25,0,0,1,1.27-11.69c.73-3.77,1.68-7.48,2.29-11.27,1.3-8.07,1.19-16.43,1.34-24.59s.32-16.33,1.17-24.46c1.66-15.86,5.3-31.45,6.58-47.35s-.5-31.53-3.29-47.05c-1.36-7.63-3.55-15.23-3.42-23,.13-7.58,1.74-15.09,1.62-22.68a42.23,42.23,0,0,0-.41-5.39c0-.31-.64-.6-.6-.15Z" style="fill:#e0e0e0"></path><path d="M246.17,132.61a14.78,14.78,0,0,1-1.9,2.7,8.41,8.41,0,0,0-1.26,3.36c-.39,2.15-.48,4.77,1.07,6.5,2.27,2.54,7,2.14,9.06-.55a1.9,1.9,0,0,0,0-2.57c-.84-.77-1.91-.32-2.68.28-1.69,1.31-3,3.51-2,5.65s3.72,2.22,5.57,1.27c.78-.4,2.09-1.16,2.15-2.15s-1.27-1.23-2.06-1a4.59,4.59,0,0,0-3.48,5,4.69,4.69,0,0,0,5,3.84c.43-.05.12-.7-.2-.7a3.93,3.93,0,0,1-3.64-2.41,3.74,3.74,0,0,1,1.24-4.15c.26-.22,2-1.3,2.12-.56,0,.26-.57.67-.72.79a6,6,0,0,1-1.36.81c-1.67.71-3.76.15-3.9-1.91a4.65,4.65,0,0,1,2.61-4.08c.44-.21.76-.09.83.41a1.59,1.59,0,0,1-.48,1.17,4.9,4.9,0,0,1-1.63,1.19c-2.1,1-5,.67-6.12-1.61-.88-1.82-.49-4.38,0-6.25a6.87,6.87,0,0,1,1.28-2.4,7.32,7.32,0,0,0,1.36-2.25c.15-.45-.66-.78-.85-.31Z" style="fill:#e0e0e0"></path><path d="M251.7,136.15h0c.1-2.13-4.06-8.19-4.91-8.23s-5.08,5.51-5.18,7.78h0a2.53,2.53,0,0,0,1.38,2.14,7.85,7.85,0,0,0,7.14.31,2.5,2.5,0,0,0,1.57-2Z" style="fill:#BA68C8"></path><path d="M251.7,136.15h0c.1-2.13-4.06-8.19-4.91-8.23s-5.08,5.51-5.18,7.78h0a2.53,2.53,0,0,0,1.38,2.14,7.85,7.85,0,0,0,7.14.31,2.5,2.5,0,0,0,1.57-2Z" style="opacity:0.1"></path><path d="M251.7,136.15h0c.1-2.13-4.06-8.19-4.91-8.23s-5.08,5.51-5.18,7.78h0a2.53,2.53,0,0,0,1.38,2.14,7.85,7.85,0,0,0,7.14.31,2.5,2.5,0,0,0,1.57-2Z" style="fill:#fff;opacity:0.30000000000000004"></path><path d="M278.08,90.87c-.72,16.34-14.45,36.41-31.4,39.57C230,125,218.18,104.59,218.9,88.25s11.92-31.14,31-30.3S278.8,74.52,278.08,90.87Z" style="fill:#BA68C8"></path><path d="M278.08,90.87c-.72,16.34-14.45,36.41-31.4,39.57C230,125,218.18,104.59,218.9,88.25s11.92-31.14,31-30.3S278.8,74.52,278.08,90.87Z" style="fill:#fff;opacity:0.5"></path><path d="M219.8,96.84s3.71,15.88,23.06,18c18.65,2,34.77-17.82,34.8-31.45a37.34,37.34,0,0,1,.42,7.49c-.72,16.34-14.45,36.41-31.4,39.57-13.8-4.52-24.3-19.3-27.08-33.53Z" style="opacity:0.1"></path><path d="M276.91,200.59c-.51,2.76-1.07,5.53-1.8,8.24s-1.71,5.48-2.43,8.27a128.9,128.9,0,0,0-3,17.67c-.68,5.9-1.23,11.81-2.24,17.66a119.44,119.44,0,0,1-4.54,17.16c-1.82,5.45-3.76,10.86-5.28,16.4a121.41,121.41,0,0,0-3.2,17.24c-1.43,11.63-2.15,23.49-6.16,34.61-1,2.68-2.18,5.28-3,8a75.11,75.11,0,0,0-1.57,8.15,38,38,0,0,1-1,4.38c-.41,1.39-1,2.72-1.51,4.07a36.56,36.56,0,0,0-2.28,7.87,20.5,20.5,0,0,0-.18,4.36c0,.52,1,.74,1,.16a25.32,25.32,0,0,1,1.38-8.67c.87-2.67,2.11-5.21,2.85-7.91s1.09-5.58,1.58-8.38a43.84,43.84,0,0,1,2.55-8.48,84.85,84.85,0,0,0,4.73-16.68c1-5.73,1.6-11.52,2.25-17.3a154.58,154.58,0,0,1,2.7-17.51c1.33-5.72,3.24-11.28,5.12-16.83a152.15,152.15,0,0,0,4.89-16.58,173.79,173.79,0,0,0,2.56-17.74c.64-5.89,1.29-11.79,2.46-17.61a86.38,86.38,0,0,1,2.25-8.68A56.88,56.88,0,0,0,277,205c.23-1.37.4-2.75.53-4.13,0-.3-.51-.72-.59-.31Z" style="fill:#e0e0e0"></path><path d="M276,204.42a7.29,7.29,0,0,0-3.46,6.35,7.75,7.75,0,0,0,3.54,6.34,5,5,0,0,0,3.54.75c1-.19,2.28-.89,2.48-2s-.87-1.51-1.73-1.49a4.91,4.91,0,0,0-2.85,1.37c-1.69,1.46-3.29,4.43-1.72,6.51a5.41,5.41,0,0,0,7,.9,3.37,3.37,0,0,0,1.46-2.86c-.18-1.22-1.94-.92-2.77-.72a4.42,4.42,0,0,0-3.48,5.18c.59,2.47,3.37,3.35,5.62,2.77,2.68-.69,4.63-3.6,5.13-6.2.07-.35-.54-.67-.72-.31-.87,1.74-1.56,3.61-3.16,4.84a4.32,4.32,0,0,1-4.54.6,3.08,3.08,0,0,1-.81-4.51,4.09,4.09,0,0,1,2.22-1.51,4.85,4.85,0,0,1,1.26-.17c.32,0,.31,0,.24.32a3,3,0,0,1-.23.75c-.91,1.91-3.41,2.2-5.18,1.44a2.49,2.49,0,0,1-1.66-2.27,5,5,0,0,1,.84-2.65,6.44,6.44,0,0,1,1.84-1.91c.4-.27,1.67-1.11,2.17-.61.31.3-.33.91-.54,1.09a3,3,0,0,1-1.24.58,3.81,3.81,0,0,1-2.88-.7,6.79,6.79,0,0,1-2.89-5.39,7.43,7.43,0,0,1,3-5.93c.27-.21-.18-.76-.46-.59Z" style="fill:#e0e0e0"></path><path d="M280.55,208.72h0c.76-2-1.34-9.16-2.14-9.46s-6.62,3.71-7.43,5.86h0a2.54,2.54,0,0,0,.66,2.49,8,8,0,0,0,6.77,2.54,2.54,2.54,0,0,0,2.14-1.43Z" style="fill:#BA68C8"></path><path d="M280.55,208.72h0c.76-2-1.34-9.16-2.14-9.46s-6.62,3.71-7.43,5.86h0a2.54,2.54,0,0,0,.66,2.49,8,8,0,0,0,6.77,2.54,2.54,2.54,0,0,0,2.14-1.43Z" style="opacity:0.1"></path><path d="M320.14,173.43c-5.82,15.49-25.33,30.49-42.63,28.22C263.2,191.17,258.2,167.84,264,152.34s21.24-26.22,39.32-19.42S326,157.93,320.14,173.43Z" style="fill:#BA68C8"></path><path d="M262.19,160.89s-1.41,16.44,16.54,24.54c17.3,7.81,39-6.24,43.35-19.33a37.6,37.6,0,0,1-1.94,7.33c-5.82,15.49-25.33,30.49-42.63,28.22C265.65,193,260.19,175.46,262,160.89Z" style="opacity:0.05"></path><path d="M238.7,375.51c2.22.69,4.76.2,6.94-.44,1.8-.52,4.09-1.55,4.67-3.52s-1.41-3.46-3.18-3.61a7.57,7.57,0,0,0-5,1.63,10.86,10.86,0,0,0-2.2,2.24,12.75,12.75,0,0,0-.91,1.43c-.13.24-.25.49-.36.74a4.18,4.18,0,0,0-.25,1.1c-.06.33.46.67.67.34a22.42,22.42,0,0,1,2.89-4.27,7.46,7.46,0,0,1,4-2.15,3.63,3.63,0,0,1,2.11.19,1.83,1.83,0,0,1,1.17,1.91,3.29,3.29,0,0,1-1.45,1.89,8.24,8.24,0,0,1-2.59,1.19,16.61,16.61,0,0,1-6.53.72c-.37,0-.16.54.07.61Z" style="fill:#455a64"></path><path d="M238.53,374.9a9.17,9.17,0,0,1-2.58.52,7.75,7.75,0,0,1-2.39-.37,8,8,0,0,1-3.86-2.33,4.19,4.19,0,0,1-1-2c-.09-.91.8-1.17,1.55-1.19,1.65,0,3.1,1,4.4,1.87a13.5,13.5,0,0,1,3.94,4c.14.23.41.08.35-.16a8.14,8.14,0,0,0-3.6-4.47c-1.55-1.1-3.28-2.19-5.26-2.13a2.57,2.57,0,0,0-2.22,1,2.53,2.53,0,0,0,.28,2.43,8,8,0,0,0,4.34,3.52c1.9.75,4.71,1.28,6.49-.06.29-.21-.14-.67-.41-.59Z" style="fill:#455a64"></path><path d="M239.21,375.12a7.39,7.39,0,0,0,2.88-.86,9.7,9.7,0,0,0,2.32-1.55A7.71,7.71,0,0,0,247,368c.2-1.75.18-4.32-2.13-4.43-2.06-.1-3.77,1.4-4.82,3.05a11.31,11.31,0,0,0-1.68,7.64c0,.34.74.58.76.11a15.29,15.29,0,0,1,1.11-5.91c.72-1.6,1.92-3.34,3.68-3.89a2.89,2.89,0,0,1,1.17-.12c.57.08.76.48.86,1a8.39,8.39,0,0,1,0,2.4,7,7,0,0,1-2.12,4.05,9.05,9.05,0,0,1-2.13,1.51c-.91.47-1.89.68-2.82,1.06-.4.16.08.67.35.66Z" style="fill:#455a64"></path><path d="M238.76,374.93a12.37,12.37,0,0,1-4.54-2.75c-1.16-1.2-2.37-3.15-1.92-4.88a2.06,2.06,0,0,1,1.64-1.64,2.72,2.72,0,0,1,2.32,1.12,8.6,8.6,0,0,1,1.64,3.82,28.91,28.91,0,0,1,.49,4.54c0,.24.42.6.59.29a4,4,0,0,0,.36-2.39,17.38,17.38,0,0,0-.41-2.6,8.63,8.63,0,0,0-2.25-4.59c-1.54-1.43-4.23-1.54-5.17.61-.84,1.91.28,4.17,1.51,5.65a9.46,9.46,0,0,0,5.78,3.43c.36,0,.18-.53,0-.61Z" style="fill:#455a64"></path><path d="M238.37,374.46a15.14,15.14,0,0,1-.8,3.88,9.51,9.51,0,0,1-1.83,2.53c-1.35,1.4-2.91,2.65-3.84,4.39a3.68,3.68,0,0,0-.35,3.05,17.48,17.48,0,0,1,1.16,3.35,3.63,3.63,0,0,1-1.06,3.22c-.78.75-1.74,1.29-2.45,2.12a5.2,5.2,0,0,0-1.32,3.07,3.92,3.92,0,0,0,1.45,3.26c.3.25.59-.11.35-.39-1.56-1.81-.76-4.45.84-5.89a16.86,16.86,0,0,0,2.41-2.12,4.15,4.15,0,0,0,.78-2.77,8.65,8.65,0,0,0-.9-3.14,4.08,4.08,0,0,1-.5-1.87,4,4,0,0,1,.58-1.62c1-1.7,2.56-2.92,3.83-4.36a8.33,8.33,0,0,0,1.68-2.62,8.1,8.1,0,0,0,.2-4c0-.13-.2-.26-.23-.06Z" style="fill:#455a64"></path><path d="M238.32,374.52a6,6,0,0,0,1.22,3c.81.91,1.94,1.45,2.74,2.39a3.44,3.44,0,0,1,.74,3.57,9.17,9.17,0,0,0-.93,3.33,2.68,2.68,0,0,0,1.44,2.27c.82.48,2.08.72,2.32,1.78.27,1.26-.61,2.46-1,3.58a3.31,3.31,0,0,0,.13,2.91c.92,1.54,3.09,2.16,3.7,3.89.1.27.54.36.49,0-.24-1.91-2.13-2.53-3.18-3.9-1.53-2,1.31-4.26.83-6.46a2.9,2.9,0,0,0-1.74-1.92c-1-.49-2-.84-2-2.16s.72-2.25,1-3.38a3.81,3.81,0,0,0-.47-3,9.31,9.31,0,0,0-2.75-2.59,6.44,6.44,0,0,1-2.2-3.34c-.08-.21-.38-.24-.33,0Z" style="fill:#455a64"></path></g></g><g id="freepik--Shine--inject-2"><g id="freepik--shine--inject-2"><path d="M354.41,98.69a.62.62,0,0,1-.21-.81l.28-.53a3.12,3.12,0,0,0-.91-4l-.48-.35a.62.62,0,0,1,.66-1l.52.28h0a3.11,3.11,0,0,0,4-.91l.35-.47a.61.61,0,0,1,.82-.16h0a.62.62,0,0,1,.22.81l-.28.53a3.1,3.1,0,0,0,.9,4l.48.35a.61.61,0,0,1,.15.83.61.61,0,0,1-.8.21l-.53-.28a3.12,3.12,0,0,0-4,.91l-.36.47a.61.61,0,0,1-.82.16Zm1.16-4.83a4.31,4.31,0,0,1,.5,2.2,4.28,4.28,0,0,1,2.19-.5,4.42,4.42,0,0,1-.5-2.2A4.28,4.28,0,0,1,355.57,93.86Z" style="fill:#BA68C8"></path><path d="M377.71,94a3.94,3.94,0,1,1,5.43-1.23A3.94,3.94,0,0,1,377.71,94Zm3.54-5.63a2.71,2.71,0,1,0,.85,3.74A2.73,2.73,0,0,0,381.25,88.34Z" style="fill:#BA68C8"></path><path d="M372.25,113.2a.62.62,0,0,1-.2-.85l1.1-1.73a.61.61,0,0,1,1,.65l-1.1,1.74A.6.6,0,0,1,372.25,113.2Z" style="fill:#BA68C8"></path><path d="M370.56,113.59l-1.74-1.1a.61.61,0,0,1,.65-1l1.74,1.1a.61.61,0,0,1-.65,1Z" style="fill:#BA68C8"></path><path d="M369.78,117.12a.63.63,0,0,1-.19-.85l1.09-1.74a.62.62,0,0,1,1,.66l-1.09,1.73A.62.62,0,0,1,369.78,117.12Z" style="fill:#BA68C8"></path><path d="M374.47,116.05,372.73,115a.62.62,0,0,1-.19-.85.61.61,0,0,1,.85-.19l1.73,1.09a.62.62,0,0,1,.2.85A.63.63,0,0,1,374.47,116.05Z" style="fill:#BA68C8"></path></g><g id="freepik--shine--inject-2"><path d="M128.79,156.06a.61.61,0,0,1-.73.39l-.58-.15a3.12,3.12,0,0,0-3.66,1.79l-.23.55a.62.62,0,0,1-.77.33.61.61,0,0,1-.39-.73l.15-.58h0a3.12,3.12,0,0,0-1.79-3.66l-.55-.23a.63.63,0,0,1-.34-.77h0a.62.62,0,0,1,.74-.39l.58.15a3.1,3.1,0,0,0,3.65-1.79l.24-.55a.63.63,0,0,1,.77-.34.62.62,0,0,1,.39.74l-.15.58a3.12,3.12,0,0,0,1.79,3.66l.54.23a.6.6,0,0,1,.34.76Zm-5,0a4.3,4.3,0,0,1,2-1,4.44,4.44,0,0,1-1-2,4.18,4.18,0,0,1-2,1A4.31,4.31,0,0,1,123.83,156Z" style="fill:#BA68C8"></path><path d="M121.64,131.72a3.94,3.94,0,1,1-2.45-5A3.94,3.94,0,0,1,121.64,131.72Zm-6.29-2.16a2.71,2.71,0,1,0,3.44-1.68A2.72,2.72,0,0,0,115.35,129.56Z" style="fill:#BA68C8"></path><path d="M141.65,136.65a.61.61,0,0,1-.78.39l-1.94-.67a.61.61,0,0,1,.4-1.16l1.94.66A.61.61,0,0,1,141.65,136.65Z" style="fill:#BA68C8"></path><path d="M142.41,138.21l-.66,1.94a.62.62,0,0,1-1.17-.4l.67-1.94a.61.61,0,0,1,1.16.4Z" style="fill:#BA68C8"></path><path d="M146,138.16a.61.61,0,0,1-.78.38l-1.94-.67a.61.61,0,0,1,.4-1.16l1.94.67A.61.61,0,0,1,146,138.16Z" style="fill:#BA68C8"></path><path d="M143.91,133.84l-.66,1.94a.61.61,0,1,1-1.16-.4l.66-1.94a.61.61,0,0,1,1.16.4Z" style="fill:#BA68C8"></path></g><g id="freepik--shine--inject-2"><path d="M334.47,32.19a.61.61,0,0,1-.72-.42l-.18-.56a3.11,3.11,0,0,0-3.46-2.16l-.59.09a.62.62,0,0,1-.27-1.2l.57-.17h0A3.13,3.13,0,0,0,332,24.31l-.09-.59a.61.61,0,0,1,1.19-.27l.18.57a3.09,3.09,0,0,0,3.45,2.15l.59-.08a.61.61,0,0,1,.28,1.19l-.57.18a3.1,3.1,0,0,0-2.16,3.45l.09.59A.61.61,0,0,1,334.47,32.19ZM331.86,28a4.3,4.3,0,0,1,1.91,1.19A4.3,4.3,0,0,1,335,27.25a4.27,4.27,0,0,1-1.9-1.19A4.41,4.41,0,0,1,331.86,28Z" style="fill:#BA68C8"></path><path d="M334.3,55.59a3.94,3.94,0,1,1,2.95-4.73A4,4,0,0,1,334.3,55.59Zm-1.5-6.48a2.71,2.71,0,1,0,3.26,2A2.71,2.71,0,0,0,332.8,49.11Z" style="fill:#BA68C8"></path><path d="M311.45,37.85a.61.61,0,0,1-.73-.46l-.46-2a.61.61,0,0,1,.46-.74.6.6,0,0,1,.73.46l.46,2A.62.62,0,0,1,311.45,37.85Z" style="fill:#BA68C8"></path><path d="M310.53,39.32l-2,.46a.61.61,0,0,1-.73-.46.62.62,0,0,1,.46-.74l2-.46a.6.6,0,0,1,.73.46A.62.62,0,0,1,310.53,39.32Z" style="fill:#BA68C8"></path><path d="M312.49,42.35a.6.6,0,0,1-.73-.46l-.47-2a.61.61,0,0,1,.46-.73.6.6,0,0,1,.74.46l.46,2A.61.61,0,0,1,312.49,42.35Z" style="fill:#BA68C8"></path><path d="M315,38.28l-2,.46a.62.62,0,0,1-.28-1.2l2-.46a.62.62,0,1,1,.28,1.2Z" style="fill:#BA68C8"></path></g><g id="freepik--shine--inject-2"><path d="M152.38,42.12l0,0a.61.61,0,0,1-.83,0l-.43-.42h0a3.12,3.12,0,0,0-4.07-.26l-.47.36a.61.61,0,0,1-.83-.08.62.62,0,0,1,0-.84l.41-.42a3.11,3.11,0,0,0,.26-4.07l-.36-.47a.65.65,0,0,1,.08-.84.63.63,0,0,1,.84,0l.43.42a3.11,3.11,0,0,0,4.06.26l.48-.36a.61.61,0,0,1,.83.08.63.63,0,0,1,0,.84l-.42.42a3.12,3.12,0,0,0-.25,4.07l.36.47A.63.63,0,0,1,152.38,42.12Zm-4.32-2.46a4.41,4.41,0,0,1,2.25.14,4.16,4.16,0,0,1,.14-2.24,4.4,4.4,0,0,1-2.25-.14A4.37,4.37,0,0,1,148.06,39.66Z" style="fill:#BA68C8"></path><path d="M175.81,56.14a3.88,3.88,0,0,1-2.18,1,3.93,3.93,0,1,1,2.18-1Zm-4.59-4.83a3.11,3.11,0,0,0-.29.33,2.7,2.7,0,0,0,.52,3.8,2.69,2.69,0,0,0,2,.53,2.72,2.72,0,1,0-2.24-4.66Z" style="fill:#BA68C8"></path><path d="M146.89,62.85h0l-1.51,1.39a.62.62,0,1,1-.83-.91L146.05,62a.62.62,0,0,1,.84.9Z" style="fill:#BA68C8"></path><path d="M150,64.43h0a.62.62,0,0,1-.87,0l-1.38-1.51a.63.63,0,0,1,0-.87.62.62,0,0,1,.87,0L150,63.57A.61.61,0,0,1,150,64.43Z" style="fill:#BA68C8"></path><path d="M150.29,59.72h0l-1.51,1.39a.62.62,0,0,1-.87,0,.63.63,0,0,1,0-.87l1.52-1.38a.61.61,0,0,1,.83.89Z" style="fill:#BA68C8"></path><path d="M146.88,61h0a.62.62,0,0,1-.87,0l-1.38-1.51a.61.61,0,1,1,.9-.83l1.39,1.51A.61.61,0,0,1,146.88,61Z" style="fill:#BA68C8"></path></g></g></svg>