<svg xmlns="http://www.w3.org/2000/svg" viewBox="0 0 500 500"><g id="freepik--pieces-of-chocolate--inject-1428"><rect x="388.33" y="75.36" width="53.91" height="60.15" transform="matrix(0.67, -0.74, 0.74, 0.67, 58.54, 342.74)" style="fill:#7a4a45"></rect><rect x="397.25" y="85.31" width="36.07" height="40.24" transform="translate(58.54 342.74) rotate(-47.88)" style="fill:#a2675f"></rect><g style="opacity:0.30000000000000004"><path d="M405.72,121.11l12.39,11.2,11.26-12.46-10.54,10.39a1.27,1.27,0,0,1-1.69.16Z" style="fill:#fff"></path></g><g style="opacity:0.30000000000000004"><polygon points="411.06 65.27 412.45 78.56 442.3 105.56 455.66 105.62 411.06 65.27"></polygon></g><polygon points="388.26 105.31 374.9 105.25 411.06 65.27 412.45 78.56 388.26 105.31" style="fill:#a2675f"></polygon><g style="opacity:0.1"><polygon points="388.26 105.31 374.9 105.25 411.06 65.27 412.45 78.56 388.26 105.31"></polygon></g><g style="opacity:0.2"><polygon points="419.51 145.6 418.11 132.31 442.3 105.56 455.66 105.62 419.51 145.6"></polygon></g><g style="opacity:0.5"><path d="M411.7,79.79c.11.1-3.49,4.25-8,9.27s-8.31,9-8.41,8.92,3.49-4.25,8-9.27S411.59,79.7,411.7,79.79Z" style="fill:#fff"></path></g><rect x="410.1" y="374.78" width="48.42" height="54.02" transform="translate(-147.07 291.99) rotate(-32.08)" style="fill:#7a4a45"></rect><rect x="418.11" y="383.72" width="32.39" height="36.14" transform="matrix(0.85, -0.53, 0.53, 0.85, -147.07, 291.99)" style="fill:#a2675f"></rect><g style="opacity:0.30000000000000004"><path d="M422.21,413l8,12.71,12.78-8-11.65,6.4a1.15,1.15,0,0,1-1.5-.28Z" style="fill:#fff"></path></g><g style="opacity:0.30000000000000004"><polygon points="440.48 366.05 438.44 377.88 457.63 408.51 469.16 411.83 440.48 366.05"></polygon></g><polygon points="410.99 395.08 399.45 391.76 440.48 366.05 438.44 377.88 410.99 395.08" style="fill:#a2675f"></polygon><g style="opacity:0.1"><polygon points="410.99 395.08 399.45 391.76 440.48 366.05 438.44 377.88 410.99 395.08"></polygon></g><g style="opacity:0.2"><polygon points="428.14 437.54 430.18 425.71 457.63 408.51 469.16 411.83 428.14 437.54"></polygon></g><g style="opacity:0.5"><path d="M437.48,378.76c.08.12-4,2.84-9.19,6.07s-9.39,5.74-9.46,5.62,4-2.84,9.19-6.06S437.41,378.64,437.48,378.76Z" style="fill:#fff"></path></g><rect x="55.58" y="378.22" width="53.38" height="59.56" transform="translate(206.72 10.83) rotate(28.8)" style="fill:#7a4a45"></rect><rect x="64.42" y="388.08" width="35.71" height="39.85" transform="translate(206.72 10.83) rotate(28.8)" style="fill:#a2675f"></rect><g style="opacity:0.30000000000000004"><path d="M65,402.37l-8,14.49,14.58,8-12.42-7.79a1.25,1.25,0,0,1-.53-1.59Z" style="fill:#fff"></path></g><g style="opacity:0.30000000000000004"><polygon points="120.01 394.76 107.52 399.15 88.32 434.06 91.31 446.95 120.01 394.76"></polygon></g><polygon points="76.23 381.94 73.23 369.05 120.01 394.76 107.52 399.15 76.23 381.94" style="fill:#a2675f"></polygon><g style="opacity:0.1"><polygon points="76.23 381.94 73.23 369.05 120.01 394.76 107.52 399.15 76.23 381.94"></polygon></g><g style="opacity:0.2"><polygon points="44.53 421.24 57.02 416.86 88.32 434.06 91.31 446.95 44.53 421.24"></polygon></g><g style="opacity:0.5"><path d="M106.16,398.7c-.07.13-4.88-2.39-10.76-5.62S84.82,387.13,84.89,387s4.89,2.39,10.76,5.61S106.23,398.57,106.16,398.7Z" style="fill:#fff"></path></g><rect x="150.25" y="36.26" width="44.99" height="50.2" transform="translate(85.78 -100.02) rotate(42.13)" style="fill:#7a4a45"></rect><rect x="157.69" y="44.57" width="30.1" height="33.58" transform="translate(85.78 -100.02) rotate(42.13)" style="fill:#a2675f"></rect><g style="opacity:0.30000000000000004"><path d="M159.67,53.38l-9.36,10.34,10.4,9.4L152,64.32a1.07,1.07,0,0,1-.13-1.41Z" style="fill:#fff"></path></g><g style="opacity:0.30000000000000004"><polygon points="206.26 57.84 195.17 59 172.64 83.91 172.59 95.06 206.26 57.84"></polygon></g><polygon points="172.84 38.81 172.9 27.66 206.26 57.84 195.17 59 172.84 38.81" style="fill:#a2675f"></polygon><g style="opacity:0.1"><polygon points="172.84 38.81 172.9 27.66 206.26 57.84 195.17 59 172.84 38.81"></polygon></g><g style="opacity:0.2"><polygon points="139.22 64.88 150.31 63.72 172.64 83.91 172.59 95.06 139.22 64.88"></polygon></g><g style="opacity:0.5"><path d="M194.14,58.37a99.29,99.29,0,0,1-7.76-6.67A97,97,0,0,1,179,44.65a101.5,101.5,0,0,1,7.76,6.67A101.88,101.88,0,0,1,194.14,58.37Z" style="fill:#fff"></path></g><polygon points="55.19 64.13 48.98 66.97 45.43 73.95 57.73 82.11 68.62 72.41 66.61 69.34 55.19 64.13" style="fill:#7a4a45"></polygon><path d="M55.19,64.13c-.65.11-4.67,4.85-4.67,4.85l5.2,6.39,10.89-6Z" style="fill:#a2675f"></path><g style="opacity:0.30000000000000004"><polygon points="55.72 75.36 57.73 82.11 68.62 72.41 66.61 69.34 55.72 75.36"></polygon></g><g style="opacity:0.2"><polygon points="45.43 73.95 50.52 68.98 55.72 75.36 57.73 82.11 45.43 73.95"></polygon></g><polygon points="331.16 35.69 324.95 38.53 321.4 45.51 333.7 53.68 344.59 43.98 342.58 40.9 331.16 35.69" style="fill:#7a4a45"></polygon><path d="M331.16,35.69c-.65.12-4.67,4.85-4.67,4.85l5.2,6.39,10.89-6Z" style="fill:#a2675f"></path><g style="opacity:0.30000000000000004"><polygon points="331.69 46.93 333.7 53.68 344.59 43.98 342.58 40.9 331.69 46.93"></polygon></g><g style="opacity:0.2"><polygon points="321.4 45.51 326.49 40.55 331.69 46.93 333.7 53.68 321.4 45.51"></polygon></g><polygon points="435.06 287.38 428.84 290.21 425.29 297.19 437.6 305.36 448.48 295.66 446.47 292.58 435.06 287.38" style="fill:#7a4a45"></polygon><path d="M435.06,287.37c-.66.12-4.68,4.85-4.68,4.85l5.2,6.39,10.89-6Z" style="fill:#a2675f"></path><g style="opacity:0.30000000000000004"><polygon points="435.58 298.61 437.6 305.36 448.48 295.66 446.47 292.58 435.58 298.61"></polygon></g><g style="opacity:0.2"><polygon points="425.29 297.19 430.38 292.23 435.58 298.61 437.6 305.36 425.29 297.19"></polygon></g><polygon points="367.94 445.63 361.73 448.47 358.18 455.45 370.48 463.61 381.36 453.91 379.35 450.84 367.94 445.63" style="fill:#7a4a45"></polygon><path d="M367.94,445.63c-.66.12-4.68,4.85-4.68,4.85l5.21,6.39,10.88-6Z" style="fill:#a2675f"></path><g style="opacity:0.30000000000000004"><polygon points="368.47 456.87 370.48 463.61 381.36 453.91 379.35 450.84 368.47 456.87"></polygon></g><g style="opacity:0.2"><polygon points="358.18 455.45 363.26 450.48 368.47 456.87 370.48 463.61 358.18 455.45"></polygon></g><polygon points="149.82 462.22 150.74 464.9 157.95 467.67 158.9 463.55 156.57 459.44 149.82 462.22" style="fill:#7a4a45"></polygon><polygon points="156.57 459.44 151.58 458.02 149.82 462.22 157.95 465.83 156.57 459.44" style="fill:#a2675f"></polygon><g style="opacity:0.30000000000000004"><polygon points="156.57 459.44 157.95 465.83 157.95 467.67 158.9 463.55 156.57 459.44"></polygon></g><polygon points="38.01 330.18 38.93 332.86 46.14 335.63 47.1 331.51 44.77 327.4 38.01 330.18" style="fill:#7a4a45"></polygon><polygon points="44.77 327.4 39.77 325.98 38.01 330.18 46.14 333.79 44.77 327.4" style="fill:#a2675f"></polygon><g style="opacity:0.30000000000000004"><polygon points="44.77 327.4 46.14 333.79 46.14 335.63 47.1 331.51 44.77 327.4"></polygon></g><polygon points="135.01 180.5 136.23 184.06 145.8 187.73 147.07 182.27 143.97 176.81 135.01 180.5" style="fill:#7a4a45"></polygon><polygon points="143.97 176.81 137.34 174.92 135.01 180.5 145.8 185.29 143.97 176.81" style="fill:#a2675f"></polygon><g style="opacity:0.30000000000000004"><polygon points="143.97 176.81 145.8 185.29 145.8 187.73 147.07 182.27 143.97 176.81"></polygon></g><polygon points="30.34 201.02 30.34 209.29 41.04 222.57 39.58 209.29 30.34 201.02" style="fill:#7a4a45"></polygon><polygon points="44.17 164.98 63.64 182.42 77 182.42 55.83 163.44 44.17 164.98" style="fill:#a2675f"></polygon><polygon points="39.58 209.29 41.04 222.57 77 182.42 63.64 182.42 39.58 209.29" style="fill:#a2675f"></polygon><path d="M40.29,207.22l10.49-10.44-11.2,12.51,24.06-26.87L44.17,165h0L30.35,181.31l.08,19.49,8.17,6.58A1.27,1.27,0,0,0,40.29,207.22Z" style="fill:#a2675f"></path><polygon points="30.34 201.02 30.34 201.02 39.58 209.29 30.34 201.02" style="fill:#fff"></polygon><g style="opacity:0.30000000000000004"><polygon points="30.34 201.02 30.34 201.02 39.58 209.29 30.34 201.02" style="fill:#fff"></polygon></g><path d="M50.78,196.78,40.29,207.22a1.27,1.27,0,0,1-1.69.16l-8.17-6.58-.08.22,9.23,8.27Z" style="fill:#a2675f"></path><g style="opacity:0.2"><polygon points="44.17 164.98 63.64 182.42 77 182.42 55.83 163.44 44.17 164.98"></polygon></g><g style="opacity:0.2"><polygon points="57.22 204.51 77 182.42 41.04 222.57 57.22 204.51" style="fill:#fff"></polygon></g><g style="opacity:0.30000000000000004"><polygon points="39.58 209.29 41.04 222.57 77 182.42 63.64 182.42 39.58 209.29"></polygon></g><g style="opacity:0.30000000000000004"><path d="M50.78,196.78,40.29,207.22a1.27,1.27,0,0,1-1.69.16l-8.17-6.58-.08.22,9.23,8.27Z" style="fill:#fff"></path></g><polygon points="416.49 191.21 408.75 194.13 400.11 208.84 412.02 202.77 416.49 191.21" style="fill:#7a4a45"></polygon><polygon points="455.09 191.38 445.66 215.77 450.39 228.27 460.65 201.74 455.09 191.38" style="fill:#a2675f"></polygon><polygon points="412.02 202.77 400.11 208.84 450.39 228.27 445.66 215.77 412.02 202.77" style="fill:#a2675f"></polygon><path d="M414.21,202.7l13.47,6.12-15.66-6,33.64,13,9.43-24.38h0l-20.17-7.16-18.19,7-3.27,10A1.28,1.28,0,0,0,414.21,202.7Z" style="fill:#a2675f"></path><polygon points="416.49 191.21 416.49 191.21 412.02 202.77 416.49 191.21" style="fill:#fff"></polygon><g style="opacity:0.30000000000000004"><polygon points="416.49 191.21 416.49 191.21 412.02 202.77 416.49 191.21" style="fill:#fff"></polygon></g><path d="M427.68,208.82l-13.47-6.12a1.28,1.28,0,0,1-.75-1.53l3.27-10h-.24L412,202.77Z" style="fill:#a2675f"></path><g style="opacity:0.2"><polygon points="455.09 191.38 445.66 215.77 450.39 228.27 460.65 201.74 455.09 191.38"></polygon></g><g style="opacity:0.2"><polygon points="422.73 217.58 450.39 228.27 400.11 208.84 422.73 217.58" style="fill:#fff"></polygon></g><g style="opacity:0.30000000000000004"><polygon points="412.02 202.77 400.11 208.84 450.39 228.27 445.66 215.77 412.02 202.77"></polygon></g><g style="opacity:0.30000000000000004"><path d="M427.68,208.82l-13.47-6.12a1.28,1.28,0,0,1-.75-1.53l3.27-10h-.24L412,202.77Z" style="fill:#fff"></path></g></g><g id="freepik--Chocolate--inject-1428"><path d="M193.09,199.15l-6.49-30.3a22.39,22.39,0,0,1-3.55,0,42.05,42.05,0,0,1-2.41,14.25l1.79,8.34Z" style="fill:#7a4a45"></path><path d="M182.43,191.39l-9.55,2.05c-6.79,4.7-14.72,3.69-16.18,3.46l-.18,0c.38.55,2.51,4,1.22,9.78L184.48,201l8.61-1.84Z" style="fill:#7a4a45"></path><path d="M156.52,196.94l-3.87,4.4s1.26,10.66-9.38,19.1l1.39,3.3,9.18-2.11,5.33-7.35,1.1-11.75Z" style="fill:#7a4a45"></path><path d="M151.74,218l-.51-.36a16.77,16.77,0,0,1-8,2.85l10.22,47.78L160,256.86Z" style="fill:#7a4a45"></path><polygon points="194.83 249.41 205.49 257.17 193.08 199.15 186.53 210.59 194.83 249.41" style="fill:#7a4a45"></polygon><polygon points="176.2 253.18 176.2 253.18 160.03 256.82 153.49 268.31 205.45 256.96 194.79 249.2 176.2 253.18" style="fill:#7a4a45"></polygon><path d="M156.55,240.77l3.78,14a1.25,1.25,0,0,0,1.43.86l14.44-2.23,18.59-4-8.5-39-34.6,7.66L160,256.89Z" style="fill:#a2675f"></path><path d="M183.05,168.8l-3.46,2.54s-3.28,13.6-6.49,17.3-16.58,8.3-16.58,8.3l6.63,5,14.32-4.68,6.14-6.1,1.23-12.73Z" style="fill:#7a4a45"></path><path d="M206.53,142.58l-3,5.49s.14,9.21-4.94,13.31c-5.7,4.61-15.57,7.42-15.57,7.42l3.4,4.5s15-3.12,15-3.37,7.64-6.33,7.64-6.33l1.48-10.16-.41-9.81" style="fill:#7a4a45"></path><rect x="238.3" y="123.79" width="53.18" height="59.33" transform="translate(-26.26 58.86) rotate(-12.09)" style="fill:#7a4a45"></rect><rect x="247.1" y="133.61" width="35.58" height="39.7" transform="translate(-26.26 58.86) rotate(-12.09)" style="fill:#a2675f"></rect><g style="opacity:0.30000000000000004"><path d="M248.2,160.48l3.45,16.11,16.2-3.47-14.43,2.23a1.25,1.25,0,0,1-1.44-.85Z" style="fill:#fff"></path></g><g style="opacity:0.30000000000000004"><polygon points="284.68 118.88 278.13 130.32 286.43 169.15 297.09 176.9 284.68 118.88"></polygon></g><polygon points="243.34 137.77 232.69 130.01 284.69 118.88 278.13 130.32 243.34 137.77" style="fill:#a2675f"></polygon><g style="opacity:0.1"><polygon points="243.34 137.77 232.69 130.01 284.69 118.88 278.13 130.32 243.34 137.77"></polygon></g><g style="opacity:0.2"><polygon points="245.1 188.04 251.65 176.59 286.44 169.14 297.1 176.9 245.1 188.04"></polygon></g><g style="opacity:0.5"><path d="M276.82,130.87c0,.15-5.24,1.39-11.77,2.79s-11.84,2.42-11.87,2.28,5.23-1.39,11.76-2.79S276.79,130.73,276.82,130.87Z" style="fill:#fff"></path></g><rect x="198.7" y="192.95" width="53.18" height="59.33" transform="translate(-41.62 52.1) rotate(-12.09)" style="fill:#7a4a45"></rect><rect x="207.49" y="202.77" width="35.58" height="39.7" transform="translate(-41.62 52.1) rotate(-12.09)" style="fill:#a2675f"></rect><g style="opacity:0.30000000000000004"><path d="M208.59,229.64,212,245.75l16.2-3.47-14.43,2.23a1.25,1.25,0,0,1-1.44-.85Z" style="fill:#fff"></path></g><g style="opacity:0.30000000000000004"><polygon points="245.08 188.04 238.53 199.48 246.83 238.3 257.49 246.06 245.08 188.04"></polygon></g><polygon points="203.74 206.93 193.08 199.17 245.08 188.04 238.53 199.48 203.74 206.93" style="fill:#a2675f"></polygon><g style="opacity:0.1"><polygon points="203.74 206.93 193.08 199.17 245.08 188.04 238.53 199.48 203.74 206.93"></polygon></g><g style="opacity:0.2"><polygon points="205.49 257.19 212.04 245.75 246.83 238.3 257.49 246.06 205.49 257.19"></polygon></g><g style="opacity:0.5"><path d="M237.21,200c0,.14-5.24,1.39-11.77,2.79s-11.84,2.42-11.87,2.28,5.23-1.39,11.77-2.79S237.18,199.89,237.21,200Z" style="fill:#fff"></path></g><rect x="250.71" y="181.81" width="53.18" height="59.33" transform="translate(-38.13 62.74) rotate(-12.09)" style="fill:#7a4a45"></rect><rect x="259.51" y="191.63" width="35.58" height="39.7" transform="translate(-38.13 62.74) rotate(-12.09)" style="fill:#a2675f"></rect><g style="opacity:0.30000000000000004"><path d="M260.61,218.5l3.45,16.12,16.19-3.47-14.43,2.23a1.26,1.26,0,0,1-1.44-.86Z" style="fill:#fff"></path></g><g style="opacity:0.30000000000000004"><polygon points="297.09 176.9 290.54 188.35 298.85 227.17 309.5 234.93 297.09 176.9"></polygon></g><polygon points="255.75 195.79 245.09 188.04 297.09 176.9 290.54 188.35 255.75 195.79" style="fill:#a2675f"></polygon><g style="opacity:0.1"><polygon points="255.75 195.79 245.09 188.04 297.09 176.9 290.54 188.35 255.75 195.79"></polygon></g><g style="opacity:0.2"><polygon points="257.5 246.06 264.06 234.62 298.85 227.17 309.5 234.93 257.5 246.06"></polygon></g><g style="opacity:0.5"><path d="M289.22,188.9c0,.14-5.23,1.39-11.76,2.78s-11.85,2.42-11.88,2.28,5.24-1.39,11.77-2.79S289.19,188.76,289.22,188.9Z" style="fill:#fff"></path></g><rect x="159.09" y="262" width="53.18" height="59.33" transform="translate(-56.95 45.34) rotate(-12.09)" style="fill:#7a4a45"></rect><rect x="167.89" y="271.82" width="35.58" height="39.7" transform="translate(-56.95 45.34) rotate(-12.09)" style="fill:#a2675f"></rect><g style="opacity:0.30000000000000004"><path d="M169,298.69l3.44,16.11,16.2-3.46-14.43,2.23a1.26,1.26,0,0,1-1.44-.86Z" style="fill:#fff"></path></g><g style="opacity:0.30000000000000004"><polygon points="205.47 257.09 198.92 268.54 207.23 307.36 217.88 315.11 205.47 257.09"></polygon></g><polygon points="164.13 275.99 153.47 268.23 205.47 257.09 198.92 268.54 164.13 275.99" style="fill:#a2675f"></polygon><g style="opacity:0.1"><polygon points="164.13 275.99 153.47 268.23 205.47 257.09 198.92 268.54 164.13 275.99"></polygon></g><g style="opacity:0.2"><polygon points="165.91 326.25 172.46 314.81 207.25 307.36 217.91 315.11 165.91 326.25"></polygon></g><g style="opacity:0.5"><path d="M197.6,269.09c0,.14-5.23,1.38-11.76,2.78S174,274.29,174,274.15s5.24-1.39,11.77-2.79S197.57,269,197.6,269.09Z" style="fill:#fff"></path></g><rect x="211.09" y="250.87" width="53.18" height="59.33" transform="translate(-53.47 55.98) rotate(-12.09)" style="fill:#7a4a45"></rect><rect x="219.89" y="260.69" width="35.58" height="39.7" transform="translate(-53.47 55.98) rotate(-12.09)" style="fill:#a2675f"></rect><g style="opacity:0.30000000000000004"><path d="M221,287.56l3.44,16.11,16.2-3.47-14.43,2.23a1.25,1.25,0,0,1-1.44-.85Z" style="fill:#fff"></path></g><g style="opacity:0.30000000000000004"><polygon points="257.47 245.96 250.92 257.4 259.22 296.22 269.88 303.98 257.47 245.96"></polygon></g><polygon points="216.13 264.85 205.47 257.09 257.47 245.96 250.92 257.4 216.13 264.85" style="fill:#a2675f"></polygon><g style="opacity:0.1"><polygon points="216.13 264.85 205.47 257.09 257.47 245.96 250.92 257.4 216.13 264.85"></polygon></g><g style="opacity:0.2"><polygon points="217.88 315.11 224.43 303.67 259.22 296.22 269.88 303.98 217.88 315.11"></polygon></g><g style="opacity:0.5"><path d="M249.6,258c0,.14-5.24,1.39-11.76,2.79S226,263.16,226,263s5.24-1.39,11.77-2.79S249.57,257.81,249.6,258Z" style="fill:#fff"></path></g><rect x="263.13" y="239.73" width="53.18" height="59.33" transform="translate(-49.98 66.63) rotate(-12.09)" style="fill:#7a4a45"></rect><rect x="271.93" y="249.54" width="35.58" height="39.7" transform="translate(-49.98 66.63) rotate(-12.09)" style="fill:#a2675f"></rect><g style="opacity:0.30000000000000004"><path d="M273,276.42l3.44,16.11,16.2-3.47-14.43,2.23a1.27,1.27,0,0,1-1.44-.85Z" style="fill:#fff"></path></g><g style="opacity:0.30000000000000004"><polygon points="309.51 234.82 302.96 246.26 311.26 285.08 321.92 292.84 309.51 234.82"></polygon></g><polygon points="268.17 253.71 257.51 245.95 309.51 234.82 302.96 246.26 268.17 253.71" style="fill:#a2675f"></polygon><g style="opacity:0.1"><polygon points="268.17 253.71 257.51 245.95 309.51 234.82 302.96 246.26 268.17 253.71"></polygon></g><g style="opacity:0.2"><polygon points="269.92 303.97 276.47 292.53 311.26 285.08 321.92 292.84 269.92 303.97"></polygon></g><g style="opacity:0.5"><path d="M301.64,246.81c0,.14-5.24,1.39-11.76,2.79S278,252,278,251.87s5.24-1.38,11.77-2.78S301.61,246.67,301.64,246.81Z" style="fill:#fff"></path></g><rect x="171.53" y="320.14" width="53.18" height="59.33" transform="translate(-68.85 49.23) rotate(-12.09)" style="fill:#7a4a45"></rect><rect x="180.33" y="329.95" width="35.58" height="39.7" transform="translate(-68.85 49.23) rotate(-12.09)" style="fill:#a2675f"></rect><g style="opacity:0.30000000000000004"><path d="M181.42,356.83l3.45,16.11,16.2-3.47-14.43,2.23a1.27,1.27,0,0,1-1.44-.85Z" style="fill:#fff"></path></g><g style="opacity:0.30000000000000004"><polygon points="217.91 315.23 211.36 326.67 219.66 365.49 230.32 373.25 217.91 315.23"></polygon></g><polygon points="176.57 334.12 165.91 326.36 217.91 315.23 211.36 326.67 176.57 334.12" style="fill:#a2675f"></polygon><g style="opacity:0.1"><polygon points="176.57 334.12 165.91 326.36 217.91 315.23 211.36 326.67 176.57 334.12"></polygon></g><g style="opacity:0.2"><polygon points="178.32 384.38 184.87 372.94 219.66 365.49 230.32 373.25 178.32 384.38"></polygon></g><g style="opacity:0.5"><path d="M210,327.22c0,.14-5.24,1.39-11.77,2.79s-11.84,2.41-11.87,2.27,5.24-1.38,11.77-2.78S210,327.08,210,327.22Z" style="fill:#fff"></path></g><rect x="223.52" y="309" width="53.18" height="59.33" transform="translate(-65.36 59.87) rotate(-12.09)" style="fill:#7a4a45"></rect><rect x="232.32" y="318.82" width="35.58" height="39.7" transform="translate(-65.36 59.87) rotate(-12.09)" style="fill:#a2675f"></rect><g style="opacity:0.30000000000000004"><path d="M233.42,345.69l3.45,16.12,16.2-3.47-14.43,2.23a1.26,1.26,0,0,1-1.44-.86Z" style="fill:#fff"></path></g><g style="opacity:0.30000000000000004"><polygon points="269.91 304.09 263.36 315.54 271.66 354.36 282.32 362.11 269.91 304.09"></polygon></g><polygon points="228.56 322.99 217.91 315.23 269.91 304.09 263.36 315.54 228.56 322.99" style="fill:#a2675f"></polygon><g style="opacity:0.1"><polygon points="228.56 322.99 217.91 315.23 269.91 304.09 263.36 315.54 228.56 322.99"></polygon></g><g style="opacity:0.2"><polygon points="230.32 373.25 236.87 361.81 271.66 354.36 282.32 362.11 230.32 373.25"></polygon></g><g style="opacity:0.5"><path d="M262,316.09c0,.14-5.24,1.38-11.77,2.78s-11.84,2.42-11.87,2.28,5.23-1.39,11.76-2.79S262,316,262,316.09Z" style="fill:#fff"></path></g><rect x="275.54" y="297.87" width="53.18" height="59.33" transform="translate(-61.88 70.51) rotate(-12.09)" style="fill:#7a4a45"></rect><rect x="284.34" y="307.68" width="35.58" height="39.7" transform="translate(-61.88 70.51) rotate(-12.09)" style="fill:#a2675f"></rect><g style="opacity:0.30000000000000004"><path d="M285.44,334.56l3.44,16.11,16.2-3.47-14.43,2.23a1.27,1.27,0,0,1-1.44-.85Z" style="fill:#fff"></path></g><g style="opacity:0.30000000000000004"><polygon points="321.92 292.96 315.37 304.4 323.68 343.22 334.33 350.98 321.92 292.96"></polygon></g><polygon points="280.58 311.85 269.92 304.09 321.92 292.96 315.37 304.4 280.58 311.85" style="fill:#a2675f"></polygon><g style="opacity:0.1"><polygon points="280.58 311.85 269.92 304.09 321.92 292.96 315.37 304.4 280.58 311.85"></polygon></g><g style="opacity:0.2"><polygon points="282.33 362.11 288.88 350.67 323.68 343.22 334.33 350.98 282.33 362.11"></polygon></g><g style="opacity:0.5"><path d="M314.05,305c0,.14-5.24,1.39-11.76,2.79s-11.85,2.41-11.88,2.27,5.24-1.39,11.77-2.78S314,304.81,314.05,305Z" style="fill:#fff"></path></g><rect x="183.79" y="377.47" width="53.18" height="59.33" transform="translate(-80.58 53.07) rotate(-12.09)" style="fill:#7a4a45"></rect><rect x="192.59" y="387.29" width="35.58" height="39.7" transform="translate(-80.58 53.07) rotate(-12.09)" style="fill:#a2675f"></rect><g style="opacity:0.30000000000000004"><path d="M193.69,414.16l3.45,16.11,16.2-3.47L198.91,429a1.24,1.24,0,0,1-1.44-.85Z" style="fill:#fff"></path></g><g style="opacity:0.30000000000000004"><polygon points="230.17 372.56 223.62 384 231.93 422.82 242.59 430.58 230.17 372.56"></polygon></g><polygon points="188.83 391.45 178.18 383.69 230.17 372.56 223.62 384 188.83 391.45" style="fill:#a2675f"></polygon><g style="opacity:0.1"><polygon points="188.83 391.45 178.18 383.69 230.17 372.56 223.62 384 188.83 391.45"></polygon></g><g style="opacity:0.2"><polygon points="190.59 441.71 197.14 430.27 231.93 422.82 242.59 430.58 190.59 441.71"></polygon></g><g style="opacity:0.5"><path d="M222.31,384.55c0,.14-5.24,1.39-11.77,2.79s-11.85,2.42-11.88,2.28,5.24-1.39,11.77-2.79S222.28,384.41,222.31,384.55Z" style="fill:#fff"></path></g><rect x="235.79" y="366.34" width="53.18" height="59.33" transform="translate(-77.09 63.71) rotate(-12.09)" style="fill:#7a4a45"></rect><rect x="244.59" y="376.15" width="35.58" height="39.7" transform="translate(-77.1 63.71) rotate(-12.09)" style="fill:#a2675f"></rect><g style="opacity:0.30000000000000004"><path d="M245.69,403l3.45,16.11,16.2-3.47L250.9,417.9a1.27,1.27,0,0,1-1.44-.85Z" style="fill:#fff"></path></g><g style="opacity:0.30000000000000004"><polygon points="282.17 361.43 275.62 372.87 283.93 411.69 294.58 419.45 282.17 361.43"></polygon></g><polygon points="240.83 380.32 230.17 372.56 282.17 361.43 275.62 372.87 240.83 380.32" style="fill:#a2675f"></polygon><g style="opacity:0.1"><polygon points="240.83 380.32 230.17 372.56 282.17 361.43 275.62 372.87 240.83 380.32"></polygon></g><g style="opacity:0.2"><polygon points="242.59 430.58 249.14 419.14 283.93 411.69 294.58 419.45 242.59 430.58"></polygon></g><g style="opacity:0.5"><path d="M274.31,373.42c0,.14-5.24,1.39-11.77,2.79s-11.85,2.41-11.88,2.27,5.24-1.38,11.77-2.78S274.28,373.28,274.31,373.42Z" style="fill:#fff"></path></g><rect x="287.8" y="355.2" width="53.18" height="59.33" transform="translate(-73.61 74.35) rotate(-12.09)" style="fill:#7a4a45"></rect><rect x="296.6" y="365.02" width="35.58" height="39.7" transform="translate(-73.61 74.35) rotate(-12.09)" style="fill:#a2675f"></rect><g style="opacity:0.30000000000000004"><path d="M297.7,391.89,301.15,408l16.2-3.47-14.43,2.23a1.25,1.25,0,0,1-1.44-.85Z" style="fill:#fff"></path></g><g style="opacity:0.30000000000000004"><polygon points="334.19 350.29 327.64 361.73 335.94 400.55 346.6 408.31 334.19 350.29"></polygon></g><polygon points="292.85 369.18 282.19 361.42 334.19 350.29 327.64 361.73 292.85 369.18" style="fill:#a2675f"></polygon><g style="opacity:0.1"><polygon points="292.85 369.18 282.19 361.42 334.19 350.29 327.64 361.73 292.85 369.18"></polygon></g><g style="opacity:0.2"><polygon points="294.6 419.44 301.15 408 335.94 400.55 346.6 408.31 294.6 419.44"></polygon></g><g style="opacity:0.5"><path d="M326.32,362.28c0,.14-5.24,1.39-11.77,2.79s-11.84,2.42-11.87,2.28,5.23-1.39,11.76-2.79S326.29,362.14,326.32,362.28Z" style="fill:#fff"></path></g><polygon points="165.91 327.37 190.59 441.71 346.6 408.31 331.55 337.81 328.69 346.29 322.35 345.52 311.45 346.12 301.89 349.57 288.12 347.23 274.84 328.24 246.17 328.04 232.31 336.96 216.73 329.94 194.47 336.11 187.71 326.62 165.91 327.37" style="fill:#FF725E"></polygon><path d="M331.55,337.82l-7.73,4-8.71-.07-8.94.2-5.78,2.8-11.21,0-11-20-31.72,1.14L232.8,333l-15.26-7.13-16.84,6.88-10.57-9.93-24.23,4.58,4.35,5.4,10.09-1.64,3.77-3.29,2.33,2.75,3,5.21s2.91,4.86,4.27,4.11,6.5-3.29,6.5-3.29l4.53-2,7.8,2.76,3.86-2.94c2.42-2.55,8.84-.54,8.84-.54l6.64,4.22,5.81-1.6,6.53-1.79,3.76-3.29,5.68.71,9.58,2.17,6.7-4,4.89-2.09L278,333.8,284,347.22l2.7,2.66,5.8-1.6,6,6.27,6.53-1.79a21.39,21.39,0,0,1,2.3-4.4c1.16-1.45,4.06-2.24,4.06-2.24a58.93,58.93,0,0,1,6.49.86,44.34,44.34,0,0,0,6,.61l4.72-1.3L331,343.4Z" style="fill:#fff"></path><g style="opacity:0.30000000000000004"><polygon points="335.29 400.36 323.58 341.39 331.69 337.18 346.6 408.31 335.29 400.36"></polygon></g><g style="opacity:0.30000000000000004"><polygon points="197.14 430.27 173.95 325.84 165.92 327.55 190.59 441.71 197.14 430.27"></polygon></g><polygon points="234.43 180.26 245.09 188.02 232.67 130 226.12 141.44 234.43 180.26" style="fill:#7a4a45"></polygon><path d="M232.67,130l-14,3-11.93,9.6c.06,1,.07,2,.06,3l19.37-4.14Z" style="fill:#a2675f"></path><polygon points="215.83 184.24 215.84 184.24 199.64 187.71 193.09 199.15 245.09 188.02 234.43 180.26 215.83 184.24" style="fill:#7a4a45"></polygon><g style="opacity:0.2"><polygon points="215.83 184.24 215.84 184.24 199.64 187.71 193.09 199.15 245.09 188.02 234.43 180.26 215.83 184.24"></polygon></g><g style="opacity:0.30000000000000004"><polygon points="234.43 180.26 245.09 188.02 232.67 130 226.12 141.44 234.43 180.26"></polygon></g><g style="opacity:0.1"><path d="M232.67,130l-14,3-11.93,9.6c.06,1,.07,2,.06,3l19.37-4.14Z"></path></g><path d="M180.64,183.05a21.41,21.41,0,0,1-7.76,10.39l9.55-2.05Z" style="fill:#a2675f"></path><line x1="156.52" y1="196.94" x2="156.7" y2="196.9" style="fill:#fff"></line><g style="opacity:0.30000000000000004"><line x1="156.52" y1="196.94" x2="156.7" y2="196.9" style="fill:#fff"></line></g><g style="opacity:0.30000000000000004"><path d="M193.09,199.15l-6.49-30.3a22.39,22.39,0,0,1-3.55,0,42.05,42.05,0,0,1-2.41,14.25l1.79,8.34Z"></path></g><g style="opacity:0.2"><path d="M182.43,191.39l-9.55,2.05c-6.79,4.7-14.72,3.69-16.18,3.46l-.18,0c.38.55,2.51,4,1.22,9.78L184.48,201l8.61-1.84Z"></path></g><rect x="156.52" y="196.92" width="0.19" transform="translate(-37.81 37.22) rotate(-12.11)" style="fill:#fff"></rect><g style="opacity:0.30000000000000004"><rect x="156.52" y="196.92" width="0.19" transform="translate(-37.81 37.22) rotate(-12.11)" style="fill:#fff"></rect></g><g style="opacity:0.2"><rect x="156.52" y="196.92" width="0.19" transform="translate(-37.81 37.22) rotate(-12.11)" style="fill:#fff"></rect></g><path d="M199.64,187.71l-4.47-20.87a24.33,24.33,0,0,1-8.57,2l6.49,30.3Z" style="fill:#7a4a45"></path><path d="M196.19,171.6l3.77,14a1.26,1.26,0,0,0,1.44.86l14.43-2.23,18.6-4-8.31-38.82-19.37,4.14c-.09,12.83-5.79,18.66-11.58,21.26" style="fill:#a2675f"></path><path d="M201.4,186.47a1.26,1.26,0,0,1-1.44-.86l-3.77-14,3.45,16.11,16.19-3.47Z" style="fill:#a2675f"></path><g style="opacity:0.30000000000000004"><path d="M201.4,186.47a1.26,1.26,0,0,1-1.44-.86l-3.77-14,3.45,16.11,16.19-3.47Z" style="fill:#fff"></path></g><path d="M160.37,254.77l-3.77-14L160,256.86l16.2-3.47-14.43,2.23A1.25,1.25,0,0,1,160.37,254.77Z" style="fill:#fff"></path><path d="M160,256.86l16.2-3.47-14.43,2.23a1.25,1.25,0,0,1-1.44-.85l-3.77-14" style="fill:#a2675f"></path><path d="M160.07,257l0-.24L172,254.18l-10.14,1.57a1.39,1.39,0,0,1-1.58-.95l-3.77-14,.24-.06,3.77,14a1.14,1.14,0,0,0,1.3.76l14.43-2.23.05.25Z" style="fill:#a2675f"></path><g style="opacity:0.30000000000000004"><polygon points="194.83 249.41 205.49 257.17 193.08 199.15 186.53 210.59 194.83 249.41"></polygon></g><path d="M155,213.44a13.12,13.12,0,0,1-3.81,4.24l.51.36,34.79-7.45,6.55-11.44-8.6,1.84-26.74,5.73A24.19,24.19,0,0,1,155,213.44Z" style="fill:#fff"></path><path d="M184.48,201l-26.74,5.73a24.19,24.19,0,0,1-2.7,6.72,13.12,13.12,0,0,1-3.81,4.24l.43.62,34.76-7.52,6.66-11.63Z" style="fill:#a2675f"></path><g style="opacity:0.2"><polygon points="176.24 253.4 176.24 253.4 160.04 256.86 153.49 268.31 205.49 257.17 194.83 249.41 176.24 253.4"></polygon></g><polygon points="176.24 253.4 176.24 253.4 160.04 256.86 176.24 253.4" style="fill:#fff"></polygon><polygon points="238.02 431.56 230.17 394.26 301.49 378.48 310.64 416.01 238.02 431.56" style="fill:#263238"></polygon><path d="M238,431.59v0l-7.85-37.32h0l71.34-15.78v0L310.67,416h0Zm-7.8-37.31L238,431.53,310.61,416l-9.14-37.48Z" style="fill:#263238"></path><g style="opacity:0.2"><polygon points="190.59 441.71 197.14 430.27 335.29 400.36 346.6 408.31 190.59 441.71"></polygon></g><path d="M296.39,397.53c0,.14-11.13,2.64-24.92,5.59s-25,5.21-25,5.07,11.12-2.64,24.92-5.58S296.36,397.39,296.39,397.53Z" style="fill:#fff"></path><path d="M277.79,393.6a89.25,89.25,0,0,1-9.23,2.53,89.81,89.81,0,0,1-9.35,2,87.7,87.7,0,0,1,9.22-2.53A86.1,86.1,0,0,1,277.79,393.6Z" style="fill:#fff"></path><g style="opacity:0.5"><path d="M206.33,144.41a6,6,0,0,1,.36,1.26,18.65,18.65,0,0,1,.37,3.53,19.78,19.78,0,0,1-.68,5.24,19.37,19.37,0,0,1-1,2.95,16,16,0,0,1-1.77,2.87,22.53,22.53,0,0,1-9.15,7.2,18.64,18.64,0,0,1-1.92.67c-.58.13-1.08.25-1.5.31a6.59,6.59,0,0,1-1.3.1,24.43,24.43,0,0,0,4.58-1.41,23.47,23.47,0,0,0,8.87-7.19,15.08,15.08,0,0,0,1.72-2.77,19.19,19.19,0,0,0,1.06-2.86,21,21,0,0,0,.77-5.11A37.65,37.65,0,0,0,206.33,144.41Z" style="fill:#fff"></path></g><g style="opacity:0.5"><path d="M157.65,202.68a2.4,2.4,0,0,1,.1.82,13.71,13.71,0,0,1-.09,2.27,17.88,17.88,0,0,1-.68,3.29,21.57,21.57,0,0,1-1.61,3.8,22.29,22.29,0,0,1-2.38,3.37,18.83,18.83,0,0,1-2.45,2.31,12.71,12.71,0,0,1-1.88,1.26c-.46.26-.73.39-.75.35s1-.67,2.4-1.9a21.07,21.07,0,0,0,4.6-5.65,21.35,21.35,0,0,0,2.39-6.88C157.59,203.86,157.56,202.68,157.65,202.68Z" style="fill:#fff"></path></g><g style="opacity:0.5"><path d="M184.51,211a18.61,18.61,0,0,1-3.09.89c-1.92.47-4.59,1.06-7.55,1.66l-7.59,1.51a22.5,22.5,0,0,1-3.16.54,18,18,0,0,1,3.08-.9c1.93-.47,4.6-1.06,7.56-1.66l7.59-1.51A19.84,19.84,0,0,1,184.51,211Z" style="fill:#fff"></path></g><g style="opacity:0.30000000000000004"><path d="M160,256.84l16.2-3.47-14.43,2.23a1.26,1.26,0,0,1-1.44-.86l-3.77-14" style="fill:#fff"></path></g><g style="opacity:0.5"><path d="M181.64,181.08a2.4,2.4,0,0,1-.2.82,17.79,17.79,0,0,1-.86,2.13A24.83,24.83,0,0,1,170.39,195a18.56,18.56,0,0,1-2.07,1,2.63,2.63,0,0,1-.8.26c0-.08,1-.58,2.68-1.59a28.44,28.44,0,0,0,5.75-4.72,28.76,28.76,0,0,0,4.3-6.07C181.14,182.17,181.56,181.05,181.64,181.08Z" style="fill:#fff"></path></g></g></svg>