<svg xmlns="http://www.w3.org/2000/svg" viewBox="0 0 500 500"><g id="freepik--back-water--inject-1798"><g style="opacity:0.4"><path d="M128.07,316.19a.47.47,0,0,0-.58.31,2.25,2.25,0,0,0,0,1.26,1.22,1.22,0,0,0,.78.8.9.9,0,0,0,1.18-.83.63.63,0,0,0-.17-.45.73.73,0,0,0-.16-.14l-.12,0c0-.05,0-.11-.07-.16A1.75,1.75,0,0,0,128.07,316.19Z" style="fill:#FF81AE"></path><path d="M129.37,336.64a.72.72,0,0,0-.57.61,1.27,1.27,0,0,0,.11.66,1.63,1.63,0,0,0,.33.59.92.92,0,0,0,.78.26.82.82,0,0,0,.55-.41.81.81,0,0,0,.07-.66,1.17,1.17,0,0,0-.29-.43.9.9,0,0,0-.13-.28.66.66,0,0,0-.22-.22.82.82,0,0,0-.19-.09A.83.83,0,0,0,129.37,336.64Z" style="fill:#FF81AE"></path><path d="M125.29,342.77a3.18,3.18,0,0,0,1.36,1.76,2.29,2.29,0,0,1,.56.56,3.68,3.68,0,0,1,.26.69,1.57,1.57,0,0,0,.53.82,1,1,0,0,0,1,.08,1.81,1.81,0,0,0,.78-1.76,3.09,3.09,0,0,0-.65-1.73,2.85,2.85,0,0,0,0-.29,2.69,2.69,0,0,0-1.15-1.82,2,2,0,0,0-1.85-.08A1.59,1.59,0,0,0,125.29,342.77Z" style="fill:#FF81AE"></path><path d="M132.87,314.85a2.43,2.43,0,0,0-.12-2,1.81,1.81,0,0,0-.41-.62,2.23,2.23,0,0,0-.15-.92,2.69,2.69,0,0,0-1.5-1.55,2.49,2.49,0,0,0-2.1.1,1.25,1.25,0,0,0-.65,1,1.48,1.48,0,0,0,.48,1.06,12.48,12.48,0,0,1,1.32,1.62,6.86,6.86,0,0,0,1.24,1.72A1.24,1.24,0,0,0,132.87,314.85Z" style="fill:#FF81AE"></path><path d="M130.68,356a21.17,21.17,0,0,0,3.37,4.24c.95,1,2,1.92,2.92,2.92a49.41,49.41,0,0,0,3,6.44,57.3,57.3,0,0,0,4.32,6.57,66.34,66.34,0,0,0,5,5.75A85,85,0,0,0,160,391.05c7.24,5.21,14.27,9.06,20.6,12.79q4.75,2.76,8.9,5.51c.7.46,1.38.93,2,1.4s1.31.95,2,1.43,1.23,1,1.87,1.46l1.88,1.55A83.48,83.48,0,0,1,211,430.65c1.06,1.51,2.11,3.07,3.11,4.68s2,3.28,3,5c1.92,3.44,3.78,7,5.57,10.95a42.16,42.16,0,0,0,2.92-12.63,59,59,0,0,0-.31-13.2A62.38,62.38,0,0,0,222,412.26a65.89,65.89,0,0,0-6.25-12.48c-.66-1-1.31-2-2-2.92s-1.45-1.95-2.24-2.83a70.07,70.07,0,0,0-4.79-5.18,103.38,103.38,0,0,0-10.13-8.69c-6.79-5.16-13.45-9.34-19.05-13.42-1.43-1-2.74-2-4-3-.65-.49-1.23-1-1.85-1.49s-1.16-1-1.7-1.51l-.76-.7q-.33-.43-.63-.87c-2.9-4.16-5.67-8.94-6.6-14a19.11,19.11,0,0,1-.3-3.85c0-1.4.19-2.79.09-4.19a10,10,0,0,0-1.1-3.79,7.39,7.39,0,0,1-1.16-3.34c.1-2,2.28-3.19,3.42-4.54a5.32,5.32,0,0,0,1.3-2.82c.19-1.41-.18-2.85.12-4.23.5-2.32,2.56-3.88,4.47-4.93,2.15-1.2,4.53-2.1,6.3-3.91a7,7,0,0,0,2.05-6,4.79,4.79,0,0,0-4.34-3.74c-2.14-.28-4.18.4-6.25.82-1.71.35-4,.61-5.48-.58-.84-.68-1-1.82-1.64-2.64a3.13,3.13,0,0,0-2.58-1.11c-2.32.08-4.12,1.75-5.51,3.52-2.9,3.72-4.59,9.3-9.22,11.2-1.14.47-2.41.41-3.54.91a4,4,0,0,0-2.05,2.38,13.8,13.8,0,0,0-.58,3.56c-.13,1.5-.29,3-.38,4.5-.11,1.81-.26,3.6-.39,5.41a19,19,0,0,0-1.44-3.32,18.06,18.06,0,0,0-1.57-2.31,3.78,3.78,0,0,0-2-1.63c-1.52-.32-2.28,1.2-2.38,2.47-.15,1.7.74,3.5,1.42,5,.8,1.77,1.73,3.48,2.5,5.26a15.82,15.82,0,0,1,1.38,5.94c0,2.14-.23,4.28-.11,6.42a16.83,16.83,0,0,0,.73,3.74,47.82,47.82,0,0,0,.77,5.46c.1.53.22,1.07.34,1.6l-2-3.24c-.53-.85-1.24-1.9-2.4-1.63C128.49,351.93,130.09,355,130.68,356Z" style="fill:#FF81AE"></path></g><path d="M134.46,342c0-.13.25-.1.23,0a21.18,21.18,0,0,0,3.4,14.94,33.79,33.79,0,0,0,5.76,6,34.92,34.92,0,0,1,5.51,6.32,48.83,48.83,0,0,0,5,6.54,27.74,27.74,0,0,0,6,4.69,28.13,28.13,0,0,0,7.05,2.94c2.69.72,5.48.91,8.2,1.5a17.33,17.33,0,0,1,6.76,3,27.9,27.9,0,0,1,4.79,4.74c1.47,1.79,2.83,3.68,4.28,5.5.74.93,1.5,1.84,2.3,2.71s1.63,2,2.75,2.14c1,.11,1.69-.88,2.27-1.48a5.59,5.59,0,0,1,2.75-1.77c2.51-.52,4.82,1.29,6.38,3.06a47.06,47.06,0,0,1,4.58,6.6,77.83,77.83,0,0,1,11.3,38.5c0,1.36,0,2.72,0,4.07a.1.1,0,0,1-.2,0,80.89,80.89,0,0,0-7.41-31.89A79.91,79.91,0,0,0,208,406c-1.28-1.76-3-4.18-5.31-4.49s-3.2,2.5-5.17,3c-2.45.65-4.39-1.9-5.74-3.56-1.5-1.82-2.84-3.77-4.24-5.67-2.77-3.78-5.9-7.41-10.5-8.92a81.83,81.83,0,0,0-8.23-1.74,29.4,29.4,0,0,1-7.1-2.5,30.64,30.64,0,0,1-11.3-10.09,58.06,58.06,0,0,0-5.14-6.93c-1.94-2-4.19-3.79-6-5.94a21.49,21.49,0,0,1-5-13.63A20,20,0,0,1,134.46,342Z" style="fill:#FF81AE"></path><path d="M198.8,407.1a28.17,28.17,0,0,1,11.33,8.35c3.44,4.16,5.42,9.46,7.36,14.42a25.59,25.59,0,0,1,2.2,8.92.08.08,0,0,1-.16,0,20.9,20.9,0,0,0-2.3-7.82c-1.1-2.36-2.24-4.7-3.47-7s-2.64-4.47-4.08-6.64a38.16,38.16,0,0,0-4.36-5.53,20.1,20.1,0,0,0-6.57-4.52C198.63,407.24,198.68,407.05,198.8,407.1Z" style="fill:#FF81AE"></path><path d="M147.82,371.69a30.91,30.91,0,0,0,12.5,12.1,41.09,41.09,0,0,0,8,3.23c3.3.93,6.77,1.52,9.87,3a13.07,13.07,0,0,1,6.64,6.34c0,.09-.1.17-.14.07-1.26-2.73-4-4.56-6.82-5.47-3.36-1.09-6.9-1.38-10.28-2.37a31.31,31.31,0,0,1-14.22-9.15,36.67,36.67,0,0,1-5.55-7.77S147.81,371.67,147.82,371.69Z" style="fill:#FF81AE"></path><path d="M137.34,361.13a15.81,15.81,0,0,1,6.57,5.88,48.63,48.63,0,0,1,3.82,8.09c0,.09-.1.16-.14.07-2.39-5.32-5.25-10.68-10.38-13.83C137.08,361.26,137.2,361.07,137.34,361.13Z" style="fill:#FF81AE"></path><path d="M156.35,319.05a18.53,18.53,0,0,1,5.61-7.32,25.2,25.2,0,0,1,8.91-4.4.08.08,0,1,1,0,.15,21.26,21.26,0,0,0-13,11.81,23,23,0,0,0-2.16,9.26,21.17,21.17,0,0,0,.57,4.82c.42,1.76,1,3.47,1.27,5.25a59.06,59.06,0,0,1,.3,11.89.05.05,0,0,1-.1,0,50.8,50.8,0,0,0-.53-11.43c-.7-3.49-2.16-6.75-2.42-10.33A20.32,20.32,0,0,1,156.35,319.05Z" style="fill:#FF81AE"></path><path d="M139.37,336.15a82,82,0,0,1,3.91-13.2c0-.1.19-.05.15,0a53.39,53.39,0,0,0-3.05,11.79c-.28,2-.44,3.94-.57,5.91a42.35,42.35,0,0,0-.06,6c.53,6.61,5.35,11.71,9.36,16.6a27.59,27.59,0,0,1,5.15,8.47s-.06.06-.07,0c-2.19-6.12-7.47-10.09-11.35-15a19.9,19.9,0,0,1-4-8.81A31.57,31.57,0,0,1,139.37,336.15Z" style="fill:#FF81AE"></path><path d="M155.46,354.86c2,6,6.5,10.76,11.33,14.65,2.4,1.94,4.88,3.75,7.44,5.47s5.43,3.52,8,5.46a29,29,0,0,1,7.37,7.53c.07.1-.1.19-.16.09-3.77-5.62-10-8.69-15.53-12.22-5.24-3.34-10.26-7.13-14-12.12a29.41,29.41,0,0,1-4.6-8.83C155.27,354.8,155.42,354.76,155.46,354.86Z" style="fill:#FF81AE"></path><path d="M140.54,312.22c.86-.39,1.77-.61,2.65-.94a12,12,0,0,0,2.49-1.23,14.19,14.19,0,0,0,4-3.93c1.06-1.53,1.92-3.18,3-4.68,1-1.32,2.23-2.86,4-2.9s2.64,1.33,3.78,2.28c1.38,1.16,3.19,1.15,4.88.93,3.38-.45,7.23-1.78,10,.95.08.07,0,.18-.11.11-1.26-1.21-3-1.2-4.65-.93s-3.09.79-4.66,1.1a8.5,8.5,0,0,1-4.56-.14,5.64,5.64,0,0,1-1.85-1.15,18.6,18.6,0,0,0-1.71-1.61c-1.66-1.14-3.17.66-4.07,1.91s-1.83,2.9-2.8,4.31a14.22,14.22,0,0,1-7.82,5.86,12.77,12.77,0,0,0-3,1,5.74,5.74,0,0,0-1.84,1.83,15.62,15.62,0,0,0-1.79,4.83c0,.08-.15.07-.14,0C136.86,317,137.65,313.57,140.54,312.22Z" style="fill:#fff"></path><path d="M129.35,321.6c0-.09.21-.05.19.06-.49,3.48,2.12,6,3.67,8.78a12.9,12.9,0,0,1,1.59,4.41,13.44,13.44,0,0,1-.27,4.69c0,.1-.17,0-.15-.05a9.62,9.62,0,0,0-.49-5.2,17.76,17.76,0,0,0-2.65-4.26C129.54,327.72,127.76,324.43,129.35,321.6Z" style="fill:#fff"></path><path d="M200.73,404c.6-1.45,2.69-1,3.71-.33a13,13,0,0,1,3.42,3.35c1.94,2.65,3,5.71,4.38,8.64,0,.09-.09.17-.13.08a34.7,34.7,0,0,0-4.53-7.13,22.49,22.49,0,0,0-2.82-2.87,9.2,9.2,0,0,0-1.75-1.23,2.85,2.85,0,0,0-1.93-.14C200.88,404.4,200.63,404.23,200.73,404Z" style="fill:#fff"></path><path d="M161.72,382.56c3.91,2.69,8.55,3.12,13,4.32a20.14,20.14,0,0,1,6.17,2.66,21.67,21.67,0,0,1,4.83,4.73c1.58,2,2.94,4.22,4.38,6.34.06.09-.08.16-.13.08a41.73,41.73,0,0,0-9.3-10,22,22,0,0,0-5.94-3.1c-2.15-.72-4.34-1.25-6.51-1.89a18.93,18.93,0,0,1-6.54-3.05S161.69,382.54,161.72,382.56Z" style="fill:#fff"></path><path d="M157.57,330c0-.09.18-.06.16,0-.27,1.78.62,3.36,1.27,5a15,15,0,0,1,1,4.57c.25,3.3-.2,6.68.66,9.92,1.54,5.84,6.56,10.05,10.9,13.89a47.9,47.9,0,0,1,7.22,7.57c.05.07-.07.16-.12.09-4-5.06-10.06-7.95-14.44-12.64a20.68,20.68,0,0,1-4.71-7.59c-1-3.24-.59-6.58-.54-9.91a19,19,0,0,0-.55-5.68C158,333.54,157.16,331.84,157.57,330Z" style="fill:#fff"></path><path d="M160.24,325.76a2.42,2.42,0,0,0,.69-.22,1.13,1.13,0,0,0,.32-.19.45.45,0,0,0,.1-.09s0-.1.06-.14c.12-.21.29-.37.4-.59a2.93,2.93,0,0,0,.25-.64,4.68,4.68,0,0,0,.08-1.67c0-.31,0-.61,0-.92s-.1-.67-.14-1a.38.38,0,0,1,.74-.19c.13.37.24.74.34,1.12a6.56,6.56,0,0,1,.22,1.07,4.1,4.1,0,0,1-.42,2.07,2.48,2.48,0,0,1-1.16,1.19c-.22.07-.42.2-.64.28a1.76,1.76,0,0,1-.79.07C160.18,325.9,160.15,325.77,160.24,325.76Z" style="fill:#fff"></path><path d="M129.7,310.25a3.29,3.29,0,0,1,1,.57,3.44,3.44,0,0,1,.72.89,3.5,3.5,0,0,1,.35,1.08,2.4,2.4,0,0,1,0,1.1.15.15,0,0,1-.28,0,8,8,0,0,0-.25-1,4.44,4.44,0,0,0-.45-.83,4.5,4.5,0,0,0-.56-.74,4,4,0,0,0-.71-.66C129.28,310.55,129.43,310.13,129.7,310.25Z" style="fill:#fff"></path><path d="M128.81,317.66a.29.29,0,0,1,0-.09l0,0h0a.08.08,0,0,1,.06,0,.36.36,0,0,0,0,.1.45.45,0,0,1,0,.11.08.08,0,0,1,0,.05,0,0,0,0,1-.06,0s0,0,0,0a.11.11,0,0,1,0-.06v-.07S128.81,317.68,128.81,317.66Z" style="fill:#fff"></path><path d="M128,342.15c.14.28.3.55.43.83s.24.58.36.87l.33.87c0,.14.11.29.15.44s.07.3.11.44-.1.13-.14.06-.19-.25-.27-.39l-.22-.41c-.15-.27-.29-.55-.43-.82s-.3-.56-.41-.85-.22-.58-.33-.87S127.87,341.92,128,342.15Z" style="fill:#fff"></path><g style="opacity:0.6000000000000001"><polygon points="216.96 24.97 216.96 24.97 216.96 24.97 216.95 24.97 216.96 24.97" style="fill:#FF81AE"></polygon><path d="M369.58,194.41a3,3,0,0,0-.31-1.94.41.41,0,0,1,0-.09,2.69,2.69,0,0,0-.53-1.33,2.47,2.47,0,0,0-1.78-1,1.1,1.1,0,0,0-1.12.58c-.14.39-.28.79-.4,1.19a4.38,4.38,0,0,0-.09,2.51,2.85,2.85,0,0,0,1.32,1.63,2,2,0,0,0,2,0A2.28,2.28,0,0,0,369.58,194.41Z" style="fill:#FF81AE"></path><path d="M353.37,167.81a6.79,6.79,0,0,0,0-1.91,24.82,24.82,0,0,0-.87-3.68c0-.28,0-.55,0-.83,0-1,0-2.07-.07-3.09a4,4,0,0,0-.84-2.32,2.31,2.31,0,0,0-3.35-.39,3.45,3.45,0,0,0-.63,3.45c.49,1.48,1.82,2.63,1.85,4.26s-.77,3.3.06,4.94a2.91,2.91,0,0,0,1.38,1.37,1.67,1.67,0,0,0,1.65-.07A3.32,3.32,0,0,0,353.37,167.81Z" style="fill:#FF81AE"></path><path d="M336,130.94a2.3,2.3,0,0,0,0-1.35,2.76,2.76,0,0,0-.22-1.06,2.89,2.89,0,0,0-.91-1.17,1.26,1.26,0,0,0-1-.3,1.13,1.13,0,0,0-.72.51,2,2,0,0,0-.23.83c0,.11,0,.22,0,.32a.74.74,0,0,0,0,.12l0,.08,0,0-.06,0a.84.84,0,0,0-.31.22,1,1,0,0,0-.15,1,3.55,3.55,0,0,0,1,1.45c.44.43,1,1,1.65.65A2.64,2.64,0,0,0,336,130.94Z" style="fill:#FF81AE"></path><path d="M331.61,126.89a1,1,0,0,0-.1-.81,1.12,1.12,0,0,0-.63-.5,1,1,0,0,0-.77.1,1,1,0,0,0-.43.66.81.81,0,0,0,.22.73.86.86,0,0,0,.65.24.28.28,0,0,0,.13.23.38.38,0,0,0,.4,0,1.05,1.05,0,0,0,.3-.22A1,1,0,0,0,331.61,126.89Z" style="fill:#FF81AE"></path><path d="M331.08,116.13a.93.93,0,0,0,0-.22.84.84,0,0,0-.13-.44.91.91,0,0,0-.36-.29.94.94,0,0,0-.27-.06,1.3,1.3,0,0,0-.14-.26.23.23,0,0,0-.1-.38.72.72,0,0,0-.5,0s0,0,0,0a.57.57,0,0,0-.13,0,.47.47,0,0,0-.36.46,2.38,2.38,0,0,0,.17,1.12,1.15,1.15,0,0,0,.76.6,1,1,0,0,0,.6,0,.89.89,0,0,0,.37-.35l0-.08a0,0,0,0,1,0,0A.61.61,0,0,0,331.08,116.13Z" style="fill:#FF81AE"></path><path d="M235.34,28.52a.85.85,0,0,0-.42-1,.65.65,0,0,0-.23-.09.86.86,0,0,0-.27,0,1.11,1.11,0,0,0-.36.08.45.45,0,0,0-.19.15.69.69,0,0,0-.21.3.61.61,0,0,0,0,.26.91.91,0,0,0,.23.57,1.21,1.21,0,0,0,.43.27.75.75,0,0,0,.49,0,.66.66,0,0,0,.47-.42h0A.54.54,0,0,0,235.34,28.52Z" style="fill:#FF81AE"></path><path d="M229,57a.8.8,0,0,0-.42-.11,1,1,0,0,0-.68.29.94.94,0,0,0-.29.69.53.53,0,0,0,.06.24.35.35,0,0,0,.08.1.4.4,0,0,0,.15.1.33.33,0,0,0,.17,0h.14a.35.35,0,0,0,.14-.06.75.75,0,0,0,.27.32.54.54,0,0,0,.31.06.37.37,0,0,0,.18,0l.1-.07a.94.94,0,0,0,.27-.7,1.36,1.36,0,0,0,0-.21,1.07,1.07,0,0,0-.07-.19.62.62,0,0,0-.17-.25A.76.76,0,0,0,229,57Z" style="fill:#FF81AE"></path><path d="M328.13,124.15a1.64,1.64,0,0,0-.06-1.52.08.08,0,0,1,0,0,2.55,2.55,0,0,0-.75-1.25s0,0-.05,0l-.31-.42c-.43-.62-.9-1.23-1.37-1.84-.81-1-1.61-2.14-2.49-3.15a2,2,0,0,0-2.69-.35c-2.08,1.43-.71,4.53.42,6.1a19.65,19.65,0,0,0,2.21,2.52,3.57,3.57,0,0,0,2.65,1.43,2.63,2.63,0,0,0,1.89-.89A1.23,1.23,0,0,0,328.13,124.15Z" style="fill:#FF81AE"></path><path d="M228.44,49.78a.87.87,0,0,0,.27-.27.6.6,0,0,0,.09-.45,1.13,1.13,0,0,0,0-.18h0a.49.49,0,0,0-.07-.19,1.15,1.15,0,0,0-.27-.27h0a.68.68,0,0,0-.26-.12.36.36,0,0,0-.23,0h-.19a1,1,0,0,0-.46.19.91.91,0,0,0-.21.18,1.27,1.27,0,0,0-.14.17,1.42,1.42,0,0,0-.08.18.5.5,0,0,0,0,.27.38.38,0,0,0,.13.22,1,1,0,0,0,.48.33,1.12,1.12,0,0,0,.45.08A1.06,1.06,0,0,0,228.44,49.78Z" style="fill:#FF81AE"></path><path d="M226.05,27.6a1.14,1.14,0,0,0,.17-.51c0-.11,0-.23,0-.33s0-.43-.18-.52a.13.13,0,0,1-.05-.06l0-.07a.58.58,0,0,0-.15-.11.23.23,0,0,0-.11,0,.25.25,0,0,0,0-.07,1.12,1.12,0,0,0-.91-.35,1.56,1.56,0,0,0-.9.34,1.27,1.27,0,0,0-.44.71,1.22,1.22,0,0,0,.19,1,1.58,1.58,0,0,0,.82.64A1.37,1.37,0,0,0,226.05,27.6Z" style="fill:#FF81AE"></path><path d="M218.12,27a1.61,1.61,0,0,0,.32-1,1.39,1.39,0,0,0-.07-.49,1.65,1.65,0,0,0-.21-.42h0a1.52,1.52,0,0,0-.67-1.07,1.18,1.18,0,0,0-1.18,0,1.38,1.38,0,0,0-.68,1,1.9,1.9,0,0,0,.25,1.34,3.28,3.28,0,0,0,.39.53,2.13,2.13,0,0,0,.44.46,1,1,0,0,0,.8.15A1.21,1.21,0,0,0,218.12,27Z" style="fill:#FF81AE"></path><path d="M176.45,46.24a2.41,2.41,0,0,1-.08.25.4.4,0,0,0,0,.29.24.24,0,0,0,.09.11l.08.06a.33.33,0,0,0,.15,0h.1a.29.29,0,0,0,.12-.07.47.47,0,0,0,.1-.1l0,0s0-.05,0-.07l.09-.25s0-.08,0-.12l0-.13a.34.34,0,0,0,0-.2l0-.08a.31.31,0,0,0-.09-.11.11.11,0,0,0-.08,0,.24.24,0,0,0-.14,0h-.09a.23.23,0,0,0-.12.06.36.36,0,0,0-.11.1l-.06.12Z" style="fill:#FF81AE"></path><path d="M187.44,36.74a.47.47,0,0,0,0-.16.36.36,0,0,0,0-.17v0s0-.07,0-.1a.49.49,0,0,1,0-.11.79.79,0,0,0-.15-.27,1,1,0,0,0-.17-.18l-.05,0,0,0-.12-.08a1,1,0,0,0-.48-.09.06.06,0,0,0-.06.06s0,0,0,.07a.85.85,0,0,0-.19.06,1.31,1.31,0,0,0-.48.59,1.15,1.15,0,0,0-.06.61.67.67,0,0,0,.47.59,1.14,1.14,0,0,0,.66,0,1.47,1.47,0,0,0,.28-.14,1.2,1.2,0,0,0,.28-.27A1.68,1.68,0,0,0,187.44,36.74Z" style="fill:#FF81AE"></path><path d="M212.92,29.67a1.3,1.3,0,0,0-.76-1.67,2.43,2.43,0,0,0-1.68.09c-.78.29-1.53.67-2.29,1a4.68,4.68,0,0,0-1.87,1.11,1.29,1.29,0,0,0,.28,2,2.53,2.53,0,0,0,2.2,0,3.42,3.42,0,0,0,1.42-1.15c.33-.07.66-.14,1-.23A2.42,2.42,0,0,0,212.92,29.67Z" style="fill:#FF81AE"></path><path d="M182.56,37.59a2.48,2.48,0,0,0-.69-2.73,3.3,3.3,0,0,0-3.24-.57,4.53,4.53,0,0,0-3.06,3.86,3.59,3.59,0,0,0,.7,2.53,2.47,2.47,0,0,0,2.55,1,3.28,3.28,0,0,0,1.79-1.55,9.54,9.54,0,0,1,.6-.91c.22-.29.63-.6.9-.93a2.19,2.19,0,0,0,.21-.4A.56.56,0,0,0,182.56,37.59Z" style="fill:#FF81AE"></path><path d="M173.8,38.87a.92.92,0,0,0-.05-.59.41.41,0,0,0-.17-.2,2.37,2.37,0,0,0-.11-.46,1.32,1.32,0,0,0-.18-.33.54.54,0,0,0-.38-.23,1.43,1.43,0,0,0-1,.2,1.77,1.77,0,0,0-.63.8,1.36,1.36,0,0,0,0,1,1.33,1.33,0,0,0,1.33.74,1.37,1.37,0,0,0,.81-.3A1,1,0,0,0,173.8,38.87Z" style="fill:#FF81AE"></path><path d="M153.87,111.06c7.31,11.89,14.84,23.67,22.31,35.46a71.9,71.9,0,0,0,27.81,26c18.84,14.1,42,19.79,64.33,24.66,45.69,9.93,52.23,44.46,53.39,58,.71,10-2.27,18.55-8.41,26.74-8.36,11.29-12.87,23.06-23.3,34.41-2,2.18-4.23,4.4-6.16,6.62-1,1.16-2,2.3-3,3.52a96.43,96.43,0,0,0-20.2,70.13C265.33,376,275.34,356,291,341.67c.91-.86,1.86-1.66,2.82-2.45s1.93-1.55,2.9-2.3c1.21-.94,2.52-1.77,3.76-2.66,22-13.34,47.37-24.94,60.22-49,9.72-10,15.33-23.8,13.8-37.82-.49-5.17-1.71-10.25-2.11-15.44-.48-5,.51-10,1.34-14.91.69-4.61,1.24-9.66-.72-14-2.33-4.59-7.54-2-8,2.32-.45,3.3,1.49,7.07-.94,9.93a57.9,57.9,0,0,1-2.47-9.52c-1.31-8.55-.67-18.42-6.43-25.51-1.59-1.95-3.67-3.41-5.36-5.26a17.06,17.06,0,0,1-3.45-6.09c-1.61-4.63-2.14-9.58-3.49-14.29a73.64,73.64,0,0,0-9.21-19.87c-1.21-1.73-4.14-6.84-6.72-5.47-.94.55-.94,1.74-.82,2.69.57,3.09,2.52,5.68,4.08,8.36,2.36,5.69,6.06,11.67,4.79,18.07-.37,1.16-1.43,1-2.31.52-1.7-1-2.65-3.1-3.9-4.57-1.85-2.55-5.92-3.7-8.21-1.1-2.37,3.23,2.71,6.77,4.37,9.27,2.63,3.06,4.86,6.76,4.34,10.95a9.85,9.85,0,0,0,.23,3.62,101.6,101.6,0,0,0-26.55-10.67A157.21,157.21,0,0,0,272.36,162c-45.5-3.29-83-23.08-84.15-73.41A18,18,0,0,1,191,80.75c2.41-3.45,6.37-5.48,8.79-8.94a3.22,3.22,0,0,0,.57-3c-.39-1-1-1.73-.74-2.89.43-2.23,2.52-3.46,4.39-4.39a67.11,67.11,0,0,1,6.79-3.11c4.66-1.8,9.71-1.86,14.51-3.13a5.45,5.45,0,0,0,2.7-1.26,1.39,1.39,0,0,0,0-2.1,8.72,8.72,0,0,0-3-.75c-2.27-.42-5.83-.27-2.79-3.25a7.81,7.81,0,0,1,5.1-1.79c1.15,0,2.27.23,3.42.21,1.9-.05,4.08-1.18,3.92-3.37s-2.41-3.37-3.27-5.28c-1.09-2.7,2.12-2,3.64-2.44,2-.58,2.94-2.89.86-4.09-3.08-1.9-6.76-1.13-10-.08a2.94,2.94,0,0,1-2.79-.82c-1.8-1.83-4.09-1-5.95.25A21,21,0,0,0,213,33.88c-2.09.61-3.91,2.09-6.07,2.46-1.48.17-2.67-.72-3.93-1.33a9.7,9.7,0,0,0-7.5-.06c-9.24,3.79-16.63,11.58-20.93,20.5-1.62,3.4-3.48,8-7.51,9-2.3-6.18,3.5-11.37,5.64-16.68,1.18-1.41,2.23-3.31,1.06-4.83a2.48,2.48,0,0,0-2.94-.62,6.2,6.2,0,0,0-2.47,2.6,46,46,0,0,0-4.12,8A44.89,44.89,0,0,0,157,76.23c-.1,6.26,1.48,12.87-1.65,18.66C151.63,100.77,150.05,104.58,153.87,111.06Z" style="fill:#FF81AE"></path></g><path d="M158,105.23a21.16,21.16,0,0,1,1.63-7.35,32.19,32.19,0,0,1,4.09-6.46,14.89,14.89,0,0,0,2-3.24,9.28,9.28,0,0,0,.57-3.8c-.1-2.61-.86-5.14-.85-7.76A9.57,9.57,0,0,1,168,70.08c1.54-1.7,3.46-3,5.13-4.52a17.07,17.07,0,0,0,4.14-6.33c1.88-4.59,3.2-9.68,7.44-12.74A8.73,8.73,0,0,1,191.56,45c2.6.47,5,1.91,7.69,2,3.72.06,6.9-2.43,9.63-4.66s5.84-5.07,9.48-6a13.13,13.13,0,0,1,2.56-.41c.1,0,.09.15,0,.16-3.87.24-7,3.07-9.7,5.59s-5.5,5.38-9.05,6.52a10.82,10.82,0,0,1-6.15,0c-2.44-.65-4.93-2-7.52-1.4-4.76,1-7,6.27-8.54,10.31a32.64,32.64,0,0,1-3.32,7,25.22,25.22,0,0,1-5,4.9c-1.7,1.38-3.5,2.91-4.23,5-.81,2.41-.23,5,.14,7.43s.62,5.05-.39,7.43-2.8,4.22-4.24,6.32a19.65,19.65,0,0,0-2.93,6.83,28.9,28.9,0,0,0-.46,7.43,16.43,16.43,0,0,0,2.52,7.34c1.42,2.41,3.15,4.61,4.71,6.92a68.58,68.58,0,0,1,7.22,15c.5,1.34,1,2.68,1.45,4,0,.12-.14.16-.18.05-2.08-5.45-4.16-10.94-7.21-15.94-2.91-4.76-7-8.72-8.78-14.12-.4-1.22-.66-2.47-1-3.71A14,14,0,0,1,158,105.23Z" style="fill:#FF81AE"></path><path d="M309,171.27c4.75.35,8.92,2.44,12.67,5.27a34.32,34.32,0,0,1,5.14,4.87c1.53,1.76,2.79,3.71,4.19,5.58a18.08,18.08,0,0,0,4.67,4.76,6,6,0,0,0,2.83,1,8.31,8.31,0,0,0,3.41-.86c5-1.93,9.13,2.81,10.84,7s2,9,2.48,13.6a42.2,42.2,0,0,0,1.22,7,44.2,44.2,0,0,0,2.65,6.86c2.13,4.48,4.73,8.73,6.68,13.3a37.21,37.21,0,0,1,2.3,7.07,29.09,29.09,0,0,1,.47,8.38A51.55,51.55,0,0,1,364,271.39a80.54,80.54,0,0,1-8.34,14.27c-.77,1.08-1.57,2.15-2.38,3.21-.06.08-.19,0-.13-.08a68.33,68.33,0,0,0,8.14-14.08,73.11,73.11,0,0,0,5.3-15.74,32.18,32.18,0,0,0,.53-8.48,28.15,28.15,0,0,0-1.65-7.36c-1.65-4.59-4.2-8.82-6.45-13.12a45.36,45.36,0,0,1-5-13.43c-.76-4.52-.73-9.14-1.69-13.63a18.22,18.22,0,0,0-2.32-6c-1.21-1.88-3.14-3.92-5.5-4.1-1.33-.11-2.46.56-3.68,1a6.55,6.55,0,0,1-3.2.23,9.87,9.87,0,0,1-5.13-3.11,37.37,37.37,0,0,1-4.09-5.44,43.63,43.63,0,0,0-4.3-5.56,26.67,26.67,0,0,0-11.63-7.78,19.87,19.87,0,0,0-3.49-.73C308.89,171.41,308.89,171.27,309,171.27Z" style="fill:#FF81AE"></path><path d="M271.4,357.28a74.37,74.37,0,0,1,11.41-17.73,57.73,57.73,0,0,1,16.12-12.41c6-3.2,12.28-5.62,18.34-8.6a93.65,93.65,0,0,0,8.73-4.66,50.55,50.55,0,0,0,8-6.09c.59-.56,1.16-1.15,1.72-1.74.07-.08.17,0,.11.11-4.43,4.86-9.88,8.44-15.52,11.73s-11.83,6.05-17.66,9.22-11.62,6.73-16.52,11.42a74.11,74.11,0,0,0-12.55,16.63,138.93,138.93,0,0,0-9,19.45c-.31.82-.63,1.64-.94,2.45,0,.07-.13,0-.1,0C265.85,370.35,268.37,363.7,271.4,357.28Z" style="fill:#FF81AE"></path><path d="M185.34,153.21c3.84,3.8,7.62,7.68,12.16,10.66a29,29,0,0,0,7.21,3.51c2.84.88,5.7.91,8.63,1.2a16.76,16.76,0,0,1,7.63,2.64c2.26,1.46,4.26,3.26,6.43,4.84a41.57,41.57,0,0,0,14.49,6.37c10.48,2.6,21.38,2.61,31.93,4.87a86.12,86.12,0,0,1,28.56,11.89,89.12,89.12,0,0,1,22.67,21c.72,1,1.43,1.91,2.12,2.88.06.08-.08.15-.14.07a83.39,83.39,0,0,0-22.63-21.48,91.35,91.35,0,0,0-28.46-12.17c-10.48-2.46-21.35-2.55-31.85-4.92a47.17,47.17,0,0,1-14.58-5.63,62.49,62.49,0,0,1-6.41-4.83,20.57,20.57,0,0,0-6.94-4.09c-2.89-.85-6-.71-8.94-1.29a25.2,25.2,0,0,1-7.13-2.64c-4.64-2.5-8.57-6.14-12.25-9.87q-1.35-1.38-2.67-2.82C185.07,153.26,185.23,153.11,185.34,153.21Z" style="fill:#FF81AE"></path><path d="M181.36,85.9A37,37,0,0,1,190,68.36c.56-.61,1.13-1.22,1.73-1.8.07-.07.18,0,.1.12A34.77,34.77,0,0,0,182.8,84a49.84,49.84,0,0,0,0,19.88,57.79,57.79,0,0,0,7.54,19.46A88.13,88.13,0,0,0,204.81,141a171.29,171.29,0,0,0,18.05,14.73l2.35,1.69s0,.08,0,.06c-6.42-4.55-12.7-9.28-18.63-14.43a94.21,94.21,0,0,1-15.86-17.16,57,57,0,0,1-9-19.53A48.29,48.29,0,0,1,181.36,85.9Z" style="fill:#FF81AE"></path><path d="M369.85,241.23a70.25,70.25,0,0,1-1.38-13.56c.09-4.44,1.25-8.72,1.9-13.08s1.09-9.09-.85-13.18c-.07-.14.13-.32.24-.17a17,17,0,0,1,2.85,11.16c-.25,4.47-1.68,8.79-2.05,13.25a58.41,58.41,0,0,0,1,13.9,79.6,79.6,0,0,1,1.19,13.16A31.44,31.44,0,0,1,369.93,266c0,.09-.17,0-.13-.08C373.45,258.12,371.27,249.23,369.85,241.23Z" style="fill:#fff"></path><path d="M329.93,131.38a88.67,88.67,0,0,1,9.05,16,66,66,0,0,1,3.08,8.51c.86,2.94,1.44,5.94,2.09,8.93a38.25,38.25,0,0,0,2.68,8.55,39.54,39.54,0,0,0,5.25,7.42,28,28,0,0,1,4.47,7.5,41.6,41.6,0,0,1,2.1,8c1.13,6.36,1.26,12.95,3.71,19,0,.09-.09.17-.13.08-2.35-5.15-3.37-10.71-4.59-16.19s-2.53-11-5.73-15.79c-1.7-2.52-3.78-4.77-5.32-7.4a31.38,31.38,0,0,1-3.17-8.28c-.74-2.95-1.26-5.95-1.95-8.92S340,152.89,339,150a78.14,78.14,0,0,0-4-9.66,76.48,76.48,0,0,0-5.28-8.89C329.64,131.37,329.84,131.26,329.93,131.38Z" style="fill:#fff"></path><path d="M343.05,194a12.63,12.63,0,0,1,5.67,4.65,20.81,20.81,0,0,1,3,8q.85,4.32,1.54,8.67a60.7,60.7,0,0,0,1.69,8.21,32.94,32.94,0,0,0,4,8.82c.05.08-.08.16-.14.07a52.82,52.82,0,0,1-6.68-14.82,72,72,0,0,1-1.89-8.19,45.81,45.81,0,0,0-2.18-8.49,15.74,15.74,0,0,0-1.94-3.7,9.68,9.68,0,0,0-3.23-2.84C342.64,194.28,342.81,193.88,343.05,194Z" style="fill:#fff"></path><path d="M288.28,164.37c3.76,1,7.47,2,11.12,3.38A83.12,83.12,0,0,1,310,172.49a48.84,48.84,0,0,1,9.43,6.44,45.08,45.08,0,0,1,4.05,4,26.81,26.81,0,0,1,3.44,4.57c1,1.77,2.05,3.53,3.2,5.19s2.6,3.23,4.75,3.64c.1,0,.06.16,0,.15-3.48-.59-5.61-3.61-7.54-6.26a61.15,61.15,0,0,0-7.6-8.48,72.68,72.68,0,0,0-19-12.62,87,87,0,0,0-12.38-4.64A.06.06,0,0,1,288.28,164.37Z" style="fill:#fff"></path><path d="M323.32,152.83c2.39-.72,4.15,1.27,5.51,2.93a26.46,26.46,0,0,1,2.28,3.09c.59,1,1.67,2.46,3,2,.1,0,.14.12,0,.15a2.9,2.9,0,0,1-2.73-.49,17.86,17.86,0,0,1-2.62-2.45c-.82-.94-1.61-1.9-2.37-2.9s-1.73-2.08-3-1.86A.25.25,0,0,1,323.32,152.83Z" style="fill:#fff"></path><path d="M321.54,116a8,8,0,0,0,1.49,2.11c.62.59,1.29,1.12,1.89,1.72a7.07,7.07,0,0,1,1.56,2,3.08,3.08,0,0,1,.4,2.26.08.08,0,0,1-.14,0c-.23-.33-.33-.69-.53-1a10,10,0,0,0-.72-1c-.54-.66-1.12-1.27-1.71-1.89a20.4,20.4,0,0,1-1.58-1.9,5.07,5.07,0,0,1-1-2.16C321.15,115.94,321.43,115.8,321.54,116Z" style="fill:#fff"></path><path d="M350,156c1.94.9,1.7,3.48,1.71,5.23,0,2.19,1,4.68,0,6.79a.12.12,0,0,1-.23,0,16.93,16.93,0,0,0-.43-3,14.36,14.36,0,0,1-.48-3c0-1.85,1-4.33-.81-5.65A.2.2,0,0,1,350,156Z" style="fill:#fff"></path><path d="M333.78,128.43h.3a.36.36,0,0,1,.18,0c.19,0,.42.15.54.26a1.44,1.44,0,0,1,.4.6,1.68,1.68,0,0,1,0,.89,1.33,1.33,0,0,1-.05.19.39.39,0,0,1-.06.15s-.09.14-.08.11l0,0-.05.08a.61.61,0,0,1-.15.17.28.28,0,0,1-.46-.13,1.08,1.08,0,0,1-.05-.36s0,0,0,0,0-.11,0-.16,0-.11,0-.16a4.63,4.63,0,0,0,0-.65.76.76,0,0,0,0-.15v0s0-.08,0-.11a.26.26,0,0,1,0-.08l-.11-.19s0,0,0,0a.35.35,0,0,1-.05-.08s0,0,0-.06-.06-.05-.05,0,0-.07,0-.07-.15,0-.19,0A.08.08,0,0,1,333.78,128.43Z" style="fill:#fff"></path><path d="M367.56,194h0l0-.09a.2.2,0,0,0,0-.08l0-.06,0-.06a1.68,1.68,0,0,0,.12-.66,1.51,1.51,0,0,0-.07-.67,3.13,3.13,0,0,0-.15-.32,1.87,1.87,0,0,0-.26-.3c-.07-.06,0-.17.1-.12a1.82,1.82,0,0,1,.6.57,2.49,2.49,0,0,1,.35.78,2,2,0,0,1,0,.92,1.56,1.56,0,0,1-.48.82.35.35,0,0,1-.45,0,.33.33,0,0,1-.07-.43A2.14,2.14,0,0,0,367.56,194Z" style="fill:#fff"></path><path d="M257,188.36a80.23,80.23,0,0,1,13.57,1.1,78.23,78.23,0,0,1,13.32,3.26,83.74,83.74,0,0,1,23.89,13.33A96.4,96.4,0,0,1,319,216.59a.08.08,0,0,1-.11.11,87.55,87.55,0,0,0-21.75-16.06,104.15,104.15,0,0,0-12.28-5.55c-2.08-.79-4.17-1.53-6.29-2.2s-4.29-1.39-6.47-1.92c-2.46-.61-5-1.19-7.48-1.56s-5.07-.66-7.63-.87A.09.09,0,0,1,257,188.36Z" style="fill:#fff"></path><path d="M213,171.64a7.16,7.16,0,0,1,5.35.75,21.85,21.85,0,0,1,4.57,3.79,30.62,30.62,0,0,0,9.84,6.65.08.08,0,0,1-.05.15,36.69,36.69,0,0,1-9.85-5.18c-2.91-2.28-5.7-5.9-9.79-5.47C212.62,172.38,212.6,171.75,213,171.64Z" style="fill:#fff"></path><path d="M167.08,51.68A23,23,0,0,1,169.7,48,10.33,10.33,0,0,0,172,44.09a.27.27,0,0,1,.52.08c-.11,3-2.15,5.29-3.74,7.64a22,22,0,0,0-3.86,8.94c0,.15-.26.15-.24,0A25.26,25.26,0,0,1,167.08,51.68Z" style="fill:#fff"></path><path d="M185.48,44.85c3.2-2.29,7.41-1.62,11-.87a18.57,18.57,0,0,0,3.24.44,9.21,9.21,0,0,0,2.81-.38,13.49,13.49,0,0,0,4.66-2.39c1.52-1.18,3-2.45,4.59-3.55.08-.06.16.08.08.14-2.92,1.95-5,4.91-8,6.76-3.69,2.3-8,.88-11.87-.27-2.13-.64-4.41-.94-6.42.26C185.47,45.05,185.4,44.91,185.48,44.85Z" style="fill:#fff"></path><path d="M164.18,71.53c1-2.46,3.2-4,5.06-5.8a49.42,49.42,0,0,0,5.31-5.61,19.48,19.48,0,0,0,3.81-7.8c0-.1.16,0,.15,0-.84,5.05-3.62,9.48-6.92,13.3a74.84,74.84,0,0,1-5.45,5.53,6.06,6.06,0,0,0-1.94,3.16,13.47,13.47,0,0,0-.18,3.8c.19,2.76.71,5.6-.15,8.31,0,0-.11,0-.09,0C165.18,81.53,162.26,76.41,164.18,71.53Z" style="fill:#fff"></path><path d="M207.05,57.4a26.58,26.58,0,0,1,5.22-2.12,41,41,0,0,1,6.71-1.1l3.73-.46,2-.27a9.3,9.3,0,0,0,.92-.16c.09,0,1.11-.49.62-.68-.09,0,0-.19.05-.15.44.14.28.67.05,1a2.47,2.47,0,0,1-1,.6c-.54.22-1.07.44-1.62.62a52,52,0,0,1-7.17,1.64c-4.17.79-8.64.74-12.34,3.08a13.82,13.82,0,0,0-4.7,4.88,0,0,0,0,1-.07,0C200.92,61,204,59,207.05,57.4Z" style="fill:#fff"></path><path d="M189.78,79.37a17.3,17.3,0,0,1,2.83-4A40.13,40.13,0,0,1,196.26,72c1.19-1.07,2.3-2.44,2-4.13,0-.08.1-.14.14-.06a4.07,4.07,0,0,1-.21,4,15.88,15.88,0,0,1-3.55,3.63c-.68.6-1.39,1.18-2.09,1.77A10.91,10.91,0,0,0,190.66,79a11.18,11.18,0,0,0-1.27,2.54c-.39.92-.76,1.84-1.14,2.77,0,0-.11,0-.09,0A47,47,0,0,1,189.78,79.37Z" style="fill:#fff"></path><path d="M220.42,47.51a10.25,10.25,0,0,1,6.79-3.42c1.4-.07,2.91.16,4.21-.51a2.68,2.68,0,0,0,.74-.5c.29-.34-.06-.69-.22-1-.36-.74-.81-1.45-1.23-2.16a.2.2,0,0,1,.31-.23c.63.69,1.27,1.36,1.92,2a1.88,1.88,0,0,1,.68,1.9c-.5,1.52-2.25,2.09-3.69,2.07-1.71,0-3.39-.52-5.11-.21a7.78,7.78,0,0,0-4.29,2.19C220.46,47.7,220.35,47.59,220.42,47.51Z" style="fill:#fff"></path><path d="M179,39c.38-.54.83-1,1.25-1.51a2.28,2.28,0,0,0,.56-1.22.92.92,0,0,0-.11-.61,1.28,1.28,0,0,0-.36-.49.15.15,0,0,1,.08-.27,1.19,1.19,0,0,1,.78.22,1.79,1.79,0,0,1,.45.7,2.14,2.14,0,0,1-.1,2,4.46,4.46,0,0,1-1.58,1.62c-.34.23-.7.43-1,.67s-.71.5-1.07.73a.08.08,0,0,1-.11-.11C178.14,40.09,178.57,39.55,179,39Z" style="fill:#fff"></path><path d="M210.38,30.06a3.33,3.33,0,0,1,.25-.28.86.86,0,0,1,.13-.14l.15-.12.33-.23.14-.1.1,0h0a.09.09,0,0,0,0-.05.12.12,0,0,0-.15,0c-.09.05-.15-.08-.07-.14a.29.29,0,0,1,.35,0,.34.34,0,0,1,.12.35c0,.12-.14.2-.23.27a3.22,3.22,0,0,1-.28.24l-.14.11-.18.12-.33.17a.12.12,0,0,1-.14,0A.11.11,0,0,1,210.38,30.06Z" style="fill:#fff"></path><path d="M232.61,33.69c.77-.14,1.57-.11,2.33-.29.32-.07.49-.24.39-.58a1.62,1.62,0,0,0-.27-.5,2.36,2.36,0,0,1-.18-.29c0,.1-.12.13-.15,0s.18-.3.33-.33c.37-.06.66.4.83.67A1.12,1.12,0,0,1,236,33.6a1.43,1.43,0,0,1-1,.59c-1.62.27-4.17-.07-5,1.77-.07.16-.32.1-.27-.08A3.67,3.67,0,0,1,232.61,33.69Z" style="fill:#fff"></path></g><g id="freepik--Shadow--inject-1798"><ellipse cx="250" cy="456.7" rx="115.06" ry="14.85" style="fill:#ebebeb"></ellipse></g><g id="freepik--Plant--inject-1798"><path d="M327.42,376.58c-3.37-4.35-7.2-9.14-7-14.92.22-5.33,2-11.23,6.9-14.07,1.4-.81,2.42-1.09,2.87.71.68,2.74-.49,6.07-1.07,8.72a55.36,55.36,0,0,0-1.42,10.41c-.07,2.46.1,4.93.09,7.4,0,.31,0,.62,0,.93,0,.11,0,.23,0,.35l.09.13a.26.26,0,0,1,0,.25.13.13,0,0,1-.05.09A.28.28,0,0,1,327.42,376.58Z" style="fill:#455a64"></path><path d="M327.87,376.58c-2.75-4-6-8.07-5.57-13.12a22.41,22.41,0,0,1,1.8-6.82c.42-1,1.64-3.93,2.92-4,2.32-.12-.78,9.2-.93,10.29a23.51,23.51,0,0,0,1.73,11.9c0,.31,0,.62,0,.93a26.33,26.33,0,0,1-2.18-8.3c-.35-4,1-7.29,1.72-11.12.16-.83.8-3.44-.62-3.23-.94.14-2.15,3-2.4,3.61a22.15,22.15,0,0,0-1.73,6.47c-.48,5.09,2.64,9.24,5.32,13.3A.13.13,0,0,1,327.87,376.58Z" style="fill:#fff"></path><path d="M326.47,381l-.6.27h0a.14.14,0,0,1-.15,0,.24.24,0,0,1-.07-.3s.05-.06.1-.08l.09,0,.19-.06v0l0-.05c2.38-2.91,5.23-5.43,7.59-8.38s4.3-5.8,6.76-8.44c1.55-1.67,9.75-9.48,11.5-4.65.77,2.14-.92,5.2-2,7a23.22,23.22,0,0,1-5.47,6.18C339.11,376.69,332.6,378.29,326.47,381Z" style="fill:#455a64"></path><path d="M338.72,374.12a26.86,26.86,0,0,0,5.72-5.08c.56-.68,3.28-4,2.38-5-.57-.69-2.11.22-2.63.5-2.21,1.2-3.8,3.35-5.49,5.16a103.07,103.07,0,0,1-11.09,10.22c-.28.15-.58.29-.85.45l-.71.38-.24.13-.18.11a.23.23,0,0,0,.08.3l.54-.29-.4.3h0l.48-.22.12-.05c.22-.16.45-.33.66-.5A110.26,110.26,0,0,0,338.72,374.12Zm-10.16,5.26q3.46-2.75,6.64-5.81c1.71-1.65,3.34-3.36,4.93-5.12a25.39,25.39,0,0,1,2.85-2.83c.81-.63,4-2.72,3.2.23-.56,2.14-3.3,4.53-4.89,5.89a38.87,38.87,0,0,1-5.73,3.95C333.27,377,330.9,378.18,328.56,379.38Z" style="fill:#fff"></path><path d="M316,392.2h0l-.14-.15c-2.73-4.23-7-9.39-6.77-14.72.19-3.94,2.36-9.23,6.27-10.85,4.42-1.81,3.56,6.53,3.44,8.66a152.35,152.35,0,0,1-2.54,17l0,.11h0C316.14,392.34,316,392.28,316,392.2Z" style="fill:#455a64"></path><path d="M316.18,392.26c0-.34-.05-.68-.07-1-.24-3.89-.32-7.81-.19-11.7,0-1,.81-8.52-1.15-8.16-1.18.22-1.89,3-2.15,3.95a15.34,15.34,0,0,0-.54,5.09c.26,3.93,2.27,7.5,3.67,11.16.07.16.14.34.2.51a.45.45,0,0,0,0,.12h0C316.05,392.28,316.14,392.34,316.18,392.26Zm-3.49-9.74a15.83,15.83,0,0,1-.15-5.23c.16-1.16.86-5.32,2.33-5.4.77-.05.69.44.84,1.32a9.89,9.89,0,0,1,.13,1.22c0,1,0,2-.08,3-.09,1.76-.14,3.52-.15,5.29,0,2.89.09,5.77.28,8.65C314.88,388.4,313.32,385.6,312.69,382.52Z" style="fill:#fff"></path><path d="M329.72,393.61a29.77,29.77,0,0,1-17.24,1.79l-.1,0a.24.24,0,0,1-.07-.27.22.22,0,0,1,.25-.15l.36.06c6-3.31,12.07-6.54,18.05-10,1.4-.8,10.48-5.78,11-2.24.3,2.19-3,4.75-4.48,6A30.07,30.07,0,0,1,329.72,393.61Z" style="fill:#455a64"></path><path d="M336.09,386.78c.36-.47.66-1.06,0-1.34-1.33-.55-5.54,1.87-6.74,2.49-5,2.53-10,4.57-15.18,6.64l-1.31.53h-.51a.22.22,0,0,0,.07.26l.14,0h.69A35.3,35.3,0,0,0,324,393.69a33.26,33.26,0,0,0,6.33-2.76C332.18,389.89,334.78,388.5,336.09,386.78Zm-22.59,8.3h-.33l.55-.18a99.14,99.14,0,0,0,12-4.83c2-1,3.86-2,5.86-2.93.84-.38,3.19-1.53,4-1.16s0,.94-.48,1.34-.92.73-1.23,1A34.56,34.56,0,0,1,313.5,395.08Z" style="fill:#fff"></path><path d="M301,404.68l-.58-.82,2.11-1.59q4.24-3.27,8.41-6.64c1.59-1.29,3.14-2.59,4.64-3.93l.16-.13c.11-.12.23-.22.36-.34l.39-.36a43.25,43.25,0,0,0,8.63-10.46c.76-1.33,1.45-2.69,2.11-4.07.07-.13.13-.27.19-.4a.31.31,0,0,0,.05-.1c.07-.14.13-.28.19-.42l.15-.31c2-4.28,3.58-8.72,5.3-13.06.49-1.25,1-2.49,1.49-3.73,0-.08.06-.16.09-.22a2.33,2.33,0,0,1,.11-.28c2.21-5.49,4.48-11,6.54-16.5.07-.21.38-.06.3.14-1.34,3.7-2.6,7.44-3.88,11.18-.16.49-.34,1-.51,1.49-.34,1-.67,2-1,2.94-.68,2-1.38,3.91-2.11,5.86a144.81,144.81,0,0,1-6.74,16.25l-.63,1.15c-.13.24-.26.48-.41.71s-.3.55-.46.82a46.5,46.5,0,0,1-10.88,12c-.28.24-.58.48-.88.72l-.41.34a1.84,1.84,0,0,0-.22.17l-.29.23h0l-.22.16c-.25.21-.51.4-.77.61q-4.22,3.3-8.5,6.5Z" style="fill:#455a64"></path><path d="M336,342.58c1.39-4.4,5.53-11.72,11.12-10.74a4.32,4.32,0,0,1,3.7,4.41c0,2.65-1.82,5.14-3.39,7.12-4.16,5.28-8.8,10.13-12.59,15.72,0,.06-.33.48-.41.6s-.24,0-.17-.13.25-.37.37-.55C334.63,353.6,334.32,347.79,336,342.58Z" style="fill:#455a64"></path><path d="M334.83,359.13s0-.08.05-.12a46.83,46.83,0,0,1,2.38-4.88,91.7,91.7,0,0,1,6.3-9.4c.86-1.17,5.23-6.74,1.61-7.13-1.52-.17-3.08,1.13-4.12,2.08a16.92,16.92,0,0,0-3.93,5.43c-1.92,4.07-2.35,8.55-2.42,13,0,.2,0,.4,0,.6l-.08.19s0,.08-.05.12a.11.11,0,0,0,0,.08.15.15,0,0,0,.2.11A.1.1,0,0,0,334.83,359.13Zm0-1.31A36.38,36.38,0,0,1,336.59,347,19.37,19.37,0,0,1,339.3,342a15.37,15.37,0,0,1,1.71-1.9,10.84,10.84,0,0,1,1.48-1.21c1.16-.78,2.73-1.2,3.33-.61.75.72.47,1.34-.09,2.58a11.62,11.62,0,0,1-.65,1.2,31.86,31.86,0,0,1-1.94,2.81c-1.13,1.51-2.24,3-3.3,4.59-.72,1-1.42,2.13-2.07,3.23a46.92,46.92,0,0,0-3,5.87C334.78,358.28,334.8,358.05,334.81,357.82Z" style="fill:#fff"></path><path d="M161.15,369.56c2.71,2.5,5.26,5.19,7.77,7.89,1.43,1.53,2.83,3.09,4.27,4.62,1.57,1.69,3.06,3.58,5.27,4.41h0a1.38,1.38,0,0,1,.27.16s0,0,0,.05a.27.27,0,0,1-.34.33l-.15-.05h-.06a9.22,9.22,0,0,1-2-.46,48,48,0,0,1-5.37-1.6,46.3,46.3,0,0,1-10.24-5.13,39,39,0,0,1-7.66-6.79c-1.79-2.08-4.48-5.15-5-8-.45-2.53,2.82-2,4.33-1.59C155.72,364.46,158.57,367.19,161.15,369.56Z" style="fill:#455a64"></path><path d="M152.91,367.71c-.78,1.09,2.17,4.39,3.41,5.86a37.36,37.36,0,0,0,6.65,6.16,47.92,47.92,0,0,0,14.61,7l.63.19h.06l.14.05a.28.28,0,0,0,.35-.34c-.42-.19-.82-.39-1.21-.61s-.72-.4-1.06-.61c-3.78-2.25-7.06-5.38-10.28-8.36C162.43,373.59,153.94,366.27,152.91,367.71Zm24.14,18.44c.52.29,1.06.56,1.59.8l-1.27-.41a53.49,53.49,0,0,1-12.93-6.15,38,38,0,0,1-6.22-5.17,35.22,35.22,0,0,1-2.82-3.29c-.36-.49-2.74-3.38-2.11-3.95.44-.4,3.17,1.38,3.23,1.42.54.35,1.08.73,1.6,1.12,1.09.79,2.13,1.65,3.15,2.52,2.22,1.9,4.33,3.92,6.48,5.89A50.73,50.73,0,0,0,177.05,386.15Z" style="fill:#fff"></path><path d="M181.63,358.32c2.47,4.79,3,10.28,3.12,15.58,0,2.84-.06,5.68-.09,8.52a37.39,37.39,0,0,0,.27,7.6c0,.11,0,.22.07.34a9.39,9.39,0,0,0,.67,2,.15.15,0,0,1,0,.13l.12.19a0,0,0,0,1-.07.06c-.06,0-.12-.11-.18-.16h0a.15.15,0,0,1-.16-.09l0-.08-.17-.17c-4.15-3.82-6.47-10.29-8-15.49s-2.31-10.74-.94-16c.35-1.34.94-4.5,2.55-5S181.11,357.31,181.63,358.32Z" style="fill:#455a64"></path><path d="M179.44,361.42c-1.63.27-1.28,4.74-1.23,5.83a57,57,0,0,0,1.48,9.8,51.25,51.25,0,0,0,5.41,15h0l.06.19.17.17a.3.3,0,0,0,0,.08.15.15,0,0,0,.16.09l-.06-.25c-.18-.65-.33-1.32-.47-2,0-.11-.05-.22-.07-.33a108.32,108.32,0,0,1-1.45-14.09,53.41,53.41,0,0,0-1.48-9.75C181.78,365.37,180.81,361.2,179.44,361.42Zm1.46,2.37c2.23,5.15,2.16,11.27,2.53,16.77a57.58,57.58,0,0,0,1.55,11,54.32,54.32,0,0,1-4.73-13.69,72.88,72.88,0,0,1-1.47-8.15,29,29,0,0,1-.25-4.47,11.56,11.56,0,0,1,.34-2.67C179.43,361,180.52,362.9,180.9,363.79Z" style="fill:#fff"></path><path d="M194.5,399.64a.28.28,0,0,1,0,.28h.11a.08.08,0,0,1,.09.08.08.08,0,0,1-.07.1c-6.39,1-13.5,1.3-19.79-.42a25.14,25.14,0,0,1-7.49-3.36c-1.56-1.06-4.71-3.18-4.89-5.29-.35-4.24,10.89.16,12.58.83,3.08,1.22,6.06,2.69,9.11,4,3.35,1.39,6.8,2.54,10.24,3.69A.31.31,0,0,1,194.5,399.64Z" style="fill:#455a64"></path><path d="M194.49,399.64l-1-.11a55,55,0,0,1-16.19-4.39,48.78,48.78,0,0,0-7.91-3c-.68-.16-3.18-1-2.78.65.21.83,4.33,3.21,5.45,3.74a34.55,34.55,0,0,0,8.07,2.53,56.82,56.82,0,0,0,14.15,1l.41,0a.08.08,0,0,0-.09-.09h-.1A.28.28,0,0,0,194.49,399.64Zm-12-.5a39.7,39.7,0,0,1-8.16-2,28.71,28.71,0,0,1-3.06-1.35,18.17,18.17,0,0,1-2.26-1.34c-1.73-1.26-2.08-1.72-1.93-2.06s.46-.32,1.86-.09a15.18,15.18,0,0,1,2.65.77c1.21.47,2.42,1,3.61,1.49,2.4,1,4.78,2.1,7.25,2.95a42,42,0,0,0,10.94,2.28A64.27,64.27,0,0,1,182.48,399.14Z" style="fill:#fff"></path><path d="M193.83,381.27a16.06,16.06,0,0,1,3.3,6c1.46,4.36,2,9,3.12,13.39.18.67.36,1.33.57,2,0,.07.46.8.41.76s-.23-.22-.58-.59h0c-1.73-1.81-6.88-7.4-8.85-11.18a33,33,0,0,1-3-7.41c-.28-1.22-.8-4,.42-5S193,380.4,193.83,381.27Z" style="fill:#455a64"></path><path d="M191.21,382.35c-1.71.71,1.83,8.24,2.27,9.23a46.4,46.4,0,0,0,6.31,10.2c.28.36.57.7.86,1.05s.56.58.57.59a8.52,8.52,0,0,0-.41-.76c0-.11-.06-.23-.1-.34-.16-.54-.32-1.09-.45-1.63-1.13-3-2.2-6-3.39-8.92a42.91,42.91,0,0,0-3-6.18C193.61,385.15,192,382,191.21,382.35Zm1.4,1.56c3.83,5.49,5.22,12.1,7.75,18.2l.12.3c-.1-.14-.22-.27-.32-.41a53,53,0,0,1-5.34-8.37,50.7,50.7,0,0,1-2.41-5.56,23.36,23.36,0,0,1-1.07-3.15c-.1-.47-.33-1.77,0-1.94S192.36,383.54,192.61,383.91Z" style="fill:#fff"></path><path d="M160.65,338.11c6,10.06,3,23,8.3,33.33l0,.06c.16.31.33.62.51.94a.22.22,0,0,1-.16.32.17.17,0,0,1-.16-.09l-.12-.23c-4.78-4.43-8.65-10.47-11.5-16.3-2.47-5.07-4.1-10.76-3.25-16.43.2-1.4.52-4.19,2.21-4.71S159.91,336.87,160.65,338.11Z" style="fill:#455a64"></path><path d="M158.58,341.81c-.71.22-.8,1.27-.88,1.84a17.68,17.68,0,0,0-.09,4.3,29.37,29.37,0,0,0,2.19,8.53,61.3,61.3,0,0,0,7.12,13.3c.67.92,1.38,1.81,2.13,2.66l.28.32a.22.22,0,0,0,.16-.32c-.18-.3-.33-.6-.5-.91a.2.2,0,0,1,0-.08,35.81,35.81,0,0,1-3-6.29,85.08,85.08,0,0,1-2.69-10.53C162.91,353.24,161,341,158.58,341.81Zm1.59,2.05c1.23,2.63,1.62,5.62,2.25,8.44s1.24,5.69,1.91,8.52a41.66,41.66,0,0,0,2.17,6.59,31.52,31.52,0,0,0,2.73,5.09,43.21,43.21,0,0,1-3.32-4.62.33.33,0,0,1,0-.06,82.23,82.23,0,0,1-4.72-8.95.61.61,0,0,0,0-.12,36.8,36.8,0,0,1-2.87-8.41,21.75,21.75,0,0,1-.41-4.83c.09-1.83.35-3.3,1-3.33C159.23,342.17,159.81,343.08,160.17,343.86Z" style="fill:#fff"></path><path d="M161.4,358.74c1.65,2.91,3.37,5.79,5.1,8.67q1.22,2,2.45,4a.2.2,0,0,0,0,.08l.88,1.46c2.66,4.39,5.29,9,8.64,12.93a43.76,43.76,0,0,0,5.92,5.61c.23.17.45.35.67.53h0l.37.28.2.15c1.87,1.45,3.82,2.8,5.72,4.1,2.64,1.82,5.39,3.45,8.16,5.05a1.38,1.38,0,0,0,.24.14l.37.22.2.11.35.21c.89.51,1.78,1,2.66,1.56l-.56.8a63.18,63.18,0,0,1-8.4-4.55l-.16-.1c-.27-.16-.53-.33-.79-.5l-1-.62-2.26-1.53A67.42,67.42,0,0,1,178,387.24l-.29-.33-.12-.14-.21-.23-.32-.39-.56-.7-.16-.21a103.53,103.53,0,0,1-7.48-12L167.6,371l-.68-1.24-1-1.9a.33.33,0,0,1,0-.06c-1.59-3-3.11-6-4.72-8.95C161.09,358.73,161.32,358.6,161.4,358.74Z" style="fill:#455a64"></path></g><g id="freepik--Table--inject-1798"><polygon points="51.69 404.45 101.26 404.21 150.84 404.12 250 403.95 349.16 404.12 398.74 404.2 448.31 404.45 398.74 404.69 349.16 404.78 250 404.95 150.84 404.78 101.26 404.69 51.69 404.45" style="fill:#263238"></polygon></g><g id="freepik--Bottle--inject-1798"><path d="M312.52,295.46s2.32,2.82,2.32,5.15v14.3c0,1.54-2.32,2.87-2.32,2.87s2.32,1.71,2.32,2.78v8.61c0,.87-2.32,2.7-2.32,2.7s2.32,1.75,2.32,2.66v9.19c0,.71-2.32,2.16-2.32,2.16s2.32,1.35,2.32,2v9.81c0,.73-2.32,2.22-2.32,2.22s2.32,1.62,2.32,2.44v8.69c0,.92-2.32,2.77-2.32,2.77s2.32,2.47,2.32,3.29v8.09c0,.81-2.32,2.67-2.32,2.67s2.32,1.46,2.32,2.35v40.69c0,8.15-5.72,28.88-15.36,28.88h-99c-9.64,0-15.36-20.73-15.36-28.88V390.25c0-.89,2.32-2.35,2.32-2.35s-2.32-1.86-2.32-2.67v-8.09c0-.82,2.32-3.29,2.32-3.29s-2.32-1.85-2.32-2.77v-8.69c0-.82,2.32-2.44,2.32-2.44s-2.32-1.49-2.32-2.22v-9.81c0-.69,2.32-2,2.32-2s-2.32-1.45-2.32-2.16v-9.19c0-.91,2.32-2.66,2.32-2.66s-2.32-1.83-2.32-2.7v-8.61c0-1.07,2.32-2.78,2.32-2.78s-2.32-1.33-2.32-2.87v-14.3c0-2.33,2.32-5.15,2.32-5.15V206s-2.32-2.82-2.32-5.82c0-6.48.89-35.08,12-58.69s32.51-36.58,32.51-36.58V95h-3.27V91.86h3.27V90h-3.27V86.79h3.27V80h40.72v6.82h3.26V90h-3.26v1.91h3.26V95h-3.26v9.89s21.43,13,32.51,36.58,12,52.21,12,58.69c0,3-2.32,5.82-2.32,5.82Z" style="fill:#FF81AE"></path><path d="M312.52,295.46s2.32,2.82,2.32,5.15v14.3c0,1.54-2.32,2.87-2.32,2.87s2.32,1.71,2.32,2.78v8.61c0,.87-2.32,2.7-2.32,2.7s2.32,1.75,2.32,2.66v9.19c0,.71-2.32,2.16-2.32,2.16s2.32,1.35,2.32,2v9.81c0,.73-2.32,2.22-2.32,2.22s2.32,1.62,2.32,2.44v8.69c0,.92-2.32,2.77-2.32,2.77s2.32,2.47,2.32,3.29v8.09c0,.81-2.32,2.67-2.32,2.67s2.32,1.46,2.32,2.35v40.69c0,8.15-5.72,28.88-15.36,28.88h-99c-9.64,0-15.36-20.73-15.36-28.88V390.25c0-.89,2.32-2.35,2.32-2.35s-2.32-1.86-2.32-2.67v-8.09c0-.82,2.32-3.29,2.32-3.29s-2.32-1.85-2.32-2.77v-8.69c0-.82,2.32-2.44,2.32-2.44s-2.32-1.49-2.32-2.22v-9.81c0-.69,2.32-2,2.32-2s-2.32-1.45-2.32-2.16v-9.19c0-.91,2.32-2.66,2.32-2.66s-2.32-1.83-2.32-2.7v-8.61c0-1.07,2.32-2.78,2.32-2.78s-2.32-1.33-2.32-2.87v-14.3c0-2.33,2.32-5.15,2.32-5.15V206s-2.32-2.82-2.32-5.82c0-6.48.89-35.08,12-58.69s32.51-36.58,32.51-36.58V95h-3.27V91.86h3.27V90h-3.27V86.79h3.27V80h40.72v6.82h3.26V90h-3.26v1.91h3.26V95h-3.26v9.89s21.43,13,32.51,36.58,12,52.21,12,58.69c0,3-2.32,5.82-2.32,5.82Z" style="fill:#fff;opacity:0.8"></path><path d="M303.13,300.35s2,2.4,2,4.38v12.15c0,1.31-2,2.44-2,2.44s2,1.46,2,2.36V330c0,.74-2,2.3-2,2.3s2,1.48,2,2.26v9.81c0,.6-2,1.83-2,1.83s2,1.15,2,1.74v10.33c0,.62-2,1.89-2,1.89s2,1.38,2,2.07v9.39c0,.78-2,2.35-2,2.35s2,2.1,2,2.8v8.88c0,.68-2,2.26-2,2.26s2,1.25,2,2V430c0,6.93-4.85,19.55-13.05,19.55H208c-8.2,0-13-13.62-13-20.55V389.91c0-.75,2-2,2-2s-2-1.58-2-2.26v-8.88c0-.7,2-2.8,2-2.8s-2-1.57-2-2.35v-9.39c0-.69,2-2.07,2-2.07s-2-1.27-2-1.89V347.94c0-.59,2-1.74,2-1.74s-2-1.23-2-1.83v-9.81c0-.78,2-2.26,2-2.26s-2-1.56-2-2.3v-8.32c0-.9,2-2.36,2-2.36s-2-1.13-2-2.44V304.73c0-2,2-4.38,2-4.38v-96a9.09,9.09,0,0,1-2-4.94c0-4.82.58-24,7-42.18.13-.37.26-.73.4-1.09a168.33,168.33,0,0,1,18.48,1.21c15.07,1.72,30,4.74,39.92,5.45a174.77,174.77,0,0,0,38.78-1.25,141.31,141.31,0,0,1,5.6,37.86,9.09,9.09,0,0,1-2,4.94Z" style="fill:#FF81AE"></path><path d="M303.13,300.35s2,2.4,2,4.38v12.15c0,1.31-2,2.44-2,2.44s2,1.46,2,2.36V330c0,.74-2,2.3-2,2.3s2,1.48,2,2.26v9.81c0,.6-2,1.83-2,1.83s2,1.15,2,1.74v10.33c0,.62-2,1.89-2,1.89s2,1.38,2,2.07v9.39c0,.78-2,2.35-2,2.35s2,2.1,2,2.8v8.88c0,.68-2,2.26-2,2.26s2,1.25,2,2V430c0,6.93-4.85,19.55-13.05,19.55H208c-8.2,0-13-13.62-13-20.55V389.91c0-.75,2-2,2-2s-2-1.58-2-2.26v-8.88c0-.7,2-2.8,2-2.8s-2-1.57-2-2.35v-9.39c0-.69,2-2.07,2-2.07s-2-1.27-2-1.89V347.94c0-.59,2-1.74,2-1.74s-2-1.23-2-1.83v-9.81c0-.78,2-2.26,2-2.26s-2-1.56-2-2.3v-8.32c0-.9,2-2.36,2-2.36s-2-1.13-2-2.44V304.73c0-2,2-4.38,2-4.38v-96a9.09,9.09,0,0,1-2-4.94c0-4.82.58-24,7-42.18.13-.37.26-.73.4-1.09a168.33,168.33,0,0,1,18.48,1.21c15.07,1.72,30,4.74,39.92,5.45a174.77,174.77,0,0,0,38.78-1.25,141.31,141.31,0,0,1,5.6,37.86,9.09,9.09,0,0,1-2,4.94Z" style="fill:#fff;opacity:0.4"></path><path d="M209.44,166.92c-3.21,24.87-2.86,36.13-.53,39.08v91.07a18.27,18.27,0,0,0-3.83,10.75V429.07c0,11.14,5.83,30.75,22.46,30.75h-27c-9.64,0-15.36-20.73-15.36-28.88V390.25c0-.89,2.32-2.35,2.32-2.35s-2.32-1.86-2.32-2.67v-8.09c0-.82,2.32-3.29,2.32-3.29s-2.32-1.85-2.32-2.77v-8.69c0-.82,2.32-2.44,2.32-2.44s-2.32-1.49-2.32-2.22v-9.81c0-.69,2.32-2,2.32-2s-2.32-1.45-2.32-2.16v-9.19c0-.91,2.32-2.66,2.32-2.66s-2.32-1.83-2.32-2.7v-8.61c0-1.07,2.32-2.78,2.32-2.78s-2.32-1.33-2.32-2.87v-14.3c0-2.33,2.32-5.15,2.32-5.15V206s-2.32-2.82-2.32-5.82c0-6.48.89-35.08,12-58.69s32.51-36.58,32.51-36.58V95h-3.27V91.86h3.27V90h-3.27V86.79h3.27V80h7.84v25.56S214.43,128.18,209.44,166.92Z" style="opacity:0.1"></path><path d="M296.56,166.92c3.21,24.87,2.86,36.13.53,39.08v91.07a18.27,18.27,0,0,1,3.83,10.75V427.07c0,24.06-11.83,32.75-28.46,32.75h27c9.64,0,15.36-20.73,15.36-28.88V390.25c0-.89-2.32-2.35-2.32-2.35s2.32-1.86,2.32-2.67v-8.09c0-.82-2.32-3.29-2.32-3.29s2.32-1.85,2.32-2.77v-8.69c0-.82-2.32-2.44-2.32-2.44s2.32-1.49,2.32-2.22v-9.81c0-.69-2.32-2-2.32-2s2.32-1.45,2.32-2.16v-9.19c0-.91-2.32-2.66-2.32-2.66s2.32-1.83,2.32-2.7v-8.61c0-1.07-2.32-2.78-2.32-2.78s2.32-1.33,2.32-2.87v-14.3c0-2.33-2.32-5.15-2.32-5.15V206s2.32-2.82,2.32-5.82c0-6.48-.89-35.08-12-58.69s-32.51-36.58-32.51-36.58V95h3.27V91.86h-3.27V90h3.27V86.79h-3.27V80h-7.84v25.56S291.57,128.18,296.56,166.92Z" style="fill:#fff;opacity:0.5"></path><g style="opacity:0.1"><path d="M222,317.7c7.54-.21,15.08-.32,22.63-.4s15.08-.06,22.63-.09l22.63.15,11.31.16,11.32.26L301.2,318l-11.31.12-22.63.07-22.63-.14C237.08,318,229.54,317.9,222,317.7Z"></path><path d="M187.48,317.78c4.13-.4,8.25-.51,12.38-.53s8.25.08,12.38.47c-4.12.4-8.25.5-12.38.53S191.61,318.16,187.48,317.78Z"></path><path d="M259.46,331.79c4.42-.2,8.84-.29,13.27-.36s8.84-.07,13.26-.1,8.84.06,13.26.15l6.64.15c2.21.09,4.42.15,6.63.26-2.21.11-4.43.16-6.64.23l-6.63.13c-4.42.07-8.84.05-13.26.08s-8.84-.05-13.26-.14S263.88,332,259.46,331.79Z"></path><path d="M187.48,331.89c5.21-.21,10.42-.32,15.63-.4s10.42-.1,15.63-.15,10.42,0,15.63.09l7.81.13c2.61.08,5.22.12,7.82.23-2.6.12-5.21.17-7.81.26l-7.82.15c-5.21.09-10.42.09-15.63.14s-10.42,0-15.63-.09S192.69,332.09,187.48,331.89Z"></path><path d="M187.48,346c10.42-.22,20.84-.34,31.26-.43l31.26-.17,31.26.16,15.63.17,15.63.27-15.63.22-15.63.11-31.26.07-31.26-.07C208.32,346.28,197.9,346.2,187.48,346Z"></path><path d="M250,360c5.21-.2,10.42-.28,15.63-.36s10.42-.05,15.63-.09,10.42.06,15.63.14l7.81.16c2.61.08,5.21.14,7.82.25-2.61.11-5.21.16-7.82.24l-7.81.12c-5.21.07-10.42.06-15.63.09s-10.42-.05-15.63-.14S255.21,360.24,250,360Z"></path><path d="M187.48,360.12c3.58-.21,7.16-.31,10.73-.4s7.16-.12,10.74-.14,7.16,0,10.73.09l5.37.13c1.79.08,3.58.12,5.37.23-1.79.12-3.58.17-5.37.26l-5.36.15c-3.58.1-7.16.12-10.74.14s-7.16,0-10.73-.1S191.06,360.32,187.48,360.12Z"></path><path d="M187.48,374.24c10.42-.22,20.84-.34,31.26-.44l31.26-.16,31.26.16,15.63.17,15.63.27-15.63.22-15.63.11-31.26.07-31.26-.07C208.32,374.51,197.9,374.43,187.48,374.24Z"></path><path d="M275.52,388.27c3.08-.2,6.16-.29,9.25-.36s6.16-.09,9.25-.1,6.16,0,9.25.14l4.62.15c1.54.08,3.09.14,4.63.25-1.55.11-3.09.16-4.63.24l-4.62.13c-3.09.08-6.17.09-9.25.09s-6.17,0-9.25-.14S278.6,388.48,275.52,388.27Z"></path><path d="M187.48,388.35c6-.21,12-.32,18-.41s12-.09,18-.14,12,0,18,.08l9,.13c3,.08,6,.13,9,.24-6,.21-12,.31-18,.4s-12,.1-18,.14-12,0-18-.08S193.48,388.55,187.48,388.35Z"></path></g><path d="M289.39,216.43s2.77-32.53-1.65-53.6c-3.86-18.37-15.09-36.57-16.53-35.8s-10.64,18.29-10.42,20.73,6.65,10.31,9.09,25.39,0,43.28,0,43.28Z" style="fill:#fff;opacity:0.2"></path><path d="M280.13,216.43s2.78-32.53-1.65-53.6C274.62,144.46,263.4,126.26,262,127s-2.51,4.49-2.29,6.93,9.13,14.58,14,39.19c2.93,15,0,43.28,0,43.28Z" style="fill:#fff;opacity:0.4"></path><path d="M288.75,374.24s3.05,1.4,3.05,2.64v8.73c0,1.42-3.3,2.74-3.3,2.74s3.3,2.17,3.3,3.67v16.87c0,8.56,0,16.41-2.63,21.95-3.13,6.59-8.83,11.4-13.08,11-4.77-.47-5.2-3.84-4.28-5.77,2.63-5.54,2.63-18.6,2.63-27.16V392c0-1.5-3.3-3.67-3.3-3.67s3.3-1.32,3.3-2.74v-8.73c0-1.24-3.05-2.64-3.05-2.64s3.05-1.84,3.05-4.84v-6.23c0-1.5-3-3.09-3-3.09s2.72-1.37,2.72-3v-8.37c0-1.33-2.44-2.66-2.44-2.66s2.55-2.16,2.55-4.32v-6.76c0-1.55-2.66-3-2.66-3s2.61-1.12,2.61-3.33v-8.21c0-1.49-2.22-2.57-2.22-2.57a5,5,0,0,0,2.27-3.86V300.84c0-1.83-1.94-5.65-1.94-5.65V273.8h17.36v21.39s1.94,3.82,1.94,5.65v13.08a5,5,0,0,1-2.27,3.86s2.21,1.08,2.21,2.57v8.21c0,2.21-2.6,3.33-2.6,3.33s2.66,1.49,2.66,3v6.76c0,2.16-2.55,4.32-2.55,4.32s2.44,1.33,2.44,2.66V357c0,1.67-2.72,3-2.72,3s3,1.59,3,3.09v6.23C291.8,372.4,288.75,374.24,288.75,374.24Z" style="fill:#fff;opacity:0.2"></path><path d="M249.68,167.24c11.6,0,9.66,31.28,9.66,66.44s2.9,57.39-9.34,57.39c-17.81,0-13.71-44.18-13.71-59.84S235.23,167.24,249.68,167.24Z" style="fill:#fff;opacity:0.30000000000000004"></path><path d="M278.56,375.24s3.05,1.42,3.05,2.64-.13,6.1-.13,7.24-3.17,2.23-3.17,2.23h8.36s3.3-1.11,3.3-2.74v-6.73c0-1.38-3.05-2.64-3.05-2.64Z" style="fill:#fff;opacity:0.4"></path><path d="M278.56,361.11s3.05,1.41,3.05,2.64-.13,6.1-.13,7.23-3.17,2.24-3.17,2.24h8.36s3.3-1.11,3.3-2.74v-6.73c0-1.38-3.05-2.64-3.05-2.64Z" style="fill:#fff;opacity:0.4"></path><path d="M278.56,346.89s3.05,1.42,3.05,2.64-.13,6.1-.13,7.24-3.17,2.23-3.17,2.23h8.36s3.3-1.11,3.3-2.74v-6.73c0-1.38-3.05-2.64-3.05-2.64Z" style="fill:#fff;opacity:0.4"></path><path d="M278.56,332.68s3.05,1.41,3.05,2.64-.13,6.1-.13,7.23-3.17,2.24-3.17,2.24h8.36s3.3-1.11,3.3-2.74v-6.73c0-1.38-3.05-2.64-3.05-2.64Z" style="fill:#fff;opacity:0.4"></path><path d="M278.56,318.46s3.05,1.42,3.05,2.64-.13,6.1-.13,7.23-3.17,2.24-3.17,2.24h8.36s3.3-1.11,3.3-2.74V321.1c0-1.38-3.05-2.64-3.05-2.64Z" style="fill:#fff;opacity:0.4"></path><polygon points="270.36 79.97 270.36 86.52 229.64 90.44 229.64 89.95 226.37 89.95 226.37 86.79 229.64 86.79 229.64 79.97 270.36 79.97" style="opacity:0.1"></polygon><rect x="187.48" y="206" width="125.03" height="89.46" style="fill:#FF81AE"></rect><rect x="187.48" y="206" width="125.03" height="89.46" style="fill:#FF81AE"></rect><path d="M187.48,244.34v-25.9c1.7-1,3.48-2,5.34-2.93a51.37,51.37,0,0,1,9.26-3.57,36.06,36.06,0,0,1,10.07-1.29,21,21,0,0,1,2.51.1c.83.07,1.65.12,2.53.28s1.72.26,2.56.48l2.5.67a35.35,35.35,0,0,1,8.88,4.31,54,54,0,0,1,7.14,5.69c2.16,2,4.18,4,6.16,6l2.94,3c1,1,1.94,2,2.94,2.91,1.94,1.93,3.95,3.76,6,5.47a53.22,53.22,0,0,0,4.82,3.54,44.37,44.37,0,0,0,5.87,3.21c.92.41,1.84.77,2.77,1.09a29.47,29.47,0,0,0,6.76,1.54,25.65,25.65,0,0,0,6-.13,31.26,31.26,0,0,0,5.42-1.25,47.15,47.15,0,0,0,5.78-2.28c4.06-1.93,8.44-4.66,13.2-7.42,1.77-1,3.6-2.05,5.51-3v18.82a66.59,66.59,0,0,1-10.43,7.41,37.55,37.55,0,0,1-9.37,3.81A29.54,29.54,0,0,1,272,262.34a41.73,41.73,0,0,1-8-5.54c-1.78-1.56-3.38-3.18-4.91-4.8-.48-.5-.95-1-1.42-1.51l-2.61-2.82-3.13-3.4a98.77,98.77,0,0,0-12-11,38.33,38.33,0,0,0-13.51-6.85,25.59,25.59,0,0,0-6.63-.76l-1.56.13c-.51,0-1,.17-1.52.23s-1,.18-1.56.29-1.05.22-1.56.37A35.66,35.66,0,0,0,202.14,232c-1.07.73-2.12,1.52-3.19,2.37l-1.46,1.2c-2.15,1.8-4.34,3.8-6.67,5.88C189.74,242.37,188.64,243.35,187.48,244.34Z" style="opacity:0.1"></path><path d="M187.48,218.15v-3.54c1.44,1.1,2.82,2.27,4.15,3.48,2.08,1.83,4.07,3.73,6,5.65L199,225c3.49,3.38,7,6.75,10.66,9.86A51.61,51.61,0,0,0,223,243.42a29.94,29.94,0,0,0,7.42,2,31.46,31.46,0,0,0,7.57-.12,36.77,36.77,0,0,0,14.24-5.15c.95-.57,1.89-1.17,2.82-1.81,2.07-1.4,4.08-2.95,6.08-4.57,1.27-1,2.52-2.07,3.79-3.13a100.46,100.46,0,0,1,13.47-10.06,39.14,39.14,0,0,1,8.06-3.63,29.84,29.84,0,0,1,8.9-1.41,50.46,50.46,0,0,1,8.69.83,16,16,0,0,1,2.13.5l2.11.59,2.06.77,1,.39,1,.47.13.06v5.08l-.19-.09-1.78-.7-.89-.34-.91-.26-1.82-.54c-1.25-.21-2.47-.52-3.74-.66l-1.9-.19-.94-.1-1,0-1.92,0a14.51,14.51,0,0,0-1.88,0,30,30,0,0,0-13.88,4.74c-5,3-9.67,7-14.66,10.89-2.53,2-5.14,3.91-7.92,5.69-1.31.84-2.66,1.65-4.05,2.41a38.83,38.83,0,0,1-16.59,5,31.78,31.78,0,0,1-8.74-.64,33.52,33.52,0,0,1-8.09-3.06c-5.08-2.66-9.3-6.33-13.39-10-3.66-3.36-7.14-6.86-10.77-10.19l-1.16-1.05A84.27,84.27,0,0,0,187.48,218.15Z" style="opacity:0.1"></path><rect x="190.42" y="273.8" width="14.25" height="18.79" style="fill:#fff"></rect><rect x="191.09" y="274.68" width="0.36" height="15.54" style="fill:#263238"></rect><rect x="193.89" y="274.68" width="0.36" height="15.54" style="fill:#263238"></rect><rect x="200.37" y="274.68" width="0.36" height="15.54" style="fill:#263238"></rect><rect x="201.61" y="274.68" width="0.36" height="15.54" style="fill:#263238"></rect><rect x="197.68" y="274.68" width="0.36" height="15.54" style="fill:#263238"></rect><rect x="194.63" y="274.68" width="0.36" height="15.54" style="fill:#263238"></rect><rect x="203.22" y="274.68" width="0.36" height="15.54" style="fill:#263238"></rect><rect x="191.85" y="274.68" width="1.58" height="15.54" style="fill:#263238"></rect><rect x="198.45" y="274.68" width="1.58" height="15.54" style="fill:#263238"></rect><rect x="195.63" y="274.68" width="0.79" height="15.54" style="fill:#263238"></rect><rect x="202.25" y="274.68" width="0.79" height="15.54" style="fill:#263238"></rect><rect x="196.67" y="274.68" width="0.79" height="15.54" style="fill:#263238"></rect><rect x="201.17" y="274.68" width="0.2" height="15.54" style="fill:#263238"></rect><rect x="195.19" y="274.68" width="0.2" height="15.54" style="fill:#263238"></rect><rect x="203.8" y="274.68" width="0.2" height="15.54" style="fill:#263238"></rect><path d="M191.42,291.66v-.2h-.31v-.09l.34-.53h.06v.53h.09v.09h-.09v.2Zm-.22-.29h.23V291Z" style="fill:#263238"></path><path d="M191.9,291.14l.09,0a.18.18,0,0,1,.07,0,.41.41,0,0,1,.05.09.31.31,0,0,1,0,.22.19.19,0,0,1-.05.09l-.08.06-.09,0a.24.24,0,0,1-.14-.05.2.2,0,0,1-.09-.11l.06-.06a.22.22,0,0,0,.07.09.17.17,0,0,0,.1,0H192l.05,0,0-.06a.25.25,0,0,0,0-.14l0-.06a.1.1,0,0,0-.05,0h-.06l-.07,0a.13.13,0,0,0-.06.07h-.08v-.09l0-.08s0-.06,0-.09,0-.14,0-.22h.33v.09h-.27l0,.27a.1.1,0,0,1,.05,0A.1.1,0,0,1,191.9,291.14Z" style="fill:#263238"></path><path d="M192.21,291.51v-.09a.26.26,0,0,1,0-.08.25.25,0,0,1,0-.07l.08-.07.06,0,.06,0,0-.05a.07.07,0,0,0,0-.05v0l0,0,0,0h-.11l0,0,0,0,0,0-.06-.07,0,0a.1.1,0,0,1,0,0l.06,0,.08,0,.08,0a.09.09,0,0,1,.06,0l0,.06a.19.19,0,0,1,0,.07.15.15,0,0,1,0,.08.09.09,0,0,1,0,.06l0,.05-.05,0-.05,0,0,0,0,.05a.14.14,0,0,0,0,.07h.33v.09Z" style="fill:#263238"></path><path d="M193.2,291.14l.09,0a.18.18,0,0,1,.07,0,.41.41,0,0,1,0,.09.32.32,0,0,1,0,.31l-.08.06-.1,0a.21.21,0,0,1-.13-.05.2.2,0,0,1-.09-.11l0-.06a.24.24,0,0,0,.08.09l.09,0h.07l.05,0,0-.06a.25.25,0,0,0,0-.14l0-.06-.05,0h-.06l-.08,0-.06.07H193v-.17s0-.06,0-.09,0-.14,0-.22h.34v.09h-.27l-.05.27.06,0A.08.08,0,0,1,193.2,291.14Z" style="fill:#263238"></path><path d="M193.73,291.14l.09,0a.18.18,0,0,1,.07,0,.41.41,0,0,1,.05.09.31.31,0,0,1,0,.22.19.19,0,0,1-.05.09l-.08.06-.1,0a.24.24,0,0,1-.13-.05.2.2,0,0,1-.09-.11l.06-.06a.16.16,0,0,0,.07.09.17.17,0,0,0,.1,0h.06l.05,0,0-.06a.25.25,0,0,0,0-.14l0-.06-.05,0h-.06l-.08,0-.06.07h-.07v-.09l0-.08a.28.28,0,0,1,0-.09l0-.22h.33v.09h-.27l0,.27a.1.1,0,0,1,0,0A.1.1,0,0,1,193.73,291.14Z" style="fill:#263238"></path><path d="M194.54,291.23a.36.36,0,0,1,0,.11.31.31,0,0,1-.05.1l-.08.06-.1,0-.1,0a.27.27,0,0,1-.08-.07.43.43,0,0,1-.05-.12.61.61,0,0,1,0-.15,1.5,1.5,0,0,1,0-.22.53.53,0,0,1,.05-.15.36.36,0,0,1,.08-.09.23.23,0,0,1,.11,0,.17.17,0,0,1,.12,0,.22.22,0,0,1,.09.1l0,.07a.22.22,0,0,0-.07-.09.16.16,0,0,0-.09,0,.08.08,0,0,0-.07,0l-.06.06a.35.35,0,0,0,0,.11.52.52,0,0,0,0,.14.2.2,0,0,1,.07-.1.15.15,0,0,1,.11,0l.09,0,.08.06a.41.41,0,0,1,.05.09A.43.43,0,0,1,194.54,291.23Zm-.25.2h.07l0-.05,0-.06a.19.19,0,0,0,0-.08.19.19,0,0,0,0-.07l0-.07,0,0-.07,0-.06,0,0,0a.16.16,0,0,0,0,.07.17.17,0,0,0,0,.07.19.19,0,0,0,0,.08l0,.06,0,.05Z" style="fill:#263238"></path><path d="M195.13,291.23a.36.36,0,0,1,0,.11.33.33,0,0,1-.06.1l-.07.06-.1,0-.1,0a.27.27,0,0,1-.08-.07.43.43,0,0,1,0-.12.61.61,0,0,1,0-.15,1.5,1.5,0,0,1,0-.22.53.53,0,0,1,0-.15.24.24,0,0,1,.08-.09.2.2,0,0,1,.11,0,.19.19,0,0,1,.12,0,.22.22,0,0,1,.09.1l-.06.07a.15.15,0,0,0-.06-.09.16.16,0,0,0-.09,0,.08.08,0,0,0-.07,0s0,0-.06.06a.36.36,0,0,0,0,.11s0,.08,0,.14a.15.15,0,0,1,.07-.1.15.15,0,0,1,.11,0l.09,0,.08.06a.41.41,0,0,1,.05.09A.43.43,0,0,1,195.13,291.23Zm-.25.2h.06l.06-.05,0-.06a.19.19,0,0,0,0-.08.17.17,0,0,0,0-.07l0-.07-.06,0-.06,0-.06,0-.06,0,0,.07a.17.17,0,0,0,0,.07.19.19,0,0,0,0,.08l0,.06.06.05Z" style="fill:#263238"></path><path d="M195.55,290.92h-.36v-.1h.49l-.34.84h-.1Z" style="fill:#263238"></path><path d="M196.21,291.14l.09,0,.07,0a.36.36,0,0,1,0,.09.31.31,0,0,1,0,.22.19.19,0,0,1,0,.09l-.08.06-.09,0a.19.19,0,0,1-.13-.05.2.2,0,0,1-.09-.11l.05-.06a.22.22,0,0,0,.07.09.17.17,0,0,0,.1,0h.06a.1.1,0,0,0,.05,0l0-.06a.25.25,0,0,0,0-.14l0-.06a.1.1,0,0,0-.05,0h-.05l-.08,0a.13.13,0,0,0-.06.07H196v-.26c0-.06,0-.14,0-.22h.33v.09h-.27l0,.27a.1.1,0,0,1,0,0A.11.11,0,0,1,196.21,291.14Z" style="fill:#263238"></path><path d="M196.74,291.14l.09,0,.07,0,0,.09a.37.37,0,0,1,0,.11.2.2,0,0,1,0,.11.19.19,0,0,1-.05.09l-.08.06-.09,0a.21.21,0,0,1-.13-.05.2.2,0,0,1-.09-.11l.05-.06a.22.22,0,0,0,.07.09.19.19,0,0,0,.1,0h.06a.1.1,0,0,0,.05,0,.06.06,0,0,0,0-.06.13.13,0,0,0,0-.14.07.07,0,0,0,0-.06l0,0h-.06l-.08,0-.06.07h-.08v-.26c0-.06,0-.14,0-.22h.34v.09h-.28l0,.27.06,0A.08.08,0,0,1,196.74,291.14Z" style="fill:#263238"></path><path d="M197,291.13a.5.5,0,0,1,0-.12.41.41,0,0,1,0-.09.21.21,0,0,1,.08-.06.26.26,0,0,1,.2,0,.27.27,0,0,1,.08.07.33.33,0,0,1,0,.12.61.61,0,0,1,0,.15,1.25,1.25,0,0,1,0,.21.5.5,0,0,1,0,.16.24.24,0,0,1-.08.09.23.23,0,0,1-.11,0,.19.19,0,0,1-.12,0,.2.2,0,0,1-.09-.11l.06-.06a.15.15,0,0,0,.06.09l.09,0a.15.15,0,0,0,.13-.09.48.48,0,0,0,0-.24.26.26,0,0,1-.07.1.21.21,0,0,1-.11,0l-.09,0-.08-.06a.41.41,0,0,1,0-.09A.52.52,0,0,1,197,291.13Zm.25-.2h-.07l-.05,0,0,.07a.19.19,0,0,0,0,.08.19.19,0,0,0,0,.07.16.16,0,0,0,0,.06s0,0,.05.05h.13a.12.12,0,0,0,0-.05.09.09,0,0,0,0-.06.17.17,0,0,0,0-.07.19.19,0,0,0,0-.08.16.16,0,0,0,0-.07l0,0Z" style="fill:#263238"></path><path d="M198.12,291.23a.36.36,0,0,1,0,.11.33.33,0,0,1-.06.1l-.07.06-.1,0-.1,0a.27.27,0,0,1-.08-.07.43.43,0,0,1-.05-.12.34.34,0,0,1,0-.15,1.5,1.5,0,0,1,0-.22.53.53,0,0,1,.05-.15.24.24,0,0,1,.08-.09.2.2,0,0,1,.11,0,.19.19,0,0,1,.12,0s.06.06.09.1l-.06.07a.15.15,0,0,0-.06-.09.16.16,0,0,0-.09,0,.12.12,0,0,0-.08,0,.1.1,0,0,0-.05.06.36.36,0,0,0,0,.11.57.57,0,0,0,0,.14.15.15,0,0,1,.07-.1.15.15,0,0,1,.11,0l.09,0,.08.06,0,.09A.43.43,0,0,1,198.12,291.23Zm-.25.2h.06l.06-.05,0-.06a.19.19,0,0,0,0-.08.17.17,0,0,0,0-.07l0-.07-.06,0-.06,0-.06,0-.06,0,0,.07a.17.17,0,0,0,0,.07.19.19,0,0,0,0,.08l0,.06.06.05Z" style="fill:#263238"></path><path d="M198.19,291.13a.5.5,0,0,1,0-.12.41.41,0,0,1,0-.09.21.21,0,0,1,.08-.06.26.26,0,0,1,.2,0,.27.27,0,0,1,.08.07.33.33,0,0,1,0,.12.61.61,0,0,1,0,.15,1.25,1.25,0,0,1,0,.21.5.5,0,0,1,0,.16.24.24,0,0,1-.08.09.23.23,0,0,1-.11,0,.19.19,0,0,1-.12,0,.2.2,0,0,1-.09-.11l.06-.06a.15.15,0,0,0,.06.09l.09,0a.15.15,0,0,0,.13-.09.48.48,0,0,0,.05-.24.26.26,0,0,1-.07.1.21.21,0,0,1-.11,0l-.09,0-.08-.06a.41.41,0,0,1,0-.09A.52.52,0,0,1,198.19,291.13Zm.25-.2h-.07l-.05,0,0,.07a.19.19,0,0,0,0,.08.19.19,0,0,0,0,.07l0,.06s0,0,.05.05h.13a.12.12,0,0,0,.05-.05.09.09,0,0,0,0-.06.17.17,0,0,0,0-.07.19.19,0,0,0,0-.08.16.16,0,0,0,0-.07l-.05,0Z" style="fill:#263238"></path><path d="M199.32,291.23a.14.14,0,0,1,.1.07.23.23,0,0,1,0,.14.3.3,0,0,1,0,.1.22.22,0,0,1-.05.08l-.07.05h-.09a.25.25,0,0,1-.13,0,.18.18,0,0,1-.09-.1l.06-.06a.13.13,0,0,0,.06.07.13.13,0,0,0,.1,0,.12.12,0,0,0,.1,0,.12.12,0,0,0,0-.11.14.14,0,0,0-.16-.16h0v-.09h0a.14.14,0,0,0,.11,0,.17.17,0,0,0,0-.1.15.15,0,0,0,0-.1l-.09,0a.12.12,0,0,0-.09,0,.27.27,0,0,0-.07.08l0-.07,0,0,0,0s0,0,.07,0h.15l.07.05,0,.06a.28.28,0,0,1,0,.09v.07l0,.06,0,0Z" style="fill:#263238"></path><path d="M199.83,291.66v-.2h-.31v-.09l.34-.53h.06v.53H200v.09h-.09v.2Zm-.22-.29h.23V291Z" style="fill:#263238"></path><path d="M200.31,291.14l.09,0a.18.18,0,0,1,.07,0,.41.41,0,0,1,.05.09.31.31,0,0,1,0,.22.19.19,0,0,1-.05.09l-.08.06-.09,0a.24.24,0,0,1-.14-.05.2.2,0,0,1-.09-.11l.06-.06a.16.16,0,0,0,.07.09.17.17,0,0,0,.1,0h.06l0,0,0-.06a.25.25,0,0,0,0-.14l0-.06a.1.1,0,0,0,0,0h-.06l-.08,0-.06.07h-.07v-.09l0-.08v-.09c0-.06,0-.14,0-.22h.33v.09h-.27l0,.27a.1.1,0,0,1,.05,0A.1.1,0,0,1,200.31,291.14Z" style="fill:#263238"></path><path d="M200.85,291.14l.08,0,.08,0a.36.36,0,0,1,0,.09.2.2,0,0,1,0,.11.36.36,0,0,1,0,.11.19.19,0,0,1-.05.09l-.08.06-.09,0a.24.24,0,0,1-.14-.05.2.2,0,0,1-.09-.11l.06-.06a.22.22,0,0,0,.07.09.17.17,0,0,0,.1,0h.06a.1.1,0,0,0,.05,0l0-.06a.25.25,0,0,0,0-.14l0-.06a.1.1,0,0,0-.05,0h0l-.08,0a.13.13,0,0,0-.06.07h-.08v-.17s0-.06,0-.09,0-.14,0-.22H201v.09h-.27l0,.27a.1.1,0,0,1,.05,0A.11.11,0,0,1,200.85,291.14Z" style="fill:#263238"></path><path d="M201.62,291.14l.09,0a.18.18,0,0,1,.07,0,.41.41,0,0,1,.05.09.31.31,0,0,1,0,.22.19.19,0,0,1-.05.09l-.08.06-.1,0a.24.24,0,0,1-.13-.05.2.2,0,0,1-.09-.11l.06-.06a.16.16,0,0,0,.07.09.17.17,0,0,0,.1,0h.06l.05,0,0-.06a.25.25,0,0,0,0-.14l0-.06-.05,0h-.06l-.08,0-.06.07h-.07v-.09l0-.08a.28.28,0,0,1,0-.09l0-.22h.33v.09h-.27l0,.27a.1.1,0,0,1,.05,0A.1.1,0,0,1,201.62,291.14Z" style="fill:#263238"></path><path d="M202.23,291.23a.17.17,0,0,1,.1.07.32.32,0,0,1,0,.14.31.31,0,0,1,0,.1.22.22,0,0,1,0,.08l-.07.05h-.1a.28.28,0,0,1-.13,0,.21.21,0,0,1-.08-.1l.05-.06.06.07a.17.17,0,0,0,.1,0,.14.14,0,0,0,.11,0,.16.16,0,0,0,0-.11.21.21,0,0,0,0-.12.16.16,0,0,0-.12,0h0v-.09h0a.12.12,0,0,0,.1,0,.13.13,0,0,0,0-.1.15.15,0,0,0,0-.1l-.09,0a.17.17,0,0,0-.1,0,.24.24,0,0,0-.06.08l0-.07,0,0,0,0,.06,0h.16s.05,0,.06.05l.05.06a.28.28,0,0,1,0,.09.17.17,0,0,1,0,.07.14.14,0,0,1,0,.06l0,0Z" style="fill:#263238"></path><path d="M202.74,291.66v-.2h-.31v-.09l.34-.53h.06v.53h.08v.09h-.08v.2Zm-.22-.29h.23V291Z" style="fill:#263238"></path><path d="M203.22,291.14l.09,0a.18.18,0,0,1,.07,0,.41.41,0,0,1,.05.09.32.32,0,0,1-.05.31l-.08.06-.1,0a.21.21,0,0,1-.13-.05.2.2,0,0,1-.09-.11l.05-.06a.24.24,0,0,0,.08.09l.09,0h.07l0,0a.09.09,0,0,0,0-.06s0,0,0-.07,0-.05,0-.07l0-.06,0,0h-.06l-.08,0-.06.07H203v-.17s0-.06,0-.09l0-.22h.34v.09h-.27l0,.27.06,0A.08.08,0,0,1,203.22,291.14Z" style="fill:#263238"></path><path d="M203.83,291.23a.17.17,0,0,1,.1.07.32.32,0,0,1,0,.14.31.31,0,0,1,0,.1.22.22,0,0,1,0,.08l-.07.05h-.1a.28.28,0,0,1-.13,0,.18.18,0,0,1-.09-.1l.06-.06.06.07a.17.17,0,0,0,.1,0,.14.14,0,0,0,.11,0,.21.21,0,0,0,0-.23s-.06,0-.12,0h0v-.09h0a.12.12,0,0,0,.1,0,.13.13,0,0,0,0-.1.12.12,0,0,0,0-.1.12.12,0,0,0-.09,0l-.09,0a.16.16,0,0,0-.06.08l-.06-.07,0,0a.1.1,0,0,1,.05,0l.06,0h.16l.06.05.05.06a.28.28,0,0,1,0,.09.17.17,0,0,1,0,.07.14.14,0,0,1,0,.06l0,0Z" style="fill:#263238"></path><path d="M228.5,233.4v-9.51h3.93a2.5,2.5,0,0,1,1.13.26,2.89,2.89,0,0,1,.9.68,3.12,3.12,0,0,1,.58,1,2.79,2.79,0,0,1,.22,1.09,3.32,3.32,0,0,1-.2,1.13,3.27,3.27,0,0,1-.56,1,2.83,2.83,0,0,1-.87.66,2.43,2.43,0,0,1-1.12.26h-3.08v3.51Zm.93-4.34h3a1.61,1.61,0,0,0,.76-.18,1.8,1.8,0,0,0,.58-.48,2.4,2.4,0,0,0,.51-1.52,2.32,2.32,0,0,0-.15-.84,2.41,2.41,0,0,0-.42-.69,1.82,1.82,0,0,0-.61-.46,1.79,1.79,0,0,0-.75-.17h-3Z" style="fill:#fff"></path><path d="M243.68,232.62a3,3,0,0,0,1.5-.34,2.83,2.83,0,0,0,.95-.9,3.68,3.68,0,0,0,.49-1.26,7,7,0,0,0,.14-1.44v-4.79h.94v4.79a7.65,7.65,0,0,1-.21,1.83,4.6,4.6,0,0,1-.69,1.52,3.43,3.43,0,0,1-1.24,1.05,4.73,4.73,0,0,1-3.76,0,3.62,3.62,0,0,1-1.24-1.08,4.6,4.6,0,0,1-.67-1.53,7.94,7.94,0,0,1-.2-1.77v-4.79h.93v4.79a7,7,0,0,0,.14,1.46,3.55,3.55,0,0,0,.51,1.26,2.68,2.68,0,0,0,.94.89A3,3,0,0,0,243.68,232.62Z" style="fill:#fff"></path><path d="M252.94,233.4v-9.51h4a2.58,2.58,0,0,1,1.14.26,3,3,0,0,1,.89.68,3.12,3.12,0,0,1,.58,1,3,3,0,0,1,.05,2.08,2.78,2.78,0,0,1-.43.86,2.51,2.51,0,0,1-.66.64,2.23,2.23,0,0,1-.87.36L260,233.4h-1.06l-2.23-3.51h-2.82v3.51Zm.93-4.34H257a1.61,1.61,0,0,0,.76-.18,1.83,1.83,0,0,0,.58-.49,2.49,2.49,0,0,0,.38-.7,2.75,2.75,0,0,0,.13-.81,2.34,2.34,0,0,0-.15-.83,2.65,2.65,0,0,0-.42-.69,2.08,2.08,0,0,0-.62-.47,1.71,1.71,0,0,0-.74-.17h-3Z" style="fill:#fff"></path><path d="M271.07,232.57v.83h-6.39v-9.51H271v.83h-5.33v3.43h4.65v.79h-4.65v3.63Z" style="fill:#fff"></path><path d="M210.7,237.89h3.51c.62,3,1.23,6.22,1.83,9.52q1.29-4.57,2.6-9.52h3.54c-1.31,4.77-2.61,9.32-3.91,13.62q1,5.07,2.08,10.47c2.18-7.43,4.37-15.55,6.54-24.18H231c-3,11.54-6.15,22.31-9.25,31.82-1.07-.44-2.14-.9-3.2-1.4-1-4.78-1.89-9.37-2.84-13.73Q213.83,260,212,264.75c-1-.61-2-1.24-3-1.9-2.17-10-4.47-18.48-7.11-25H206c1.74,5.84,3.33,12.66,4.86,20.28.87-2.41,1.77-5,2.68-7.71C212.59,246,211.66,241.77,210.7,237.89Z" style="fill:#fff"></path><path d="M237,237.82h3.37c2.29,12.21,4.73,24.79,7.34,37.3-1.4,0-2.79-.12-4.19-.24-.61-3.13-1.22-6.26-1.81-9.38-2.4-.21-4.79-.5-7.16-.89q-1.05,4.31-2.11,8.47-2.06-.49-4.08-1.11C231.29,261.37,234.2,249.84,237,237.82ZM241,260.41c-.87-4.89-1.71-9.75-2.53-14.55q-1.58,7.09-3.2,14C237.2,260.07,239.11,260.26,241,260.41Z" style="fill:#fff"></path><path d="M262.88,244c-2.12.07-4.23.13-6.35.16q.18,15.34.37,30.69c-1.35.13-2.69.22-4,.28q-.09-15.46-.16-30.92-3.18,0-6.36,0c0-2.12,0-4.23,0-6.35h16.36C262.78,239.87,262.83,241.91,262.88,244Z" style="fill:#fff"></path><path d="M279.86,263.4l.21,5.26a74.11,74.11,0,0,1-14,4.67q-.47-17.76-.94-35.51h13.4l.21,5.27q-4.78.38-9.6.61.13,4.16.26,8.3c2.8-.33,5.59-.74,8.35-1.22.06,1.66.13,3.31.19,5q-4.14,1-8.36,1.69c.09,3,.19,6,.28,9A83.36,83.36,0,0,0,279.86,263.4Z" style="fill:#fff"></path><path d="M283,267.25q-.61-14.72-1.21-29.43h8.69a5.23,5.23,0,0,1,2.52.66,7.34,7.34,0,0,1,2,1.61,7.6,7.6,0,0,1,1.31,2.11,6.55,6.55,0,0,1,.47,2.38,9.59,9.59,0,0,1-.87,3.94,11.12,11.12,0,0,1-2.39,3.53,40,40,0,0,0,4.16,5.42q-1.86,1.59-3.78,3a64.33,64.33,0,0,1-4-5.89c-1.19.5-2.4,1-3.62,1.45l.36,9.2C285.49,266,284.26,266.62,283,267.25Zm3.14-15.87c1.56-.43,3.11-.9,4.64-1.39a2.38,2.38,0,0,0,.94-.61,4.33,4.33,0,0,0,.73-1.06,6.05,6.05,0,0,0,.47-1.34,5.42,5.42,0,0,0,.15-1.51,4.36,4.36,0,0,0-.25-1.45,3.7,3.7,0,0,0-.61-1.11,2.38,2.38,0,0,0-.87-.69,1.78,1.78,0,0,0-1-.19c-1.52.17-3.05.32-4.58.47C285.93,245.46,286,248.42,286.16,251.38Z" style="fill:#fff"></path><rect x="224.81" y="64.28" width="50.37" height="20.72" style="fill:#FF81AE"></rect><polygon points="271.96 60.18 228.04 60.18 224.81 64.28 275.19 64.28 271.96 60.18" style="fill:#FF81AE"></polygon><polygon points="271.96 60.18 228.04 60.18 224.81 64.28 275.19 64.28 271.96 60.18" style="opacity:0.1"></polygon><g style="opacity:0.1"><rect x="226.17" y="65.95" width="0.93" height="17.38"></rect><rect x="228.77" y="65.95" width="0.93" height="17.38"></rect><rect x="231.36" y="65.95" width="0.93" height="17.38"></rect><rect x="233.96" y="65.95" width="0.93" height="17.38"></rect><rect x="236.56" y="65.95" width="0.93" height="17.38"></rect><rect x="239.15" y="65.95" width="0.93" height="17.38"></rect><rect x="241.75" y="65.95" width="0.93" height="17.38"></rect><rect x="244.34" y="65.95" width="0.93" height="17.38"></rect><rect x="246.94" y="65.95" width="0.93" height="17.38"></rect><rect x="249.54" y="65.95" width="0.93" height="17.38"></rect><rect x="252.13" y="65.95" width="0.93" height="17.38"></rect><rect x="254.73" y="65.95" width="0.93" height="17.38"></rect><rect x="257.32" y="65.95" width="0.93" height="17.38"></rect><rect x="259.92" y="65.95" width="0.93" height="17.38"></rect><rect x="262.52" y="65.95" width="0.93" height="17.38"></rect><rect x="265.11" y="65.95" width="0.93" height="17.38"></rect><rect x="267.71" y="65.95" width="0.93" height="17.38"></rect><rect x="270.3" y="65.95" width="0.93" height="17.38"></rect><rect x="272.9" y="65.95" width="0.93" height="17.38"></rect></g></g><g id="freepik--front-water--inject-1798"><path d="M270.73,413a.08.08,0,1,1,.16.05c-.74,2.82-1.48,5.65-2.31,8.44a.07.07,0,1,1-.13,0C269.14,418.56,269.94,415.76,270.73,413Z" style="fill:#FF81AE"></path><g style="opacity:0.4"><path d="M148.56,188.11c.05-.1,0,0,0,0Z" style="fill:#455a64"></path><path d="M189.68,155.7h0Z" style="fill:#455a64"></path><path d="M155.31,161.72a4.42,4.42,0,0,0-.23-3.51,3.85,3.85,0,0,0-5.47-1.19,3.67,3.67,0,0,0-1.62,2.83,4.51,4.51,0,0,0,1.07,3.11,3.37,3.37,0,0,0,3,1.26,2.56,2.56,0,0,0,.85-.27,1.44,1.44,0,0,0,.71-.16,2,2,0,0,0,.32-.17l.19-.16.1-.07.14-.11A4.07,4.07,0,0,0,155.31,161.72Z" style="fill:#FF81AE"></path><path d="M148.43,189.61a2,2,0,0,0,1-.88,2.12,2.12,0,0,0,.33-1.33v0h0l0-.22a1,1,0,0,0-.05-.24,1.81,1.81,0,0,0-.29-.59,1.31,1.31,0,0,0-.24-.23.63.63,0,0,0-.41,0,.29.29,0,0,0-.08-.07l-.11-.07c-.07,0-.26-.08-.12-.05s0,0,0,0a1.65,1.65,0,0,0-1.64,0,1.8,1.8,0,0,0-.93,1.09,2.21,2.21,0,0,0,.14,1.6A2,2,0,0,0,148.43,189.61Z" style="fill:#FF81AE"></path><path d="M148.08,195.5s0,0,0-.06l0-.05a.08.08,0,0,0,0-.06.31.31,0,0,0,.06-.19h0v0a.71.71,0,0,0,0-.2.74.74,0,0,0-.09-.21.55.55,0,0,0-.13-.17,1.42,1.42,0,0,0-.13-.12l-.15-.06a.23.23,0,0,0-.11,0,.2.2,0,0,0-.11,0h-.18l-.16.06a.58.58,0,0,0-.17.14.52.52,0,0,0-.15.18.65.65,0,0,0-.08.17s0,0,0,.06,0,.06,0,.09,0,.07,0,.09v.06a.62.62,0,0,0,0,.19.84.84,0,0,0,0,.17.64.64,0,0,0,.13.19c0,.05.09.08.13.13l0,0,.17.08h0a.57.57,0,0,0,.18,0h.16l.17-.06s0,0,0,0a.77.77,0,0,0,.22-.22.58.58,0,0,0,.06-.15A0,0,0,0,0,148.08,195.5Z" style="fill:#FF81AE"></path><path d="M142.77,197.11a2.8,2.8,0,0,0,.39,2.2c.69,1.19,1.91,2.48,3.33,2.46,1.26,0,2.68-1.29,2.19-2.72a2.39,2.39,0,0,0-1.08-1.24,3.26,3.26,0,0,0-.48-.2,1.57,1.57,0,0,0-.1-.26,3.17,3.17,0,0,0-.7-.95,2.35,2.35,0,0,0-2.08-.61A1.93,1.93,0,0,0,142.77,197.11Z" style="fill:#FF81AE"></path><path d="M140,195a.54.54,0,0,0,0,.08.51.51,0,0,0,0,.1.84.84,0,0,0,.06.14.08.08,0,0,0,0,0l.08.12.11.09h0a1,1,0,0,0,.35.12h.05a1,1,0,0,0,.18,0h.06l.16-.07,0,0,.14-.11.05,0,.08-.12a.9.9,0,0,0,.07-.14s0,0,0-.06h0a.45.45,0,0,0,0-.2.15.15,0,0,0,0-.07v0a.65.65,0,0,0-.09-.19.23.23,0,0,0-.09-.12.18.18,0,0,0-.1-.06.27.27,0,0,0-.15,0l-.12,0-.08,0a.52.52,0,0,0-.21-.07.59.59,0,0,0-.29.07l0,0-.12.09h0a.45.45,0,0,0-.11.13s0,0,0,0a1,1,0,0,1-.07.15h0s0,0,0,0A1.11,1.11,0,0,0,140,195Z" style="fill:#FF81AE"></path><path d="M211,113.6a1.25,1.25,0,0,0,.15-.19,1.37,1.37,0,0,0,.17-.37.61.61,0,0,0,0-.27.68.68,0,0,0-.12-.24,1,1,0,0,0-.17-.12.19.19,0,0,0-.11-.07l-.13-.06-.21,0a1.24,1.24,0,0,0-.27,0,1.34,1.34,0,0,0-.18.07l-.07,0a.82.82,0,0,0-.2.17c0,.06-.09.1-.13.17l-.08.18a.88.88,0,0,0-.06.28,1.42,1.42,0,0,0,0,.29.62.62,0,0,0,.09.26.45.45,0,0,0,.06.12c.05,0,.09.11.14.15l.07,0h0l.11,0a.37.37,0,0,0,.18,0h.08l.17-.07.1-.08h0a.28.28,0,0,1,.05-.08h0l.11-.07C210.9,113.7,211,113.66,211,113.6Z" style="fill:#FF81AE"></path><path d="M150.25,205a1.22,1.22,0,0,0-.13.46v.09a2,2,0,0,0,0,.24.51.51,0,0,0,0,.09c0,.07.06.15.09.21a1.13,1.13,0,0,0,.31.34.15.15,0,0,0,.07.05,1.24,1.24,0,0,0,.2.1,1,1,0,0,0,.25,0,.3.3,0,0,0,.16,0h.12l.17-.06.09-.06.18-.15a.59.59,0,0,0,.13-.17,1.05,1.05,0,0,0,.21-.6.72.72,0,0,0-.43-.7h-.08a1,1,0,0,0-.38-.25.91.91,0,0,0-.7.08.63.63,0,0,0-.18.15C150.34,204.88,150.28,204.94,150.25,205Z" style="fill:#FF81AE"></path><path d="M193.7,154.68a2.8,2.8,0,0,1,.06.28.64.64,0,0,0-.51.24,1.49,1.49,0,0,0-.39.65,2,2,0,0,0,.08,1.4.24.24,0,0,0,.1.31.55.55,0,0,0,.15.08,1.4,1.4,0,0,0,.75.48.4.4,0,0,0,.49-.39c0-.11,0-.22,0-.33a1.2,1.2,0,0,0,.29-.38,1.55,1.55,0,0,0-.46-1.83.86.86,0,0,0-.23-.13c-.05-.14-.12-.29-.18-.44S193.67,154.59,193.7,154.68Z" style="fill:#FF81AE"></path><path d="M230.48,98.6a1.6,1.6,0,0,0,0-.23.46.46,0,0,0,0-.23.87.87,0,0,0-.13-.35,1,1,0,0,0-.31-.31.9.9,0,0,0-.68-.09.91.91,0,0,0-.3.14.88.88,0,0,0-.22.25.82.82,0,0,0-.07.55,1.47,1.47,0,0,0,.19.4,2.83,2.83,0,0,0,.25.24l.19.13a1,1,0,0,0,.32.15.59.59,0,0,0,.45-.06.52.52,0,0,0,.22-.22.63.63,0,0,0,.06-.27Z" style="fill:#FF81AE"></path><path d="M155.93,208a1.72,1.72,0,0,0,.26,1.84,3.28,3.28,0,0,0,1.39.84,2,2,0,0,0,1,.09,1.38,1.38,0,0,0,.75-.42,1.14,1.14,0,0,0,.24-1.06,1.06,1.06,0,0,0-.27-.46l-.05-.07h0s0,0,0,0a.34.34,0,0,1-.09-.12l-.11-.09-.18-.17a1,1,0,0,0-.13-.09h0s0,0,0,0l-.25-.22-.15-.13,0,0s0,0,0,0l-.05-.05a.13.13,0,0,1-.06,0,1.86,1.86,0,0,0-.66-.33A1.32,1.32,0,0,0,155.93,208Z" style="fill:#FF81AE"></path><path d="M178.55,109.75a2.69,2.69,0,0,0,.47-1.93.24.24,0,0,0,0-.09,1.83,1.83,0,0,0-.13-.75,1.76,1.76,0,0,0-1.48-1.07,2.1,2.1,0,0,0-1.7.77,3.44,3.44,0,0,0-.76,2,3.52,3.52,0,0,0,.39,2.12,1.56,1.56,0,0,0,2,.68,2,2,0,0,0,.72-.79C178.23,110.42,178.39,110.08,178.55,109.75Z" style="fill:#FF81AE"></path><path d="M219,116.5a1,1,0,0,0,.74-.34,1.43,1.43,0,0,0,.35-.85,1.71,1.71,0,0,0-.17-.78,1.62,1.62,0,0,0-.88-.83,1.48,1.48,0,0,0-1.22,0,1.57,1.57,0,0,0-.74.93,1.71,1.71,0,0,0,.05,1.22,1.32,1.32,0,0,0,1.86.6Z" style="fill:#FF81AE"></path><path d="M234.31,103.17a1.4,1.4,0,0,0-.52-1,2.27,2.27,0,0,0-1-1.34,2.1,2.1,0,0,0-1.52-.33,1.39,1.39,0,0,0-1.18,1.27,2.67,2.67,0,0,0,.27,1,4.69,4.69,0,0,0,.33.72,2.65,2.65,0,0,0,1.29,1.23,1.76,1.76,0,0,0,1.62-.14A1.6,1.6,0,0,0,234.31,103.17Z" style="fill:#FF81AE"></path><path d="M211.51,115a3.08,3.08,0,0,0-.92.55l-.41.28-.16.09-.09,0-.08,0s-.1,0-.1,0c-.19-.06-.39-.16-.59-.21a1.66,1.66,0,0,0-1.42.33,2.21,2.21,0,0,0-.58,2.62,3,3,0,0,0,1.93,1.6,3.78,3.78,0,0,0,2.11,0,3.15,3.15,0,0,0,.52,0,2.83,2.83,0,0,0,1.95-1.68,3.23,3.23,0,0,0,0-2.57A1.7,1.7,0,0,0,211.51,115Z" style="fill:#FF81AE"></path><path d="M182.26,106.5a1.47,1.47,0,0,0,.2-.82,1.1,1.1,0,0,0-.26-.78h0a1.22,1.22,0,0,0-.2-.43.71.71,0,0,0-.91-.12,1.34,1.34,0,0,0-.66,1,1.68,1.68,0,0,0,.3,1.41.87.87,0,0,0,.86.29A1.12,1.12,0,0,0,182.26,106.5Z" style="fill:#FF81AE"></path><path d="M190.65,159.26a3.39,3.39,0,0,0-2.11,2.19,4.92,4.92,0,0,0,1.18,5.19.61.61,0,0,0,1-.1c.52-.68,1-1.37,1.54-2.07a4.29,4.29,0,0,0,.94-1.85,2.35,2.35,0,0,0-.09-.94,2,2,0,0,0-.06-1.31A2,2,0,0,0,190.65,159.26Z" style="fill:#FF81AE"></path><path d="M152.78,196.65a7.87,7.87,0,0,0,4.46,5.45c1.25.65,2.58,1.14,3.88,1.68a25.53,25.53,0,0,1,4.08,2.13c1.11.72,7,4.61,4.78,6.22a4,4,0,0,1-3,.34,7.37,7.37,0,0,0-3.13-.16,2.47,2.47,0,0,0-2,1.9,3,3,0,0,0,1.27,2.87A13.26,13.26,0,0,0,166.8,219c1.51.6,3,1.13,4.56,1.69a66.59,66.59,0,0,1,8.94,3.89c5.64,3,10.86,6.84,16.32,10.19a164.21,164.21,0,0,0,16.48,8.84,150.85,150.85,0,0,0,17.5,6.82c1.1.35,2.2.68,3.31,1,4.4,1.43,8.84,2.66,13.26,3.77,1.39.36,2.77.67,4.16,1l3.58,1c2.41.64,4.74,1.41,7.1,2.07,4.67,1.43,9.25,3,13.69,4.6s8.7,3.43,12.72,5.4c8.08,3.84,15.18,8.38,20.27,13.42l.95.94.87,1c.63.62,1.11,1.29,1.68,1.93a37.51,37.51,0,0,1,2.81,4.08,38.69,38.69,0,0,1,4,9.22,45.29,45.29,0,0,1,1.23,5.47c.19.94.33,2.06.51,3.09s.27,2,.34,3c.2,2,.32,3.9.33,5.75s-.05,3.62-.27,5.32a40.21,40.21,0,0,1-.91,5.09c-.08.42-.22.84-.33,1.26s-.24.86-.4,1.28l-.42,1.29-.5,1.31a60.25,60.25,0,0,1-5.91,10.94l-1.12,1.65a26.65,26.65,0,0,0-4.09,5.3l-.63,1q-1.41,1.81-2.92,3.63c-1,1.21-2,2.44-3.11,3.68a25.43,25.43,0,0,1-2.89,2.18A30.35,30.35,0,0,1,291.8,364a52.08,52.08,0,0,0-6,2.38,13.31,13.31,0,0,0-4.87,4.11,19.7,19.7,0,0,0-2.67,6.16c-1.18,4.15-1.78,8.69-4.49,12.15a8,8,0,0,1-5.18,3,9.11,9.11,0,0,0-3.18.89,5.6,5.6,0,0,0-2.07,2.22c-1.1,2-1.33,4.47-1.67,6.73-.46,2.89-.9,5.77-1.28,8.67-.72,5.43-1.43,10.89-2,16.33,0,.18-.07.36-.1.55a99.4,99.4,0,0,0-1.58,17.37c0,2.89.12,5.75.39,8.59a63.43,63.43,0,0,0,1.29,8.41c3-22.23,12.42-42.34,26.15-56.15a76.68,76.68,0,0,1,11-9.26c1-.66,2-1.29,3-1.94a15.41,15.41,0,0,1,1.7-1l1.8-1c2.42-1.28,4.81-2.65,7.22-4,4.79-2.77,9.58-5.7,14.34-9,2.38-1.64,4.77-3.41,7.12-5.29s4.73-3.87,7-6.09a82.92,82.92,0,0,0,6.79-7.14,74.92,74.92,0,0,0,6.27-8.47,72.22,72.22,0,0,0,9-20.63,78.2,78.2,0,0,0,2.1-11.14,96.16,96.16,0,0,0,.59-10.88c0-1.8-.1-3.53-.16-5.28s-.2-3.38-.41-5.19A89.17,89.17,0,0,0,360,288.33,80.24,80.24,0,0,0,351.74,267a83,83,0,0,0-6.37-9.48,78.78,78.78,0,0,0-7.4-8.2,89.78,89.78,0,0,0-16.38-12.57,116,116,0,0,0-17.06-8.52q-3.13-1.26-6.27-2.37l-.14,0-11.9-4.69c-4.54-1.81-9.07-3.74-13.7-5.3a12.62,12.62,0,0,0-3.32-.71,10.31,10.31,0,0,0-3.27.46,5.66,5.66,0,0,1-2.91.18,11.48,11.48,0,0,1-2.49-1c-1.51-.77-3.09-1.67-4.82-1.66a9.46,9.46,0,0,0-2.83.64,3.94,3.94,0,0,1-3.11-.32c-3.53-1.85-6.6-4.65-10.43-5.85a13.69,13.69,0,0,0-6.33-.29,25.87,25.87,0,0,1-6.39.46c-8-.74-14.75-6.06-22.21-8.6-1.56-1.08-3.07-2.23-4.5-3.44-.7-1.06-1.38-2.14-2-3.26a25.06,25.06,0,0,1-2.37-5.25,16.42,16.42,0,0,1-.61-5.71,31.51,31.51,0,0,0,0-5.58c-.22-1.64-.85-3.66-2.28-4.56a2.4,2.4,0,0,0-3.43,1.13,7.84,7.84,0,0,0-.4,4.72,14.48,14.48,0,0,0,.82,3.12,20.83,20.83,0,0,1,1,2.67,3.25,3.25,0,0,1-.19,2.3,48,48,0,0,1-6.91-16,16.74,16.74,0,0,1,.13-5.09c.39-2.21,1.42-4.34,1.4-6.64s-1.29-4-1.87-6.1a16,16,0,0,1,1.36-11.25c1.83-3.67,1.5-6.54,4.8-8.73s5-3.76,8.79-5.32a10.47,10.47,0,0,0,4.64-3.19,5.77,5.77,0,0,0,1-5.22c-.34-1-1.16-1.61-1.47-2.57a2.75,2.75,0,0,1,.34-2.25,7.3,7.3,0,0,1,4.53-3.15c4.06-1.15,8.3-.74,12.43-1a21.78,21.78,0,0,0,6-1.12c1.49-.53,3.38-1.35,3.75-3.17s-1.23-3.65-2.47-4.85a18.94,18.94,0,0,0-14.76-5.31,22.23,22.23,0,0,0-5.7,1.46,18.75,18.75,0,0,1-6.3,1.56c-2.3,0-2.41-.43-4.69-.06a10.16,10.16,0,0,0-3.76,1.44,22.06,22.06,0,0,0-5.89,6.09,77.58,77.58,0,0,1-5.34,7.11,16.19,16.19,0,0,1-3.14,2.71,13.65,13.65,0,0,1-4.42,1.64c-1.65.38-.13.69-1.63,1.55a6.85,6.85,0,0,0-3.15,4.1,22.58,22.58,0,0,0-.58,5.63,24.59,24.59,0,0,1-.77,5.78c-1.58,5.95-5.28,11.76-5.34,18a86.68,86.68,0,0,0-1.61,16.18c-.74.87-1.48,1.73-2.14,2.66a7.61,7.61,0,0,0-1.52,4,10.63,10.63,0,0,0,.91,4.41c1,2.53,2.55,4.85,2.62,7.7a5,5,0,0,1-.82,3.16c-.85,1.12-2.28,1.27-3.48,1.76C153.22,192.08,152.35,194.31,152.78,196.65Z" style="fill:#FF81AE"></path><path d="M189.86,156.51s0,0,0,0v0c0-.1.09-.17.12-.27a.48.48,0,0,0-.07-.37.35.35,0,0,0-.22-.15s0,0,0,0a1,1,0,0,0-.77-.47.55.55,0,0,0-.48.27,1.61,1.61,0,0,0-.16.58,1.72,1.72,0,0,0,0,.45,1.27,1.27,0,0,0,.18.43,1.29,1.29,0,0,0,.35.42.5.5,0,0,0,.38.06.48.48,0,0,0,.29-.23,1.29,1.29,0,0,1,.09-.16l0,0,.07,0a.39.39,0,0,0,.16-.1l0,0,0,0s0,0,.05-.06a.35.35,0,0,0,.11-.13.69.69,0,0,0,.13-.62.08.08,0,0,0-.16,0A.5.5,0,0,1,189.86,156.51Z" style="fill:#FF81AE"></path><path d="M154.35,211.91s0,.1,0,.15h0s0,0,0,0v0h0a.66.66,0,0,0,0,.14.2.2,0,0,0,0,.05.17.17,0,0,1,0,.07l0,.12v0h0a.26.26,0,0,0,0,.09,1.29,1.29,0,0,0,.09.16l.14.12a.94.94,0,0,0,.22.12l0,0h.25l.12-.05.13-.1a1.71,1.71,0,0,0,.11-.14s0,0,0,0a1.57,1.57,0,0,0,.09-.23.88.88,0,0,0,0-.36.85.85,0,0,0-.06-.17l0-.06a.71.71,0,0,0-.24-.25l-.15-.08-.05,0a1.25,1.25,0,0,0-.19,0,.35.35,0,0,0-.17,0h-.06s0,0,0,0,0,0-.05,0a.49.49,0,0,0-.18.11.38.38,0,0,0-.11.14v0a.05.05,0,0,0,0,0Z" style="fill:#FF81AE"></path></g><path d="M272.55,273c.11,0,.1.18,0,.18A.09.09,0,0,1,272.55,273Z" style="fill:#455a64"></path><path d="M273.43,396.58c2.11-5.38,4.86-12.12,10.87-13.53a34.86,34.86,0,0,1,4.31-.48,4.14,4.14,0,0,0,3.47-1.71,9.59,9.59,0,0,0,.87-2.15c.28-.86.6-1.7.95-2.54.66-1.56,1.41-3.07,2.21-4.55a31.11,31.11,0,0,1,6-8.21c2.1-1.91,5.24-2.91,7.5-.67a3.76,3.76,0,0,1,1,3.48c-.24,1.27-1.08,2.55-1.06,3.86a1,1,0,0,0,1.18,1,3.74,3.74,0,0,0,2.13-1.55,18.12,18.12,0,0,0,2.22-4,21.32,21.32,0,0,1,2.13-4,13.7,13.7,0,0,1,2.86-2.83,23.84,23.84,0,0,1,7.58-3.4c2.78-.82,5.62-1.42,8.36-2.37a36.47,36.47,0,0,0,8.19-4.15c16.14-10.78,16.5-29.3,18.14-41.51,0-.13.19-.18.19-.05-.1,6.87-.87,15.39-2.8,22a37.93,37.93,0,0,1-10,16.55,37.22,37.22,0,0,1-15.71,9c-5.25,1.5-11.51,2.21-15.43,6.63-2.06,2.31-2.77,5.48-4.51,8-.79,1.15-1.9,2.43-3.31,2.64a2,2,0,0,1-2.33-1.93c-.08-1.3.62-2.56.94-3.79a2.71,2.71,0,0,0-1.34-3.34c-3-1.66-6,1.87-7.82,4a29.28,29.28,0,0,0-5.16,9.27c-.55,1.61-.81,3.36-1.5,4.91a5.35,5.35,0,0,1-3.12,2.81,16.25,16.25,0,0,1-4.14.76,8.75,8.75,0,0,0-3.84,1.28c-2.38,1.53-3.9,4.13-5.18,6.66-1.58,3.12-2.82,6.45-4.12,9.71-1.45,3.64-2.86,7.31-4.18,11-2.62,7.34-5,14.79-7,22.35-.5,1.91-1,3.81-1.42,5.73,0,.11-.18.06-.16,0C263.78,426.25,267.74,411.11,273.43,396.58Z" style="fill:#FF81AE"></path><path d="M175.16,204.23c6,9.14,12.3,19,22.41,23.36,5.2,2.26,10.82,3.27,15.84,6,2.41,1.31,4.54,3.11,6.92,4.47,2.18,1.24,4.76,2.09,7.07.72a14,14,0,0,1,3.54-1.93,7.16,7.16,0,0,1,3.62.05c2.6.67,4.89,2.4,7,4a50.07,50.07,0,0,0,6.69,4.66,51.47,51.47,0,0,0,7.4,3.29c5.23,1.9,10.62,3.24,15.91,4.92a82.83,82.83,0,0,1,14.68,6.35,81.27,81.27,0,0,1,24.55,20.95c.86,1.09,1.69,2.19,2.5,3.32.07.09-.05.21-.12.12a80.9,80.9,0,0,0-24.44-21.7A77.48,77.48,0,0,0,274,256.27c-5.3-1.7-10.73-2.9-16-4.59a48.73,48.73,0,0,1-14.81-7.13c-3.76-2.83-8.8-8.36-13.71-5.13a8.73,8.73,0,0,1-3.55,1.64,7.29,7.29,0,0,1-3.46-.41c-2.54-.9-4.73-2.68-6.89-4.3a30.24,30.24,0,0,0-7.47-4.1c-2.67-1-5.41-1.82-8.08-2.82a35.53,35.53,0,0,1-13.05-8.74,80.24,80.24,0,0,1-9.69-12.9c-.73-1.16-1.44-2.34-2.16-3.52C175.06,204.23,175.13,204.19,175.16,204.23Z" style="fill:#FF81AE"></path><path d="M276.67,401.67c.67-1.81,1.37-3.62,2-5.44a27.09,27.09,0,0,1,1.79-4.14,9,9,0,0,1,3-3.38,13.37,13.37,0,0,1,3.69-1.42c2.48-.63,5.39-.9,7.33-2.85,1.39-1.4,2-3.53,2.7-5.36.84-2.15,1.62-4.33,2.37-6.52,0-.1.2-.05.16.05-.66,1.93-1.31,3.85-1.89,5.8a44,44,0,0,1-1.58,4.92,7.46,7.46,0,0,1-2.65,3.33,13.42,13.42,0,0,1-3.5,1.57c-2.63.83-5.26,1.34-7.43,3.26-2.51,2.23-3.75,5.7-5.06,8.77-1.75,4.11-3.37,8.3-4.9,12.51,0,0,0,0,0,0C274,409.05,275.3,405.35,276.67,401.67Z" style="fill:#FF81AE"></path><path d="M359.48,317.7a49.89,49.89,0,0,0,0-5.47,52.58,52.58,0,0,1-.32-5.74c.17-3.64,2.81-6.13,4.23-9.26a24.49,24.49,0,0,0,2-10,64.37,64.37,0,0,0-1.25-11.83c0-.11.14-.15.16,0,1.3,6.75,2.82,14,.92,20.81a15.93,15.93,0,0,1-2.16,4.63c-1,1.5-2.17,2.92-2.55,4.76a32.92,32.92,0,0,0-.18,5.71c-.06,1.9-.14,3.81-.34,5.71a33.93,33.93,0,0,1-3.21,11.79s0,0,0,0A28,28,0,0,0,359.48,317.7Z" style="fill:#FF81AE"></path><path d="M329.7,358.55c2.37-.83,4.81-1.48,7.22-2.17a57.28,57.28,0,0,0,6.75-2.22,19.11,19.11,0,0,0,3.06-1.55c.92-.59,2.6-1.58,2.58-2.87a.09.09,0,1,1,.17,0c0,1-.81,1.74-1.45,2.35a20.9,20.9,0,0,1-2.56,2.05,20.34,20.34,0,0,1-6.45,2.8c-2.55.68-5.18,1-7.74,1.64-2.25.56-4.78,1.15-6.33,3.1,0,.06-.14,0-.09-.08A9.6,9.6,0,0,1,329.7,358.55Z" style="fill:#FF81AE"></path><path d="M253.57,245.06a166.13,166.13,0,0,1,18,5.19,106.21,106.21,0,0,1,17.08,7.51,92.65,92.65,0,0,1,26.6,22.61,85.24,85.24,0,0,1,10.24,16.54c0,.1-.1.19-.15.08a80.74,80.74,0,0,0-21.38-26.76,108,108,0,0,0-14.21-10c-2.67-1.57-5.39-3-8.14-4.45s-5.57-2.84-8.45-4.05a140.56,140.56,0,0,0-19.6-6.58S253.51,245.05,253.57,245.06Z" style="fill:#FF81AE"></path><path d="M167.2,216.53c2.06.32,4.11.78,6.15,1.25a26.75,26.75,0,0,1,6,2.05c3.59,1.78,6.37,4.66,9.55,7.09a15.61,15.61,0,0,0,5.8,3c.11,0,.06.19,0,.17-3.64-.82-6.65-3.24-9.63-5.45a37.63,37.63,0,0,0-5-3.17,64.12,64.12,0,0,0-5.92-2.52c-2.28-.91-4.64-1.47-7-2.2C167.05,216.72,167.07,216.51,167.2,216.53Z" style="fill:#FF81AE"></path><path d="M155.24,194.85c.78,5,5.74,6.75,9.68,8.21a26,26,0,0,1,10.26,7.09,27.59,27.59,0,0,1,3.95,5.91.09.09,0,1,1-.15.09,26.48,26.48,0,0,0-9.12-9.39c-3.78-2.29-8.31-3.27-11.66-6.33a8.81,8.81,0,0,1-3.08-5.56C155.12,194.8,155.23,194.78,155.24,194.85Z" style="fill:#FF81AE"></path><path d="M159.72,174.26c.5-2.51,1.92-4.62,3.12-6.81a26.05,26.05,0,0,0,2.67-7.31,23.87,23.87,0,0,0,.28-9.07c0-.11.14-.16.16,0a27.44,27.44,0,0,1-.82,15.24c-.92,2.41-2.26,4.58-3.33,6.91a12.55,12.55,0,0,0-1.17,3.68,14.21,14.21,0,0,0,.11,4c.45,2.82,1.33,5.6,1.07,8.5,0,0-.05,0-.05,0C162.07,184.15,158.68,179.45,159.72,174.26Z" style="fill:#FF81AE"></path><path d="M179.72,150.32a20.34,20.34,0,0,1,0-4.48,32.85,32.85,0,0,1,2.38-8.77,13.87,13.87,0,0,1,4.23-6.27c2.29-1.74,5.17-2.42,7.25-4.51.07-.08.19,0,.11.13-1.71,1.75-3.89,2.83-5.78,4.32a10,10,0,0,0-2.52,2.79,20.68,20.68,0,0,0-1.58,3.6c-1,2.75-2.06,5.56-2.77,8.4a14.54,14.54,0,0,0-.45,4.69c.12,1.56.51,3.06.71,4.6a22.28,22.28,0,0,1-.73,9.54,0,0,0,1,1-.09,0,20.71,20.71,0,0,0,.32-9.52C180.45,153.31,179.91,151.86,179.72,150.32Z" style="fill:#FF81AE"></path><path d="M308.6,238.76a94.3,94.3,0,0,1,10.67,4.29,41.18,41.18,0,0,1,9.29,6.31,84.14,84.14,0,0,1,14.87,17.54c2.47,3.72,4.64,7.64,7,11.42.06.1-.09.18-.15.09-2.11-3.3-4.42-6.48-6.67-9.67s-4.56-6.19-7-9.13a75.26,75.26,0,0,0-7.79-8.17,82.15,82.15,0,0,0-9-6.77,51.07,51.07,0,0,0-5.25-3.2,44.41,44.41,0,0,0-6-2.55A.08.08,0,0,1,308.6,238.76Z" style="fill:#FF81AE"></path><g style="opacity:0.7000000000000001"><path d="M261.72,218.07c2.74,1,5.55.58,8.37.39a13.84,13.84,0,0,1,4.16.23,16.94,16.94,0,0,1,4,1.55c2.51,1.28,4.83,2.94,7.3,4.31s5.11,2.63,7.75,3.77c5.38,2.33,10.92,4.24,16.32,6.53a85.86,85.86,0,0,1,14.16,7.46,57.1,57.1,0,0,1,6.94,5.3,48,48,0,0,1,6,6.7c.06.09-.06.22-.13.13a43.13,43.13,0,0,0-11.94-10.32,78.43,78.43,0,0,0-14.26-6.68c-5.4-2-10.82-4.05-16.14-6.27-2.67-1.12-5.31-2.32-7.89-3.65s-4.93-2.85-7.38-4.32a16.73,16.73,0,0,0-8.58-2.82c-3-.32-6.2-.08-9-1.48C260.91,218.68,261.25,217.9,261.72,218.07Z" style="fill:#fff"></path><path d="M191.57,172.69a8.36,8.36,0,0,1,2.39,4.15,28.81,28.81,0,0,1,.28,6,17.61,17.61,0,0,0,3.48,10.63c.07.09-.05.21-.12.12a20.32,20.32,0,0,1-4.35-9.38c-.32-2-.23-4-.41-5.95s-.28-3.86-1.49-5.37A.16.16,0,0,1,191.57,172.69Z" style="fill:#fff"></path><path d="M159.68,166.4a18.78,18.78,0,0,0,2.34-6.24,19.88,19.88,0,0,0-.13-3.27,6.7,6.7,0,0,1,.51-2.94,10.3,10.3,0,0,0,.89-3.13c.09-1.13,0-2.26.06-3.39a11.78,11.78,0,0,1,1.39-5c1.6-3.07,4.21-5.63,5.18-9.05,1-3.6-.76-7.83,1.29-11.15,1.88-3,5.82-3.16,8.12-5.68s3.41-6.29,6.72-7.86c1.74-.83,3.68-1.13,5.33-2.16a4.37,4.37,0,0,0,1.87-2.21,21.62,21.62,0,0,1,.81-2.63c.88-1.76,2.93-2,4.59-2.46a21.63,21.63,0,0,1,6.41-1.15,13.51,13.51,0,0,1,2.95.51,7.65,7.65,0,0,0,2.84.41c1-.13,1.48-.88,2.15-1.56a3.5,3.5,0,0,1,2.39-1.16,9.64,9.64,0,0,1,2.88.58c.89.27,1.79.5,2.67.82a19.27,19.27,0,0,1,5,2.4,14.52,14.52,0,0,1,1.92,1.76.08.08,0,0,1-.12.12c-2.76-2.73-6.8-3.28-10.38-3.82-.92-.13-2-.42-2.81.25a14.52,14.52,0,0,1-1.82,1.69c-1.66,1-3.61.41-5.31-.12a12.74,12.74,0,0,0-6.45-.46,23.59,23.59,0,0,0-3.06.86,5.68,5.68,0,0,0-2.57,1.34,6.53,6.53,0,0,0-.9,2.64,5.16,5.16,0,0,1-1.25,2.25,10.43,10.43,0,0,1-4.63,2.44,9.32,9.32,0,0,0-4.71,2.84c-1.09,1.31-1.89,2.86-2.86,4.26a10.16,10.16,0,0,1-3.51,3.24,25.06,25.06,0,0,0-4.32,2.35c-3.08,2.57-1.48,7.17-2,10.67s-2.77,6.09-4.56,8.86a14.33,14.33,0,0,0-2.12,4.59c-.46,2-.09,4.17-.53,6.22-.23,1-.76,1.89-1.07,2.87a8.31,8.31,0,0,0-.14,3.26,10.52,10.52,0,0,1-1.23,5.64,24.15,24.15,0,0,1-1.62,2.68C159.77,166.62,159.62,166.52,159.68,166.4Z" style="fill:#fff"></path><path d="M197.55,123.75a4.39,4.39,0,0,0,1.77-.78,2.14,2.14,0,0,0,.55-.61l.52-.84c.17-.28.35-.55.5-.84s.15-.31.23-.46a2,2,0,0,1,.1-.21l.07-.09s0,0,0-.06c.1-.33.27-.63.35-1,0-.16.11-.27.16-.42a3.17,3.17,0,0,0,.05-.53c0-.15.23-.15.29,0s.1.37.2.54a1.73,1.73,0,0,1,.19.51,3,3,0,0,1,.11,1.22.2.2,0,0,1,0,0s0,0,0,.22a2.7,2.7,0,0,1-.06.41,3.38,3.38,0,0,1-.17.54,4.15,4.15,0,0,1-.72,1.24,3.14,3.14,0,0,1-1.06.78c-.29.11-.61.27-.92.39a4.9,4.9,0,0,1-2.14.35C197.37,124.15,197.31,123.8,197.55,123.75Z" style="fill:#fff"></path><path d="M282.55,371.73c1.26-2.14,3.79-3.16,5.9-4a46.47,46.47,0,0,0,12.67-7.25,33.87,33.87,0,0,0,5.82-6.47.08.08,0,0,1,.14.09,47.53,47.53,0,0,1-9.65,10.77,36.09,36.09,0,0,1-6,3.92c-2.05,1-4.4,1.65-6.19,3.18a9.92,9.92,0,0,0-2.49,3,30.93,30.93,0,0,0-1.47,4.15.3.3,0,0,1-.59-.1A16.48,16.48,0,0,1,282.55,371.73Z" style="fill:#fff"></path><path d="M229,241a9,9,0,0,1,6.83-.25,24.48,24.48,0,0,1,6.51,4A47.15,47.15,0,0,0,254,251.23c8.22,3.19,16.94,4.7,25.09,8.11a41.15,41.15,0,0,1,12.1,7.58c.08.08,0,.2-.13.12-6.53-5.83-15.13-8.12-23.25-10.27s-16.67-4.15-23.82-9c-2.28-1.56-4.36-3.42-6.72-4.87s-5.52-2.64-8.23-1.63C228.93,241.27,228.84,241,229,241Z" style="fill:#fff"></path><path d="M307.57,371.12c.06-.3.45-.18.47.08.07,1.06,1.18,1.59,2.07,1.69a4.44,4.44,0,0,0,2.71-.72c2-1.19,3.11-3.29,4.26-5.28a29.07,29.07,0,0,1,4.13-5.74c1.39-1.45,3-3.1,5.06-3,.12,0,.1.2,0,.17-1.47-.33-2.75,1.15-3.63,2.18a28.48,28.48,0,0,0-2.42,3.32c-1.42,2.27-2.4,4.84-4,7-1.33,1.76-3.21,3.3-5.42,3.41C309.15,374.32,307.23,373,307.57,371.12Z" style="fill:#fff"></path><path d="M298.67,370.64a13.13,13.13,0,0,1,4.17-4.56c1.51-1.13,3.41-2,5.22-1.15.09,0,0,.19-.05.19-2.07-.16-3.7,1.49-5.18,2.79a23.3,23.3,0,0,0-4.08,4.22,23.86,23.86,0,0,0-2.13,5.16,14.27,14.27,0,0,1-2.36,4.36s-.06,0,0,0C296.7,378.48,297,374.18,298.67,370.64Z" style="fill:#fff"></path><path d="M270.94,410.4c.86-3,1.75-6,2.73-9a52.47,52.47,0,0,1,2.79-7,21,21,0,0,1,5-6.49c.09-.07.2.06.12.13-3.8,3.3-5.43,8.43-6.8,13.24-1.69,5.95-3.55,11.83-5.39,17.73q-1.59,5.1-3.35,10.14a.13.13,0,0,1-.25-.08C267.32,422.82,269.16,416.62,270.94,410.4Z" style="fill:#fff"></path><path d="M360.52,308.83a8.4,8.4,0,0,1,.33-2.18,14.89,14.89,0,0,1,1.12-2.43c.76-1.4,1.59-2.74,2.27-4.18,2.58-5.53,3.26-11.9,3.06-18a79.08,79.08,0,0,0-1.25-11,.12.12,0,0,1,.24-.06c.69,3.14,1.26,6.32,1.69,9.51a49.16,49.16,0,0,1,.5,9.62,31,31,0,0,1-1.85,9.15,23,23,0,0,1-2.12,4.2c-.45.7-.95,1.35-1.41,2a16.74,16.74,0,0,0-1.18,2.31,15,15,0,0,0-.9,5.62,20.71,20.71,0,0,1-.8,5.38.08.08,0,1,1-.16-.05C361.33,315.7,360.34,312.09,360.52,308.83Z" style="fill:#fff"></path><path d="M176.17,209.51c4.8,8.27,12,14.58,20,19.32a39.08,39.08,0,0,0,7.06,3.45c.11,0,.06.2,0,.17a62.32,62.32,0,0,1-6.59-2.49,38.81,38.81,0,0,1-6-3.55,45.63,45.63,0,0,1-10.1-10,55.37,55.37,0,0,1-4.33-6.82A0,0,0,1,1,176.17,209.51Z" style="fill:#fff"></path></g></g></svg>