<svg xmlns="http://www.w3.org/2000/svg" viewBox="0 0 500 500"><g id="freepik--background-complete--inject-7"><rect y="382.4" width="500" height="0.25" style="fill:#ebebeb"></rect><rect x="332.11" y="389.21" width="97.6" height="0.25" style="fill:#ebebeb"></rect><rect x="289" y="394.99" width="46.67" height="0.25" style="fill:#ebebeb"></rect><rect x="430.71" y="398.49" width="19.19" height="0.25" style="fill:#ebebeb"></rect><rect x="126.47" y="395.11" width="92.53" height="0.25" style="fill:#ebebeb"></rect><rect x="97.67" y="395.11" width="19.9" height="0.25" style="fill:#ebebeb"></rect><rect x="57.79" y="390.89" width="32.86" height="0.25" style="fill:#ebebeb"></rect><path d="M237,337.8H43.91a5.71,5.71,0,0,1-5.7-5.71V60.66A5.71,5.71,0,0,1,43.91,55H237a5.71,5.71,0,0,1,5.71,5.71V332.09A5.71,5.71,0,0,1,237,337.8ZM43.91,55.2a5.46,5.46,0,0,0-5.45,5.46V332.09a5.46,5.46,0,0,0,5.45,5.46H237a5.47,5.47,0,0,0,5.46-5.46V60.66A5.47,5.47,0,0,0,237,55.2Z" style="fill:#ebebeb"></path><path d="M453.31,337.8H260.21a5.72,5.72,0,0,1-5.71-5.71V60.66A5.72,5.72,0,0,1,260.21,55h193.1A5.71,5.71,0,0,1,459,60.66V332.09A5.71,5.71,0,0,1,453.31,337.8ZM260.21,55.2a5.47,5.47,0,0,0-5.46,5.46V332.09a5.47,5.47,0,0,0,5.46,5.46h193.1a5.47,5.47,0,0,0,5.46-5.46V60.66a5.47,5.47,0,0,0-5.46-5.46Z" style="fill:#ebebeb"></path><rect x="287.42" y="374.56" width="177.33" height="7.84" style="fill:#ebebeb"></rect><rect x="464.75" y="374.56" width="6.75" height="7.84" transform="translate(936.25 756.95) rotate(180)" style="fill:#e0e0e0"></rect><rect x="459.75" y="369.22" width="6.75" height="5.33" transform="translate(926.25 743.78) rotate(180)" style="fill:#e0e0e0"></rect><rect x="292.42" y="369.22" width="167.33" height="5.33" style="fill:#ebebeb"></rect><rect x="309.17" y="250" width="133.83" height="119.22" style="fill:#f5f5f5"></rect><rect x="443" y="250" width="9.83" height="119.22" transform="translate(895.83 619.22) rotate(180)" style="fill:#e0e0e0"></rect><rect x="303.61" y="239.67" width="144.94" height="10.33" style="fill:#f5f5f5"></rect><rect x="448.56" y="239.67" width="7.28" height="10.33" transform="translate(904.39 489.67) rotate(180)" style="fill:#e0e0e0"></rect><path d="M402.86,50.81V239.67H357.69V50.81a22.59,22.59,0,0,1,22.59-22.59,21.42,21.42,0,0,1,4.19.4,22.58,22.58,0,0,1,18.39,22.19Z" style="fill:#f5f5f5"></path><path d="M396.53,35.13V239.67H384.47v-211A22.43,22.43,0,0,1,396.53,35.13Z" style="fill:#f0f0f0"></path><rect x="309.17" y="250" width="133.83" height="2.56" style="fill:#e0e0e0"></rect><rect x="328.5" y="280.67" width="95.17" height="88.56" style="fill:#e0e0e0"></rect><polygon points="336.72 353.31 415.44 349.11 415.44 361.75 336.72 365.95 336.72 353.31" style="fill:#e6e6e6"></polygon><polygon points="409.67 346.53 342.5 342.33 342.5 354.98 409.67 359.17 409.67 346.53" style="fill:#e6e6e6"></polygon><path d="M376.12,353c-18.35,0-25.6-15.76-19-28.95s3.9-16.76,3.9-16.76,8.2,7.1,8.2,12.38c6.45-6.07-9.56-19.11-2.93-32.17,4.93,8.71,8.21,13.07,23.08,25.86C403.36,325.37,412,353,376.12,353Z" style="fill:#fafafa"></path><path d="M379.77,351c10,0,14.66-9.28,9.93-16.47s-2.4-9.48-2.4-9.48-5,4.22-4.56,7.1c-4-3.31,1.63-11.41-3.09-18.53-1.95,4.74-1.46,8.08-8.43,15.09C363.89,336.05,360.21,351,379.77,351Z" style="fill:#f0f0f0;opacity:0.5"></path><path d="M377.85,348.19c-4.46,0-6.54-4.14-4.43-7.34s1.07-4.23,1.07-4.23,2.24,1.88,2,3.16c1.79-1.47-.73-5.09,1.37-8.26.87,2.12.66,3.6,3.76,6.73C384.93,341.54,386.57,348.19,377.85,348.19Z" style="fill:#e6e6e6;opacity:0.5"></path><rect x="56.11" y="256.88" width="81.05" height="125.51" style="fill:#f0f0f0"></rect><rect x="11.55" y="318.94" width="105.96" height="1.41" transform="translate(384.18 255.11) rotate(90)" style="fill:#e6e6e6"></rect><rect x="63.83" y="266.66" width="64.33" height="1.78" style="fill:#e6e6e6"></rect><rect x="138.57" y="256.88" width="81.05" height="125.51" style="fill:#f0f0f0"></rect><rect x="219.62" y="256.88" width="8.08" height="125.51" transform="translate(447.33 639.28) rotate(180)" style="fill:#e0e0e0"></rect><rect x="94.01" y="318.94" width="105.96" height="1.41" transform="translate(466.64 172.65) rotate(90)" style="fill:#e6e6e6"></rect><rect x="75.82" y="319.65" width="124.09" height="1.41" transform="translate(458.22 182.49) rotate(90)" style="fill:#e6e6e6"></rect><rect x="146.29" y="266.66" width="64.33" height="1.78" style="fill:#e6e6e6"></rect><rect x="131.45" y="284.65" width="3.03" height="27.73" style="fill:#e0e0e0"></rect><rect x="141.25" y="284.65" width="3.03" height="27.73" style="fill:#e0e0e0"></rect><rect x="69.78" y="85.14" width="144.26" height="144.26" style="fill:#fafafa"></rect><polygon points="81.21 229.4 132.33 85.14 170.69 85.14 119.57 229.4 81.21 229.4" style="fill:#fff"></polygon><polygon points="127.67 229.4 178.78 85.14 192.77 85.14 141.66 229.4 127.67 229.4" style="fill:#fff"></polygon><path d="M223.62,80.18H60.2a.9.9,0,0,0-.9.89h0a.9.9,0,0,0,.9.89H223.62a.89.89,0,0,0,.89-.89h0A.89.89,0,0,0,223.62,80.18Z" style="fill:#e0e0e0"></path><rect x="140.72" y="84.83" width="2.38" height="144.88" transform="translate(283.82 314.54) rotate(180)" style="fill:#f0f0f0"></rect><rect x="143.1" y="84.83" width="1.19" height="144.88" transform="translate(287.39 314.54) rotate(180)" style="fill:#e0e0e0"></rect><rect x="140.72" y="83.75" width="2.38" height="147.04" transform="translate(-15.36 299.18) rotate(-90)" style="fill:#f0f0f0"></rect><path d="M215.43,228.41h0V83.75h-147V228.41h0v2.38h147Zm-144.66,0V86.13H213.05V228.41Z" style="fill:#f0f0f0"></path><rect x="215.43" y="83.75" width="1.19" height="147.04" transform="translate(432.05 314.54) rotate(180)" style="fill:#e0e0e0"></rect><polygon points="185.89 77.99 185.89 235.45 228.9 235.45 221.01 77.99 185.89 77.99" style="fill:#ebebeb;opacity:0.5"></polygon><polygon points="99.12 77.99 99.12 235.45 56.11 235.45 64 77.99 99.12 77.99" style="fill:#ebebeb;opacity:0.5"></polygon><rect x="270.92" y="107.93" width="39.78" height="39.78" style="fill:#ebebeb"></rect><rect x="310.7" y="107.93" width="3.53" height="39.78" transform="translate(624.93 255.64) rotate(180)" style="fill:#e0e0e0"></rect><rect x="276.31" y="113.32" width="29" height="29" style="fill:#fff"></rect><rect x="279.87" y="116.88" width="21.88" height="21.88" style="fill:#f5f5f5"></rect><rect x="289.05" y="156.6" width="39.78" height="39.78" style="fill:#ebebeb"></rect><rect x="328.83" y="156.6" width="3.53" height="39.78" transform="translate(661.18 352.97) rotate(180)" style="fill:#e0e0e0"></rect><rect x="294.44" y="161.99" width="29" height="29" style="fill:#fff"></rect><rect x="298" y="165.55" width="21.88" height="21.88" rx="7.3" style="fill:#f5f5f5"></rect></g><g id="freepik--Gift--inject-7"><rect x="76.33" y="289.89" width="1" height="13.44" style="fill:#FF81AE"></rect><rect x="76.33" y="307.33" width="1" height="5.56" style="fill:#FF81AE"></rect><path d="M79.83,240.77H243.36a0,0,0,0,1,0,0V416.24a0,0,0,0,1,0,0H84.51a4.67,4.67,0,0,1-4.67-4.67V240.77A0,0,0,0,1,79.83,240.77Z" style="fill:#FF81AE"></path><polygon points="243.36 240.77 79.83 240.77 79.83 253.21 173.92 253.21 177.04 416.24 179.22 253.21 243.36 253.21 243.36 240.77" style="opacity:0.2"></polygon><path d="M78.42,214.1H243.36a0,0,0,0,1,0,0v35.56a0,0,0,0,1,0,0H78.42a2.33,2.33,0,0,1-2.33-2.33V216.44A2.33,2.33,0,0,1,78.42,214.1Z" style="fill:#FF81AE"></path><polygon points="142.8 416.24 141.09 214.1 176.65 214.1 178.35 416.24 142.8 416.24" style="fill:#263238"></polygon><path d="M248,240.77h64.41a0,0,0,0,1,0,0V416.24a0,0,0,0,1,0,0H243.36a0,0,0,0,1,0,0V245.44A4.67,4.67,0,0,1,248,240.77Z" transform="translate(555.81 657.01) rotate(180)" style="fill:#FF81AE"></path><path d="M248,240.77h64.41a0,0,0,0,1,0,0V416.24a0,0,0,0,1,0,0H243.36a0,0,0,0,1,0,0V245.44A4.67,4.67,0,0,1,248,240.77Z" transform="translate(555.81 657.01) rotate(180)" style="opacity:0.2"></path><polygon points="243.36 240.77 312.44 240.77 312.44 253.21 273.89 253.21 268.65 416.24 269.22 253.21 243.36 253.21 243.36 240.77" style="opacity:0.2"></polygon><path d="M245.7,214.1h70.5a0,0,0,0,1,0,0v35.56a0,0,0,0,1,0,0H245.7a2.33,2.33,0,0,1-2.33-2.33V216.44A2.33,2.33,0,0,1,245.7,214.1Z" transform="translate(559.56 463.76) rotate(180)" style="fill:#FF81AE"></path><path d="M245.7,214.1h70.5a0,0,0,0,1,0,0v35.56a0,0,0,0,1,0,0H245.7a2.33,2.33,0,0,1-2.33-2.33V216.44A2.33,2.33,0,0,1,245.7,214.1Z" transform="translate(559.56 463.76) rotate(180)" style="opacity:0.2"></path><polygon points="268.65 416.24 271.63 214.1 293.82 214.1 290.84 416.24 268.65 416.24" style="fill:#263238"></polygon><polygon points="268.65 416.24 271.63 214.1 293.82 214.1 290.84 416.24 268.65 416.24" style="opacity:0.2"></polygon><path d="M280.23,147l0-.05H251.14a13.64,13.64,0,0,0-4.82,1.32c-29.5,12.36-43.84,44.75-50.18,65.79H225.9S296.33,145,280.23,147Z" style="fill:#263238"></path><path d="M225.9,214.1c0-27.33,20.68-53.43,50.18-65.79S225.9,214.1,225.9,214.1Z" style="opacity:0.5"></path><path d="M287.83,164.31l0,0H266.24a13,13,0,0,0-4,1c-25.44,9.18-45.37,33.23-56.12,48.85h22.1S300.36,162.81,287.83,164.31Z" style="fill:#263238"></path><path d="M228.26,214.1c10.41-27,30.68-39.67,56.12-48.85S228.26,214.1,228.26,214.1Z" style="opacity:0.5"></path><path d="M142.45,138.47l0-.06H113.29a3,3,0,0,0-2.65,1.49c-9.1,13.93,30,50.46,58.43,74.19h29.76S155.23,136.2,142.45,138.47Z" style="fill:#263238"></path><path d="M198.83,214.1c-28.39-23.73-67.53-60.26-58.43-74.19S198.83,214.1,198.83,214.1Z" style="opacity:0.5"></path><path d="M172.85,158l0,0H151.21a3.07,3.07,0,0,0-2.28,1.1c-9.64,10.35,11.84,37.48,28,55.09H199S182.8,156.26,172.85,158Z" style="fill:#263238"></path><path d="M199,214.1c-16.16-17.62-37.65-44.74-28-55.09S199,214.1,199,214.1Z" style="opacity:0.5"></path></g></svg>