<svg xmlns="http://www.w3.org/2000/svg" viewBox="0 0 500 500"><g id="freepik--device-2--inject-419"><ellipse cx="226.05" cy="179.82" rx="12.99" ry="22.79" transform="translate(-59.15 134.04) rotate(-29.38)" style="fill:#fff;stroke:#263238;stroke-miterlimit:10"></ellipse><ellipse cx="245.12" cy="167.77" rx="21.28" ry="32.35" transform="translate(-48.25 121.25) rotate(-25.38)" style="fill:#263238;stroke:#263238;stroke-linecap:round;stroke-linejoin:round"></ellipse><path d="M254.51,161.27c3.88,8.17,3.42,16.5-1,18.61s-11.19-2.81-15.07-11-3.41-16.5,1-18.6S250.64,153.1,254.51,161.27Z" style="fill:#545454;stroke:#263238;stroke-linecap:round;stroke-linejoin:round"></path><path d="M225.89,176.89c-7.21-15.2-5.5-31.3,3.58-37.34-.51.23-7.94,6-8.65,6.68a20.35,20.35,0,0,0-5.36,9.59c-2.13,8.68-.12,18.16,3.65,26.1,7.65,16.14,22.47,25.15,33.09,20.11a14.24,14.24,0,0,0,2.07-1.22l.27.12L259,197C248.36,202,233.55,193,225.89,176.89Z" style="fill:#fff;stroke:#263238;stroke-miterlimit:10"></path><ellipse cx="290.38" cy="165.48" rx="35.37" ry="22.8" transform="translate(8.11 344.44) rotate(-62.05)" style="fill:#fff;stroke:#263238;stroke-miterlimit:10"></ellipse><path d="M270.23,154.79c8.66-16.31,23.83-25.42,34.86-21.38L293,128.07c-11.12-5.9-27.24,2.69-36,19.18s-6.82,34.65,4.3,40.56l9.36,6.67C262.47,186.94,262,170.26,270.23,154.79Z" style="fill:#263238;stroke:#263238;stroke-linecap:round;stroke-linejoin:round"></path><path d="M319,111.57c-.87-15.49-5.73-31.37-11.92-38.49s-19.65-12-25.95-13.25-15.66-2.9-26.64,5.72-18.11,18.59-27.11,42.28c-6.08,16-8.4,32.69-9.28,41.84a20.75,20.75,0,0,1,2.75-3.44c.71-.72,8.14-6.45,8.65-6.68a16.33,16.33,0,0,1,1.78-1,15.06,15.06,0,0,1,7.8-1.33c3.11-16.3,9.12-37.1,17.17-48.83,8.19-11.91,18.39-17,23.85-17.52,7.16-.69,9.54,2.22,12.16,5.34,2,2.37,7.4,11.7,6.29,31.15a76.71,76.71,0,0,1-6.62,27.75,38.19,38.19,0,0,1-7.41,11c-7.15,7.41-12.66,15.31-13.51,25.92-.67,8.36,2,17.78,9.91,21.95,10.73,5.7,25.64-1.38,33.29-15.8,5.26-9.92,5.24-21.62,4.4-32.53C318.14,140,319.84,127.05,319,111.57Z" style="fill:#fff;stroke:#263238;stroke-miterlimit:10"></path><path d="M314.18,178.2c5.26-9.92,5.24-21.62,4.4-32.53-.44-5.66,1.26-18.62.39-34.1s-5.73-31.37-11.92-38.49-19.65-12-25.95-13.25c-1.34-.26-2.81-.54-4.4-.74C291.86,66.4,296,79.41,296,79.41c2.33,4.47,5.26,13.41,4.42,28.24a77,77,0,0,1-6.62,27.74,38.25,38.25,0,0,1-7.41,11c-7.16,7.41-12.67,15.31-13.51,25.93-.67,8.35,2,17.78,9.91,22a16.73,16.73,0,0,0,4.39,1.58C296.88,196.83,307.94,190,314.18,178.2Z" style="fill:#FFC100;stroke:#263238;stroke-linecap:round;stroke-linejoin:round"></path><ellipse cx="297.4" cy="170.32" rx="22.92" ry="16.65" transform="translate(7.56 353.21) rotate(-62.05)" style="fill:#fff;stroke:#263238;stroke-miterlimit:10"></ellipse></g><g id="freepik--device-1--inject-419"><path d="M122.66,61.73,57.93,95.08A8.86,8.86,0,0,0,54.12,107L135,264A8.85,8.85,0,0,0,147,267.82l64.73-33.35a8.85,8.85,0,0,0,3.81-11.93l-80.9-157A8.86,8.86,0,0,0,122.66,61.73Zm87.4,158.86a8.86,8.86,0,0,1-3.82,11.93l-57.72,29.74a8.85,8.85,0,0,1-11.93-3.81L59.55,109A8.86,8.86,0,0,1,63.37,97L74.11,91.5l2.27,2.76A4.56,4.56,0,0,0,82,95.42l28.73-14.81A4.56,4.56,0,0,0,113,75.37l-.93-3.45,9-4.64A8.86,8.86,0,0,1,133,71.1Z" style="fill:#878787;stroke:#263238;stroke-miterlimit:10"></path><rect x="94.17" y="67.04" width="88.69" height="190.15" rx="9.05" transform="translate(-58.87 81.46) rotate(-27.26)" style="fill:#fff;stroke:#263238;stroke-miterlimit:10"></rect><path d="M96.6,76.75,72.14,89.36a143.1,143.1,0,0,1-9.71,21.82c.14.3.26.6.41.9L75,135.64c3.34-6.57,6.89-14.17,10.55-23C92.18,96.7,95.29,85.06,96.6,76.75Z" style="fill:none;stroke:#263238;stroke-linecap:round;stroke-linejoin:round"></path><path d="M153.85,95.07c5.07,21.71,8.68,53.06,0,85.82-7.72,29.11-10,57.66-10.27,79.35a15.89,15.89,0,0,0,13.24-.61l19.41-10c-2.1-12.52-2.4-29.14,1.36-50.92a455,455,0,0,0,5.53-46.85Z" style="fill:none;stroke:#263238;stroke-linecap:round;stroke-linejoin:round"></path><path d="M133.79,149.27c8-41.21,1.86-70.24-3.91-86.26a15.81,15.81,0,0,0-9.68,1.58l-7,3.61c1.8,10.44,3.14,26.88,1.56,51.47-1.37,21.3-7.49,45.14-14.15,65.68l19.29,37.42C123.77,201.71,128.58,176.05,133.79,149.27Z" style="fill:none;stroke:#263238;stroke-linecap:round;stroke-linejoin:round"></path><path d="M126.13,59.94,61.4,93.29a8.86,8.86,0,0,0-3.81,11.93l80.9,157A8.85,8.85,0,0,0,150.42,266l64.73-33.35A8.86,8.86,0,0,0,219,220.75l-80.91-157A8.85,8.85,0,0,0,126.13,59.94Zm87.4,158.86a8.86,8.86,0,0,1-3.82,11.93L152,260.48a8.86,8.86,0,0,1-11.93-3.82L63,107.17a8.85,8.85,0,0,1,3.82-11.92l10.74-5.54,2.26,2.76a4.57,4.57,0,0,0,5.61,1.16l28.74-14.81a4.56,4.56,0,0,0,2.31-5.24l-.93-3.45,9-4.63a8.85,8.85,0,0,1,11.93,3.81Z" style="fill:#263238;stroke:#263238;stroke-miterlimit:10"></path></g></svg>