<svg xmlns="http://www.w3.org/2000/svg" viewBox="0 0 500 500"><g id="freepik--House--inject-574"><polygon id="freepik--Grass--inject-574" points="54.07 298.8 240.92 406.68 444.02 289.42 257.17 181.54 54.07 298.8" style="fill:#BA68C8"></polygon><g id="freepik--Plants--inject-574"><path d="M122.6,257.81a41.52,41.52,0,0,0-2.84-11.93c-2.51-6.14-7.32-12.32-12.84-13.47s-7.84,2.56-6.67,6.21c1,3.13,5.12,5.73,8.24,8.46s9,9.33,10.59,15.72l3.11.33Z" style="fill:#BA68C8"></path><g style="opacity:0.35000000000000003"><path d="M122.6,257.81a41.52,41.52,0,0,0-2.84-11.93c-2.51-6.14-7.32-12.32-12.84-13.47s-7.84,2.56-6.67,6.21c1,3.13,5.12,5.73,8.24,8.46s9,9.33,10.59,15.72l3.11.33Z"></path></g><path d="M120.48,260.69a.34.34,0,0,1-.34-.33c-.63-16.08-16.39-25-16.55-25.11a.35.35,0,0,1-.13-.47.35.35,0,0,1,.47-.14c.16.09,16.26,9.23,16.9,25.69a.34.34,0,0,1-.33.36Z" style="fill:#fff"></path><path d="M121.19,279l0,.08a2.66,2.66,0,0,1-1.74.85,7.05,7.05,0,0,1-4.88-1.26,13.32,13.32,0,0,1-3.5-3.75,11,11,0,0,0-1.46-2c-1.22-1.19-3.21-1.15-4.79-1.49a6,6,0,0,1-4.53-3.91c-.6-2-.37-4.46,1.5-5.76l-1.6-1a10.31,10.31,0,0,1-2-1.56,3.48,3.48,0,0,1-1-2.29A3.39,3.39,0,0,1,99.15,254a7.14,7.14,0,0,1,3.73-.39,17.13,17.13,0,0,1,3.73.87,2.67,2.67,0,0,0,1,.23,2.74,2.74,0,0,0,1.27-.59c2.72-1.81,7.16-1.69,8.64,1.7.21.5.34,1,.57,1.53.86,1.82,3.24,1.27,4.78,2.12a3.88,3.88,0,0,1,1.8,2.78,17,17,0,0,1-.51,5.66c-.32,1.74-.75,3.45-1.23,5.15-.39,1.4-.82,2.78-1.28,4.16A8.67,8.67,0,0,1,121.19,279Z" style="fill:#BA68C8"></path><g style="opacity:0.2"><path d="M121.19,279l0,.08a2.66,2.66,0,0,1-1.74.85,7.05,7.05,0,0,1-4.88-1.26,13.32,13.32,0,0,1-3.5-3.75,11,11,0,0,0-1.46-2c-1.22-1.19-3.21-1.15-4.79-1.49a6,6,0,0,1-4.53-3.91c-.6-2-.37-4.46,1.5-5.76l-1.6-1a10.31,10.31,0,0,1-2-1.56,3.48,3.48,0,0,1-1-2.29A3.39,3.39,0,0,1,99.15,254a7.14,7.14,0,0,1,3.73-.39,17.13,17.13,0,0,1,3.73.87,2.67,2.67,0,0,0,1,.23,2.74,2.74,0,0,0,1.27-.59c2.72-1.81,7.16-1.69,8.64,1.7.21.5.34,1,.57,1.53.86,1.82,3.24,1.27,4.78,2.12a3.88,3.88,0,0,1,1.8,2.78,17,17,0,0,1-.51,5.66c-.32,1.74-.75,3.45-1.23,5.15-.39,1.4-.82,2.78-1.28,4.16A8.67,8.67,0,0,1,121.19,279Z"></path></g><path d="M122.71,274.71a25,25,0,0,0-6.54-9.79.29.29,0,0,0-.15-.14,34,34,0,0,0-2.65-2.23,13.39,13.39,0,0,1,.88-7.1.28.28,0,0,0-.14-.37.27.27,0,0,0-.37.13,13.88,13.88,0,0,0-1,6.87A43.18,43.18,0,0,0,100.45,256a.29.29,0,0,0-.34.2.28.28,0,0,0,.19.34,41.86,41.86,0,0,1,14.59,8c-4-.69-8.79,1.26-9,1.35a.29.29,0,0,0-.15.37.28.28,0,0,0,.26.17l.11,0c.05,0,5.66-2.31,9.64-1.09a24.5,24.5,0,0,1,6.44,9.61.28.28,0,0,0,.27.19.15.15,0,0,0,.09,0A.28.28,0,0,0,122.71,274.71Z" style="fill:#fff"></path></g><g id="freepik--house--inject-574"><polygon points="233.76 89.86 258.82 104.34 258.82 133.28 233.76 118.81 233.76 89.86" style="fill:#e0e0e0"></polygon><polygon points="258.82 104.34 283.89 89.86 283.89 147.75 258.82 133.28 258.82 104.34" style="fill:#f0f0f0"></polygon><polygon points="258.82 65.23 231.15 81.17 231.15 88.41 258.82 104.34 286.5 88.41 286.5 81.17 258.82 65.23" style="fill:#455a64"></polygon><polygon points="231.15 88.41 258.82 104.34 258.82 97.1 231.15 81.17 231.15 88.41" style="fill:#37474f"></polygon><polygon points="286.5 88.41 258.82 104.34 258.82 97.1 286.5 81.17 286.5 88.41" style="fill:#263238"></polygon><polygon points="240.43 81.17 258.82 70.58 277.22 81.17 258.83 91.76 240.43 81.17" style="fill:#BA68C8"></polygon><polygon points="258.82 70.58 258.83 91.76 240.43 81.17 258.82 70.58" style="fill:#37474f"></polygon><polygon points="258.82 70.58 277.22 81.17 258.83 91.76 258.82 70.58" style="fill:#263238"></polygon><polygon points="119.06 280.04 119.06 180.29 240.92 250.64 240.92 350.39 119.06 280.04" style="fill:#f0f0f0"></polygon><polygon points="119.06 180.29 240.92 250.64 240.92 290.37 119.06 220.08 119.06 180.29" style="fill:#e0e0e0"></polygon><polygon points="356.2 283.84 356.2 184.14 298.51 150.89 240.92 250.64 240.92 350.39 356.2 283.84" style="fill:#fafafa"></polygon><polygon points="231.43 267.27 298.51 150.89 298.51 139.81 221.83 272.81 231.43 267.27" style="fill:#37474f"></polygon><polygon points="180 71.31 298.51 139.81 221.83 272.81 103.31 204.31 180 71.31" style="fill:#455a64"></polygon><polygon points="298.51 150.89 365.8 189.69 375.4 184.14 298.51 139.81 298.51 150.89" style="fill:#263238"></polygon><polygon points="322.57 238.88 345.13 225.94 345.13 259.19 322.57 272.13 322.57 238.88" style="fill:#455a64"></polygon><polygon points="343.21 258.08 343.21 227.06 322.57 238.88 322.57 269.91 343.21 258.08" style="fill:#e0e0e0"></polygon><polygon points="345.13 259.19 343.21 258.08 322.57 269.91 322.57 272.13 345.13 259.19" style="fill:#37474f"></polygon><polygon points="322.57 255.51 345.13 242.57 345.13 240.34 322.57 253.27 322.57 255.51" style="fill:#455a64"></polygon><polygon points="251.19 280.04 273.75 267.1 273.75 300.35 251.19 313.29 251.19 280.04" style="fill:#455a64"></polygon><polygon points="271.82 299.24 271.82 268.21 251.19 280.04 251.19 311.06 271.82 299.24" style="fill:#e0e0e0"></polygon><polygon points="273.75 300.35 271.82 299.24 251.19 311.06 251.19 313.29 273.75 300.35" style="fill:#37474f"></polygon><polygon points="251.19 296.66 273.75 283.73 273.75 281.49 251.19 294.43 251.19 296.66" style="fill:#455a64"></polygon><polygon points="284.11 200.77 312.91 184.14 312.91 209.08 284.11 225.71 284.11 200.77" style="fill:#455a64"></polygon><polygon points="310.99 207.97 310.99 185.25 284.11 200.77 284.11 223.48 310.99 207.97" style="fill:#e0e0e0"></polygon><polygon points="312.91 209.08 310.99 207.97 284.11 223.48 284.11 225.71 312.91 209.08" style="fill:#37474f"></polygon><polygon points="365.8 189.69 356.2 189.69 356.21 184.15 365.8 189.69"></polygon><polygon points="281.54 326.94 281.54 249.38 314.04 230.62 314.04 308.18 281.54 326.94" style="fill:#37474f"></polygon><polygon points="312.91 307.32 312.91 231.27 281.54 249.38 281.54 325.43 312.91 307.32" style="fill:#455a64"></polygon><polygon points="314.04 230.62 312.91 231.27 312.91 307.32 314.04 308.18 314.04 230.62" style="fill:#263238"></polygon><polygon points="214.24 270.87 191.73 257.87 191.73 291.05 214.25 304.05 214.24 270.87" style="fill:#455a64"></polygon><polygon points="193.65 289.94 193.65 258.98 214.24 270.87 214.25 301.83 193.65 289.94" style="fill:#fafafa"></polygon><polygon points="191.73 291.05 193.65 289.94 214.25 301.83 214.25 304.05 191.73 291.05" style="fill:#37474f"></polygon><polygon points="214.24 287.35 191.73 274.44 191.73 272.21 214.24 285.12 214.24 287.35" style="fill:#455a64"></polygon><polygon points="193.65 258.98 214.24 270.87 214.24 274.98 193.65 263.17 193.65 258.98" style="fill:#f5f5f5"></polygon><polygon points="160.13 239.54 137.62 226.63 137.62 259.81 160.13 272.72 160.13 239.54" style="fill:#455a64"></polygon><polygon points="139.54 258.7 139.54 227.74 160.13 239.54 160.13 270.5 139.54 258.7" style="fill:#fafafa"></polygon><polygon points="139.54 227.74 160.13 239.63 160.13 243.74 139.54 231.93 139.54 227.74" style="fill:#f5f5f5"></polygon><polygon points="137.62 259.81 139.54 258.7 160.13 270.5 160.13 272.72 137.62 259.81" style="fill:#37474f"></polygon><polygon points="160.13 256.13 137.62 243.22 137.62 240.99 160.13 253.9 160.13 256.13" style="fill:#455a64"></polygon></g><g id="freepik--Tree--inject-574"><rect x="425.16" y="238.75" width="23.86" height="1.95" transform="translate(25.48 520.96) rotate(-63.09)" style="fill:#455a64"></rect><rect x="425.04" y="225.95" width="1.95" height="20.01" transform="translate(-60.41 259.54) rotate(-31.76)" style="fill:#455a64"></rect><path d="M433.32,224.91v64.32a.83.83,0,0,1-.48.67,2.52,2.52,0,0,1-2.3,0,.83.83,0,0,1-.48-.67V224.91Z" style="fill:#455a64"></path><circle cx="448.28" cy="208.95" r="23.81" transform="translate(141.92 597.23) rotate(-76.72)" style="fill:#BA68C8"></circle><path d="M455.74,202.86c3.07-9.67,6.35-13.45,4.27-14.63a23.81,23.81,0,1,0,6.64,35.88C459.59,226.17,451.76,215.41,455.74,202.86Z" style="opacity:0.2"></path><path d="M427.5,215.69A16.74,16.74,0,1,1,410.76,199,16.74,16.74,0,0,1,427.5,215.69Z" style="fill:#BA68C8"></path><path d="M410.76,199a16.63,16.63,0,0,0-9.78,3.16c-.46,10.22,8.22,20.19,5.8,23.54s-8.41,1.29-10.49-1.55A16.74,16.74,0,1,0,410.76,199Z" style="opacity:0.2"></path><circle cx="431.69" cy="197.65" r="30.71" transform="translate(-13.32 363.14) rotate(-45)" style="fill:#BA68C8"></circle><path d="M461.58,204.66a30.71,30.71,0,1,1-45-33.74,31,31,0,0,0-7.19,5.63,31.13,31.13,0,0,0-.81,7,30.69,30.69,0,0,0,53,21.1Z" style="opacity:0.1"></path></g><g id="freepik--Sidewalk--inject-574"><polygon points="277.48 329.29 326.23 357.43 364.85 335.12 315.88 307.1 277.48 329.29" style="fill:#f5f5f5"></polygon><polygon points="444.02 289.42 484.65 312.87 240.93 453.58 13.45 322.25 54.07 298.8 240.92 406.68 444.02 289.42" style="fill:#f5f5f5"></polygon><polygon points="484.65 312.87 484.65 322.25 240.93 462.96 240.93 453.58 484.65 312.87" style="fill:#ebebeb"></polygon><polygon points="240.93 453.58 13.45 322.25 13.45 331.63 240.93 462.96 240.93 453.58" style="fill:#e0e0e0"></polygon><polygon points="240.92 406.68 281.54 430.13 283.61 428.93 242.99 405.48 240.92 406.68" style="fill:#e0e0e0"></polygon><polygon points="281.54 383.23 322.16 406.68 324.23 405.48 283.61 382.02 281.54 383.23" style="fill:#e0e0e0"></polygon><polygon points="322.16 359.78 362.78 383.23 364.85 382.02 324.23 358.57 322.16 359.78" style="fill:#e0e0e0"></polygon><polygon points="362.78 336.32 403.4 359.78 405.47 358.57 364.85 335.12 362.78 336.32" style="fill:#e0e0e0"></polygon><polygon points="403.4 312.87 444.02 336.32 446.09 335.12 405.47 311.67 403.4 312.87" style="fill:#e0e0e0"></polygon><polygon points="200.3 383.23 159.68 406.68 157.62 405.48 198.24 382.02 200.3 383.23" style="fill:#e0e0e0"></polygon><polygon points="159.68 359.78 119.06 383.23 117 382.02 157.62 358.57 159.68 359.78" style="fill:#e0e0e0"></polygon><polygon points="119.06 336.32 78.44 359.78 76.38 358.57 117 335.12 119.06 336.32" style="fill:#e0e0e0"></polygon><polygon points="78.44 312.87 37.83 336.32 35.76 335.12 76.38 311.67 78.44 312.87" style="fill:#e0e0e0"></polygon><polygon points="240.92 406.68 200.3 430.13 198.24 428.93 238.86 405.48 240.92 406.68" style="fill:#e0e0e0"></polygon></g></g></svg>