<svg xmlns="http://www.w3.org/2000/svg" viewBox="0 0 500 500"><g id="freepik--background-complete--inject-13"><path d="M456.11,269.61s-8.41-2.92-12.79,16.53-5.18,30.23-5.18,30.23-1.39,4.2-4.47,2.47-8.18-7.55-12.09-5.27-4.24,7.61-1.58,14.56,7.93,22.39,8.4,23.78.19,3.64-2.1,2.8-16.65-10.44-20.8-3.35,6.44,25.23,7.56,27.24.93,3,.05,3.82-5.41-2.89-9.61-5.45-9.52-4.81-11.57-.52.75,19.22,20.81,39.51l9.91,8.79,12.69-4c26.64-10.21,35.35-22.65,35.25-27.41s-5.87-4.91-10.75-4.3-10.53,2.09-11,1-.22-2.1,1.62-3.47,19-13.53,18.12-21.7-17.91-5.34-20.34-5.52-1.74-2.36-.75-3.42,12.17-13,17.46-18.2,7.27-10.1,4.55-13.92-9.66-.48-13.18-.18-3.06-4.1-3.06-4.1S457,309.4,461,289.87s-5.07-20.31-5.07-20.31" style="fill:#ebebeb"></path><path d="M452.15,287a4.06,4.06,0,0,1-.06.42c0,.29-.13.69-.23,1.2-.21,1.08-.52,2.63-.91,4.63-.8,4-2,9.82-3.51,17-3,14.33-7.35,34.09-12.2,55.9S426,407.72,422.93,422c-1.54,7.15-2.78,12.93-3.64,17-.43,2-.76,3.54-1,4.61-.12.52-.21.91-.27,1.2a3.14,3.14,0,0,1-.11.4s0-.14.07-.41.13-.69.23-1.2c.21-1.08.52-2.63.91-4.63.8-4,2-9.82,3.51-17,3-14.33,7.35-34.09,12.2-55.91s9.23-41.56,12.31-55.87c1.53-7.15,2.78-12.93,3.64-16.95.43-2,.76-3.54,1-4.61.12-.52.21-.91.27-1.2S452.15,287,452.15,287Z" style="fill:#e0e0e0"></path><path d="M428.39,322a4.94,4.94,0,0,1,.55.79c.33.52.78,1.29,1.34,2.24,1.1,1.9,2.56,4.57,4.12,7.54s2.9,5.6,4,7.63c.48.91.88,1.69,1.21,2.3a3.75,3.75,0,0,1,.41.87,5.09,5.09,0,0,1-.55-.78c-.33-.53-.78-1.29-1.33-2.25-1.09-1.91-2.51-4.6-4.07-7.57s-2.94-5.58-4-7.6l-1.22-2.3A4.11,4.11,0,0,1,428.39,322Z" style="fill:#e0e0e0"></path><path d="M441.22,343.3c-.06-.1,5.31-3.35,12-7.26s12.14-7,12.2-6.91-5.31,3.35-12,7.26S441.28,343.39,441.22,343.3Z" style="fill:#e0e0e0"></path><path d="M432.26,376.46a4.26,4.26,0,0,1,.93-.29l2.58-.65c2.18-.55,5.18-1.32,8.46-2.29s6.23-2,8.35-2.68l2.52-.85a4.06,4.06,0,0,1,.94-.27,5.68,5.68,0,0,1-.89.42c-.58.24-1.42.58-2.47,1-2.1.79-5,1.82-8.33,2.79s-6.31,1.71-8.51,2.19c-1.1.23-2,.41-2.61.52A5.27,5.27,0,0,1,432.26,376.46Z" style="fill:#e0e0e0"></path><path d="M416.41,359.75a3.6,3.6,0,0,1,.69.59l1.76,1.72c1.47,1.46,3.49,3.5,5.7,5.76s4.19,4.35,5.61,5.86l1.67,1.81a4.12,4.12,0,0,1,.57.7,3.6,3.6,0,0,1-.69-.59L430,373.88c-1.47-1.46-3.49-3.5-5.7-5.77s-4.19-4.34-5.61-5.85L417,360.45A4,4,0,0,1,416.41,359.75Z" style="fill:#e0e0e0"></path><path d="M404.78,388a6,6,0,0,1,.87.76l2.27,2.19c1.9,1.87,4.5,4.46,7.36,7.34s5.43,5.51,7.27,7.42l2.18,2.28a6.61,6.61,0,0,1,.75.88,6,6,0,0,1-.87-.76l-2.26-2.19c-1.9-1.87-4.51-4.46-7.36-7.34s-5.43-5.51-7.28-7.42l-2.17-2.28A6.34,6.34,0,0,1,404.78,388Z" style="fill:#e0e0e0"></path><path d="M425.13,408.25a7.25,7.25,0,0,1,1.17-.39l3.24-.94c2.74-.8,6.51-1.91,10.64-3.26S448,401,450.7,400l3.17-1.15a8,8,0,0,1,1.18-.38,6.25,6.25,0,0,1-1.12.53c-.74.31-1.8.75-3.13,1.27-2.65,1-6.35,2.4-10.49,3.74s-7.93,2.42-10.69,3.15c-1.38.36-2.5.64-3.27.81A6.92,6.92,0,0,1,425.13,408.25Z" style="fill:#e0e0e0"></path><path d="M375.9,171.35c7.47,2.46,12.35-6.11,12.35-6.11l-4.52-2.72c-2.36,5.27-9.86,4.48-9.86,4.48Z" style="fill:#e0e0e0"></path><path d="M438.6,145.74c.46,7.85,10.22,9.25,10.22,9.25l.87-5.2c-5.76-.27-7.78-7.53-7.78-7.53Z" style="fill:#e0e0e0"></path><path d="M86.25,248.7c-2.21-4.93-8.83-3.44-8.83-3.44l.71,3.55c3.77-1.24,6.84,2.94,6.84,2.94Z" style="fill:#e0e0e0"></path><path d="M317.88,96.54c-2.21-4.93-8.83-3.44-8.83-3.44l.71,3.55c3.77-1.24,6.84,2.94,6.84,2.94Z" style="fill:#e0e0e0"></path><path d="M420.88,44.57c-2.21-4.93-8.83-3.45-8.83-3.45l.71,3.56c3.77-1.24,6.84,2.94,6.84,2.94Z" style="fill:#e0e0e0"></path><path d="M257.1,70.44c-1.5-3.35-6-2.34-6-2.34l.48,2.41c2.56-.84,4.65,2,4.65,2Z" style="fill:#e0e0e0"></path><path d="M155.58,80.15c-3.55.91-3.32,5.51-3.32,5.51l2.46-.07c-.39-2.66,2.75-4.24,2.75-4.24Z" style="fill:#e0e0e0"></path><path d="M47.14,158.81c0-3.67-4.52-4.58-4.52-4.58l-.54,2.4c2.68.28,3.42,3.72,3.42,3.72Z" style="fill:#e0e0e0"></path><path d="M367.93,107.62c9.63,3.16,15.92-7.88,15.92-7.88L378,96.24C375,103,365.32,102,365.32,102Z" style="fill:#e0e0e0"></path><path d="M111,59.13c9.63,3.16,15.93-7.89,15.93-7.89l-5.83-3.5c-3,6.79-12.71,5.77-12.71,5.77Z" style="fill:#e0e0e0"></path><path d="M91.34,96.54c-2.21-4.93-8.83-3.44-8.83-3.44l.72,3.55c3.76-1.24,6.83,2.94,6.83,2.94Z" style="fill:#e0e0e0"></path><path d="M81.83,207.57c-3.5-9.36-16.3-5.5-16.3-5.5l.85,6.86c7.34-3,12.59,4.79,12.59,4.79Z" style="fill:#e0e0e0"></path><path d="M318.57,227.87c-4.23-9.44-16.89-6.6-16.89-6.6l1.36,6.8c7.21-2.37,13.09,5.62,13.09,5.62Z" style="fill:#e0e0e0"></path><path d="M249.08,123.3c0-3.67-4.52-4.58-4.52-4.58l-.54,2.4c2.68.28,3.42,3.72,3.42,3.72Z" style="fill:#e0e0e0"></path><path d="M311.69,160.82c0-3.66-4.51-4.58-4.51-4.58l-.54,2.4c2.67.28,3.42,3.72,3.42,3.72Z" style="fill:#e0e0e0"></path><path d="M273.32,236.75c0-3.67-4.52-4.58-4.52-4.58l-.54,2.4c2.68.28,3.42,3.72,3.42,3.72Z" style="fill:#e0e0e0"></path><path d="M437.57,209c0-3.67-4.52-4.58-4.52-4.58l-.54,2.4c2.68.28,3.42,3.72,3.42,3.72Z" style="fill:#e0e0e0"></path></g><g id="freepik--Table--inject-13"><path d="M466.49,457.83c0,.15-96,.26-214.48.26s-214.5-.11-214.5-.26,96-.26,214.5-.26S466.49,457.69,466.49,457.83Z" style="fill:#263238"></path></g><g id="freepik--Confetti--inject-13"><circle cx="273.27" cy="175.41" r="2.48" style="fill:#FF725E"></circle><circle cx="51.88" cy="270.93" r="2.48" style="fill:#FF725E"></circle><path d="M458.52,171.49A2.48,2.48,0,1,1,456,169,2.48,2.48,0,0,1,458.52,171.49Z" style="fill:#FF725E"></path><path d="M72.36,148.55a2.48,2.48,0,1,1-2.48-2.48A2.48,2.48,0,0,1,72.36,148.55Z" style="fill:#FF725E"></path><circle cx="206.6" cy="90.9" r="2.48" style="fill:#FF725E"></circle><circle cx="343.85" cy="120.33" r="2.48" style="fill:#FF725E"></circle><path d="M304.73,223.34a.94.94,0,0,1,0,1.33.92.92,0,0,1-1.32,0,.94.94,0,0,1,1.32-1.33Z" style="fill:#FF725E"></path><path d="M392.58,159.43a.93.93,0,1,1-1.32,0A.92.92,0,0,1,392.58,159.43Z" style="fill:#FF725E"></path><circle cx="266.06" cy="118.52" r="0.94" style="fill:#FF725E"></circle><path d="M391.92,67.55a.94.94,0,1,1-1.33,0A.94.94,0,0,1,391.92,67.55Z" style="fill:#FF725E"></path><path d="M457.36,220.5a.94.94,0,1,1-1.32,0A.92.92,0,0,1,457.36,220.5Z" style="fill:#FF725E"></path><path d="M131.55,78.3a.94.94,0,0,1-1.33,1.32.92.92,0,0,1,0-1.32A.94.94,0,0,1,131.55,78.3Z" style="fill:#FF725E"></path><circle cx="50.06" cy="221.83" r="0.94" style="fill:#FF725E"></circle><path d="M40,105.56a.94.94,0,0,1,0,1.33.94.94,0,1,1,0-1.33Z" style="fill:#FF725E"></path><path d="M263.76,61.49a.93.93,0,0,1-1.28-.34.94.94,0,1,1,1.62-.94A.93.93,0,0,1,263.76,61.49Z" style="fill:#FF725E"></path><path d="M451.77,88.42a2.48,2.48,0,1,1-2.48-2.48A2.48,2.48,0,0,1,451.77,88.42Z" style="fill:#FF725E"></path><circle cx="309.21" cy="44.27" r="2.48" style="fill:#FF725E"></circle><path d="M348,203.53a2.48,2.48,0,1,1-2.48-2.48A2.48,2.48,0,0,1,348,203.53Z" style="fill:#FF725E"></path></g><g id="freepik--Cake--inject-13"><circle cx="333.14" cy="269.32" r="3.75" style="fill:#FF725E"></circle><path d="M323.59,260.81a3.83,3.83,0,0,1,1.78-.05,8.46,8.46,0,0,1,6.63,5,3.79,3.79,0,0,1,.43,1.72,15.19,15.19,0,0,1-.77-1.56,9.23,9.23,0,0,0-6.35-4.83A15.5,15.5,0,0,1,323.59,260.81Z" style="fill:#263238"></path><path d="M331.39,267.5c.06-.13.47-.09.88-.32s.6-.58.75-.57.11.16.05.38a1.18,1.18,0,0,1-.55.65,1.21,1.21,0,0,1-.85.11C331.45,267.68,331.36,267.56,331.39,267.5Z" style="fill:#263238"></path><path d="M335.77,270.93a6.06,6.06,0,0,0,0-2.77c-.52-1.46-1.8-2-1.72-2.17s.38,0,.86.29a3.39,3.39,0,0,1,1.38,3.89C336.07,270.71,335.83,271,335.77,270.93Z" style="fill:#fff"></path><path d="M365.93,268.08a5.28,5.28,0,1,1-5.28-5.28A5.29,5.29,0,0,1,365.93,268.08Z" style="fill:#FF725E"></path><path d="M374.1,256.09c0,.08-1,.06-2.43.36a12.85,12.85,0,0,0-9,6.85c-.69,1.34-.92,2.27-1,2.24a6,6,0,0,1,.67-2.4,12.05,12.05,0,0,1,9.28-7.05A5.85,5.85,0,0,1,374.1,256.09Z" style="fill:#455a64"></path><path d="M363.12,265.5c0,.06-.11.2-.41.28a1.73,1.73,0,0,1-1.9-1c-.09-.29-.05-.48,0-.49s.37.56,1,.89S363.06,265.37,363.12,265.5Z" style="fill:#263238"></path><path d="M356.94,270.34c-.05,0-.37-.34-.61-1.09a4.82,4.82,0,0,1,.07-3,4.76,4.76,0,0,1,1.85-2.38c.65-.43,1.14-.52,1.16-.47s-.39.29-.94.76a5.22,5.22,0,0,0-1.78,5C356.82,269.88,357,270.3,356.94,270.34Z" style="fill:#fff"></path><path d="M322.73,272.8h49.94a0,0,0,0,1,0,0v47.11a0,0,0,0,1,0,0H319.72a0,0,0,0,1,0,0V275.8A3,3,0,0,1,322.73,272.8Z" style="fill:#FF725E"></path><g style="opacity:0.30000000000000004"><path d="M321.64,275.65c16.28.2,32.1-.82,48.38-.62l2.63,1.77.06,7.76s-1.12.44-1.44-.4a6.43,6.43,0,0,1,0-3c-.95-.63-1.51.21-2,1.26a8.15,8.15,0,0,0-.37,3.38,4,4,0,0,1-1.11,3.13,3.07,3.07,0,0,1-3.54-.12,8.9,8.9,0,0,1-2.38-2.92,13.14,13.14,0,0,0-3.32-4.16,4.46,4.46,0,0,0-5-.4c-1.58,1.1-2.17,3.55-4,4-2.18.48-4-2.25-6.2-2.11-1.87.12-2.94,2.14-3.75,3.84s-2.22,3.62-4.07,3.3c-2.46-.43-3.08-4.41-5.56-4.66-1.9-.19-3.14,2-4.9,2.7a4.37,4.37,0,0,1-5.09-1.81,7.17,7.17,0,0,1-.7-5.65,21.17,21.17,0,0,1,2.43-5.3"></path></g><path d="M372.84,272.61a6.92,6.92,0,0,0-3-.48c-15.82-.2-31.23.72-47,.66a5.08,5.08,0,0,0-4.64,2.95,13.94,13.94,0,0,0-.91,2.51,7.42,7.42,0,0,0,.72,5.84,4.53,4.53,0,0,0,5.26,1.87c1.82-.76,3.11-3,5.07-2.79,2.57.26,3.21,4.37,5.75,4.81,2.18.38,3.77-2.24,4.52-4.11a5.93,5.93,0,0,1,1.58-2.35c3.32-2.85,5.54,1.9,8.41,1.27,1.94-.44,2.55-3,4.18-4.11a4.63,4.63,0,0,1,5.18.41,13.91,13.91,0,0,1,3.44,4.3,9.07,9.07,0,0,0,2.46,3,3.16,3.16,0,0,0,3.66.13,4.09,4.09,0,0,0,1.14-3.24,8.56,8.56,0,0,1,.39-3.5c.49-1.07,1.89-1.85,2.88-1.2a5.21,5.21,0,0,0,0,2.77,1.83,1.83,0,0,0,2.19,1.24c.92-.36,1.13-1.55,1.2-2.55C375.52,277.28,375.36,273.82,372.84,272.61Z" style="fill:#FF725E"></path><path d="M346.6,244a3.7,3.7,0,0,1-2.06-5.75c.76-1,2.07-1.7,2.49-2.92a11.32,11.32,0,0,0,.26-1.94,1.81,1.81,0,0,1,1-1.53,1.49,1.49,0,0,1,1.52.55,3.92,3.92,0,0,1,.67,1.55,11,11,0,0,1,0,6,5.51,5.51,0,0,1-3.93,4" style="fill:#FF725E"></path><rect x="344.66" y="245.54" width="3.77" height="26.91" style="fill:#455a64"></rect><path d="M348.39,247.85a12.56,12.56,0,0,1-1.76,1.52,12.74,12.74,0,0,1-1.89,1.36,12.61,12.61,0,0,1,1.76-1.52A12.17,12.17,0,0,1,348.39,247.85Z" style="fill:#263238"></path><path d="M348.39,252.59a12.56,12.56,0,0,1-1.76,1.52,12.74,12.74,0,0,1-1.89,1.36A13.44,13.44,0,0,1,346.5,254,13.05,13.05,0,0,1,348.39,252.59Z" style="fill:#263238"></path><path d="M348.39,257.33a24.42,24.42,0,0,1-3.65,2.88,13.44,13.44,0,0,1,1.76-1.52A14.06,14.06,0,0,1,348.39,257.33Z" style="fill:#263238"></path><path d="M348.39,262.08a14.31,14.31,0,0,1-1.76,1.52,14.83,14.83,0,0,1-1.89,1.36,12.27,12.27,0,0,1,1.76-1.53A12.49,12.49,0,0,1,348.39,262.08Z" style="fill:#263238"></path><path d="M348.39,266.82a14.31,14.31,0,0,1-1.76,1.52,13.71,13.71,0,0,1-1.89,1.36,11.88,11.88,0,0,1,1.76-1.52A12.17,12.17,0,0,1,348.39,266.82Z" style="fill:#263238"></path><path d="M346.61,241.26a22.76,22.76,0,0,1,0,4.47,25,25,0,0,1,0-4.47Z" style="fill:#263238"></path><path d="M290.28,320a4.8,4.8,0,0,1,.22-6.55,23.51,23.51,0,0,1,3.41-2.08c1.13-.72,2.13-2,1.86-3.27-.18-.92-1-1.74-.8-2.66a1.79,1.79,0,0,1,2.17-1.2,4.26,4.26,0,0,1,2.23,1.56,16,16,0,0,1,3.75,8.52c.18,1.52-.25,4.33-1.34,5.4a38.44,38.44,0,0,1-4.77.15" style="fill:#FF725E"></path><path d="M308.88,320a4.79,4.79,0,0,1,.21-6.55,23.09,23.09,0,0,1,3.42-2.08c1.12-.72,2.12-2,1.86-3.27-.19-.92-1-1.74-.81-2.66a1.8,1.8,0,0,1,2.18-1.2,4.27,4.27,0,0,1,2.22,1.56,16,16,0,0,1,3.75,8.52c.18,1.52-.24,4.33-1.33,5.4a38.44,38.44,0,0,1-4.77.15" style="fill:#FF725E"></path><path d="M327.47,320a4.8,4.8,0,0,1,.22-6.55,23,23,0,0,1,3.41-2.08c1.12-.72,2.13-2,1.86-3.27-.18-.92-1-1.74-.8-2.66a1.79,1.79,0,0,1,2.17-1.2,4.3,4.3,0,0,1,2.23,1.56,16,16,0,0,1,3.75,8.52c.18,1.52-.25,4.33-1.34,5.4a38.44,38.44,0,0,1-4.77.15" style="fill:#FF725E"></path><path d="M346.07,320a4.79,4.79,0,0,1,.21-6.55,23.09,23.09,0,0,1,3.42-2.08c1.12-.72,2.12-2,1.86-3.27-.19-.92-1-1.74-.81-2.66a1.8,1.8,0,0,1,2.18-1.2,4.27,4.27,0,0,1,2.22,1.56,16,16,0,0,1,3.75,8.52c.18,1.52-.24,4.33-1.33,5.4a38.55,38.55,0,0,1-4.77.15" style="fill:#FF725E"></path><path d="M364.66,320a4.8,4.8,0,0,1,.22-6.55,23,23,0,0,1,3.41-2.08c1.12-.72,2.13-2,1.86-3.27-.19-.92-1-1.74-.8-2.66a1.79,1.79,0,0,1,2.17-1.2,4.3,4.3,0,0,1,2.23,1.56,16,16,0,0,1,3.75,8.52c.17,1.52-.25,4.33-1.34,5.4a38.44,38.44,0,0,1-4.77.15" style="fill:#FF725E"></path><path d="M383.25,320a4.8,4.8,0,0,1,.22-6.55,23.09,23.09,0,0,1,3.42-2.08c1.12-.72,2.12-2,1.86-3.27-.19-.92-1-1.74-.81-2.66a1.8,1.8,0,0,1,2.18-1.2,4.27,4.27,0,0,1,2.22,1.56,16,16,0,0,1,3.75,8.52c.18,1.52-.24,4.33-1.34,5.4a38.34,38.34,0,0,1-4.76.15" style="fill:#FF725E"></path><g style="opacity:0.8"><path d="M290.28,320a4.8,4.8,0,0,1,.22-6.55,23.51,23.51,0,0,1,3.41-2.08c1.13-.72,2.13-2,1.86-3.27-.18-.92-1-1.74-.8-2.66a1.79,1.79,0,0,1,2.17-1.2,4.26,4.26,0,0,1,2.23,1.56,16,16,0,0,1,3.75,8.52c.18,1.52-.25,4.33-1.34,5.4a38.44,38.44,0,0,1-4.77.15" style="fill:#fff"></path><path d="M308.88,320a4.79,4.79,0,0,1,.21-6.55,23.09,23.09,0,0,1,3.42-2.08c1.12-.72,2.12-2,1.86-3.27-.19-.92-1-1.74-.81-2.66a1.8,1.8,0,0,1,2.18-1.2,4.27,4.27,0,0,1,2.22,1.56,16,16,0,0,1,3.75,8.52c.18,1.52-.24,4.33-1.33,5.4a38.44,38.44,0,0,1-4.77.15" style="fill:#fff"></path><path d="M327.47,320a4.8,4.8,0,0,1,.22-6.55,23,23,0,0,1,3.41-2.08c1.12-.72,2.13-2,1.86-3.27-.18-.92-1-1.74-.8-2.66a1.79,1.79,0,0,1,2.17-1.2,4.3,4.3,0,0,1,2.23,1.56,16,16,0,0,1,3.75,8.52c.18,1.52-.25,4.33-1.34,5.4a38.44,38.44,0,0,1-4.77.15" style="fill:#fff"></path><path d="M346.07,320a4.79,4.79,0,0,1,.21-6.55,23.09,23.09,0,0,1,3.42-2.08c1.12-.72,2.12-2,1.86-3.27-.19-.92-1-1.74-.81-2.66a1.8,1.8,0,0,1,2.18-1.2,4.27,4.27,0,0,1,2.22,1.56,16,16,0,0,1,3.75,8.52c.18,1.52-.24,4.33-1.33,5.4a38.55,38.55,0,0,1-4.77.15" style="fill:#fff"></path><path d="M364.66,320a4.8,4.8,0,0,1,.22-6.55,23,23,0,0,1,3.41-2.08c1.12-.72,2.13-2,1.86-3.27-.19-.92-1-1.74-.8-2.66a1.79,1.79,0,0,1,2.17-1.2,4.3,4.3,0,0,1,2.23,1.56,16,16,0,0,1,3.75,8.52c.17,1.52-.25,4.33-1.34,5.4a38.44,38.44,0,0,1-4.77.15" style="fill:#fff"></path><path d="M383.25,320a4.8,4.8,0,0,1,.22-6.55,23.09,23.09,0,0,1,3.42-2.08c1.12-.72,2.12-2,1.86-3.27-.19-.92-1-1.74-.81-2.66a1.8,1.8,0,0,1,2.18-1.2,4.27,4.27,0,0,1,2.22,1.56,16,16,0,0,1,3.75,8.52c.18,1.52-.24,4.33-1.34,5.4a38.34,38.34,0,0,1-4.76.15" style="fill:#fff"></path></g><rect x="282.44" y="319.91" width="125.89" height="55.58" style="fill:#FF725E"></rect><rect x="249.58" y="446.89" width="191.21" height="10.24" style="fill:#263238"></rect><g style="opacity:0.30000000000000004"><path d="M279,443.5c0,.13-.68.07-1.42-.16s-1.32-.51-1.27-.65.67-.07,1.42.15S279,443.36,279,443.5Z"></path></g><g style="opacity:0.30000000000000004"><path d="M295.16,443c.09.11-.14.45-.51.74s-.75.45-.84.34.14-.45.51-.74S295.07,442.87,295.16,443Z"></path></g><g style="opacity:0.30000000000000004"><path d="M314.56,443.46c-.12.08-.46-.21-.76-.65s-.45-.87-.33-.95.46.21.76.66S314.68,443.38,314.56,443.46Z"></path></g><g style="opacity:0.30000000000000004"><path d="M335.45,440.24c.13.08-.08.62-.45,1.21s-.78,1-.9.94.08-.62.46-1.22S335.33,440.16,335.45,440.24Z"></path></g><g style="opacity:0.30000000000000004"><path d="M348.68,444.57c-.1.1-.48-.11-.85-.49s-.59-.75-.49-.85.48.11.85.49S348.78,444.47,348.68,444.57Z"></path></g><g style="opacity:0.30000000000000004"><path d="M367.52,444c0,.15-.37.26-.81.26s-.81-.11-.81-.26.36-.26.81-.26S367.52,443.89,367.52,444Z"></path></g><g style="opacity:0.30000000000000004"><path d="M386.35,441.07c.07.13-.29.47-.81.77s-1,.44-1.07.31.29-.47.81-.76S386.28,441,386.35,441.07Z"></path></g><g style="opacity:0.30000000000000004"><path d="M409.76,443.77c0,.13-.1.3-.32.38s-.44,0-.49-.12.1-.3.32-.38S409.71,443.63,409.76,443.77Z"></path></g><g style="opacity:0.30000000000000004"><path d="M417,440.78a.29.29,0,0,1-.15.37.29.29,0,0,1-.39-.1.3.3,0,0,1,.15-.37A.29.29,0,0,1,417,440.78Z"></path></g><path d="M273.42,374.15H421.54a2.7,2.7,0,0,1,2.7,2.7v67.34a2.7,2.7,0,0,1-2.7,2.7H268.82a2.7,2.7,0,0,1-2.7-2.7V381.45A7.29,7.29,0,0,1,273.42,374.15Z" style="fill:#FF725E"></path><g style="opacity:0.30000000000000004"><path d="M422.65,435.07c-34-1.35-68.14-2.7-102.12-.4-15.45,1-31.12,2.83-46.33-.18a12.71,12.71,0,0,0-5.3-.34,4.58,4.58,0,0,0-1.7.8,1.93,1.93,0,0,0,.73,3.44c26.28,5.41,53.29-1.72,80.2-.49,9,.41,18,1.74,27.06,1.35,6.19-.27,12.32-1.33,18.51-1.69,9.64-.55,19.34.63,28.95-.32.78-.07,1.78-.44,1.7-1.22S423.36,435.1,422.65,435.07Z"></path></g><g style="opacity:0.30000000000000004"><path d="M265.92,398.22a8.36,8.36,0,0,0,13-8.21,6.29,6.29,0,0,0,11.52-4.48,6,6,0,0,0,8.34-.22c.83-.91,1.41-2.11,2.51-2.66,1.73-.87,3.91.41,4.77,2.15s.82,3.77.92,5.71.44,4,1.84,5.37,4.16,1.34,4.95-.44c.46-1,.34-2.55,1.4-2.91.81-.27,1.62.47,1.94,1.25a19.52,19.52,0,0,0,.78,2.42c.87,1.54,3.1,1.82,4.7,1.07a10.73,10.73,0,0,0,3.76-3.64,16.63,16.63,0,0,0,.25,6.89c.72,2.21,2.68,4.19,5,4.16,3,0,5-3.13,5.57-6s.43-6,1.72-8.7c.8-1.64,2.6-3.13,4.31-2.52,1.86.67,2.29,3.28,4,4.25,2.08,1.17,4.57-.66,6-2.59s2.74-4.3,5.08-4.71,4.76,1.69,5.8,4,1.32,4.91,2.46,7.17,3.66,4.2,6.07,3.42c2-.64,3-2.75,4.21-4.44s3.55-3.16,5.26-2,1.62,4,3.51,4.55c2.34.66,3.55-3.06,5.89-3.73,3.25-.94,5,4.25,8.29,5.11,2.68.71,5.17-1.79,6.2-4.36s1.33-5.48,3-7.69,5.57-3.06,7-.68c.55.93.55,2.08,1,3.06,1.15,2.47,6.27,2.69,7.34.19V378.2H266.13Z"></path></g><path d="M422.74,433c-34.39-1.35-68.84-2.7-103.18-.4-15.61,1-31.44,2.83-46.8-.18a13,13,0,0,0-5.36-.34,4.67,4.67,0,0,0-1.72.8,1.93,1.93,0,0,0,.74,3.44c26.55,5.41,53.84-1.72,81-.49,9.12.41,18.22,1.74,27.34,1.35,6.26-.27,12.45-1.33,18.7-1.69,9.74-.55,19.55.63,29.25-.32.79-.07,1.81-.44,1.72-1.22S423.45,433,422.74,433Z" style="fill:#FF725E"></path><g style="opacity:0.30000000000000004"><path d="M268,418.3l44.17,1.18c14,.38,28.1.75,42-1,13.15-1.67,26.26-5.26,39.45-4,5.95.55,11.78,2.08,17.73,2.57,5.11.43,7.88,1.39,12.88-.89v-2.74c-13.07,0-24-1.46-36.86-1.47-13.71,0-27.26,1.55-41,1.54l-75.41,0a8.79,8.79,0,0,0-4.27.72A2.32,2.32,0,0,0,268,418.3"></path></g><g style="opacity:0.30000000000000004"><path d="M281.58,426.79c-.08.12-.58-.11-1.11-.5s-.9-.8-.81-.92.58.11,1.11.5S281.67,426.67,281.58,426.79Z"></path></g><g style="opacity:0.30000000000000004"><path d="M295.43,423.41c-.11-.09,0-.37.15-.62s.45-.38.56-.3.05.37-.15.62S295.55,423.5,295.43,423.41Z"></path></g><g style="opacity:0.30000000000000004"><path d="M313.13,427.89c-.11.1-.43-.1-.79-.33s-.67-.44-.63-.58.47-.14.91.14S313.24,427.8,313.13,427.89Z"></path></g><g style="opacity:0.30000000000000004"><path d="M322.38,421.91c.09.12-.16.45-.56.75s-.79.46-.88.34.17-.45.57-.75S322.3,421.8,322.38,421.91Z"></path></g><g style="opacity:0.30000000000000004"><path d="M340.24,426.18c-.13.06-.37-.16-.54-.5s-.2-.66-.07-.73.37.16.54.5S340.36,426.11,340.24,426.18Z"></path></g><g style="opacity:0.30000000000000004"><path d="M366.57,421c.08.12-.13.4-.47.63s-.67.31-.75.19.13-.4.47-.63S366.49,420.86,366.57,421Z"></path></g><g style="opacity:0.30000000000000004"><path d="M386.62,426.55c-.14.06-.5-.47-1.07-1s-1.13-.78-1.08-.93.76,0,1.43.54S386.75,426.5,386.62,426.55Z"></path></g><g style="opacity:0.30000000000000004"><path d="M404.89,417.37c.1.1-.29.72-.89,1.39s-1.16,1.13-1.27,1,.29-.71.89-1.38S404.78,417.28,404.89,417.37Z"></path></g><g style="opacity:0.30000000000000004"><path d="M414.91,425.71c-.13.07-.47-.32-1-.5s-1.07-.1-1.13-.23.52-.53,1.3-.26S415.05,425.67,414.91,425.71Z"></path></g><g style="opacity:0.30000000000000004"><path d="M402,439.19c0,.15-.43.26-.95.26s-.94-.11-.94-.26.42-.26.94-.26S402,439.05,402,439.19Z"></path></g><path d="M265.49,416l44.17,1.18c14,.38,28.1.75,42-1,13.15-1.67,26.26-5.26,39.46-4,5.94.55,11.77,2.08,17.72,2.57,5.11.43,12.11,0,17.11-2.31a.67.67,0,0,0-.26-1.28c-13.07,0-27.83.05-40.66.05l-41.15,0-75.41,0a8.79,8.79,0,0,0-4.27.72,2.32,2.32,0,0,0,1.28,4.17" style="fill:#FF725E"></path><g style="opacity:0.30000000000000004"><path d="M358.33,404.56c-.11-.09.31-.86.95-1.73s1.24-1.5,1.36-1.42-.31.86-.94,1.73S358.45,404.64,358.33,404.56Z"></path></g><g style="opacity:0.30000000000000004"><path d="M377,405c-.13.06-.47-.41-.76-1.05s-.42-1.2-.29-1.26.48.41.77,1.05S377.12,404.92,377,405Z"></path></g><g style="opacity:0.30000000000000004"><path d="M391.67,402c.08.12-.28.5-.8.85s-1,.53-1.09.41.28-.5.8-.85S391.59,401.92,391.67,402Z"></path></g><g style="opacity:0.30000000000000004"><path d="M414.34,403.49c-.11.09-.62-.3-1.14-.88s-.86-1.12-.75-1.22.62.29,1.14.87S414.44,403.39,414.34,403.49Z"></path></g><g style="opacity:0.30000000000000004"><path d="M312.21,407.28c-.1-.1.15-.51.55-.91s.82-.66.92-.55-.14.51-.55.91S312.31,407.39,312.21,407.28Z"></path></g><g style="opacity:0.30000000000000004"><path d="M299,402.93c-.09-.12.27-.51.79-.86s1-.54,1.08-.42-.27.5-.79.85S299.12,403,299,402.93Z"></path></g><g style="opacity:0.30000000000000004"><path d="M277,406.24c-.07.12-.58-.06-.91-.6s-.28-1.07-.14-1.08.31.38.58.8S277.07,406.11,277,406.24Z"></path></g><g style="opacity:0.30000000000000004"><path d="M290.2,395.12c.11.1-.08.5-.43.91s-.72.66-.83.56.09-.5.43-.9S290.09,395,290.2,395.12Z"></path></g><path d="M265.92,394.18a8.36,8.36,0,0,0,13-8.22,6.28,6.28,0,0,0,11.52-4.47,6,6,0,0,0,8.34-.23c1.13-1.23,1.8-3,3.94-2.95a3.65,3.65,0,0,1,2.63,1.34c1.61,2,1.51,4.45,1.63,6.81.1,1.94.44,4,1.84,5.38s4.16,1.33,4.95-.44c.46-1,.34-2.55,1.4-2.91.81-.27,1.62.46,1.94,1.25a19.52,19.52,0,0,0,.78,2.42c.87,1.54,3.1,1.81,4.7,1.07a10.76,10.76,0,0,0,3.76-3.65c-.29,2.77-.57,5.65.8,8.19a5.28,5.28,0,0,0,3.63,2.8c3.42.59,5.74-2.81,6.39-6,.7-3.34.36-7,2.4-9.86a3.38,3.38,0,0,1,2.87-1.51c2.54.15,2.84,3.31,4.77,4.4s4.57-.66,6-2.59c1.57-2.18,3.09-4.93,6-4.77a5,5,0,0,1,3.49,1.88c2.79,3.33,2.17,8,5.1,11.26a4.83,4.83,0,0,0,3.52,1.7c2.85,0,4-2.62,5.46-4.64,1.22-1.68,3.55-3.16,5.26-2s1.62,4,3.51,4.55c2.34.66,3.55-3.06,5.89-3.73,3.25-.94,5,4.25,8.29,5.11,2.68.7,5.17-1.79,6.2-4.36,1.2-3,1.41-6.46,3.94-8.73a4.36,4.36,0,0,1,4.45-.9c2.25.85,1.87,2.8,2.58,4.31,1.15,2.47,6.27,2.7,7.34.19l.66-8.76a2.41,2.41,0,0,0-2.39-2.59l-152.72-.39a4.36,4.36,0,0,0-4.39,4.51Z" style="fill:#FF725E"></path><g style="opacity:0.6000000000000001"><path d="M265.49,416l44.17,1.18c14,.38,28.1.75,42-1,13.15-1.67,26.26-5.26,39.46-4,5.94.55,11.77,2.08,17.72,2.57,5.11.43,12.11,0,17.11-2.31a.67.67,0,0,0-.26-1.28c-13.07,0-27.83.05-40.66.05l-41.15,0-75.41,0a8.79,8.79,0,0,0-4.27.72,2.32,2.32,0,0,0,1.28,4.17" style="fill:#fff"></path></g><g style="opacity:0.6000000000000001"><path d="M422.74,433c-34.39-1.35-68.84-2.7-103.18-.4-15.61,1-31.44,2.83-46.8-.18a13,13,0,0,0-5.36-.34,4.67,4.67,0,0,0-1.72.8,1.93,1.93,0,0,0,.74,3.44c26.55,5.41,53.84-1.72,81-.49,9.12.41,18.22,1.74,27.34,1.35,6.26-.27,12.45-1.33,18.7-1.69,9.74-.55,19.55.63,29.25-.32.79-.07,1.81-.44,1.72-1.22S423.45,433,422.74,433Z" style="fill:#fff"></path></g><g style="opacity:0.30000000000000004"><path d="M406.89,348.85c-27.19-1.08-54.44-2.15-81.58-.32-12.35.83-24.87,2.26-37-.14a10,10,0,0,0-4.24-.28,3.86,3.86,0,0,0-1.36.64,1.55,1.55,0,0,0,.59,2.75c21,4.32,42.57-1.37,64.06-.39,7.22.33,14.41,1.39,21.62,1.08,4.95-.21,9.85-1.07,14.79-1.35,7.7-.44,15.45.5,23.13-.25.62-.07,1.42-.36,1.36-1S407.46,348.87,406.89,348.85Z"></path></g><path d="M407,347.19c-27.47-1.08-55-2.16-82.43-.32-12.47.83-25.12,2.26-37.39-.14a10.2,10.2,0,0,0-4.28-.28,4,4,0,0,0-1.38.64,1.55,1.55,0,0,0,.6,2.75c21.21,4.32,43-1.37,64.73-.39,7.28.33,14.55,1.39,21.84,1.08,5-.22,9.94-1.07,14.94-1.35,7.78-.44,15.61.5,23.37-.26.62-.06,1.44-.35,1.37-1S407.53,347.21,407,347.19Z" style="fill:#FF725E"></path><g style="opacity:0.30000000000000004"><path d="M282.44,319.91c0,6.83,5.17,13.44,10.16,15.67a20.23,20.23,0,0,0,15.95.15c4.31-1.83,8.57-5.26,13.1-4.06,2.4.64,4.26,2.5,6.24,4s4.54,2.76,6.89,1.94c3.66-1.28,4.77-6.8,8.59-7.46s7.33,4.59,11.2,3.48c2.75-.79,3.87-4.43,6.6-5.29s5.38,1.37,8.16,1.14c2.26-.19,4.17-2,6.44-2.08s4.42,1.62,5.79,3.54,2.36,4.13,4,5.81,4.35,2.69,6.4,1.51,2.45-3.59,3.11-5.72,2.16-4.5,4.39-4.35,3.92,3.14,6.29,3a3.5,3.5,0,0,0,2.89-3.11,10.15,10.15,0,0,0-.69-4.5Z"></path></g><path d="M282.44,319.64c1.76,5.18,5.17,10.25,10.16,12.48a20.18,20.18,0,0,0,15.95.16c4.31-1.83,8.57-5.26,13.1-4.06,2.4.64,4.26,2.49,6.24,4s4.54,2.76,6.89,1.94c3.66-1.27,4.77-6.8,8.59-7.46s7.33,4.6,11.2,3.48c2.75-.79,3.87-4.43,6.6-5.28s5.38,1.37,8.16,1.13c2.26-.18,4.17-2,6.44-2.08s4.42,1.62,5.79,3.54,2.36,4.13,4,5.81,4.35,2.69,6.4,1.51,2.45-3.59,3.11-5.72,2.16-4.49,4.39-4.35,3.92,3.14,6.29,3a3.51,3.51,0,0,0,2.89-3.11,14.44,14.44,0,0,0,.06-5.4Z" style="fill:#FF725E"></path><g style="opacity:0.30000000000000004"><path d="M300.14,364a14.72,14.72,0,0,1,3.21-4.4A7.32,7.32,0,0,1,302,362C301.07,363.18,300.26,364.1,300.14,364Z"></path></g><g style="opacity:0.30000000000000004"><path d="M317.74,363.15c-.09.11-.69-.26-1.34-.83s-1.1-1.11-1-1.22.7.26,1.34.83S317.84,363,317.74,363.15Z"></path></g><g style="opacity:0.30000000000000004"><path d="M311.59,367.25c.09.12-.17.47-.57.79s-.8.5-.89.39.16-.47.57-.79S311.5,367.14,311.59,367.25Z"></path></g><g style="opacity:0.30000000000000004"><path d="M334.44,359.64c-.12.08-.61-.45-1.09-1.18s-.78-1.38-.66-1.46.61.45,1.09,1.17S334.56,359.56,334.44,359.64Z"></path></g><g style="opacity:0.30000000000000004"><path d="M335.31,368.71c.11.08-.24.66-1,.94s-1.39.1-1.36,0,.56-.2,1.17-.44S335.2,368.61,335.31,368.71Z"></path></g><g style="opacity:0.30000000000000004"><path d="M351.73,361.1c-.09.11-.7-.3-1.06-1.11s-.25-1.53-.11-1.53.27.63.59,1.32S351.83,361,351.73,361.1Z"></path></g><g style="opacity:0.30000000000000004"><path d="M354.09,367.32c0,.14-.46.38-1.1.55s-1.2.19-1.24.05.46-.39,1.11-.55S354.06,367.18,354.09,367.32Z"></path></g><g style="opacity:0.30000000000000004"><path d="M367.26,360.81c-.13.06-.56-.54-1-1.35s-.62-1.52-.5-1.58.57.54,1,1.35S367.39,360.74,367.26,360.81Z"></path></g><g style="opacity:0.30000000000000004"><path d="M373.41,369c-.09-.11.27-.56.57-1.18s.46-1.17.61-1.16.22.67-.15,1.39S373.5,369.12,373.41,369Z"></path></g><g style="opacity:0.30000000000000004"><path d="M380.42,359.36c-.1.1-.65-.5-.53-1.41s.78-1.36.86-1.23-.27.59-.35,1.29S380.55,359.28,380.42,359.36Z"></path></g><g style="opacity:0.30000000000000004"><path d="M393.41,366.36c-.14,0-.39-.6-.55-1.41s-.18-1.49,0-1.52.39.61.55,1.41S393.55,366.33,393.41,366.36Z"></path></g><g style="opacity:0.30000000000000004"><path d="M399.75,364.89c-.12-.08,0-.54.37-1s.68-.81.8-.73-.05.54-.37,1S399.86,365,399.75,364.89Z"></path></g><g style="opacity:0.30000000000000004"><path d="M400.56,340.24c-.12-.08,0-.46.23-.86s.55-.67.68-.59,0,.46-.23.86S400.69,340.31,400.56,340.24Z"></path></g><g style="opacity:0.30000000000000004"><path d="M374.59,341.76c-.13.07-.57-.54-1-1.34s-.63-1.52-.5-1.59.56.54,1,1.35S374.71,341.7,374.59,341.76Z"></path></g><g style="opacity:0.30000000000000004"><path d="M377.81,334.44c-.15,0-.26-.07-.26-.15s.11-.14.26-.14.26.06.26.14S378,334.44,377.81,334.44Z"></path></g><g style="opacity:0.30000000000000004"><path d="M355.3,340.92c-.12-.09.31-.82.95-1.63s1.26-1.4,1.37-1.31-.32.82-1,1.63S355.41,341,355.3,340.92Z"></path></g><g style="opacity:0.30000000000000004"><path d="M345,338c-.13-.05,0-.61.2-1.26s.55-1.13.68-1.08.05.62-.19,1.26S345.13,338,345,338Z"></path></g><g style="opacity:0.30000000000000004"><path d="M337.08,341.18c-.06-.13.28-.43.76-.67s.93-.34,1-.21-.28.43-.76.67S337.15,341.31,337.08,341.18Z"></path></g><g style="opacity:0.30000000000000004"><path d="M319.17,339.73c-.12.08-.42-.19-.66-.59s-.35-.79-.22-.87.42.2.66.6S319.29,339.66,319.17,339.73Z"></path></g><g style="opacity:0.30000000000000004"><path d="M318.94,337.09c-.13-.07-.1-.38.06-.71s.4-.53.52-.46.11.37-.06.7S319.07,337.15,318.94,337.09Z"></path></g><g style="opacity:0.30000000000000004"><path d="M306.9,345.87c-.13.06-.62-.68-1.11-1.65s-.77-1.81-.65-1.87.63.67,1.12,1.64S307,345.8,306.9,345.87Z"></path></g><g style="opacity:0.30000000000000004"><ellipse cx="293.42" cy="340.59" rx="0.26" ry="0.88"></ellipse></g><g style="opacity:0.30000000000000004"><path d="M284.93,340.3c-.15,0-.19-.5-.11-1.06s.26-1,.4-1,.19.49.11,1.06S285.07,340.32,284.93,340.3Z"></path></g><g style="opacity:0.30000000000000004"><path d="M318.33,343.52c0,.14-.51.45-1.24.69s-1.35.33-1.4.19.51-.44,1.24-.69S318.28,343.39,318.33,343.52Z"></path></g><g style="opacity:0.8"><path d="M265.92,394.18a8.36,8.36,0,0,0,13-8.22,6.28,6.28,0,0,0,11.52-4.47,6,6,0,0,0,8.34-.23c1.13-1.23,1.8-3,3.94-2.95a3.65,3.65,0,0,1,2.63,1.34c1.61,2,1.51,4.45,1.63,6.81.1,1.94.44,4,1.84,5.38s4.16,1.33,4.95-.44c.46-1,.34-2.55,1.4-2.91.81-.27,1.62.46,1.94,1.25a19.52,19.52,0,0,0,.78,2.42c.87,1.54,3.1,1.81,4.7,1.07a10.76,10.76,0,0,0,3.76-3.65c-.29,2.77-.57,5.65.8,8.19a5.28,5.28,0,0,0,3.63,2.8c3.42.59,5.74-2.81,6.39-6,.7-3.34.36-7,2.4-9.86a3.38,3.38,0,0,1,2.87-1.51c2.54.15,2.84,3.31,4.77,4.4s4.57-.66,6-2.59c1.57-2.18,3.09-4.93,6-4.77a5,5,0,0,1,3.49,1.88c2.79,3.33,2.17,8,5.1,11.26a4.83,4.83,0,0,0,3.52,1.7c2.85,0,4-2.62,5.46-4.64,1.22-1.68,3.55-3.16,5.26-2s1.62,4,3.51,4.55c2.34.66,3.55-3.06,5.89-3.73,3.25-.94,5,4.25,8.29,5.11,2.68.7,5.17-1.79,6.2-4.36,1.2-3,1.41-6.46,3.94-8.73a4.36,4.36,0,0,1,4.45-.9c2.25.85,1.87,2.8,2.58,4.31,1.15,2.47,6.27,2.7,7.34.19l.66-8.76a2.41,2.41,0,0,0-2.39-2.59l-152.72-.39a4.36,4.36,0,0,0-4.39,4.51Z" style="fill:#fff"></path></g><g style="opacity:0.8"><path d="M282.44,319.64c1.76,5.18,5.17,10.25,10.16,12.48a20.18,20.18,0,0,0,15.95.16c4.31-1.83,8.57-5.26,13.1-4.06,2.4.64,4.26,2.49,6.24,4s4.54,2.76,6.89,1.94c3.66-1.27,4.77-6.8,8.59-7.46s7.33,4.6,11.2,3.48c2.75-.79,3.87-4.43,6.6-5.28s5.38,1.37,8.16,1.13c2.26-.18,4.17-2,6.44-2.08s4.42,1.62,5.79,3.54,2.36,4.13,4,5.81,4.35,2.69,6.4,1.51,2.45-3.59,3.11-5.72,2.16-4.49,4.39-4.35,3.92,3.14,6.29,3a3.51,3.51,0,0,0,2.89-3.11,14.44,14.44,0,0,0,.06-5.4Z" style="fill:#fff"></path></g><g style="opacity:0.8"><path d="M372.84,272.61a6.92,6.92,0,0,0-3-.48c-15.82-.2-31.23.72-47,.66a5.08,5.08,0,0,0-4.64,2.95,13.94,13.94,0,0,0-.91,2.51,7.42,7.42,0,0,0,.72,5.84,4.53,4.53,0,0,0,5.26,1.87c1.82-.76,3.11-3,5.07-2.79,2.57.26,3.21,4.37,5.75,4.81,2.18.38,3.77-2.24,4.52-4.11a5.93,5.93,0,0,1,1.58-2.35c3.32-2.85,5.54,1.9,8.41,1.27,1.94-.44,2.55-3,4.18-4.11a4.63,4.63,0,0,1,5.18.41,13.91,13.91,0,0,1,3.44,4.3,9.07,9.07,0,0,0,2.46,3,3.16,3.16,0,0,0,3.66.13,4.09,4.09,0,0,0,1.14-3.24,8.56,8.56,0,0,1,.39-3.5c.49-1.07,1.89-1.85,2.88-1.2a5.21,5.21,0,0,0,0,2.77,1.83,1.83,0,0,0,2.19,1.24c.92-.36,1.13-1.55,1.2-2.55C375.52,277.28,375.36,273.82,372.84,272.61Z" style="fill:#fff"></path></g><g style="opacity:0.6000000000000001"><path d="M407,347.19c-27.47-1.08-55-2.16-82.43-.32-12.47.83-25.12,2.26-37.39-.14a10.2,10.2,0,0,0-4.28-.28,4,4,0,0,0-1.38.64,1.55,1.55,0,0,0,.6,2.75c21.21,4.32,43-1.37,64.73-.39,7.28.33,14.55,1.39,21.84,1.08,5-.22,9.94-1.07,14.94-1.35,7.78-.44,15.61.5,23.37-.26.62-.06,1.44-.35,1.37-1S407.53,347.21,407,347.19Z" style="fill:#fff"></path></g><path d="M304.35,290.7a3.7,3.7,0,0,1-2.06-5.75c.76-1.05,2.06-1.71,2.48-2.93a10.31,10.31,0,0,0,.26-1.93,1.79,1.79,0,0,1,1.05-1.53,1.47,1.47,0,0,1,1.51.55,3.65,3.65,0,0,1,.67,1.55,11,11,0,0,1,0,6,5.55,5.55,0,0,1-3.93,4" style="fill:#FF725E"></path><rect x="302.41" y="292.29" width="3.77" height="26.91" style="fill:#455a64"></rect><path d="M306.13,294.6a13.44,13.44,0,0,1-1.76,1.52,14.06,14.06,0,0,1-1.89,1.36,12.56,12.56,0,0,1,1.76-1.52A12.74,12.74,0,0,1,306.13,294.6Z" style="fill:#263238"></path><path d="M306.13,299.34a12.61,12.61,0,0,1-1.76,1.52,13.05,13.05,0,0,1-1.89,1.36,12.56,12.56,0,0,1,1.76-1.52A12.74,12.74,0,0,1,306.13,299.34Z" style="fill:#263238"></path><path d="M306.13,304.08a11.88,11.88,0,0,1-1.76,1.52,12.17,12.17,0,0,1-1.89,1.36,14.31,14.31,0,0,1,1.76-1.52A13.71,13.71,0,0,1,306.13,304.08Z" style="fill:#263238"></path><path d="M306.13,308.82a11.88,11.88,0,0,1-1.76,1.52,12.17,12.17,0,0,1-1.89,1.36,14.31,14.31,0,0,1,1.76-1.52A14.83,14.83,0,0,1,306.13,308.82Z" style="fill:#263238"></path><path d="M306.13,313.56a12.27,12.27,0,0,1-1.76,1.53,14.06,14.06,0,0,1-1.89,1.36,13,13,0,0,1,1.76-1.53A14.83,14.83,0,0,1,306.13,313.56Z" style="fill:#263238"></path><path d="M304.36,288a25,25,0,0,1,0,4.47,22.76,22.76,0,0,1,0-4.47Z" style="fill:#263238"></path><path d="M396.94,290.44a3.7,3.7,0,0,1-2.05-5.75c.76-1,2.06-1.7,2.48-2.92a11.34,11.34,0,0,0,.26-1.93,1.78,1.78,0,0,1,1.05-1.53,1.48,1.48,0,0,1,1.51.55,3.86,3.86,0,0,1,.67,1.55,11,11,0,0,1,0,6,5.55,5.55,0,0,1-3.94,4" style="fill:#FF725E"></path><rect x="395.01" y="292.03" width="3.77" height="26.91" style="fill:#455a64"></rect><path d="M398.73,294.34a12.27,12.27,0,0,1-1.76,1.53,13.09,13.09,0,0,1-1.89,1.35,13.44,13.44,0,0,1,1.76-1.52A14.83,14.83,0,0,1,398.73,294.34Z" style="fill:#263238"></path><path d="M398.73,299.09a13.44,13.44,0,0,1-1.76,1.52,14.83,14.83,0,0,1-1.89,1.36,12.27,12.27,0,0,1,1.76-1.53A13.09,13.09,0,0,1,398.73,299.09Z" style="fill:#263238"></path><path d="M398.73,303.83a13.44,13.44,0,0,1-1.76,1.52,13.71,13.71,0,0,1-1.89,1.36,11.88,11.88,0,0,1,1.76-1.52A12.74,12.74,0,0,1,398.73,303.83Z" style="fill:#263238"></path><path d="M398.73,308.57a12.61,12.61,0,0,1-1.76,1.52,12.74,12.74,0,0,1-1.89,1.36,12.61,12.61,0,0,1,1.76-1.52A12.74,12.74,0,0,1,398.73,308.57Z" style="fill:#263238"></path><path d="M398.73,313.31a11.88,11.88,0,0,1-1.76,1.52,12.74,12.74,0,0,1-1.89,1.36,13.44,13.44,0,0,1,1.76-1.52A13.71,13.71,0,0,1,398.73,313.31Z" style="fill:#263238"></path><path d="M397,287.76a25,25,0,0,1,0,4.47,22.76,22.76,0,0,1,0-4.47Z" style="fill:#263238"></path></g></svg>